<svg width="315" height="250" viewBox="0 0 315 250" fill="none" xmlns="http://www.w3.org/2000/svg">
<g clip-path="url(#clip0_1_508)">
<rect x="0.333374" width="314.667" height="250" rx="18" fill="#DAECFF"/>
<mask id="path-3-inside-1_1_508" fill="white">
<path d="M0.333374 0H315V50H0.333374V0Z"/>
</mask>
<path d="M0.333374 0H315V50H0.333374V0Z" fill="#257BD7"/>
<path d="M315 50V48H0.333374V50V52H315V50Z" fill="#257BD7" fill-opacity="0.2" mask="url(#path-3-inside-1_1_508)"/>
<path d="M33.5298 33L32.567 30.4602H27.421L26.4582 33H24.599L28.9482 21.712H31.1228L35.472 33H33.5298ZM29.662 24.6004L27.9854 28.9994H32.0026L30.326 24.6004L29.994 23.5048L29.662 24.6004ZM36.8411 33V24.1522H38.6173V25.281C39.1817 24.368 40.0615 23.9198 41.1073 23.9198C42.2859 23.9198 43.1657 24.4344 43.5973 25.447C44.1783 24.4344 45.1411 23.9198 46.3031 23.9198C48.0461 23.9198 49.1749 24.9988 49.1749 27.0904V33H47.3987V27.4556C47.3987 26.1774 46.9173 25.3972 45.8217 25.3972C44.6265 25.3972 43.8961 26.5758 43.8961 27.8042V33H42.1199V27.4556C42.1199 26.1774 41.6219 25.3972 40.5429 25.3972C39.3477 25.3972 38.6173 26.5758 38.6173 27.8042V33H36.8411ZM53.1099 33H51.3337V21.048H53.1099V25.1814C53.6743 24.368 54.5043 23.9198 55.5169 23.9198C57.8409 23.9198 59.2519 25.6628 59.2519 28.5512C59.2519 31.5558 57.8077 33.2158 55.5169 33.2158C54.5043 33.2158 53.6743 32.8008 53.1099 32.004V33ZM55.2845 25.4138C53.8569 25.4138 53.1099 26.526 53.1099 28.5512C53.1099 30.5764 53.8901 31.7218 55.2845 31.7218C56.6789 31.7218 57.4425 30.6096 57.4425 28.5512C57.4425 26.5426 56.6623 25.4138 55.2845 25.4138ZM60.9792 23.0566V21.048H62.7554V23.0566H60.9792ZM60.9792 33V24.1522H62.7554V33H60.9792ZM72.754 30.1116C72.2726 32.17 70.7454 33.2158 68.6704 33.2158C66.0642 33.2158 64.4706 31.4728 64.4706 28.5844C64.4706 25.5798 66.0642 23.9198 68.5874 23.9198C71.1438 23.9198 72.6876 25.6462 72.6876 28.4848V28.9164H66.28C66.3796 30.7258 67.2262 31.7384 68.6704 31.7384C69.7992 31.7384 70.596 31.2072 70.8948 30.1116H72.754ZM68.5874 25.3972C67.3092 25.3972 66.5456 26.2106 66.3298 27.7046H70.845C70.6292 26.2106 69.849 25.3972 68.5874 25.3972ZM74.4667 33V24.1522H76.2429V25.3308C76.8405 24.3846 77.7701 23.9198 78.9155 23.9198C80.7581 23.9198 81.9035 24.9988 81.9035 27.0904V33H80.1439V27.4556C80.1439 26.1774 79.5795 25.3972 78.3677 25.3972C77.0397 25.3972 76.2429 26.5758 76.2429 27.8042V33H74.4667ZM84.2959 30.3606V25.53H83.1007V24.1522H84.2959V22.1104H86.0721V24.1522H87.9811V25.53H86.0721V30.261C86.0721 31.2736 86.3543 31.755 87.5993 31.755H87.9479V33.0498C87.7487 33.1494 87.3337 33.2158 86.8357 33.2158C85.1093 33.2158 84.2959 32.2696 84.2959 30.3606ZM100.189 33L99.2264 30.4602H94.0804L93.1176 33H91.2584L95.6076 21.712H97.7822L102.131 33H100.189ZM96.3214 24.6004L94.6448 28.9994H98.662L96.9854 24.6004L96.6534 23.5048L96.3214 24.6004ZM103.633 33V21.712H105.492V33H103.633ZM118.653 33L117.691 30.4602H112.545L111.582 33H109.723L114.072 21.712H116.246L120.596 33H118.653ZM114.786 24.6004L113.109 28.9994H117.126L115.45 24.6004L115.118 23.5048L114.786 24.6004ZM123.133 26.4762C123.133 28.7338 128.793 26.8414 128.793 30.4436C128.793 32.1202 127.283 33.2158 125.141 33.2158C123 33.2158 121.489 32.2198 121.157 30.1116H122.933C123.116 31.2238 123.946 31.838 125.191 31.838C126.386 31.838 127.017 31.3068 127.017 30.5598C127.017 28.352 121.439 30.2112 121.439 26.5758C121.439 25.198 122.518 23.9198 124.759 23.9198C126.735 23.9198 128.196 24.8328 128.478 27.0406H126.702C126.502 25.7956 125.805 25.3308 124.676 25.3308C123.697 25.3308 123.133 25.8122 123.133 26.4762ZM131.822 26.4762C131.822 28.7338 137.482 26.8414 137.482 30.4436C137.482 32.1202 135.972 33.2158 133.83 33.2158C131.689 33.2158 130.178 32.2198 129.846 30.1116H131.622C131.805 31.2238 132.635 31.838 133.88 31.838C135.075 31.838 135.706 31.3068 135.706 30.5598C135.706 28.352 130.128 30.2112 130.128 26.5758C130.128 25.198 131.207 23.9198 133.448 23.9198C135.424 23.9198 136.885 24.8328 137.167 27.0406H135.391C135.191 25.7956 134.494 25.3308 133.365 25.3308C132.386 25.3308 131.822 25.8122 131.822 26.4762ZM139.1 23.0566V21.048H140.876V23.0566H139.1ZM139.1 33V24.1522H140.876V33H139.1ZM144.434 26.4762C144.434 28.7338 150.094 26.8414 150.094 30.4436C150.094 32.1202 148.584 33.2158 146.442 33.2158C144.301 33.2158 142.79 32.2198 142.458 30.1116H144.235C144.417 31.2238 145.247 31.838 146.492 31.838C147.687 31.838 148.318 31.3068 148.318 30.5598C148.318 28.352 142.741 30.2112 142.741 26.5758C142.741 25.198 143.82 23.9198 146.061 23.9198C148.036 23.9198 149.497 24.8328 149.779 27.0406H148.003C147.804 25.7956 147.106 25.3308 145.978 25.3308C144.998 25.3308 144.434 25.8122 144.434 26.4762ZM151.944 30.3606V25.53H150.749V24.1522H151.944V22.1104H153.72V24.1522H155.629V25.53H153.72V30.261C153.72 31.2736 154.003 31.755 155.248 31.755H155.596V33.0498C155.397 33.1494 154.982 33.2158 154.484 33.2158C152.758 33.2158 151.944 32.2696 151.944 30.3606ZM158.641 27.0406H156.865C157.147 25.0818 158.491 23.9198 160.699 23.9198C163.106 23.9198 164.301 25.3308 164.301 27.3892V30.842C164.301 31.9044 164.401 32.5186 164.6 33H162.741C162.608 32.668 162.558 32.2032 162.542 31.7052C161.795 32.751 160.649 33.2158 159.587 33.2158C157.794 33.2158 156.566 32.3692 156.566 30.676C156.566 29.4642 157.23 28.5678 158.558 28.1196C159.736 27.7212 160.932 27.6216 162.525 27.605V27.4058C162.525 26.111 161.928 25.4138 160.566 25.4138C159.421 25.4138 158.807 26.0446 158.641 27.0406ZM158.359 30.6096C158.359 31.3566 158.973 31.8214 159.919 31.8214C161.396 31.8214 162.525 30.6428 162.525 29.2152V28.8168C159.122 28.85 158.359 29.597 158.359 30.6096ZM166.529 33V24.1522H168.305V25.3308C168.902 24.3846 169.832 23.9198 170.977 23.9198C172.82 23.9198 173.965 24.9988 173.965 27.0904V33H172.206V27.4556C172.206 26.1774 171.641 25.3972 170.43 25.3972C169.102 25.3972 168.305 26.5758 168.305 27.8042V33H166.529ZM176.358 30.3606V25.53H175.163V24.1522H176.358V22.1104H178.134V24.1522H180.043V25.53H178.134V30.261C178.134 31.2736 178.416 31.755 179.661 31.755H180.01V33.0498C179.811 33.1494 179.396 33.2158 178.898 33.2158C177.171 33.2158 176.358 32.2696 176.358 30.3606ZM182.789 26.4762C182.789 28.7338 188.449 26.8414 188.449 30.4436C188.449 32.1202 186.939 33.2158 184.797 33.2158C182.656 33.2158 181.145 32.2198 180.813 30.1116H182.59C182.772 31.2238 183.602 31.838 184.847 31.838C186.042 31.838 186.673 31.3068 186.673 30.5598C186.673 28.352 181.096 30.2112 181.096 26.5758C181.096 25.198 182.175 23.9198 184.416 23.9198C186.391 23.9198 187.852 24.8328 188.134 27.0406H186.358C186.159 25.7956 185.461 25.3308 184.333 25.3308C183.353 25.3308 182.789 25.8122 182.789 26.4762Z" fill="white"/>
<path fill-rule="evenodd" clip-rule="evenodd" d="M36.3334 90.0625C31.8806 90.0625 28.2709 86.4528 28.2709 82C28.2709 77.5473 31.8806 73.9375 36.3334 73.9375C40.7861 73.9375 44.3959 77.5473 44.3959 82C44.3959 86.4528 40.7861 90.0625 36.3334 90.0625ZM39.6934 80.0335C40.0571 79.8347 40.1906 79.3788 39.9919 79.015C39.7931 78.652 39.3371 78.5185 38.9734 78.7172C37.6024 79.4672 36.4684 80.9148 35.7056 82.0825C35.4236 82.5138 35.1829 82.9225 34.9901 83.2683C34.8109 83.0943 34.6331 82.9428 34.4734 82.8168C34.2656 82.6525 34.0781 82.5228 33.9416 82.4328L33.7054 82.2865C33.3454 82.081 32.8871 82.2062 32.6824 82.5662C32.4769 82.9255 32.6021 83.3837 32.9614 83.5892L33.1196 83.6875C33.2269 83.758 33.3769 83.8615 33.5434 83.9935C33.8869 84.265 34.2566 84.6205 34.4899 85.0105C34.6331 85.249 34.8964 85.3893 35.1746 85.3743C35.4529 85.3585 35.6996 85.1905 35.8159 84.937L35.8894 84.7832C35.9404 84.679 36.0161 84.5275 36.1151 84.34C36.3131 83.9658 36.6019 83.4527 36.9611 82.9022C37.6991 81.7735 38.6651 80.596 39.6934 80.0335Z" fill="#005ABB"/>
<path d="M53.5424 88V77.46H60.6879V78.6225H54.9684V82.234H60.1144V83.3965H54.9684V88H53.5424ZM65.364 88.186C63.008 88.186 61.5975 86.574 61.5975 83.8925C61.5975 81.1025 63.0545 79.568 65.364 79.568C67.72 79.568 69.1305 81.211 69.1305 83.8925C69.1305 86.667 67.6735 88.186 65.364 88.186ZM65.364 87.008C66.8985 87.008 67.7355 85.9075 67.7355 83.8925C67.7355 81.893 66.883 80.746 65.364 80.746C63.8295 80.746 62.9925 81.862 62.9925 83.8925C62.9925 85.8765 63.845 87.008 65.364 87.008ZM77.6906 82.606H76.3266C76.1096 81.3505 75.2726 80.746 74.1876 80.746C72.6686 80.746 71.8626 81.862 71.8626 83.8925C71.8626 85.892 72.7151 87.0235 74.2341 87.0235C75.3346 87.0235 76.1251 86.4345 76.3886 85.2565H77.7526C77.3806 87.3025 76.0011 88.186 74.2031 88.186C71.8626 88.186 70.4676 86.5585 70.4676 83.8925C70.4676 81.1025 71.8936 79.568 74.1876 79.568C76.0011 79.568 77.4271 80.591 77.6906 82.606ZM84.6774 84.6365V79.7695H86.0414V88H84.6774V86.884C84.1194 87.752 83.2514 88.186 82.1819 88.186C80.4614 88.186 79.4384 87.1785 79.4384 85.272V79.7695H80.8024V84.993C80.8024 86.233 81.3449 87.0235 82.5539 87.0235C83.8869 87.0235 84.6774 85.8145 84.6774 84.6365ZM89.2252 81.8775C89.2252 84.1715 94.5727 82.2805 94.5727 85.675C94.5727 87.2095 93.2087 88.186 91.2712 88.186C89.3182 88.186 87.9542 87.256 87.6442 85.3185H89.0082C89.1942 86.4655 90.0467 87.101 91.3177 87.101C92.5577 87.101 93.2087 86.543 93.2087 85.768C93.2087 83.5205 87.9232 85.3805 87.9232 81.9705C87.9232 80.715 88.8997 79.568 90.9147 79.568C92.6972 79.568 94.0147 80.405 94.2782 82.451H92.9142C92.7127 81.1645 91.9997 80.684 90.8372 80.684C89.8142 80.684 89.2252 81.1955 89.2252 81.8775ZM103.309 85.3185C102.86 87.2405 101.48 88.186 99.6047 88.186C97.2177 88.186 95.7762 86.574 95.7762 83.8925C95.7762 81.1025 97.2177 79.568 99.5272 79.568C101.852 79.568 103.247 81.1645 103.247 83.784V84.125H97.1712C97.2487 85.9695 98.1167 87.008 99.6047 87.008C100.767 87.008 101.589 86.45 101.883 85.3185H103.309ZM99.5272 80.746C98.2097 80.746 97.4192 81.5675 97.2177 83.102H101.821C101.635 81.583 100.814 80.746 99.5272 80.746ZM108.149 88.186C105.964 88.186 104.646 86.574 104.646 83.8925C104.646 81.1025 105.995 79.568 108.149 79.568C109.126 79.568 109.916 79.971 110.459 80.7305V76.84H111.823V88H110.459V86.9615C109.916 87.7365 109.126 88.186 108.149 88.186ZM108.242 87.008C109.684 87.008 110.459 85.9075 110.459 83.8925C110.459 81.893 109.653 80.746 108.242 80.746C106.816 80.746 106.041 81.862 106.041 83.8925C106.041 85.8765 106.847 87.008 108.242 87.008ZM117.099 88V76.84H118.463V80.8855C119.021 80.0175 119.92 79.568 121.005 79.568C122.756 79.568 123.795 80.591 123.795 82.4975V88H122.431V82.7765C122.431 81.5365 121.873 80.7305 120.633 80.7305C119.269 80.7305 118.463 81.955 118.463 83.133V88H117.099ZM133.083 85.3185C132.634 87.2405 131.254 88.186 129.379 88.186C126.992 88.186 125.55 86.574 125.55 83.8925C125.55 81.1025 126.992 79.568 129.301 79.568C131.626 79.568 133.021 81.1645 133.021 83.784V84.125H126.945C127.023 85.9695 127.891 87.008 129.379 87.008C130.541 87.008 131.363 86.45 131.657 85.3185H133.083ZM129.301 80.746C127.984 80.746 127.193 81.5675 126.992 83.102H131.595C131.409 81.583 130.588 80.746 129.301 80.746ZM136.094 82.451H134.73C134.994 80.6375 136.187 79.568 138.202 79.568C140.403 79.568 141.473 80.8545 141.473 82.7765V86.016C141.473 86.9615 141.55 87.5505 141.767 88H140.326C140.171 87.6745 140.124 87.194 140.109 86.698C139.411 87.7365 138.295 88.186 137.303 88.186C135.598 88.186 134.451 87.3955 134.451 85.83C134.451 84.6985 135.071 83.877 136.28 83.474C137.396 83.102 138.528 83.009 140.109 82.9935V82.8075C140.109 81.4745 139.489 80.746 138.078 80.746C136.9 80.746 136.265 81.397 136.094 82.451ZM135.846 85.799C135.846 86.5585 136.482 87.008 137.443 87.008C138.962 87.008 140.109 85.8145 140.109 84.404V84.0165C136.606 84.0475 135.846 84.7915 135.846 85.799ZM145.468 88L142.399 79.7695H143.871L146.15 86.1555L146.351 86.8685L146.553 86.1555L148.831 79.7695H150.211L147.142 88H145.468ZM151.368 78.669V76.84H152.732V78.669H151.368ZM151.368 88V79.7695H152.732V88H151.368ZM154.895 88V76.84H156.259V88H154.895ZM158.794 91.596C158.484 91.596 158.158 91.5185 157.988 91.472V90.418H158.406C159.414 90.418 159.693 90.2165 160.499 88.372L160.778 87.7365L157.414 79.7695H158.887L161.119 85.21L161.491 86.3105L161.863 85.21L164.033 79.7695H165.428L161.584 89.085C160.762 91.069 160.22 91.596 158.794 91.596ZM173.047 88.186C170.691 88.186 169.28 86.574 169.28 83.8925C169.28 81.1025 170.737 79.568 173.047 79.568C175.403 79.568 176.813 81.211 176.813 83.8925C176.813 86.667 175.356 88.186 173.047 88.186ZM173.047 87.008C174.581 87.008 175.418 85.9075 175.418 83.8925C175.418 81.893 174.566 80.746 173.047 80.746C171.512 80.746 170.675 81.862 170.675 83.8925C170.675 85.8765 171.528 87.008 173.047 87.008ZM178.569 88V79.7695H179.933V80.8855C180.491 80.0175 181.39 79.568 182.475 79.568C184.226 79.568 185.265 80.591 185.265 82.4975V88H183.901V82.7765C183.901 81.5365 183.343 80.7305 182.103 80.7305C180.739 80.7305 179.933 81.955 179.933 83.133V88H178.569ZM191.906 88H190.542V76.84H191.906V80.7925C192.448 80.0175 193.239 79.568 194.215 79.568C196.401 79.568 197.718 81.18 197.718 83.8615C197.718 86.6515 196.37 88.186 194.215 88.186C193.239 88.186 192.448 87.783 191.906 87.0235V88ZM194.122 80.746C192.681 80.746 191.906 81.8465 191.906 83.8615C191.906 85.861 192.712 87.008 194.122 87.008C195.548 87.008 196.323 85.892 196.323 83.8615C196.323 81.8775 195.517 80.746 194.122 80.746ZM200.728 82.451H199.364C199.628 80.6375 200.821 79.568 202.836 79.568C205.037 79.568 206.107 80.8545 206.107 82.7765V86.016C206.107 86.9615 206.184 87.5505 206.401 88H204.96C204.805 87.6745 204.758 87.194 204.743 86.698C204.045 87.7365 202.929 88.186 201.937 88.186C200.232 88.186 199.085 87.3955 199.085 85.83C199.085 84.6985 199.705 83.877 200.914 83.474C202.03 83.102 203.162 83.009 204.743 82.9935V82.8075C204.743 81.4745 204.123 80.746 202.712 80.746C201.534 80.746 200.899 81.397 200.728 82.451ZM200.48 85.799C200.48 86.5585 201.116 87.008 202.077 87.008C203.596 87.008 204.743 85.8145 204.743 84.404V84.0165C201.24 84.0475 200.48 84.7915 200.48 85.799ZM215.147 82.606H213.783C213.566 81.3505 212.729 80.746 211.644 80.746C210.125 80.746 209.319 81.862 209.319 83.8925C209.319 85.892 210.172 87.0235 211.691 87.0235C212.791 87.0235 213.582 86.4345 213.845 85.2565H215.209C214.837 87.3025 213.458 88.186 211.66 88.186C209.319 88.186 207.924 86.5585 207.924 83.8925C207.924 81.1025 209.35 79.568 211.644 79.568C213.458 79.568 214.884 80.591 215.147 82.606ZM216.895 88V76.84H218.259V83.3035L221.808 79.7695H223.482L219.731 83.443L223.699 88H221.963L218.259 83.7995V88H216.895ZM231.442 85.3185C230.992 87.2405 229.613 88.186 227.737 88.186C225.35 88.186 223.909 86.574 223.909 83.8925C223.909 81.1025 225.35 79.568 227.66 79.568C229.985 79.568 231.38 81.1645 231.38 83.784V84.125H225.304C225.381 85.9695 226.249 87.008 227.737 87.008C228.9 87.008 229.721 86.45 230.016 85.3185H231.442ZM227.66 80.746C226.342 80.746 225.552 81.5675 225.35 83.102H229.954C229.768 81.583 228.946 80.746 227.66 80.746ZM233.197 88V79.7695H234.561V80.8855C235.119 80.0175 236.018 79.568 237.103 79.568C238.855 79.568 239.893 80.591 239.893 82.4975V88H238.529V82.7765C238.529 81.5365 237.971 80.7305 236.731 80.7305C235.367 80.7305 234.561 81.955 234.561 83.133V88H233.197ZM245.152 88.186C242.966 88.186 241.649 86.574 241.649 83.8925C241.649 81.1025 242.997 79.568 245.152 79.568C246.128 79.568 246.919 79.971 247.461 80.7305V76.84H248.825V88H247.461V86.9615C246.919 87.7365 246.128 88.186 245.152 88.186ZM245.245 87.008C246.686 87.008 247.461 85.9075 247.461 83.8925C247.461 81.893 246.655 80.746 245.245 80.746C243.819 80.746 243.044 81.862 243.044 83.8925C243.044 85.8765 243.85 87.008 245.245 87.008ZM53.6044 109.628V104.854H52.4574V103.769H53.6044V101.878H54.9684V103.769H56.7819V104.854H54.9684V109.628C54.9684 110.62 55.2629 111.085 56.4719 111.085H56.7509V112.062C56.5959 112.14 56.2549 112.186 55.8674 112.186C54.3329 112.186 53.6044 111.364 53.6044 109.628ZM58.0805 112V103.769H59.4445V105.04C60.0025 104.033 60.886 103.568 61.878 103.568C62.2035 103.568 62.498 103.645 62.653 103.769V104.994C62.4205 104.916 62.126 104.885 61.8005 104.885C60.1575 104.885 59.4445 105.908 59.4445 107.396V112H58.0805ZM64.9668 106.451H63.6028C63.8663 104.637 65.0598 103.568 67.0748 103.568C69.2758 103.568 70.3453 104.854 70.3453 106.776V110.016C70.3453 110.961 70.4228 111.55 70.6398 112H69.1983C69.0433 111.674 68.9968 111.194 68.9813 110.698C68.2838 111.736 67.1678 112.186 66.1758 112.186C64.4708 112.186 63.3238 111.395 63.3238 109.83C63.3238 108.698 63.9438 107.877 65.1528 107.474C66.2688 107.102 67.4003 107.009 68.9813 106.993V106.807C68.9813 105.474 68.3613 104.746 66.9508 104.746C65.7728 104.746 65.1373 105.397 64.9668 106.451ZM64.7188 109.799C64.7188 110.558 65.3543 111.008 66.3153 111.008C67.8343 111.008 68.9813 109.814 68.9813 108.404V108.017C65.4783 108.047 64.7188 108.791 64.7188 109.799ZM72.5815 112V103.769H73.9455V104.885C74.5035 104.017 75.4025 103.568 76.4875 103.568C78.239 103.568 79.2775 104.591 79.2775 106.497V112H77.9135V106.776C77.9135 105.536 77.3555 104.73 76.1155 104.73C74.7515 104.73 73.9455 105.955 73.9455 107.133V112H72.5815ZM82.4591 105.877C82.4591 108.171 87.8066 106.28 87.8066 109.675C87.8066 111.209 86.4426 112.186 84.5051 112.186C82.5521 112.186 81.1881 111.256 80.8781 109.318H82.2421C82.4281 110.465 83.2806 111.101 84.5516 111.101C85.7916 111.101 86.4426 110.543 86.4426 109.768C86.4426 107.52 81.1571 109.38 81.1571 105.97C81.1571 104.715 82.1336 103.568 84.1486 103.568C85.9311 103.568 87.2486 104.405 87.5121 106.451H86.1481C85.9466 105.164 85.2336 104.684 84.0711 104.684C83.0481 104.684 82.4591 105.195 82.4591 105.877ZM96.2331 106.606H94.8691C94.6521 105.35 93.8151 104.746 92.7301 104.746C91.2111 104.746 90.4051 105.862 90.4051 107.892C90.4051 109.892 91.2576 111.023 92.7766 111.023C93.8771 111.023 94.6676 110.434 94.9311 109.256H96.2951C95.9231 111.302 94.5436 112.186 92.7456 112.186C90.4051 112.186 89.0101 110.558 89.0101 107.892C89.0101 105.102 90.4361 103.568 92.7301 103.568C94.5436 103.568 95.9696 104.591 96.2331 106.606ZM97.9809 112V103.769H99.3449V105.04C99.9029 104.033 100.786 103.568 101.778 103.568C102.104 103.568 102.398 103.645 102.553 103.769V104.994C102.321 104.916 102.026 104.885 101.701 104.885C100.058 104.885 99.3449 105.908 99.3449 107.396V112H97.9809ZM103.763 102.669V100.84H105.127V102.669H103.763ZM103.763 112V103.769H105.127V112H103.763ZM108.669 115.41H107.305V103.769H108.669V104.792C109.212 104.017 110.002 103.568 110.979 103.568C113.164 103.568 114.482 105.18 114.482 107.861C114.482 110.651 113.133 112.186 110.979 112.186C110.002 112.186 109.212 111.783 108.669 111.023V115.41ZM110.886 104.746C109.444 104.746 108.669 105.846 108.669 107.861C108.669 109.861 109.475 111.008 110.886 111.008C112.312 111.008 113.087 109.892 113.087 107.861C113.087 105.877 112.281 104.746 110.886 104.746ZM116.422 109.628V104.854H115.275V103.769H116.422V101.878H117.786V103.769H119.599V104.854H117.786V109.628C117.786 110.62 118.08 111.085 119.289 111.085H119.568V112.062C119.413 112.14 119.072 112.186 118.685 112.186C117.15 112.186 116.422 111.364 116.422 109.628ZM120.898 102.669V100.84H122.262V102.669H120.898ZM120.898 112V103.769H122.262V112H120.898ZM127.773 112.186C125.417 112.186 124.006 110.574 124.006 107.892C124.006 105.102 125.463 103.568 127.773 103.568C130.129 103.568 131.539 105.211 131.539 107.892C131.539 110.667 130.082 112.186 127.773 112.186ZM127.773 111.008C129.307 111.008 130.144 109.907 130.144 107.892C130.144 105.893 129.292 104.746 127.773 104.746C126.238 104.746 125.401 105.862 125.401 107.892C125.401 109.876 126.254 111.008 127.773 111.008ZM133.295 112V103.769H134.659V104.885C135.217 104.017 136.116 103.568 137.201 103.568C138.952 103.568 139.991 104.591 139.991 106.497V112H138.627V106.776C138.627 105.536 138.069 104.73 136.829 104.73C135.465 104.73 134.659 105.955 134.659 107.133V112H133.295Z" fill="#005ABB"/>
<path fill-rule="evenodd" clip-rule="evenodd" d="M36.3334 146.062C31.8806 146.062 28.2709 142.453 28.2709 138C28.2709 133.547 31.8806 129.938 36.3334 129.938C40.7861 129.938 44.3959 133.547 44.3959 138C44.3959 142.453 40.7861 146.062 36.3334 146.062ZM39.6934 136.033C40.0571 135.835 40.1906 135.379 39.9919 135.015C39.7931 134.652 39.3371 134.518 38.9734 134.717C37.6024 135.467 36.4684 136.915 35.7056 138.083C35.4236 138.514 35.1829 138.923 34.9901 139.268C34.8109 139.094 34.6331 138.943 34.4734 138.817C34.2656 138.653 34.0781 138.523 33.9416 138.433L33.7054 138.286C33.3454 138.081 32.8871 138.206 32.6824 138.566C32.4769 138.925 32.6021 139.384 32.9614 139.589L33.1196 139.688C33.2269 139.758 33.3769 139.862 33.5434 139.994C33.8869 140.265 34.2566 140.621 34.4899 141.011C34.6331 141.249 34.8964 141.389 35.1746 141.374C35.4529 141.359 35.6996 141.191 35.8159 140.937L35.8894 140.783C35.9404 140.679 36.0161 140.528 36.1151 140.34C36.3131 139.966 36.6019 139.453 36.9611 138.902C37.6991 137.773 38.6651 136.596 39.6934 136.033Z" fill="#005ABB"/>
<path d="M53.5424 144V133.46H54.9684V142.837H60.2694V144H53.5424ZM63.105 138.451H61.741C62.0045 136.637 63.198 135.568 65.213 135.568C67.414 135.568 68.4835 136.854 68.4835 138.776V142.016C68.4835 142.961 68.561 143.55 68.778 144H67.3365C67.1815 143.674 67.135 143.194 67.1195 142.698C66.422 143.736 65.306 144.186 64.314 144.186C62.609 144.186 61.462 143.395 61.462 141.83C61.462 140.698 62.082 139.877 63.291 139.474C64.407 139.102 65.5385 139.009 67.1195 138.993V138.807C67.1195 137.474 66.4995 136.746 65.089 136.746C63.911 136.746 63.2755 137.397 63.105 138.451ZM62.857 141.799C62.857 142.558 63.4925 143.008 64.4535 143.008C65.9725 143.008 67.1195 141.814 67.1195 140.404V140.017C63.6165 140.047 62.857 140.791 62.857 141.799ZM77.5241 138.606H76.1601C75.9431 137.35 75.1061 136.746 74.0211 136.746C72.5021 136.746 71.6961 137.862 71.6961 139.892C71.6961 141.892 72.5486 143.023 74.0676 143.023C75.1681 143.023 75.9586 142.434 76.2221 141.256H77.5861C77.2141 143.302 75.8346 144.186 74.0366 144.186C71.6961 144.186 70.3011 142.558 70.3011 139.892C70.3011 137.102 71.7271 135.568 74.0211 135.568C75.8346 135.568 77.2606 136.591 77.5241 138.606ZM79.2719 144V132.84H80.6359V139.303L84.1854 135.769H85.8594L82.1084 139.443L86.0764 144H84.3404L80.6359 139.799V144H79.2719ZM93.8185 141.318C93.369 143.24 91.9895 144.186 90.114 144.186C87.727 144.186 86.2855 142.574 86.2855 139.892C86.2855 137.102 87.727 135.568 90.0365 135.568C92.3615 135.568 93.7565 137.164 93.7565 139.784V140.125H87.6805C87.758 141.969 88.626 143.008 90.114 143.008C91.2765 143.008 92.098 142.45 92.3925 141.318H93.8185ZM90.0365 136.746C88.719 136.746 87.9285 137.567 87.727 139.102H92.3305C92.1445 137.583 91.323 136.746 90.0365 136.746ZM98.6586 144.186C96.4731 144.186 95.1556 142.574 95.1556 139.892C95.1556 137.102 96.5041 135.568 98.6586 135.568C99.6351 135.568 100.426 135.971 100.968 136.73V132.84H102.332V144H100.968V142.961C100.426 143.736 99.6351 144.186 98.6586 144.186ZM98.7516 143.008C100.193 143.008 100.968 141.907 100.968 139.892C100.968 137.893 100.162 136.746 98.7516 136.746C97.3256 136.746 96.5506 137.862 96.5506 139.892C96.5506 141.876 97.3566 143.008 98.7516 143.008ZM107.794 141.628V136.854H106.647V135.769H107.794V133.878H109.158V135.769H110.971V136.854H109.158V141.628C109.158 142.62 109.452 143.085 110.661 143.085H110.94V144.062C110.785 144.14 110.444 144.186 110.057 144.186C108.522 144.186 107.794 143.364 107.794 141.628ZM112.27 144V135.769H113.634V137.04C114.192 136.033 115.075 135.568 116.067 135.568C116.393 135.568 116.687 135.645 116.842 135.769V136.994C116.61 136.916 116.315 136.885 115.99 136.885C114.347 136.885 113.634 137.908 113.634 139.396V144H112.27ZM119.156 138.451H117.792C118.056 136.637 119.249 135.568 121.264 135.568C123.465 135.568 124.535 136.854 124.535 138.776V142.016C124.535 142.961 124.612 143.55 124.829 144H123.388C123.233 143.674 123.186 143.194 123.171 142.698C122.473 143.736 121.357 144.186 120.365 144.186C118.66 144.186 117.513 143.395 117.513 141.83C117.513 140.698 118.133 139.877 119.342 139.474C120.458 139.102 121.59 139.009 123.171 138.993V138.807C123.171 137.474 122.551 136.746 121.14 136.746C119.962 136.746 119.327 137.397 119.156 138.451ZM118.908 141.799C118.908 142.558 119.544 143.008 120.505 143.008C122.024 143.008 123.171 141.814 123.171 140.404V140.017C119.668 140.047 118.908 140.791 118.908 141.799ZM126.771 144V135.769H128.135V136.885C128.693 136.017 129.592 135.568 130.677 135.568C132.428 135.568 133.467 136.591 133.467 138.497V144H132.103V138.776C132.103 137.536 131.545 136.73 130.305 136.73C128.941 136.73 128.135 137.955 128.135 139.133V144H126.771ZM136.649 137.877C136.649 140.171 141.996 138.28 141.996 141.675C141.996 143.209 140.632 144.186 138.695 144.186C136.742 144.186 135.378 143.256 135.068 141.318H136.432C136.618 142.465 137.47 143.101 138.741 143.101C139.981 143.101 140.632 142.543 140.632 141.768C140.632 139.52 135.347 141.38 135.347 137.97C135.347 136.715 136.323 135.568 138.338 135.568C140.121 135.568 141.438 136.405 141.702 138.451H140.338C140.136 137.164 139.423 136.684 138.261 136.684C137.238 136.684 136.649 137.195 136.649 137.877ZM144.998 147.41H143.634V135.769H144.998V136.792C145.54 136.017 146.331 135.568 147.307 135.568C149.493 135.568 150.81 137.18 150.81 139.861C150.81 142.651 149.462 144.186 147.307 144.186C146.331 144.186 145.54 143.783 144.998 143.023V147.41ZM147.214 136.746C145.773 136.746 144.998 137.846 144.998 139.861C144.998 141.861 145.804 143.008 147.214 143.008C148.64 143.008 149.415 141.892 149.415 139.861C149.415 137.877 148.609 136.746 147.214 136.746ZM153.819 138.451H152.455C152.719 136.637 153.912 135.568 155.927 135.568C158.128 135.568 159.198 136.854 159.198 138.776V142.016C159.198 142.961 159.275 143.55 159.492 144H158.051C157.896 143.674 157.849 143.194 157.834 142.698C157.136 143.736 156.02 144.186 155.028 144.186C153.323 144.186 152.176 143.395 152.176 141.83C152.176 140.698 152.796 139.877 154.005 139.474C155.121 139.102 156.253 139.009 157.834 138.993V138.807C157.834 137.474 157.214 136.746 155.803 136.746C154.625 136.746 153.99 137.397 153.819 138.451ZM153.571 141.799C153.571 142.558 154.207 143.008 155.168 143.008C156.687 143.008 157.834 141.814 157.834 140.404V140.017C154.331 140.047 153.571 140.791 153.571 141.799ZM161.434 144V135.769H162.798V137.04C163.356 136.033 164.239 135.568 165.231 135.568C165.557 135.568 165.851 135.645 166.006 135.769V136.994C165.774 136.916 165.479 136.885 165.154 136.885C163.511 136.885 162.798 137.908 162.798 139.396V144H161.434ZM174.179 141.318C173.73 143.24 172.35 144.186 170.475 144.186C168.088 144.186 166.646 142.574 166.646 139.892C166.646 137.102 168.088 135.568 170.397 135.568C172.722 135.568 174.117 137.164 174.117 139.784V140.125H168.041C168.119 141.969 168.987 143.008 170.475 143.008C171.637 143.008 172.459 142.45 172.753 141.318H174.179ZM170.397 136.746C169.08 136.746 168.289 137.567 168.088 139.102H172.691C172.505 137.583 171.684 136.746 170.397 136.746ZM175.935 144V135.769H177.299V136.885C177.857 136.017 178.756 135.568 179.841 135.568C181.592 135.568 182.631 136.591 182.631 138.497V144H181.267V138.776C181.267 137.536 180.709 136.73 179.469 136.73C178.105 136.73 177.299 137.955 177.299 139.133V144H175.935ZM191.61 138.606H190.246C190.029 137.35 189.192 136.746 188.107 136.746C186.588 136.746 185.782 137.862 185.782 139.892C185.782 141.892 186.634 143.023 188.153 143.023C189.254 143.023 190.044 142.434 190.308 141.256H191.672C191.3 143.302 189.92 144.186 188.122 144.186C185.782 144.186 184.387 142.558 184.387 139.892C184.387 137.102 185.813 135.568 188.107 135.568C189.92 135.568 191.346 136.591 191.61 138.606ZM193.502 147.596C193.192 147.596 192.867 147.519 192.696 147.472V146.418H193.115C194.122 146.418 194.401 146.217 195.207 144.372L195.486 143.736L192.123 135.769H193.595L195.827 141.21L196.199 142.31L196.571 141.21L198.741 135.769H200.136L196.292 145.085C195.471 147.069 194.928 147.596 193.502 147.596ZM204.407 134.669V132.84H205.771V134.669H204.407ZM204.407 144V135.769H205.771V144H204.407ZM207.934 144V135.769H209.298V136.885C209.856 136.017 210.755 135.568 211.84 135.568C213.591 135.568 214.63 136.591 214.63 138.497V144H213.266V138.776C213.266 137.536 212.708 136.73 211.468 136.73C210.104 136.73 209.298 137.955 209.298 139.133V144H207.934ZM219.907 144V132.84H221.271V136.885C221.829 136.017 222.728 135.568 223.813 135.568C225.565 135.568 226.603 136.591 226.603 138.497V144H225.239V138.776C225.239 137.536 224.681 136.73 223.441 136.73C222.077 136.73 221.271 137.955 221.271 139.133V144H219.907ZM232.125 144.186C229.769 144.186 228.359 142.574 228.359 139.892C228.359 137.102 229.816 135.568 232.125 135.568C234.481 135.568 235.892 137.211 235.892 139.892C235.892 142.667 234.435 144.186 232.125 144.186ZM232.125 143.008C233.66 143.008 234.497 141.907 234.497 139.892C234.497 137.893 233.644 136.746 232.125 136.746C230.591 136.746 229.754 137.862 229.754 139.892C229.754 141.876 230.606 143.008 232.125 143.008ZM244.626 144L242.844 137.846L242.658 136.916L242.472 137.846L240.705 144H239.015L236.566 135.769H238.039L239.728 142.155L239.93 142.992L240.131 142.155L242.007 135.769H243.479L245.355 142.155L245.541 142.961L245.711 142.155L247.401 135.769H248.811L246.347 144H244.626ZM256.232 144.186C254.046 144.186 252.729 142.574 252.729 139.892C252.729 137.102 254.077 135.568 256.232 135.568C257.208 135.568 257.999 135.971 258.541 136.73V132.84H259.905V144H258.541V142.961C257.999 143.736 257.208 144.186 256.232 144.186ZM256.325 143.008C257.766 143.008 258.541 141.907 258.541 139.892C258.541 137.893 257.735 136.746 256.325 136.746C254.899 136.746 254.124 137.862 254.124 139.892C254.124 141.876 254.93 143.008 256.325 143.008ZM263.334 138.451H261.97C262.233 136.637 263.427 135.568 265.442 135.568C267.643 135.568 268.712 136.854 268.712 138.776V142.016C268.712 142.961 268.79 143.55 269.007 144H267.565C267.41 143.674 267.364 143.194 267.348 142.698C266.651 143.736 265.535 144.186 264.543 144.186C262.838 144.186 261.691 143.395 261.691 141.83C261.691 140.698 262.311 139.877 263.52 139.474C264.636 139.102 265.767 139.009 267.348 138.993V138.807C267.348 137.474 266.728 136.746 265.318 136.746C264.14 136.746 263.504 137.397 263.334 138.451ZM263.086 141.799C263.086 142.558 263.721 143.008 264.682 143.008C266.201 143.008 267.348 141.814 267.348 140.404V140.017C263.845 140.047 263.086 140.791 263.086 141.799ZM271.134 141.628V136.854H269.987V135.769H271.134V133.878H272.498V135.769H274.312V136.854H272.498V141.628C272.498 142.62 272.793 143.085 274.002 143.085H274.281V144.062C274.126 144.14 273.785 144.186 273.397 144.186C271.863 144.186 271.134 143.364 271.134 141.628ZM276.866 138.451H275.502C275.765 136.637 276.959 135.568 278.974 135.568C281.175 135.568 282.244 136.854 282.244 138.776V142.016C282.244 142.961 282.322 143.55 282.539 144H281.097C280.942 143.674 280.896 143.194 280.88 142.698C280.183 143.736 279.067 144.186 278.075 144.186C276.37 144.186 275.223 143.395 275.223 141.83C275.223 140.698 275.843 139.877 277.052 139.474C278.168 139.102 279.299 139.009 280.88 138.993V138.807C280.88 137.474 280.26 136.746 278.85 136.746C277.672 136.746 277.036 137.397 276.866 138.451ZM276.618 141.799C276.618 142.558 277.253 143.008 278.214 143.008C279.733 143.008 280.88 141.814 280.88 140.404V140.017C277.377 140.047 276.618 140.791 276.618 141.799ZM60.5484 168L58.7659 161.846L58.5799 160.916L58.3939 161.846L56.6269 168H54.9374L52.4884 159.769H53.9609L55.6504 166.155L55.8519 166.992L56.0534 166.155L57.9289 159.769H59.4014L61.2769 166.155L61.4629 166.961L61.6334 166.155L63.3229 159.769H64.7334L62.2689 168H60.5484ZM67.2222 162.451H65.8582C66.1217 160.637 67.3152 159.568 69.3302 159.568C71.5312 159.568 72.6007 160.854 72.6007 162.776V166.016C72.6007 166.961 72.6782 167.55 72.8952 168H71.4537C71.2987 167.674 71.2522 167.194 71.2367 166.698C70.5392 167.736 69.4232 168.186 68.4312 168.186C66.7262 168.186 65.5792 167.395 65.5792 165.83C65.5792 164.698 66.1992 163.877 67.4082 163.474C68.5242 163.102 69.6557 163.009 71.2367 162.993V162.807C71.2367 161.474 70.6167 160.746 69.2062 160.746C68.0282 160.746 67.3927 161.397 67.2222 162.451ZM66.9742 165.799C66.9742 166.558 67.6097 167.008 68.5707 167.008C70.0897 167.008 71.2367 165.814 71.2367 164.404V164.017C67.7337 164.047 66.9742 164.791 66.9742 165.799ZM75.8443 161.877C75.8443 164.171 81.1918 162.28 81.1918 165.675C81.1918 167.209 79.8278 168.186 77.8903 168.186C75.9373 168.186 74.5733 167.256 74.2633 165.318H75.6273C75.8133 166.465 76.6658 167.101 77.9368 167.101C79.1768 167.101 79.8278 166.543 79.8278 165.768C79.8278 163.52 74.5423 165.38 74.5423 161.97C74.5423 160.715 75.5188 159.568 77.5338 159.568C79.3163 159.568 80.6338 160.405 80.8973 162.451H79.5333C79.3318 161.164 78.6188 160.684 77.4563 160.684C76.4333 160.684 75.8443 161.195 75.8443 161.877ZM91.1559 164.636V159.769H92.5199V168H91.1559V166.884C90.5979 167.752 89.7299 168.186 88.6604 168.186C86.9399 168.186 85.9169 167.178 85.9169 165.272V159.769H87.2809V164.993C87.2809 166.233 87.8234 167.023 89.0324 167.023C90.3654 167.023 91.1559 165.814 91.1559 164.636ZM95.7037 161.877C95.7037 164.171 101.051 162.28 101.051 165.675C101.051 167.209 99.6872 168.186 97.7497 168.186C95.7967 168.186 94.4327 167.256 94.1227 165.318H95.4867C95.6727 166.465 96.5252 167.101 97.7962 167.101C99.0362 167.101 99.6872 166.543 99.6872 165.768C99.6872 163.52 94.4017 165.38 94.4017 161.97C94.4017 160.715 95.3782 159.568 97.3932 159.568C99.1757 159.568 100.493 160.405 100.757 162.451H99.3927C99.1912 161.164 98.4782 160.684 97.3157 160.684C96.2927 160.684 95.7037 161.195 95.7037 161.877ZM109.788 165.318C109.338 167.24 107.959 168.186 106.083 168.186C103.696 168.186 102.255 166.574 102.255 163.892C102.255 161.102 103.696 159.568 106.006 159.568C108.331 159.568 109.726 161.164 109.726 163.784V164.125H103.65C103.727 165.969 104.595 167.008 106.083 167.008C107.246 167.008 108.067 166.45 108.362 165.318H109.788ZM106.006 160.746C104.688 160.746 103.898 161.567 103.696 163.102H108.3C108.114 161.583 107.292 160.746 106.006 160.746ZM114.628 168.186C112.442 168.186 111.125 166.574 111.125 163.892C111.125 161.102 112.473 159.568 114.628 159.568C115.604 159.568 116.395 159.971 116.937 160.73V156.84H118.301V168H116.937V166.961C116.395 167.736 115.604 168.186 114.628 168.186ZM114.721 167.008C116.162 167.008 116.937 165.907 116.937 163.892C116.937 161.893 116.131 160.746 114.721 160.746C113.295 160.746 112.52 161.862 112.52 163.892C112.52 165.876 113.326 167.008 114.721 167.008Z" fill="#005ABB"/>
<path fill-rule="evenodd" clip-rule="evenodd" d="M36.3334 202.062C31.8806 202.062 28.2709 198.453 28.2709 194C28.2709 189.547 31.8806 185.938 36.3334 185.938C40.7861 185.938 44.3959 189.547 44.3959 194C44.3959 198.453 40.7861 202.062 36.3334 202.062ZM39.6934 192.033C40.0571 191.835 40.1906 191.379 39.9919 191.015C39.7931 190.652 39.3371 190.518 38.9734 190.717C37.6024 191.467 36.4684 192.915 35.7056 194.083C35.4236 194.514 35.1829 194.923 34.9901 195.268C34.8109 195.094 34.6331 194.943 34.4734 194.817C34.2656 194.653 34.0781 194.523 33.9416 194.433L33.7054 194.286C33.3454 194.081 32.8871 194.206 32.6824 194.566C32.4769 194.925 32.6021 195.384 32.9614 195.589L33.1196 195.688C33.2269 195.758 33.3769 195.862 33.5434 195.994C33.8869 196.265 34.2566 196.621 34.4899 197.011C34.6331 197.249 34.8964 197.389 35.1746 197.374C35.4529 197.359 35.6996 197.191 35.8159 196.937L35.8894 196.783C35.9404 196.679 36.0161 196.528 36.1151 196.34C36.3131 195.966 36.6019 195.453 36.9611 194.902C37.6991 193.773 38.6651 192.596 39.6934 192.033Z" fill="#005ABB"/>
<path d="M58.1304 200.186C55.0459 200.186 53.1549 198.109 53.1549 194.745C53.1549 191.382 55.0459 189.274 58.1304 189.274C61.1994 189.274 63.1059 191.382 63.1059 194.745C63.1059 198.109 61.1994 200.186 58.1304 200.186ZM58.1304 198.961C60.3314 198.961 61.6489 197.365 61.6489 194.745C61.6489 192.11 60.3314 190.498 58.1304 190.498C55.9294 190.498 54.6119 192.11 54.6119 194.745C54.6119 197.365 55.9294 198.961 58.1304 198.961ZM64.0056 192.854V191.769H65.1526V191.211C65.1526 189.475 65.8656 188.654 67.3846 188.654C67.7256 188.654 68.0046 188.716 68.1441 188.778V189.754H68.0046C66.8111 189.754 66.5166 190.219 66.5166 191.211V191.769H68.1441V192.854H66.5166V200H65.1526V192.854H64.0056ZM69.4222 197.628V192.854H68.2752V191.769H69.4222V189.878H70.7862V191.769H72.5997V192.854H70.7862V197.628C70.7862 198.62 71.0807 199.085 72.2897 199.085H72.5687V200.062C72.4137 200.14 72.0727 200.186 71.6852 200.186C70.1507 200.186 69.4222 199.364 69.4222 197.628ZM81.0129 197.318C80.5634 199.24 79.1839 200.186 77.3084 200.186C74.9214 200.186 73.4799 198.574 73.4799 195.892C73.4799 193.102 74.9214 191.568 77.2309 191.568C79.5559 191.568 80.9509 193.164 80.9509 195.784V196.125H74.8749C74.9524 197.969 75.8204 199.008 77.3084 199.008C78.4709 199.008 79.2924 198.45 79.5869 197.318H81.0129ZM77.2309 192.746C75.9134 192.746 75.1229 193.567 74.9214 195.102H79.5249C79.3389 193.583 78.5174 192.746 77.2309 192.746ZM82.7685 200V191.769H84.1325V192.885C84.6905 192.017 85.5895 191.568 86.6745 191.568C88.426 191.568 89.4645 192.591 89.4645 194.497V200H88.1005V194.776C88.1005 193.536 87.5425 192.73 86.3025 192.73C84.9385 192.73 84.1325 193.955 84.1325 195.133V200H82.7685ZM93.7341 192.854V191.769H94.8811V191.211C94.8811 189.475 95.5941 188.654 97.1131 188.654C97.4541 188.654 97.7331 188.716 97.8726 188.778V189.754H97.7331C96.5396 189.754 96.2451 190.219 96.2451 191.211V191.769H97.8726V192.854H96.2451V200H94.8811V192.854H93.7341ZM106.079 197.318C105.63 199.24 104.25 200.186 102.375 200.186C99.9878 200.186 98.5463 198.574 98.5463 195.892C98.5463 193.102 99.9878 191.568 102.297 191.568C104.622 191.568 106.017 193.164 106.017 195.784V196.125H99.9413C100.019 197.969 100.887 199.008 102.375 199.008C103.537 199.008 104.359 198.45 104.653 197.318H106.079ZM102.297 192.746C100.98 192.746 100.189 193.567 99.9878 195.102H104.591C104.405 193.583 103.584 192.746 102.297 192.746ZM107.835 200V188.84H109.199V200H107.835ZM111.548 197.628V192.854H110.401V191.769H111.548V189.878H112.912V191.769H114.725V192.854H112.912V197.628C112.912 198.62 113.206 199.085 114.415 199.085H114.694V200.062C114.539 200.14 114.198 200.186 113.811 200.186C112.276 200.186 111.548 199.364 111.548 197.628ZM119.127 190.669V188.84H120.491V190.669H119.127ZM119.127 200V191.769H120.491V200H119.127ZM122.654 200V191.769H124.018V192.885C124.576 192.017 125.475 191.568 126.56 191.568C128.311 191.568 129.35 192.591 129.35 194.497V200H127.986V194.776C127.986 193.536 127.428 192.73 126.188 192.73C124.824 192.73 124.018 193.955 124.018 195.133V200H122.654ZM133.283 200L130.214 191.769H131.686L133.965 198.155L134.166 198.868L134.368 198.155L136.646 191.769H138.026L134.957 200H133.283ZM140.439 194.451H139.075C139.338 192.637 140.532 191.568 142.547 191.568C144.748 191.568 145.817 192.854 145.817 194.776V198.016C145.817 198.961 145.895 199.55 146.112 200H144.67C144.515 199.674 144.469 199.194 144.453 198.698C143.756 199.736 142.64 200.186 141.648 200.186C139.943 200.186 138.796 199.395 138.796 197.83C138.796 196.698 139.416 195.877 140.625 195.474C141.741 195.102 142.872 195.009 144.453 194.993V194.807C144.453 193.474 143.833 192.746 142.423 192.746C141.245 192.746 140.609 193.397 140.439 194.451ZM140.191 197.799C140.191 198.558 140.826 199.008 141.787 199.008C143.306 199.008 144.453 197.814 144.453 196.404V196.017C140.95 196.047 140.191 196.791 140.191 197.799ZM149.061 193.877C149.061 196.171 154.408 194.28 154.408 197.675C154.408 199.209 153.044 200.186 151.107 200.186C149.154 200.186 147.79 199.256 147.48 197.318H148.844C149.03 198.465 149.882 199.101 151.153 199.101C152.393 199.101 153.044 198.543 153.044 197.768C153.044 195.52 147.759 197.38 147.759 193.97C147.759 192.715 148.735 191.568 150.75 191.568C152.533 191.568 153.85 192.405 154.114 194.451H152.75C152.548 193.164 151.835 192.684 150.673 192.684C149.65 192.684 149.061 193.195 149.061 193.877ZM156.03 190.669V188.84H157.394V190.669H156.03ZM156.03 200V191.769H157.394V200H156.03ZM161.619 200L158.55 191.769H160.022L162.301 198.155L162.502 198.868L162.704 198.155L164.982 191.769H166.362L163.293 200H161.619ZM174.633 197.318C174.184 199.24 172.804 200.186 170.929 200.186C168.542 200.186 167.1 198.574 167.1 195.892C167.1 193.102 168.542 191.568 170.851 191.568C173.176 191.568 174.571 193.164 174.571 195.784V196.125H168.495C168.573 197.969 169.441 199.008 170.929 199.008C172.091 199.008 172.913 198.45 173.207 197.318H174.633ZM170.851 192.746C169.534 192.746 168.743 193.567 168.542 195.102H173.145C172.959 193.583 172.138 192.746 170.851 192.746ZM186.622 200L184.84 193.846L184.654 192.916L184.468 193.846L182.701 200H181.011L178.562 191.769H180.035L181.724 198.155L181.926 198.992L182.127 198.155L184.003 191.769H185.475L187.351 198.155L187.537 198.961L187.707 198.155L189.397 191.769H190.807L188.343 200H186.622ZM192.04 190.669V188.84H193.404V190.669H192.04ZM192.04 200V191.769H193.404V200H192.04ZM195.753 197.628V192.854H194.606V191.769H195.753V189.878H197.117V191.769H198.931V192.854H197.117V197.628C197.117 198.62 197.412 199.085 198.621 199.085H198.9V200.062C198.745 200.14 198.404 200.186 198.016 200.186C196.482 200.186 195.753 199.364 195.753 197.628ZM200.229 200V188.84H201.593V192.885C202.151 192.017 203.05 191.568 204.135 191.568C205.887 191.568 206.925 192.591 206.925 194.497V200H205.561V194.776C205.561 193.536 205.003 192.73 203.763 192.73C202.399 192.73 201.593 193.955 201.593 195.133V200H200.229ZM212.448 200.186C210.092 200.186 208.681 198.574 208.681 195.892C208.681 193.102 210.138 191.568 212.448 191.568C214.804 191.568 216.214 193.211 216.214 195.892C216.214 198.667 214.757 200.186 212.448 200.186ZM212.448 199.008C213.982 199.008 214.819 197.907 214.819 195.892C214.819 193.893 213.967 192.746 212.448 192.746C210.913 192.746 210.076 193.862 210.076 195.892C210.076 197.876 210.929 199.008 212.448 199.008ZM223.209 196.636V191.769H224.573V200H223.209V198.884C222.651 199.752 221.783 200.186 220.713 200.186C218.993 200.186 217.97 199.178 217.97 197.272V191.769H219.334V196.993C219.334 198.233 219.876 199.023 221.085 199.023C222.418 199.023 223.209 197.814 223.209 196.636ZM226.935 197.628V192.854H225.788V191.769H226.935V189.878H228.299V191.769H230.112V192.854H228.299V197.628C228.299 198.62 228.593 199.085 229.802 199.085H230.081V200.062C229.926 200.14 229.585 200.186 229.198 200.186C227.663 200.186 226.935 199.364 226.935 197.628ZM235.522 193.877C235.522 196.171 240.869 194.28 240.869 197.675C240.869 199.209 239.505 200.186 237.568 200.186C235.615 200.186 234.251 199.256 233.941 197.318H235.305C235.491 198.465 236.343 199.101 237.614 199.101C238.854 199.101 239.505 198.543 239.505 197.768C239.505 195.52 234.22 197.38 234.22 193.97C234.22 192.715 235.196 191.568 237.211 191.568C238.994 191.568 240.311 192.405 240.575 194.451H239.211C239.009 193.164 238.296 192.684 237.134 192.684C236.111 192.684 235.522 193.195 235.522 193.877ZM242.677 197.628V192.854H241.53V191.769H242.677V189.878H244.041V191.769H245.855V192.854H244.041V197.628C244.041 198.62 244.336 199.085 245.545 199.085H245.824V200.062C245.669 200.14 245.328 200.186 244.94 200.186C243.406 200.186 242.677 199.364 242.677 197.628ZM247.153 200V191.769H248.517V193.04C249.075 192.033 249.959 191.568 250.951 191.568C251.276 191.568 251.571 191.645 251.726 191.769V192.994C251.493 192.916 251.199 192.885 250.873 192.885C249.23 192.885 248.517 193.908 248.517 195.396V200H247.153ZM256.132 200.186C253.776 200.186 252.366 198.574 252.366 195.892C252.366 193.102 253.823 191.568 256.132 191.568C258.488 191.568 259.899 193.211 259.899 195.892C259.899 198.667 258.442 200.186 256.132 200.186ZM256.132 199.008C257.667 199.008 258.504 197.907 258.504 195.892C258.504 193.893 257.651 192.746 256.132 192.746C254.598 192.746 253.761 193.862 253.761 195.892C253.761 197.876 254.613 199.008 256.132 199.008ZM261.654 200V191.769H263.018V192.885C263.576 192.017 264.475 191.568 265.56 191.568C267.312 191.568 268.35 192.591 268.35 194.497V200H266.986V194.776C266.986 193.536 266.428 192.73 265.188 192.73C263.824 192.73 263.018 193.955 263.018 195.133V200H261.654ZM273.454 200.062C271.361 200.062 270.106 198.465 270.106 195.83C270.106 193.071 271.392 191.568 273.454 191.568C274.554 191.568 275.376 191.955 275.918 192.668V191.769H277.282V200.248C277.282 202.542 275.81 203.612 273.919 203.612C271.981 203.612 270.617 202.682 270.323 200.806H271.687C271.857 201.891 272.71 202.48 273.903 202.48C275.112 202.48 275.918 201.829 275.918 200.295V198.884C275.345 199.659 274.508 200.062 273.454 200.062ZM273.702 198.884C275.143 198.884 275.918 197.799 275.918 195.815C275.918 193.877 275.112 192.746 273.702 192.746C272.276 192.746 271.501 193.831 271.501 195.83C271.501 197.768 272.291 198.884 273.702 198.884ZM60.2229 218.606H58.8589C58.6419 217.35 57.8049 216.746 56.7199 216.746C55.2009 216.746 54.3949 217.862 54.3949 219.892C54.3949 221.892 55.2474 223.023 56.7664 223.023C57.8669 223.023 58.6574 222.434 58.9209 221.256H60.2849C59.9129 223.302 58.5334 224.186 56.7354 224.186C54.3949 224.186 52.9999 222.558 52.9999 219.892C52.9999 217.102 54.4259 215.568 56.7199 215.568C58.5334 215.568 59.9594 216.591 60.2229 218.606ZM65.3186 224.186C62.9626 224.186 61.5521 222.574 61.5521 219.892C61.5521 217.102 63.0091 215.568 65.3186 215.568C67.6746 215.568 69.0851 217.211 69.0851 219.892C69.0851 222.667 67.6281 224.186 65.3186 224.186ZM65.3186 223.008C66.8531 223.008 67.6901 221.907 67.6901 219.892C67.6901 217.893 66.8376 216.746 65.3186 216.746C63.7841 216.746 62.9471 217.862 62.9471 219.892C62.9471 221.876 63.7996 223.008 65.3186 223.008ZM70.8407 224V215.769H72.2047V216.885C72.7627 216.017 73.6617 215.568 74.7467 215.568C76.4982 215.568 77.5367 216.591 77.5367 218.497V224H76.1727V218.776C76.1727 217.536 75.6147 216.73 74.3747 216.73C73.0107 216.73 72.2047 217.955 72.2047 219.133V224H70.8407ZM80.7184 217.877C80.7184 220.171 86.0659 218.28 86.0659 221.675C86.0659 223.209 84.7019 224.186 82.7644 224.186C80.8114 224.186 79.4474 223.256 79.1374 221.318H80.5014C80.6874 222.465 81.5399 223.101 82.8109 223.101C84.0509 223.101 84.7019 222.543 84.7019 221.768C84.7019 219.52 79.4164 221.38 79.4164 217.97C79.4164 216.715 80.3929 215.568 82.4079 215.568C84.1904 215.568 85.5079 216.405 85.7714 218.451H84.4074C84.2059 217.164 83.4929 216.684 82.3304 216.684C81.3074 216.684 80.7184 217.195 80.7184 217.877ZM94.8024 221.318C94.3529 223.24 92.9734 224.186 91.0979 224.186C88.7109 224.186 87.2694 222.574 87.2694 219.892C87.2694 217.102 88.7109 215.568 91.0204 215.568C93.3454 215.568 94.7404 217.164 94.7404 219.784V220.125H88.6644C88.7419 221.969 89.6099 223.008 91.0979 223.008C92.2604 223.008 93.0819 222.45 93.3764 221.318H94.8024ZM91.0204 216.746C89.7029 216.746 88.9124 217.567 88.7109 219.102H93.3144C93.1284 217.583 92.3069 216.746 91.0204 216.746ZM96.558 224V215.769H97.922V216.885C98.48 216.017 99.379 215.568 100.464 215.568C102.216 215.568 103.254 216.591 103.254 218.497V224H101.89V218.776C101.89 217.536 101.332 216.73 100.092 216.73C98.728 216.73 97.922 217.955 97.922 219.133V224H96.558ZM105.614 221.628V216.854H104.467V215.769H105.614V213.878H106.978V215.769H108.792V216.854H106.978V221.628C106.978 222.62 107.273 223.085 108.482 223.085H108.761V224.062C108.606 224.14 108.265 224.186 107.877 224.186C106.343 224.186 105.614 223.364 105.614 221.628ZM121.61 219.985C121.61 222.589 119.998 224.186 117.409 224.186C114.805 224.186 113.193 222.589 113.193 219.985V213.46H114.635V219.985C114.635 221.892 115.673 223.039 117.409 223.039C119.145 223.039 120.184 221.876 120.184 219.985V213.46H121.61V219.985ZM130.687 224L128.052 220.342L127.618 219.675L127.184 220.342L124.564 224H123.03L126.874 218.559L123.309 213.46H124.967L127.292 216.653L127.773 217.412L128.253 216.653L130.532 213.46H132.066L128.517 218.528L132.345 224H130.687Z" fill="#005ABB"/>
</g>
<rect x="1.33337" y="1" width="312.667" height="248" rx="17" stroke="#257BD7" stroke-opacity="0.2" stroke-width="2"/>
<defs>
<clipPath id="clip0_1_508">
<rect x="0.333374" width="314.667" height="250" rx="18" fill="white"/>
</clipPath>
</defs>
</svg>
