<svg width="980" height="164" viewBox="0 0 980 164" fill="none" xmlns="http://www.w3.org/2000/svg">
<rect width="484" height="76" rx="12" fill="#FFBDBD"/>
<path opacity="0.7" d="M33.058 23.308H31.42C31.098 22.216 30.188 21.614 29.054 21.614C27.318 21.614 26.282 23 26.282 25.254C26.282 27.508 27.304 28.866 29.054 28.866C30.146 28.866 31.028 28.306 31.392 27.228H33.044C32.526 29.118 30.93 30.182 29.054 30.182C26.338 30.182 24.686 28.32 24.686 25.254C24.686 22.202 26.352 20.298 29.096 20.298C30.986 20.298 32.61 21.334 33.058 23.308ZM34.6197 30V20.48H36.1877V24.47H40.8077V20.48H42.3757V30H40.8077V25.744H36.1877V30H34.6197ZM51.1564 30L50.3444 27.858H46.0044L45.1924 30H43.6244L47.2924 20.48H49.1264L52.7944 30H51.1564ZM47.8944 22.916L46.4804 26.626H49.8684L48.4544 22.916L48.1744 21.992L47.8944 22.916ZM54.0611 30V20.48H55.6291V28.726H60.2351V30H54.0611ZM61.6763 30V20.48H63.2443V28.726H67.8503V30H61.6763ZM69.2915 30V20.48H75.8575V21.74H70.8595V24.456H75.3255V25.702H70.8595V28.74H75.8575V30H69.2915ZM77.4673 30V20.48H79.1053L83.0953 26.696L83.6973 27.816L83.6553 20.48H85.2233V30H83.5853L79.6093 23.812L78.9933 22.65L79.0353 30H77.4673ZM95.292 30H94.158L94.032 28.656C93.444 29.692 92.422 30.182 91.204 30.182C88.6 30.182 86.934 28.32 86.934 25.254C86.934 22.202 88.6 20.298 91.344 20.298C93.234 20.298 94.858 21.334 95.306 23.308H93.668C93.332 22.216 92.436 21.614 91.302 21.614C89.566 21.614 88.53 23 88.53 25.254C88.53 27.508 89.58 28.866 91.344 28.866C92.646 28.866 93.696 28.082 93.794 26.262H91.54V25.044H95.292V30ZM97.1548 30V20.48H103.721V21.74H98.7228V24.456H103.189V25.702H98.7228V28.74H103.721V30H97.1548ZM108.863 30V28.838H110.571V22.93H108.863V21.782H109.773C110.599 21.782 110.823 21.586 110.823 21.152V20.998H112.139V28.838H113.833V30H108.863ZM115.907 30V28.278H117.643V30H115.907Z" fill="#470000"/>
<path d="M25.314 55V42.76H27.33V47.89H33.27V42.76H35.286V55H33.27V49.528H27.33V55H25.314ZM37.9175 55V42.76H39.9335V55H37.9175ZM52.8721 55H51.4141L51.2521 53.272C50.4961 54.604 49.1821 55.234 47.6161 55.234C44.2681 55.234 42.1261 52.84 42.1261 48.898C42.1261 44.974 44.2681 42.526 47.7961 42.526C50.2261 42.526 52.3141 43.858 52.8901 46.396H50.7841C50.3521 44.992 49.2001 44.218 47.7421 44.218C45.5101 44.218 44.1781 46 44.1781 48.898C44.1781 51.796 45.5281 53.542 47.7961 53.542C49.4701 53.542 50.8201 52.534 50.9461 50.194H48.0481V48.628H52.8721V55ZM55.2671 55V42.76H57.2831V47.89H63.2231V42.76H65.2391V55H63.2231V49.528H57.2831V55H55.2671ZM71.4038 55V42.76H75.7598C78.6218 42.76 80.3858 44.254 80.3858 46.702C80.3858 49.204 78.5858 50.662 75.7958 50.662H73.4198V55H71.4038ZM75.7418 44.38H73.4198V49.042H75.6878C77.3798 49.042 78.3158 48.142 78.3158 46.72C78.3158 45.298 77.3618 44.38 75.7418 44.38ZM89.9759 55L88.9319 52.246H83.3519L82.3079 55H80.2919L85.0079 42.76H87.3659L92.0819 55H89.9759ZM85.7819 45.892L83.9639 50.662H88.3199L86.5019 45.892L86.1419 44.704L85.7819 45.892ZM95.4576 55V44.452H91.3716V42.76H101.542V44.452H97.4736V55H95.4576ZM103.378 55V42.76H105.394V55H103.378ZM108.019 55V42.76H116.461V44.38H110.035V47.872H115.777V49.474H110.035V53.38H116.461V55H108.019ZM118.531 55V42.76H120.637L125.767 50.752L126.541 52.192L126.487 42.76H128.503V55H126.397L121.285 47.044L120.493 45.55L120.547 55H118.531ZM134.428 55V44.452H130.342V42.76H140.512V44.452H136.444V55H134.428ZM146.277 42.76L149.751 51.868L150.111 53.092L150.471 51.868L153.945 42.76H155.943L151.227 55H148.887L144.153 42.76H146.277ZM162.569 55.234C158.915 55.234 156.683 52.822 156.683 48.898C156.683 44.974 158.915 42.526 162.569 42.526C166.187 42.526 168.437 44.974 168.437 48.898C168.437 52.822 166.187 55.234 162.569 55.234ZM162.569 53.542C164.963 53.542 166.385 51.778 166.385 48.898C166.385 46 164.963 44.218 162.569 44.218C160.175 44.218 158.735 46 158.735 48.898C158.735 51.778 160.175 53.542 162.569 53.542ZM170.632 55V42.76H172.648V53.362H178.57V55H170.632ZM189.953 50.338C189.953 53.38 188.045 55.234 184.967 55.234C181.889 55.234 179.981 53.38 179.981 50.338V42.76H181.997V50.338C181.997 52.39 183.113 53.614 184.967 53.614C186.839 53.614 187.937 52.372 187.937 50.338V42.76H189.953V50.338ZM192.429 55V42.76H195.147L198.603 51.238L199.017 52.534L199.431 51.238L202.851 42.76H205.497V55H203.481L203.535 45.082L202.653 47.71L199.683 55H198.243L195.255 47.692L194.391 45.136L194.445 55H192.429ZM208.127 55V42.76H216.569V44.38H210.143V47.872H215.885V49.474H210.143V53.38H216.569V55H208.127Z" fill="#470000"/>
<path fill-rule="evenodd" clip-rule="evenodd" d="M446.868 23.1101C448.056 23.2248 449.055 23.4636 449.986 23.9936C450.922 24.5255 451.631 25.2606 452.32 26.2198C452.985 27.1455 453.674 28.3457 454.536 29.8449L455.48 31.4869C456.294 32.9043 456.948 34.0411 457.391 35.0229C457.85 36.0393 458.125 36.9744 458.125 37.9988C458.125 39.0231 457.85 39.9582 457.391 40.9746C456.948 41.9565 456.294 43.0932 455.48 44.5107L454.536 46.1528C453.674 47.6519 452.985 48.852 452.32 49.7777C451.631 50.7369 450.922 51.4721 449.986 52.004C449.055 52.5339 448.056 52.7727 446.868 52.8875C445.844 52.9864 444.612 52.9974 443.102 52.9986L441.478 52.9988C439.699 52.9988 438.285 52.9988 437.132 52.8875C435.944 52.7727 434.945 52.5339 434.014 52.004C433.078 51.4721 432.369 50.7369 431.68 49.7777C431.016 48.852 430.326 47.6519 429.464 46.1528L428.52 44.5107C427.706 43.0932 427.052 41.9565 426.609 40.9746C426.15 39.9582 425.875 39.0231 425.875 37.9988C425.875 36.9744 426.15 36.0393 426.609 35.0229C427.052 34.0411 427.706 32.9043 428.52 31.4869L429.464 29.8449C430.326 28.3458 431.016 27.1455 431.68 26.2198C432.369 25.2606 433.078 24.5255 434.014 23.9936C434.945 23.4636 435.944 23.2248 437.132 23.1101C438.028 23.0235 439.083 23.0043 440.345 23H443.655C444.917 23.0043 445.972 23.0235 446.868 23.1101ZM441.993 42.4988C441.169 42.4988 440.5 43.1703 440.5 43.9988C440.5 44.8272 441.169 45.4988 442.007 45.4988C442.831 45.4988 443.5 44.8272 443.5 43.9988C443.5 43.1703 442.831 42.4988 441.993 42.4988ZM442 30.4988C441.172 30.4988 440.5 31.1704 440.5 31.9988V37.9988C440.5 38.8272 441.172 39.4988 442 39.4988C442.828 39.4988 443.5 38.8272 443.5 37.9988V31.9988C443.5 31.1704 442.828 30.4988 442 30.4988Z" fill="#470000"/>
<rect x="496" width="484" height="76" rx="12" fill="#FFBDBD"/>
<path opacity="0.7" d="M529.058 23.308H527.42C527.098 22.216 526.188 21.614 525.054 21.614C523.318 21.614 522.282 23 522.282 25.254C522.282 27.508 523.304 28.866 525.054 28.866C526.146 28.866 527.028 28.306 527.392 27.228H529.044C528.526 29.118 526.93 30.182 525.054 30.182C522.338 30.182 520.686 28.32 520.686 25.254C520.686 22.202 522.352 20.298 525.096 20.298C526.986 20.298 528.61 21.334 529.058 23.308ZM530.62 30V20.48H532.188V24.47H536.808V20.48H538.376V30H536.808V25.744H532.188V30H530.62ZM547.156 30L546.344 27.858H542.004L541.192 30H539.624L543.292 20.48H545.126L548.794 30H547.156ZM543.894 22.916L542.48 26.626H545.868L544.454 22.916L544.174 21.992L543.894 22.916ZM550.061 30V20.48H551.629V28.726H556.235V30H550.061ZM557.676 30V20.48H559.244V28.726H563.85V30H557.676ZM565.292 30V20.48H571.858V21.74H566.86V24.456H571.326V25.702H566.86V28.74H571.858V30H565.292ZM573.467 30V20.48H575.105L579.095 26.696L579.697 27.816L579.655 20.48H581.223V30H579.585L575.609 23.812L574.993 22.65L575.035 30H573.467ZM591.292 30H590.158L590.032 28.656C589.444 29.692 588.422 30.182 587.204 30.182C584.6 30.182 582.934 28.32 582.934 25.254C582.934 22.202 584.6 20.298 587.344 20.298C589.234 20.298 590.858 21.334 591.306 23.308H589.668C589.332 22.216 588.436 21.614 587.302 21.614C585.566 21.614 584.53 23 584.53 25.254C584.53 27.508 585.58 28.866 587.344 28.866C588.646 28.866 589.696 28.082 589.794 26.262H587.54V25.044H591.292V30ZM593.155 30V20.48H599.721V21.74H594.723V24.456H599.189V25.702H594.723V28.74H599.721V30H593.155ZM603.855 30V29.608C603.855 25.576 608.741 25.856 608.741 23.574C608.741 22.636 608.181 22.076 607.173 22.076C606.067 22.076 605.521 22.65 605.353 23.602H603.827C604.065 21.88 605.255 20.816 607.187 20.816C609.217 20.816 610.253 22.02 610.253 23.56C610.253 26.374 606.011 26.472 605.395 28.838H610.323V30H603.855ZM611.907 30V28.278H613.643V30H611.907Z" fill="#470000"/>
<path d="M522.952 45.784C522.952 49.006 530.368 46.468 530.368 51.472C530.368 53.884 528.406 55.234 525.724 55.234C523.006 55.234 521.134 53.992 520.63 51.436H522.736C523.078 52.822 524.104 53.578 525.742 53.578C527.416 53.578 528.298 52.84 528.298 51.742C528.298 48.286 520.882 50.86 520.882 45.946C520.882 44.11 522.43 42.526 525.22 42.526C527.632 42.526 529.612 43.678 530.044 46.36H527.902C527.56 44.848 526.606 44.182 525.166 44.182C523.762 44.182 522.952 44.812 522.952 45.784ZM532.318 55V42.76H534.334V47.89H540.274V42.76H542.29V55H540.274V49.528H534.334V55H532.318ZM550.375 55.234C546.721 55.234 544.489 52.822 544.489 48.898C544.489 44.974 546.721 42.526 550.375 42.526C553.993 42.526 556.243 44.974 556.243 48.898C556.243 52.822 553.993 55.234 550.375 55.234ZM550.375 53.542C552.769 53.542 554.191 51.778 554.191 48.898C554.191 46 552.769 44.218 550.375 44.218C547.981 44.218 546.541 46 546.541 48.898C546.541 51.778 547.981 53.542 550.375 53.542ZM558.439 55V42.76H563.029C565.675 42.76 567.349 44.128 567.349 46.288C567.349 47.674 566.719 48.646 565.621 49.186C566.341 49.564 566.737 50.23 567.007 51.328L567.925 55H565.801L565.063 51.724C564.739 50.32 564.199 50.05 562.849 50.05H560.455V55H558.439ZM562.975 44.38H560.455V48.43H562.939C564.433 48.43 565.279 47.638 565.279 46.396C565.279 45.172 564.433 44.38 562.975 44.38ZM572.667 55V44.452H568.581V42.76H578.751V44.452H574.683V55H572.667ZM591.882 55L590.838 52.246H585.258L584.214 55H582.198L586.914 42.76H589.272L593.988 55H591.882ZM587.688 45.892L585.87 50.662H590.226L588.408 45.892L588.048 44.704L587.688 45.892ZM595.617 55V42.76H599.973C602.835 42.76 604.599 44.254 604.599 46.702C604.599 49.204 602.799 50.662 600.009 50.662H597.633V55H595.617ZM599.955 44.38H597.633V49.042H599.901C601.593 49.042 602.529 48.142 602.529 46.72C602.529 45.298 601.575 44.38 599.955 44.38ZM606.603 55V42.76H610.959C613.821 42.76 615.585 44.254 615.585 46.702C615.585 49.204 613.785 50.662 610.995 50.662H608.619V55H606.603ZM610.941 44.38H608.619V49.042H610.887C612.579 49.042 613.515 48.142 613.515 46.72C613.515 45.298 612.561 44.38 610.941 44.38ZM623.043 55.234C619.389 55.234 617.157 52.822 617.157 48.898C617.157 44.974 619.389 42.526 623.043 42.526C626.661 42.526 628.911 44.974 628.911 48.898C628.911 52.822 626.661 55.234 623.043 55.234ZM623.043 53.542C625.437 53.542 626.859 51.778 626.859 48.898C626.859 46 625.437 44.218 623.043 44.218C620.649 44.218 619.209 46 619.209 48.898C619.209 51.778 620.649 53.542 623.043 53.542ZM631.107 55V42.76H633.123V55H631.107ZM635.748 55V42.76H637.854L642.984 50.752L643.758 52.192L643.704 42.76H645.72V55H643.614L638.502 47.044L637.71 45.55L637.764 55H635.748ZM651.645 55V44.452H647.559V42.76H657.729V44.452H653.661V55H651.645ZM659.566 55V42.76H662.284L665.74 51.238L666.154 52.534L666.568 51.238L669.988 42.76H672.634V55H670.618L670.672 45.082L669.79 47.71L666.82 55H665.38L662.392 47.692L661.528 45.136L661.582 55H659.566ZM675.263 55V42.76H683.705V44.38H677.279V47.872H683.021V49.474H677.279V53.38H683.705V55H675.263ZM685.775 55V42.76H687.881L693.011 50.752L693.785 52.192L693.731 42.76H695.747V55H693.641L688.529 47.044L687.737 45.55L687.791 55H685.775ZM701.672 55V44.452H697.586V42.76H707.756V44.452H703.688V55H701.672ZM723.683 55L721.217 46.54L720.929 45.46L720.659 46.54L718.193 55H715.871L712.055 42.76H714.197L716.825 51.886L717.113 52.948L717.365 51.886L719.993 42.76H721.991L724.619 51.886L724.889 52.948L725.141 51.886L727.751 42.76H729.803L725.987 55H723.683ZM731.707 55V42.76H733.723V55H731.707ZM736.347 55V42.76H738.453L743.583 50.752L744.357 52.192L744.303 42.76H746.319V55H744.213L739.101 47.044L738.309 45.55L738.363 55H736.347ZM748.951 55V42.76H753.145C756.979 42.76 759.355 45.064 759.355 48.898C759.355 52.732 756.979 55 753.145 55H748.951ZM753.145 53.362C755.755 53.362 757.303 51.706 757.303 48.898C757.303 46.054 755.755 44.398 753.145 44.398H750.967V53.362H753.145ZM767.026 55.234C763.372 55.234 761.14 52.822 761.14 48.898C761.14 44.974 763.372 42.526 767.026 42.526C770.644 42.526 772.894 44.974 772.894 48.898C772.894 52.822 770.644 55.234 767.026 55.234ZM767.026 53.542C769.42 53.542 770.842 51.778 770.842 48.898C770.842 46 769.42 44.218 767.026 44.218C764.632 44.218 763.192 46 763.192 48.898C763.192 51.778 764.632 53.542 767.026 53.542ZM785.277 55L782.811 46.54L782.523 45.46L782.253 46.54L779.787 55H777.465L773.649 42.76H775.791L778.419 51.886L778.707 52.948L778.959 51.886L781.587 42.76H783.585L786.213 51.886L786.483 52.948L786.735 51.886L789.345 42.76H791.397L787.581 55H785.277ZM794.938 45.784C794.938 49.006 802.354 46.468 802.354 51.472C802.354 53.884 800.392 55.234 797.71 55.234C794.992 55.234 793.12 53.992 792.616 51.436H794.722C795.064 52.822 796.09 53.578 797.728 53.578C799.402 53.578 800.284 52.84 800.284 51.742C800.284 48.286 792.868 50.86 792.868 45.946C792.868 44.11 794.416 42.526 797.206 42.526C799.618 42.526 801.598 43.678 802.03 46.36H799.888C799.546 44.848 798.592 44.182 797.152 44.182C795.748 44.182 794.938 44.812 794.938 45.784Z" fill="#470000"/>
<path fill-rule="evenodd" clip-rule="evenodd" d="M942.868 23.1101C944.056 23.2248 945.055 23.4636 945.986 23.9936C946.922 24.5255 947.631 25.2606 948.32 26.2198C948.985 27.1455 949.674 28.3457 950.536 29.8449L951.48 31.4869C952.294 32.9043 952.948 34.0411 953.391 35.0229C953.85 36.0393 954.125 36.9744 954.125 37.9988C954.125 39.0231 953.85 39.9582 953.391 40.9746C952.948 41.9565 952.294 43.0932 951.48 44.5107L950.536 46.1528C949.674 47.6519 948.985 48.852 948.32 49.7777C947.631 50.7369 946.922 51.4721 945.986 52.004C945.055 52.5339 944.056 52.7727 942.868 52.8875C941.844 52.9864 940.612 52.9974 939.102 52.9986L937.478 52.9988C935.699 52.9988 934.285 52.9988 933.132 52.8875C931.944 52.7727 930.945 52.5339 930.014 52.004C929.078 51.4721 928.369 50.7369 927.68 49.7777C927.016 48.852 926.326 47.6519 925.464 46.1528L924.52 44.5107C923.706 43.0932 923.052 41.9565 922.609 40.9746C922.15 39.9582 921.875 39.0231 921.875 37.9988C921.875 36.9744 922.15 36.0393 922.609 35.0229C923.052 34.0411 923.706 32.9043 924.52 31.4869L925.464 29.8449C926.326 28.3458 927.016 27.1455 927.68 26.2198C928.369 25.2606 929.078 24.5255 930.014 23.9936C930.945 23.4636 931.944 23.2248 933.132 23.1101C934.028 23.0235 935.083 23.0043 936.345 23H939.655C940.917 23.0043 941.972 23.0235 942.868 23.1101ZM937.993 42.4988C937.169 42.4988 936.5 43.1703 936.5 43.9988C936.5 44.8272 937.169 45.4988 938.007 45.4988C938.831 45.4988 939.5 44.8272 939.5 43.9988C939.5 43.1703 938.831 42.4988 937.993 42.4988ZM938 30.4988C937.172 30.4988 936.5 31.1704 936.5 31.9988V37.9988C936.5 38.8272 937.172 39.4988 938 39.4988C938.828 39.4988 939.5 38.8272 939.5 37.9988V31.9988C939.5 31.1704 938.828 30.4988 938 30.4988Z" fill="#470000"/>
<rect y="88" width="484" height="76" rx="12" fill="#FFBDBD"/>
<path opacity="0.7" d="M33.058 111.308H31.42C31.098 110.216 30.188 109.614 29.054 109.614C27.318 109.614 26.282 111 26.282 113.254C26.282 115.508 27.304 116.866 29.054 116.866C30.146 116.866 31.028 116.306 31.392 115.228H33.044C32.526 117.118 30.93 118.182 29.054 118.182C26.338 118.182 24.686 116.32 24.686 113.254C24.686 110.202 26.352 108.298 29.096 108.298C30.986 108.298 32.61 109.334 33.058 111.308ZM34.6197 118V108.48H36.1877V112.47H40.8077V108.48H42.3757V118H40.8077V113.744H36.1877V118H34.6197ZM51.1564 118L50.3444 115.858H46.0044L45.1924 118H43.6244L47.2924 108.48H49.1264L52.7944 118H51.1564ZM47.8944 110.916L46.4804 114.626H49.8684L48.4544 110.916L48.1744 109.992L47.8944 110.916ZM54.0611 118V108.48H55.6291V116.726H60.2351V118H54.0611ZM61.6763 118V108.48H63.2443V116.726H67.8503V118H61.6763ZM69.2915 118V108.48H75.8575V109.74H70.8595V112.456H75.3255V113.702H70.8595V116.74H75.8575V118H69.2915ZM77.4673 118V108.48H79.1053L83.0953 114.696L83.6973 115.816L83.6553 108.48H85.2233V118H83.5853L79.6093 111.812L78.9933 110.65L79.0353 118H77.4673ZM95.292 118H94.158L94.032 116.656C93.444 117.692 92.422 118.182 91.204 118.182C88.6 118.182 86.934 116.32 86.934 113.254C86.934 110.202 88.6 108.298 91.344 108.298C93.234 108.298 94.858 109.334 95.306 111.308H93.668C93.332 110.216 92.436 109.614 91.302 109.614C89.566 109.614 88.53 111 88.53 113.254C88.53 115.508 89.58 116.866 91.344 116.866C92.646 116.866 93.696 116.082 93.794 114.262H91.54V113.044H95.292V118ZM97.1548 118V108.48H103.721V109.74H98.7228V112.456H103.189V113.702H98.7228V116.74H103.721V118H97.1548ZM114.575 115.466C114.575 116.992 113.399 118.182 111.131 118.182C109.115 118.182 107.813 117.118 107.561 115.354H109.087C109.241 116.32 109.885 116.922 111.117 116.922C112.377 116.922 113.049 116.362 113.049 115.396C113.049 114.682 112.657 113.94 110.739 113.94H110.305V112.792H110.655C112.489 112.792 112.797 112.036 112.797 111.448C112.797 110.594 112.223 110.076 111.145 110.076C110.011 110.076 109.423 110.65 109.255 111.602H107.757C107.995 109.88 109.213 108.816 111.159 108.816C113.231 108.816 114.323 109.95 114.323 111.434C114.323 112.274 113.973 112.904 113.105 113.282C114.169 113.73 114.575 114.514 114.575 115.466ZM115.907 118V116.278H117.643V118H115.907Z" fill="#470000"/>
<path d="M40.0411 139.742C40.0411 141.704 38.5291 143.234 35.6131 143.234C33.0211 143.234 31.3471 141.866 31.0231 139.598H32.9851C33.1831 140.84 34.0111 141.614 35.5951 141.614C37.2151 141.614 38.0791 140.894 38.0791 139.652C38.0791 138.734 37.5751 137.78 35.1091 137.78H34.5511V136.304H35.0011C37.3591 136.304 37.7551 135.332 37.7551 134.576C37.7551 133.478 37.0171 132.812 35.6311 132.812C34.1731 132.812 33.4171 133.55 33.2011 134.774H31.2751C31.5811 132.56 33.1471 131.192 35.6491 131.192C38.3131 131.192 39.7171 132.65 39.7171 134.558C39.7171 135.638 39.2671 136.448 38.1511 136.934C39.5191 137.51 40.0411 138.518 40.0411 139.742ZM41.7542 143V140.786H43.9862V143H41.7542ZM52.314 143V130.76H60.756V132.38H54.33V135.872H60.072V137.474H54.33V141.38H60.756V143H52.314ZM62.8257 143V130.76H65.5437L68.9997 139.238L69.4137 140.534L69.8277 139.238L73.2477 130.76H75.8937V143H73.8777L73.9317 133.082L73.0497 135.71L70.0797 143H68.6397L65.6517 135.692L64.7877 133.136L64.8417 143H62.8257ZM83.977 143.234C80.323 143.234 78.091 140.822 78.091 136.898C78.091 132.974 80.323 130.526 83.977 130.526C87.595 130.526 89.845 132.974 89.845 136.898C89.845 140.822 87.595 143.234 83.977 143.234ZM83.977 141.542C86.371 141.542 87.793 139.778 87.793 136.898C87.793 134 86.371 132.218 83.977 132.218C81.583 132.218 80.143 134 80.143 136.898C80.143 139.778 81.583 141.542 83.977 141.542ZM94.5963 143V132.452H90.5103V130.76H100.68V132.452H96.6123V143H94.5963ZM102.517 143V130.76H104.533V143H102.517ZM112.612 143.234C108.958 143.234 106.726 140.822 106.726 136.898C106.726 132.974 108.958 130.526 112.612 130.526C116.23 130.526 118.48 132.974 118.48 136.898C118.48 140.822 116.23 143.234 112.612 143.234ZM112.612 141.542C115.006 141.542 116.428 139.778 116.428 136.898C116.428 134 115.006 132.218 112.612 132.218C110.218 132.218 108.778 134 108.778 136.898C108.778 139.778 110.218 141.542 112.612 141.542ZM120.675 143V130.76H122.781L127.911 138.752L128.685 140.192L128.631 130.76H130.647V143H128.541L123.429 135.044L122.637 133.55L122.691 143H120.675ZM141.937 143L140.893 140.246H135.313L134.269 143H132.253L136.969 130.76H139.327L144.043 143H141.937ZM137.743 133.892L135.925 138.662H140.281L138.463 133.892L138.103 132.704L137.743 133.892ZM145.671 143V130.76H147.687V141.362H153.609V143H145.671ZM167.109 143L166.065 140.246H160.485L159.441 143H157.425L162.141 130.76H164.499L169.215 143H167.109ZM162.915 133.892L161.097 138.662H165.453L163.635 133.892L163.275 132.704L162.915 133.892ZM170.843 143V130.76H172.949L178.079 138.752L178.853 140.192L178.799 130.76H180.815V143H178.709L173.597 135.044L172.805 133.55L172.859 143H170.843ZM183.447 143V130.76H187.641C191.475 130.76 193.851 133.064 193.851 136.898C193.851 140.732 191.475 143 187.641 143H183.447ZM187.641 141.362C190.251 141.362 191.799 139.706 191.799 136.898C191.799 134.054 190.251 132.398 187.641 132.398H185.463V141.362H187.641ZM209.933 134.396H207.827C207.413 132.992 206.243 132.218 204.785 132.218C202.553 132.218 201.221 134 201.221 136.898C201.221 139.796 202.535 141.542 204.785 141.542C206.189 141.542 207.323 140.822 207.791 139.436H209.915C209.249 141.866 207.197 143.234 204.785 143.234C201.293 143.234 199.169 140.84 199.169 136.898C199.169 132.974 201.311 130.526 204.839 130.526C207.269 130.526 209.357 131.858 209.933 134.396ZM217.395 143.234C213.741 143.234 211.509 140.822 211.509 136.898C211.509 132.974 213.741 130.526 217.395 130.526C221.013 130.526 223.263 132.974 223.263 136.898C223.263 140.822 221.013 143.234 217.395 143.234ZM217.395 141.542C219.789 141.542 221.211 139.778 221.211 136.898C221.211 134 219.789 132.218 217.395 132.218C215.001 132.218 213.561 134 213.561 136.898C213.561 139.778 215.001 141.542 217.395 141.542ZM235.773 143H234.315L234.153 141.272C233.397 142.604 232.083 143.234 230.517 143.234C227.169 143.234 225.027 140.84 225.027 136.898C225.027 132.974 227.169 130.526 230.697 130.526C233.127 130.526 235.215 131.858 235.791 134.396H233.685C233.253 132.992 232.101 132.218 230.643 132.218C228.411 132.218 227.079 134 227.079 136.898C227.079 139.796 228.429 141.542 230.697 141.542C232.371 141.542 233.721 140.534 233.847 138.194H230.949V136.628H235.773V143ZM238.168 143V130.76H240.274L245.404 138.752L246.178 140.192L246.124 130.76H248.14V143H246.034L240.922 135.044L240.13 133.55L240.184 143H238.168ZM250.771 143V130.76H252.787V143H250.771ZM258.706 143V132.452H254.62V130.76H264.79V132.452H260.722V143H258.706ZM266.627 143V130.76H268.643V143H266.627ZM272.365 130.76L275.839 139.868L276.199 141.092L276.559 139.868L280.033 130.76H282.031L277.315 143H274.975L270.241 130.76H272.365ZM283.66 143V130.76H292.102V132.38H285.676V135.872H291.418V137.474H285.676V141.38H292.102V143H283.66ZM297.705 143V130.76H306.147V132.38H299.721V136.232H305.463V137.852H299.721V143H297.705ZM315.661 143L314.617 140.246H309.037L307.993 143H305.977L310.693 130.76H313.051L317.767 143H315.661ZM311.467 133.892L309.649 138.662H314.005L312.187 133.892L311.827 132.704L311.467 133.892ZM321.143 143V132.452H317.057V130.76H327.227V132.452H323.159V143H321.143ZM329.064 143V130.76H331.08V143H329.064ZM344.019 143H342.561L342.399 141.272C341.643 142.604 340.329 143.234 338.763 143.234C335.415 143.234 333.273 140.84 333.273 136.898C333.273 132.974 335.415 130.526 338.943 130.526C341.373 130.526 343.461 131.858 344.037 134.396H341.931C341.499 132.992 340.347 132.218 338.889 132.218C336.657 132.218 335.325 134 335.325 136.898C335.325 139.796 336.675 141.542 338.943 141.542C340.617 141.542 341.967 140.534 342.093 138.194H339.195V136.628H344.019V143ZM356.26 138.338C356.26 141.38 354.352 143.234 351.274 143.234C348.196 143.234 346.288 141.38 346.288 138.338V130.76H348.304V138.338C348.304 140.39 349.42 141.614 351.274 141.614C353.146 141.614 354.244 140.372 354.244 138.338V130.76H356.26V138.338ZM358.736 143V130.76H367.178V132.38H360.752V135.872H366.494V137.474H360.752V141.38H367.178V143H358.736Z" fill="#470000"/>
<path fill-rule="evenodd" clip-rule="evenodd" d="M446.868 111.11C448.056 111.225 449.055 111.464 449.986 111.994C450.922 112.526 451.631 113.261 452.32 114.22C452.985 115.146 453.674 116.346 454.536 117.845L455.48 119.487C456.294 120.904 456.948 122.041 457.391 123.023C457.85 124.039 458.125 124.974 458.125 125.999C458.125 127.023 457.85 127.958 457.391 128.975C456.948 129.957 456.294 131.093 455.48 132.511L454.536 134.153C453.674 135.652 452.985 136.852 452.32 137.778C451.631 138.737 450.922 139.472 449.986 140.004C449.055 140.534 448.056 140.773 446.868 140.887C445.844 140.986 444.612 140.997 443.102 140.999L441.478 140.999C439.699 140.999 438.285 140.999 437.132 140.887C435.944 140.773 434.945 140.534 434.014 140.004C433.078 139.472 432.369 138.737 431.68 137.778C431.016 136.852 430.326 135.652 429.464 134.153L428.52 132.511C427.706 131.093 427.052 129.957 426.609 128.975C426.15 127.958 425.875 127.023 425.875 125.999C425.875 124.974 426.15 124.039 426.609 123.023C427.052 122.041 427.706 120.904 428.52 119.487L429.464 117.845C430.326 116.346 431.016 115.146 431.68 114.22C432.369 113.261 433.078 112.526 434.014 111.994C434.945 111.464 435.944 111.225 437.132 111.11C438.028 111.024 439.083 111.004 440.345 111H443.655C444.917 111.004 445.972 111.024 446.868 111.11ZM441.993 130.499C441.169 130.499 440.5 131.17 440.5 131.999C440.5 132.827 441.169 133.499 442.007 133.499C442.831 133.499 443.5 132.827 443.5 131.999C443.5 131.17 442.831 130.499 441.993 130.499ZM442 118.499C441.172 118.499 440.5 119.17 440.5 119.999V125.999C440.5 126.827 441.172 127.499 442 127.499C442.828 127.499 443.5 126.827 443.5 125.999V119.999C443.5 119.17 442.828 118.499 442 118.499Z" fill="#470000"/>
<rect x="496" y="88" width="484" height="76" rx="12" fill="#FFBDBD"/>
<path opacity="0.7" d="M529.058 111.308H527.42C527.098 110.216 526.188 109.614 525.054 109.614C523.318 109.614 522.282 111 522.282 113.254C522.282 115.508 523.304 116.866 525.054 116.866C526.146 116.866 527.028 116.306 527.392 115.228H529.044C528.526 117.118 526.93 118.182 525.054 118.182C522.338 118.182 520.686 116.32 520.686 113.254C520.686 110.202 522.352 108.298 525.096 108.298C526.986 108.298 528.61 109.334 529.058 111.308ZM530.62 118V108.48H532.188V112.47H536.808V108.48H538.376V118H536.808V113.744H532.188V118H530.62ZM547.156 118L546.344 115.858H542.004L541.192 118H539.624L543.292 108.48H545.126L548.794 118H547.156ZM543.894 110.916L542.48 114.626H545.868L544.454 110.916L544.174 109.992L543.894 110.916ZM550.061 118V108.48H551.629V116.726H556.235V118H550.061ZM557.676 118V108.48H559.244V116.726H563.85V118H557.676ZM565.292 118V108.48H571.858V109.74H566.86V112.456H571.326V113.702H566.86V116.74H571.858V118H565.292ZM573.467 118V108.48H575.105L579.095 114.696L579.697 115.816L579.655 108.48H581.223V118H579.585L575.609 111.812L574.993 110.65L575.035 118H573.467ZM591.292 118H590.158L590.032 116.656C589.444 117.692 588.422 118.182 587.204 118.182C584.6 118.182 582.934 116.32 582.934 113.254C582.934 110.202 584.6 108.298 587.344 108.298C589.234 108.298 590.858 109.334 591.306 111.308H589.668C589.332 110.216 588.436 109.614 587.302 109.614C585.566 109.614 584.53 111 584.53 113.254C584.53 115.508 585.58 116.866 587.344 116.866C588.646 116.866 589.696 116.082 589.794 114.262H587.54V113.044H591.292V118ZM593.155 118V108.48H599.721V109.74H594.723V112.456H599.189V113.702H594.723V116.74H599.721V118H593.155ZM609.441 118H607.915V115.984H603.631V114.64L608.069 108.998H609.441V114.808H610.687V115.984H609.441V118ZM604.933 114.808H607.915V110.888L604.933 114.808ZM611.907 118V116.278H613.643V118H611.907Z" fill="#470000"/>
<path d="M521.314 143V130.76H523.33V141.362H529.252V143H521.314ZM531.105 143V130.76H533.121V143H531.105ZM539.04 143V132.452H534.954V130.76H545.124V132.452H541.056V143H539.04ZM550.254 143V132.452H546.168V130.76H556.338V132.452H552.27V143H550.254ZM558.175 143V130.76H560.191V141.362H566.113V143H558.175ZM567.966 143V130.76H576.408V132.38H569.982V135.872H575.724V137.474H569.982V141.38H576.408V143H567.966ZM584.954 143V132.452H580.868V130.76H591.038V132.452H586.97V143H584.954ZM592.875 143V130.76H594.891V143H592.875ZM597.515 143V130.76H600.233L603.689 139.238L604.103 140.534L604.517 139.238L607.937 130.76H610.583V143H608.567L608.621 133.082L607.739 135.71L604.769 143H603.329L600.341 135.692L599.477 133.136L599.531 143H597.515ZM613.212 143V130.76H621.654V132.38H615.228V135.872H620.97V137.474H615.228V141.38H621.654V143H613.212ZM627.257 143V130.76H635.699V132.38H629.273V136.232H635.015V137.852H629.273V143H627.257ZM642.836 143.234C639.182 143.234 636.95 140.822 636.95 136.898C636.95 132.974 639.182 130.526 642.836 130.526C646.454 130.526 648.704 132.974 648.704 136.898C648.704 140.822 646.454 143.234 642.836 143.234ZM642.836 141.542C645.23 141.542 646.652 139.778 646.652 136.898C646.652 134 645.23 132.218 642.836 132.218C640.442 132.218 639.002 134 639.002 136.898C639.002 139.778 640.442 141.542 642.836 141.542ZM650.9 143V130.76H655.49C658.136 130.76 659.81 132.128 659.81 134.288C659.81 135.674 659.18 136.646 658.082 137.186C658.802 137.564 659.198 138.23 659.468 139.328L660.386 143H658.262L657.524 139.724C657.2 138.32 656.66 138.05 655.31 138.05H652.916V143H650.9ZM655.436 132.38H652.916V136.43H655.4C656.894 136.43 657.74 135.638 657.74 134.396C657.74 133.172 656.894 132.38 655.436 132.38ZM665.771 143V130.76H670.127C672.989 130.76 674.753 132.254 674.753 134.702C674.753 137.204 672.953 138.662 670.163 138.662H667.787V143H665.771ZM670.109 132.38H667.787V137.042H670.055C671.747 137.042 672.683 136.142 672.683 134.72C672.683 133.298 671.729 132.38 670.109 132.38ZM682.211 143.234C678.557 143.234 676.325 140.822 676.325 136.898C676.325 132.974 678.557 130.526 682.211 130.526C685.829 130.526 688.079 132.974 688.079 136.898C688.079 140.822 685.829 143.234 682.211 143.234ZM682.211 141.542C684.605 141.542 686.027 139.778 686.027 136.898C686.027 134 684.605 132.218 682.211 132.218C679.817 132.218 678.377 134 678.377 136.898C678.377 139.778 679.817 141.542 682.211 141.542ZM691.913 133.784C691.913 137.006 699.329 134.468 699.329 139.472C699.329 141.884 697.367 143.234 694.685 143.234C691.967 143.234 690.095 141.992 689.591 139.436H691.697C692.039 140.822 693.065 141.578 694.703 141.578C696.377 141.578 697.259 140.84 697.259 139.742C697.259 136.286 689.843 138.86 689.843 133.946C689.843 132.11 691.391 130.526 694.181 130.526C696.593 130.526 698.573 131.678 699.005 134.36H696.863C696.521 132.848 695.567 132.182 694.127 132.182C692.723 132.182 691.913 132.812 691.913 133.784ZM703.958 143V132.452H699.872V130.76H710.042V132.452H705.974V143H703.958ZM709.905 138.914V137.276H714.747V138.914H709.905ZM717.283 130.76L720.757 139.868L721.117 141.092L721.477 139.868L724.951 130.76H726.949L722.233 143H719.893L715.159 130.76H717.283ZM728.578 143V130.76H730.594V143H728.578ZM734.856 133.784C734.856 137.006 742.272 134.468 742.272 139.472C742.272 141.884 740.31 143.234 737.628 143.234C734.91 143.234 733.038 141.992 732.534 139.436H734.64C734.982 140.822 736.008 141.578 737.646 141.578C739.32 141.578 740.202 140.84 740.202 139.742C740.202 136.286 732.786 138.86 732.786 133.946C732.786 132.11 734.334 130.526 737.124 130.526C739.536 130.526 741.516 131.678 741.948 134.36H739.806C739.464 132.848 738.51 132.182 737.07 132.182C735.666 132.182 734.856 132.812 734.856 133.784ZM744.222 143V130.76H746.238V143H744.222ZM752.157 143V132.452H748.071V130.76H758.241V132.452H754.173V143H752.157ZM773.591 134.396H771.485C771.071 132.992 769.901 132.218 768.443 132.218C766.211 132.218 764.879 134 764.879 136.898C764.879 139.796 766.193 141.542 768.443 141.542C769.847 141.542 770.981 140.822 771.449 139.436H773.573C772.907 141.866 770.855 143.234 768.443 143.234C764.951 143.234 762.827 140.84 762.827 136.898C762.827 132.974 764.969 130.526 768.497 130.526C770.927 130.526 773.015 131.858 773.591 134.396ZM775.599 143V130.76H777.615V141.362H783.537V143H775.599ZM785.39 143V130.76H793.832V132.38H787.406V135.872H793.148V137.474H787.406V141.38H793.832V143H785.39ZM804.56 143L803.516 140.246H797.936L796.892 143H794.876L799.592 130.76H801.95L806.666 143H804.56ZM800.366 133.892L798.548 138.662H802.904L801.086 133.892L800.726 132.704L800.366 133.892ZM808.294 143V130.76H810.4L815.53 138.752L816.304 140.192L816.25 130.76H818.266V143H816.16L811.048 135.044L810.256 133.55L810.31 143H808.294ZM830.744 138.338C830.744 141.38 828.836 143.234 825.758 143.234C822.68 143.234 820.772 141.38 820.772 138.338V130.76H822.788V138.338C822.788 140.39 823.904 141.614 825.758 141.614C827.63 141.614 828.728 140.372 828.728 138.338V130.76H830.744V138.338ZM833.22 143V130.76H837.576C840.438 130.76 842.202 132.254 842.202 134.702C842.202 137.204 840.402 138.662 837.612 138.662H835.236V143H833.22ZM837.558 132.38H835.236V137.042H837.504C839.196 137.042 840.132 136.142 840.132 134.72C840.132 133.298 839.178 132.38 837.558 132.38Z" fill="#470000"/>
<path fill-rule="evenodd" clip-rule="evenodd" d="M942.868 111.11C944.056 111.225 945.055 111.464 945.986 111.994C946.922 112.526 947.631 113.261 948.32 114.22C948.985 115.146 949.674 116.346 950.536 117.845L951.48 119.487C952.294 120.904 952.948 122.041 953.391 123.023C953.85 124.039 954.125 124.974 954.125 125.999C954.125 127.023 953.85 127.958 953.391 128.975C952.948 129.957 952.294 131.093 951.48 132.511L950.536 134.153C949.674 135.652 948.985 136.852 948.32 137.778C947.631 138.737 946.922 139.472 945.986 140.004C945.055 140.534 944.056 140.773 942.868 140.887C941.844 140.986 940.612 140.997 939.102 140.999L937.478 140.999C935.699 140.999 934.285 140.999 933.132 140.887C931.944 140.773 930.945 140.534 930.014 140.004C929.078 139.472 928.369 138.737 927.68 137.778C927.016 136.852 926.326 135.652 925.464 134.153L924.52 132.511C923.706 131.093 923.052 129.957 922.609 128.975C922.15 127.958 921.875 127.023 921.875 125.999C921.875 124.974 922.15 124.039 922.609 123.023C923.052 122.041 923.706 120.904 924.52 119.487L925.464 117.845C926.326 116.346 927.016 115.146 927.68 114.22C928.369 113.261 929.078 112.526 930.014 111.994C930.945 111.464 931.944 111.225 933.132 111.11C934.028 111.024 935.083 111.004 936.345 111H939.655C940.917 111.004 941.972 111.024 942.868 111.11ZM937.993 130.499C937.169 130.499 936.5 131.17 936.5 131.999C936.5 132.827 937.169 133.499 938.007 133.499C938.831 133.499 939.5 132.827 939.5 131.999C939.5 131.17 938.831 130.499 937.993 130.499ZM938 118.499C937.172 118.499 936.5 119.17 936.5 119.999V125.999C936.5 126.827 937.172 127.499 938 127.499C938.828 127.499 939.5 126.827 939.5 125.999V119.999C939.5 119.17 938.828 118.499 938 118.499Z" fill="#470000"/>
</svg>
