<svg width="980" height="456" viewBox="0 0 980 456" fill="none" xmlns="http://www.w3.org/2000/svg">
<g clip-path="url(#clip0_1_453)">
<rect width="490" height="228" fill="white"/>
<rect width="490" height="228" fill="url(#paint0_linear_1_453)"/>
<path d="M320.875 144.148C318.548 144.148 316.886 142.497 316.553 140.516L311.9 113.272C311.235 108.649 306.913 105.677 302.259 106.667C298.603 107.328 295.943 109.97 295.279 113.602L287.965 168.09C287.633 170.402 285.638 172.053 283.311 171.723C281.317 171.392 279.987 170.072 279.655 168.09L271.344 96.2651C270.679 91.9721 267.355 89 263.034 89H262.369C258.38 89 255.056 91.6418 254.391 95.6046L248.407 121.197C247.742 123.839 245.083 125.49 242.424 125.16C240.429 124.83 239.1 123.179 238.435 121.197L233.448 95.9348C232.451 91.3116 228.13 88.3395 223.476 89.3302C219.819 89.9907 217.16 92.9628 216.827 96.5953L208.184 168.09C207.852 170.072 206.19 171.723 204.195 171.723C201.868 171.723 200.206 170.072 199.874 167.76L194.555 115.584C193.89 110.3 189.237 106.337 183.918 106.667C179.929 106.998 176.605 110.3 175.607 114.593L171.452 140.186C171.12 142.828 168.793 144.479 166.133 144.479H154V150.423H166.632C171.951 150.423 176.937 146.46 177.934 141.176L182.588 115.584C182.921 113.932 184.583 112.611 186.245 112.611C188.239 112.611 189.901 113.932 189.901 115.914L195.22 168.09C195.885 173.704 200.871 177.667 206.19 177.337C210.844 177.006 214.833 173.044 215.498 168.42L223.808 96.9255C223.808 95.6046 225.138 94.9441 226.135 94.9441C227.132 94.9441 228.13 95.6046 228.462 96.9255L233.448 122.188C234.113 126.151 237.437 129.453 241.426 130.774V176.676C236.44 178.327 233.781 183.611 235.443 188.564C237.105 193.518 242.424 196.16 247.41 194.509C252.396 192.857 255.056 187.574 253.394 182.62C252.396 179.978 250.402 177.667 247.41 176.676V130.279C251.399 129.288 254.391 125.986 255.056 122.353L260.374 96.9255C260.374 95.6046 261.372 94.9441 262.369 94.9441H263.034C264.031 94.9441 265.028 95.9348 265.361 96.9255L274.004 168.42C274.668 174.034 279.655 177.997 285.306 177.337C289.96 176.676 293.616 173.374 293.949 168.751L301.262 114.263C301.262 113.272 302.259 112.281 303.589 112.281C304.586 112.281 305.584 112.942 305.916 114.263L310.237 141.507C311.235 146.46 315.556 150.093 320.542 150.093H336V144.148H320.875ZM243.587 188.399C241.925 188.399 240.263 186.748 240.263 185.097C240.263 183.446 241.925 181.795 243.587 181.795C245.249 181.795 246.911 183.116 246.911 185.097C246.911 187.078 245.582 188.399 243.587 188.399Z" fill="#04A0F4"/>
<path d="M173.752 47V30.68H179.344C184.456 30.68 187.624 33.752 187.624 38.864C187.624 43.976 184.456 47 179.344 47H173.752ZM179.344 44.816C182.824 44.816 184.888 42.608 184.888 38.864C184.888 35.072 182.824 32.864 179.344 32.864H176.44V44.816H179.344ZM202.22 42.824C201.524 45.8 199.316 47.312 196.316 47.312C192.548 47.312 190.244 44.792 190.244 40.616C190.244 36.272 192.548 33.872 196.196 33.872C199.892 33.872 202.124 36.368 202.124 40.472V41.096H192.86C193.004 43.712 194.228 45.176 196.316 45.176C197.948 45.176 199.1 44.408 199.532 42.824H202.22ZM196.196 36.008C194.348 36.008 193.244 37.184 192.932 39.344H199.46C199.148 37.184 198.02 36.008 196.196 36.008ZM216.528 42.824C215.832 45.8 213.624 47.312 210.624 47.312C206.856 47.312 204.552 44.792 204.552 40.616C204.552 36.272 206.856 33.872 210.504 33.872C214.2 33.872 216.432 36.368 216.432 40.472V41.096H207.168C207.312 43.712 208.536 45.176 210.624 45.176C212.256 45.176 213.408 44.408 213.84 42.824H216.528ZM210.504 36.008C208.656 36.008 207.552 37.184 207.24 39.344H213.768C213.456 37.184 212.328 36.008 210.504 36.008ZM222.052 52.28H219.484V34.208H222.052V35.744C222.868 34.544 224.068 33.872 225.532 33.872C228.916 33.872 230.956 36.392 230.956 40.568C230.956 44.912 228.868 47.312 225.532 47.312C224.068 47.312 222.868 46.712 222.052 45.536V52.28ZM225.22 36.032C223.156 36.032 222.052 37.64 222.052 40.568C222.052 43.496 223.204 45.152 225.22 45.152C227.236 45.152 228.34 43.52 228.34 40.568C228.34 37.664 227.188 36.032 225.22 36.032ZM236.309 34.712C236.309 39.008 246.197 35.624 246.197 42.296C246.197 45.512 243.581 47.312 240.005 47.312C236.381 47.312 233.885 45.656 233.213 42.248H236.021C236.477 44.096 237.845 45.104 240.029 45.104C242.261 45.104 243.437 44.12 243.437 42.656C243.437 38.048 233.549 41.48 233.549 34.928C233.549 32.48 235.613 30.368 239.333 30.368C242.549 30.368 245.189 31.904 245.765 35.48H242.909C242.453 33.464 241.181 32.576 239.261 32.576C237.389 32.576 236.309 33.416 236.309 34.712ZM259.909 38.672H257.341C257.029 36.848 255.853 36.032 254.365 36.032C252.229 36.032 251.077 37.664 251.077 40.616C251.077 43.52 252.277 45.176 254.437 45.176C255.973 45.176 257.053 44.336 257.437 42.704H259.981C259.429 45.896 257.221 47.312 254.389 47.312C250.693 47.312 248.461 44.768 248.461 40.616C248.461 36.272 250.741 33.872 254.365 33.872C257.221 33.872 259.477 35.48 259.909 38.672ZM262.854 47V34.208H265.422V36.104C266.262 34.568 267.582 33.872 269.07 33.872C269.574 33.872 270.054 33.992 270.294 34.208V36.464C269.91 36.344 269.454 36.296 268.926 36.296C266.478 36.296 265.422 37.784 265.422 40.016V47H262.854ZM272.522 32.624V29.72H275.09V32.624H272.522ZM272.522 47V34.208H275.09V47H272.522ZM281.241 47H278.673V29.72H281.241V35.696C282.057 34.52 283.257 33.872 284.721 33.872C288.081 33.872 290.121 36.392 290.121 40.568C290.121 44.912 288.033 47.312 284.721 47.312C283.257 47.312 282.057 46.712 281.241 45.56V47ZM284.385 36.032C282.321 36.032 281.241 37.64 281.241 40.568C281.241 43.496 282.369 45.152 284.385 45.152C286.401 45.152 287.505 43.544 287.505 40.568C287.505 37.664 286.377 36.032 284.385 36.032ZM304.451 42.824C303.755 45.8 301.547 47.312 298.547 47.312C294.779 47.312 292.475 44.792 292.475 40.616C292.475 36.272 294.779 33.872 298.427 33.872C302.123 33.872 304.355 36.368 304.355 40.472V41.096H295.091C295.235 43.712 296.459 45.176 298.547 45.176C300.179 45.176 301.331 44.408 301.763 42.824H304.451ZM298.427 36.008C296.579 36.008 295.475 37.184 295.163 39.344H301.691C301.379 37.184 300.251 36.008 298.427 36.008Z" fill="black"/>
<rect width="490" height="228" transform="translate(490)" fill="white"/>
<rect width="490" height="228" transform="translate(490)" fill="#6230B1"/>
<g clip-path="url(#clip1_1_453)">
<path d="M726.323 139.88C726.323 139.88 715.939 127.16 715.718 113.101C715.498 99.0421 725.439 89 725.439 89C725.439 89 735.823 101.72 736.044 115.779C736.265 129.838 726.323 139.88 726.323 139.88Z" fill="#B5C428"/>
<path d="M781.997 123.814C781.997 123.814 783.101 152.155 769.183 171.569C755.264 190.984 731.404 194.108 731.404 194.108C731.404 194.108 730.299 165.767 744.217 146.353C758.136 126.938 781.997 123.814 781.997 123.814ZM743.113 120.466C743.113 124.26 745.985 127.161 749.741 127.161C753.497 127.161 756.369 124.26 756.369 120.466C756.369 116.673 753.497 113.771 749.741 113.771C745.985 113.771 743.113 116.673 743.113 120.466Z" fill="#7A9A01"/>
<path d="M725.882 168.891C725.882 168.668 725.882 168.668 725.882 168.668C725.882 163.089 724.999 146.129 716.161 133.855C705.336 119.127 686.999 116.672 686.999 116.672C686.999 116.672 686.115 138.318 696.719 153.27C704.452 163.758 715.719 168.221 721.685 169.783V193.215C721.685 194.331 722.568 195.223 723.673 195.223C724.778 195.223 725.661 194.331 725.661 193.215V169.56C725.882 169.337 725.882 169.114 725.882 168.891Z" fill="#B5C428"/>
</g>
<path d="M667.296 47L665.904 43.328H658.464L657.072 47H654.384L660.672 30.68H663.816L670.104 47H667.296ZM661.704 34.856L659.28 41.216H665.088L662.664 34.856L662.184 33.272L661.704 34.856ZM672.665 43.184V36.2H670.937V34.208H672.665V31.256H675.233V34.208H677.993V36.2H675.233V43.04C675.233 44.504 675.641 45.2 677.441 45.2H677.945V47.072C677.657 47.216 677.057 47.312 676.337 47.312C673.841 47.312 672.665 45.944 672.665 43.184ZM680.403 47V29.72H682.971V35.912C683.835 34.544 685.179 33.872 686.835 33.872C689.499 33.872 691.155 35.432 691.155 38.456V47H688.611V38.984C688.611 37.136 687.795 36.008 686.043 36.008C684.123 36.008 682.971 37.712 682.971 39.488V47H680.403ZM706.11 42.824C705.414 45.8 703.206 47.312 700.206 47.312C696.438 47.312 694.134 44.792 694.134 40.616C694.134 36.272 696.438 33.872 700.086 33.872C703.782 33.872 706.014 36.368 706.014 40.472V41.096H696.75C696.894 43.712 698.118 45.176 700.206 45.176C701.838 45.176 702.99 44.408 703.422 42.824H706.11ZM700.086 36.008C698.238 36.008 697.134 37.184 696.822 39.344H703.35C703.038 37.184 701.91 36.008 700.086 36.008ZM709.066 47V34.208H711.634V35.912C712.498 34.544 713.842 33.872 715.498 33.872C718.162 33.872 719.818 35.432 719.818 38.456V47H717.274V38.984C717.274 37.136 716.458 36.008 714.706 36.008C712.786 36.008 711.634 37.712 711.634 39.488V47H709.066ZM725.845 38.384H723.277C723.685 35.552 725.629 33.872 728.821 33.872C732.301 33.872 734.029 35.912 734.029 38.888V43.88C734.029 45.416 734.173 46.304 734.461 47H731.773C731.581 46.52 731.509 45.848 731.485 45.128C730.405 46.64 728.749 47.312 727.213 47.312C724.621 47.312 722.845 46.088 722.845 43.64C722.845 41.888 723.805 40.592 725.725 39.944C727.429 39.368 729.157 39.224 731.461 39.2V38.912C731.461 37.04 730.597 36.032 728.629 36.032C726.973 36.032 726.085 36.944 725.845 38.384ZM725.437 43.544C725.437 44.624 726.325 45.296 727.693 45.296C729.829 45.296 731.461 43.592 731.461 41.528V40.952C726.541 41 725.437 42.08 725.437 43.544ZM743.112 47V30.68H745.8V37.52H753.72V30.68H756.408V47H753.72V39.704H745.8V47H743.112ZM771.557 42.824C770.861 45.8 768.653 47.312 765.653 47.312C761.885 47.312 759.581 44.792 759.581 40.616C759.581 36.272 761.885 33.872 765.533 33.872C769.229 33.872 771.461 36.368 771.461 40.472V41.096H762.197C762.341 43.712 763.565 45.176 765.653 45.176C767.285 45.176 768.437 44.408 768.869 42.824H771.557ZM765.533 36.008C763.685 36.008 762.581 37.184 762.269 39.344H768.797C768.485 37.184 767.357 36.008 765.533 36.008ZM776.937 38.384H774.369C774.777 35.552 776.721 33.872 779.913 33.872C783.393 33.872 785.121 35.912 785.121 38.888V43.88C785.121 45.416 785.265 46.304 785.553 47H782.865C782.673 46.52 782.601 45.848 782.577 45.128C781.497 46.64 779.841 47.312 778.305 47.312C775.713 47.312 773.937 46.088 773.937 43.64C773.937 41.888 774.897 40.592 776.817 39.944C778.521 39.368 780.249 39.224 782.553 39.2V38.912C782.553 37.04 781.689 36.032 779.721 36.032C778.065 36.032 777.177 36.944 776.937 38.384ZM776.529 43.544C776.529 44.624 777.417 45.296 778.785 45.296C780.921 45.296 782.553 43.592 782.553 41.528V40.952C777.633 41 776.529 42.08 776.529 43.544ZM788.821 47V29.72H791.389V47H788.821ZM795.309 43.184V36.2H793.581V34.208H795.309V31.256H797.877V34.208H800.637V36.2H797.877V43.04C797.877 44.504 798.285 45.2 800.085 45.2H800.589V47.072C800.301 47.216 799.701 47.312 798.981 47.312C796.485 47.312 795.309 45.944 795.309 43.184ZM803.047 47V29.72H805.615V35.912C806.479 34.544 807.823 33.872 809.479 33.872C812.143 33.872 813.799 35.432 813.799 38.456V47H811.255V38.984C811.255 37.136 810.439 36.008 808.687 36.008C806.767 36.008 805.615 37.712 805.615 39.488V47H803.047Z" fill="white"/>
<rect width="490" height="228" transform="translate(0 228)" fill="white"/>
<rect width="490" height="228" transform="translate(0 228)" fill="black"/>
<g clip-path="url(#clip2_1_453)">
<path d="M261.824 391.65C255.27 400.203 244.921 405.746 233.331 405.746C213.53 405.746 197.455 389.734 197.455 370.028C197.455 350.322 213.53 334.311 233.331 334.311C242.783 334.311 251.337 337.938 257.961 344.712C264.515 351.417 268.516 360.586 269.206 370.644C269.275 371.328 269.275 372.013 269.344 372.697C269.896 380.976 270.586 391.24 274.933 400.682C279.969 411.493 288.731 418.678 301.081 422.099L307.98 405.951C290.111 402.188 287.972 389.871 286.73 371.534C286.661 370.849 286.661 370.097 286.592 369.481C284.523 339.511 261.617 317 233.331 317C205.044 317 180 340.811 180 370.028C180 399.314 203.94 423.057 233.331 423.057C250.579 423.057 265.964 414.846 275.692 402.188L261.824 391.65Z" fill="white"/>
<path d="M232.988 376.46C236.851 376.46 239.956 373.381 239.956 369.549C239.956 365.718 236.851 362.639 232.988 362.639C229.124 362.639 226.02 365.718 226.02 369.549C226.02 373.381 229.124 376.46 232.988 376.46Z" fill="#405DE5"/>
<path d="M253.477 376.46C257.065 376.46 259.963 373.381 259.963 369.549C259.963 365.718 257.065 362.639 253.477 362.639C249.89 362.639 246.992 365.718 246.992 369.549C246.992 373.381 249.89 376.46 253.477 376.46Z" fill="#405DE5"/>
<path d="M212.98 376.46C216.843 376.46 219.948 373.381 219.948 369.549C219.948 365.718 216.843 362.639 212.98 362.639C209.116 362.639 206.012 365.718 206.012 369.549C206.012 373.381 209.116 376.46 212.98 376.46Z" fill="#405DE5"/>
</g>
<path d="M201.296 275L199.904 271.328H192.464L191.072 275H188.384L194.672 258.68H197.816L204.104 275H201.296ZM195.704 262.856L193.28 269.216H199.088L196.664 262.856L196.184 261.272L195.704 262.856ZM214.276 269.696V262.208H216.82V275H214.276V273.272C213.436 274.64 212.092 275.312 210.46 275.312C207.844 275.312 206.212 273.776 206.212 270.752V262.208H208.78V270.224C208.78 272.072 209.548 273.176 211.252 273.176C213.124 273.176 214.276 271.472 214.276 269.696ZM225.034 275.072C221.77 275.072 219.802 272.576 219.802 268.496C219.802 264.224 221.818 261.872 225.034 261.872C226.666 261.872 227.89 262.448 228.706 263.552V262.208H231.274V275.408C231.274 278.912 228.946 280.616 225.874 280.616C222.802 280.616 220.594 279.176 220.138 276.2H222.706C222.946 277.736 224.17 278.552 225.85 278.552C227.554 278.552 228.706 277.664 228.706 275.456V273.296C227.842 274.472 226.594 275.072 225.034 275.072ZM225.562 272.912C227.602 272.912 228.706 271.352 228.706 268.472C228.706 265.664 227.554 264.032 225.562 264.032C223.522 264.032 222.418 265.592 222.418 268.496C222.418 271.304 223.546 272.912 225.562 272.912ZM234.875 275V262.208H237.443V263.84C238.259 262.52 239.531 261.872 241.043 261.872C242.747 261.872 244.019 262.616 244.643 264.08C245.483 262.616 246.875 261.872 248.555 261.872C251.075 261.872 252.707 263.432 252.707 266.456V275H250.139V266.984C250.139 265.136 249.443 264.008 247.859 264.008C246.131 264.008 245.075 265.712 245.075 267.488V275H242.507V266.984C242.507 265.136 241.787 264.008 240.227 264.008C238.499 264.008 237.443 265.712 237.443 267.488V275H234.875ZM267.66 270.824C266.964 273.8 264.756 275.312 261.756 275.312C257.988 275.312 255.684 272.792 255.684 268.616C255.684 264.272 257.988 261.872 261.636 261.872C265.332 261.872 267.564 264.368 267.564 268.472V269.096H258.3C258.444 271.712 259.668 273.176 261.756 273.176C263.388 273.176 264.54 272.408 264.972 270.824H267.66ZM261.636 264.008C259.788 264.008 258.684 265.184 258.372 267.344H264.9C264.588 265.184 263.46 264.008 261.636 264.008ZM275.416 275.312C272.032 275.312 269.992 272.792 269.992 268.616C269.992 264.272 272.08 261.872 275.416 261.872C276.88 261.872 278.08 262.472 278.896 263.648V257.72H281.464V275H278.896V273.44C278.08 274.64 276.88 275.312 275.416 275.312ZM275.752 273.152C277.792 273.152 278.896 271.568 278.896 268.616C278.896 265.688 277.744 264.032 275.752 264.032C273.712 264.032 272.608 265.664 272.608 268.616C272.608 271.52 273.76 273.152 275.752 273.152ZM285.042 260.624V257.72H287.61V260.624H285.042ZM285.042 275V262.208H287.61V275H285.042ZM299.233 275L296.497 271.064L295.873 269.984L295.249 271.064L292.585 275H289.753L294.481 268.352L290.113 262.208H293.209L295.585 265.664L296.209 266.768L296.833 265.664L299.161 262.208H301.969L297.601 268.352L302.329 275H299.233Z" fill="white"/>
<rect width="490" height="228" transform="translate(490 228)" fill="white"/>
<path d="M776 393.903C776 409.346 762.348 421.859 745.507 421.859C745.226 421.859 744.949 421.841 744.668 421.822V421.646C748.013 420.42 751.044 418.464 753.544 415.923C755.817 413.775 757.627 411.186 758.864 408.311C760.101 405.437 760.738 402.34 760.735 399.211C760.763 396.333 760.226 393.478 759.152 390.809C758.079 388.14 756.491 385.709 754.479 383.656C752.632 381.568 750.363 379.898 747.823 378.756C745.283 377.614 742.529 377.027 739.745 377.033C736.136 376.907 732.56 377.752 729.388 379.481C728.617 380.019 727.73 380.365 726.799 380.492C724.894 380.492 723.78 378.886 723.78 375.591C723.909 367.209 726.539 359.057 731.332 352.185C737.185 343.519 745.684 336.986 755.555 333.567C758.833 332.349 762.251 331.552 765.729 331.195L765.787 331.423C759.496 336.347 751.625 343.53 751.625 353.128C751.625 363.589 761.093 368.769 766.867 373.977C769.708 376.463 771.991 379.525 773.565 382.959C775.14 386.394 775.969 390.124 776 393.903ZM736.037 422.533C730.115 421.267 724.759 418.118 720.768 413.555C714.919 407.166 711.996 398.402 711.997 387.265C712.021 373.845 716.328 360.784 724.288 349.991C729.326 342.985 739.172 327.241 739.516 318H739.303C733.993 329.304 722.243 336.846 713.13 344.872C701.316 355.266 692 367.754 692 383.974C692 407.345 709.499 423 731.089 423C732.745 422.996 734.398 422.876 736.037 422.642V422.533Z" fill="#B54128"/>
<path d="M620.752 275V258.68H626.344C631.456 258.68 634.624 261.752 634.624 266.864C634.624 271.976 631.456 275 626.344 275H620.752ZM626.344 272.816C629.824 272.816 631.888 270.608 631.888 266.864C631.888 263.072 629.824 260.864 626.344 260.864H623.44V272.816H626.344ZM637.868 275V262.208H640.436V264.104C641.276 262.568 642.596 261.872 644.084 261.872C644.588 261.872 645.068 261.992 645.308 262.208V264.464C644.924 264.344 644.468 264.296 643.94 264.296C641.492 264.296 640.436 265.784 640.436 268.016V275H637.868ZM649.772 266.384H647.204C647.612 263.552 649.556 261.872 652.748 261.872C656.228 261.872 657.956 263.912 657.956 266.888V271.88C657.956 273.416 658.1 274.304 658.388 275H655.7C655.508 274.52 655.436 273.848 655.412 273.128C654.332 274.64 652.676 275.312 651.14 275.312C648.548 275.312 646.772 274.088 646.772 271.64C646.772 269.888 647.732 268.592 649.652 267.944C651.356 267.368 653.084 267.224 655.388 267.2V266.912C655.388 265.04 654.524 264.032 652.556 264.032C650.9 264.032 650.012 264.944 649.772 266.384ZM649.364 271.544C649.364 272.624 650.252 273.296 651.62 273.296C653.756 273.296 655.388 271.592 655.388 269.528V268.952C650.468 269 649.364 270.08 649.364 271.544ZM666.264 275.072C663 275.072 661.032 272.576 661.032 268.496C661.032 264.224 663.048 261.872 666.264 261.872C667.896 261.872 669.12 262.448 669.936 263.552V262.208H672.504V275.408C672.504 278.912 670.176 280.616 667.104 280.616C664.032 280.616 661.824 279.176 661.368 276.2H663.936C664.176 277.736 665.4 278.552 667.08 278.552C668.784 278.552 669.936 277.664 669.936 275.456V273.296C669.072 274.472 667.824 275.072 666.264 275.072ZM666.792 272.912C668.832 272.912 669.936 271.352 669.936 268.472C669.936 265.664 668.784 264.032 666.792 264.032C664.752 264.032 663.648 265.592 663.648 268.496C663.648 271.304 664.776 272.912 666.792 272.912ZM681.457 275.312C677.737 275.312 675.481 272.792 675.481 268.616C675.481 264.272 677.809 261.872 681.457 261.872C685.177 261.872 687.433 264.44 687.433 268.616C687.433 272.936 685.105 275.312 681.457 275.312ZM681.457 273.152C683.641 273.152 684.817 271.568 684.817 268.616C684.817 265.688 683.617 264.032 681.457 264.032C679.297 264.032 678.097 265.64 678.097 268.616C678.097 271.52 679.297 273.152 681.457 273.152ZM690.413 275V262.208H692.981V263.912C693.845 262.544 695.189 261.872 696.845 261.872C699.509 261.872 701.165 263.432 701.165 266.456V275H698.621V266.984C698.621 265.136 697.805 264.008 696.053 264.008C694.133 264.008 692.981 265.712 692.981 267.488V275H690.413ZM710.151 275V258.68H713.775L718.383 269.984L718.935 271.712L719.487 269.984L724.047 258.68H727.575V275H724.887L724.959 261.776L723.783 265.28L719.823 275H717.903L713.919 265.256L712.767 261.848L712.839 275H710.151ZM742.721 270.824C742.025 273.8 739.817 275.312 736.817 275.312C733.049 275.312 730.745 272.792 730.745 268.616C730.745 264.272 733.049 261.872 736.697 261.872C740.393 261.872 742.625 264.368 742.625 268.472V269.096H733.361C733.505 271.712 734.729 273.176 736.817 273.176C738.449 273.176 739.601 272.408 740.033 270.824H742.721ZM736.697 264.008C734.849 264.008 733.745 265.184 733.433 267.344H739.961C739.649 265.184 738.521 264.008 736.697 264.008ZM750.477 275.312C747.093 275.312 745.053 272.792 745.053 268.616C745.053 264.272 747.141 261.872 750.477 261.872C751.941 261.872 753.141 262.472 753.957 263.648V257.72H756.525V275H753.957V273.44C753.141 274.64 751.941 275.312 750.477 275.312ZM750.813 273.152C752.853 273.152 753.957 271.568 753.957 268.616C753.957 265.688 752.805 264.032 750.813 264.032C748.773 264.032 747.669 265.664 747.669 268.616C747.669 271.52 748.821 273.152 750.813 273.152ZM760.102 260.624V257.72H762.67V260.624H760.102ZM760.102 275V262.208H762.67V275H760.102ZM777.078 266.672H774.51C774.198 264.848 773.022 264.032 771.534 264.032C769.398 264.032 768.246 265.664 768.246 268.616C768.246 271.52 769.446 273.176 771.606 273.176C773.142 273.176 774.222 272.336 774.606 270.704H777.15C776.598 273.896 774.39 275.312 771.558 275.312C767.862 275.312 765.63 272.768 765.63 268.616C765.63 264.272 767.91 261.872 771.534 261.872C774.39 261.872 776.646 263.48 777.078 266.672ZM782.447 266.384H779.879C780.287 263.552 782.231 261.872 785.423 261.872C788.903 261.872 790.631 263.912 790.631 266.888V271.88C790.631 273.416 790.775 274.304 791.063 275H788.375C788.183 274.52 788.111 273.848 788.087 273.128C787.007 274.64 785.351 275.312 783.815 275.312C781.223 275.312 779.447 274.088 779.447 271.64C779.447 269.888 780.407 268.592 782.327 267.944C784.031 267.368 785.759 267.224 788.063 267.2V266.912C788.063 265.04 787.199 264.032 785.231 264.032C783.575 264.032 782.687 264.944 782.447 266.384ZM782.039 271.544C782.039 272.624 782.927 273.296 784.295 273.296C786.431 273.296 788.063 271.592 788.063 269.528V268.952C783.143 269 782.039 270.08 782.039 271.544ZM794.331 275V257.72H796.899V275H794.331ZM813.138 275.312C808.266 275.312 805.29 272.096 805.29 266.864C805.29 261.632 808.266 258.368 813.138 258.368C817.962 258.368 820.962 261.632 820.962 266.864C820.962 272.096 817.962 275.312 813.138 275.312ZM813.138 273.056C816.33 273.056 818.226 270.704 818.226 266.864C818.226 263 816.33 260.624 813.138 260.624C809.946 260.624 808.026 263 808.026 266.864C808.026 270.704 809.946 273.056 813.138 273.056ZM824.177 275V262.208H826.745V263.912C827.609 262.544 828.953 261.872 830.609 261.872C833.273 261.872 834.929 263.432 834.929 266.456V275H832.385V266.984C832.385 265.136 831.569 264.008 829.817 264.008C827.897 264.008 826.745 265.712 826.745 267.488V275H824.177ZM849.885 270.824C849.189 273.8 846.981 275.312 843.981 275.312C840.213 275.312 837.909 272.792 837.909 268.616C837.909 264.272 840.213 261.872 843.861 261.872C847.557 261.872 849.789 264.368 849.789 268.472V269.096H840.525C840.669 271.712 841.893 273.176 843.981 273.176C845.613 273.176 846.765 272.408 847.197 270.824H849.885ZM843.861 264.008C842.013 264.008 840.909 265.184 840.597 267.344H847.125C846.813 265.184 845.685 264.008 843.861 264.008Z" fill="black"/>
</g>
<rect x="0.5" y="0.5" width="979" height="455" rx="11.5" stroke="black" stroke-opacity="0.2"/>
<defs>
<linearGradient id="paint0_linear_1_453" x1="245" y1="0" x2="245" y2="228" gradientUnits="userSpaceOnUse">
<stop stop-color="white"/>
<stop offset="1" stop-color="#E3F1FF"/>
</linearGradient>
<clipPath id="clip0_1_453">
<rect width="980" height="456" rx="12" fill="white"/>
</clipPath>
<clipPath id="clip1_1_453">
<rect width="95" height="106" fill="white" transform="translate(687 89)"/>
</clipPath>
<clipPath id="clip2_1_453">
<rect width="128" height="106" fill="white" transform="translate(180 317)"/>
</clipPath>
</defs>
</svg>
