<svg width="980" height="261" viewBox="0 0 980 261" fill="none" xmlns="http://www.w3.org/2000/svg">
<g clip-path="url(#clip0_1_655)">
<rect y="0.589844" width="484" height="124" rx="12" fill="#4EA615"/>
<path d="M26.952 34.3738C26.952 37.5958 34.368 35.0578 34.368 40.0618C34.368 42.4738 32.406 43.8238 29.724 43.8238C27.006 43.8238 25.134 42.5818 24.63 40.0258H26.736C27.078 41.4118 28.104 42.1678 29.742 42.1678C31.416 42.1678 32.298 41.4298 32.298 40.3318C32.298 36.8758 24.882 39.4498 24.882 34.5358C24.882 32.6998 26.43 31.1158 29.22 31.1158C31.632 31.1158 33.612 32.2678 34.044 34.9498H31.902C31.56 33.4378 30.606 32.7718 29.166 32.7718C27.762 32.7718 26.952 33.4018 26.952 34.3738ZM46.1639 38.9278C46.1639 41.9698 44.2559 43.8238 41.1779 43.8238C38.0999 43.8238 36.1919 41.9698 36.1919 38.9278V31.3498H38.2079V38.9278C38.2079 40.9798 39.3239 42.2038 41.1779 42.2038C43.0499 42.2038 44.1479 40.9618 44.1479 38.9278V31.3498H46.1639V38.9278ZM48.6402 43.5898V31.3498H52.9962C55.8582 31.3498 57.6222 32.8438 57.6222 35.2918C57.6222 37.7938 55.8222 39.2518 53.0322 39.2518H50.6562V43.5898H48.6402ZM52.9782 32.9698H50.6562V37.6318H52.9242C54.6162 37.6318 55.5522 36.7318 55.5522 35.3098C55.5522 33.8878 54.5982 32.9698 52.9782 32.9698ZM59.6265 43.5898V31.3498H63.9825C66.8445 31.3498 68.6085 32.8438 68.6085 35.2918C68.6085 37.7938 66.8085 39.2518 64.0185 39.2518H61.6425V43.5898H59.6265ZM63.9645 32.9698H61.6425V37.6318H63.9105C65.6025 37.6318 66.5385 36.7318 66.5385 35.3098C66.5385 33.8878 65.5845 32.9698 63.9645 32.9698ZM76.0668 43.8238C72.4128 43.8238 70.1808 41.4118 70.1808 37.4878C70.1808 33.5638 72.4128 31.1158 76.0668 31.1158C79.6848 31.1158 81.9348 33.5638 81.9348 37.4878C81.9348 41.4118 79.6848 43.8238 76.0668 43.8238ZM76.0668 42.1318C78.4608 42.1318 79.8828 40.3678 79.8828 37.4878C79.8828 34.5898 78.4608 32.8078 76.0668 32.8078C73.6728 32.8078 72.2328 34.5898 72.2328 37.4878C72.2328 40.3678 73.6728 42.1318 76.0668 42.1318ZM84.1304 43.5898V31.3498H88.7204C91.3664 31.3498 93.0404 32.7178 93.0404 34.8778C93.0404 36.2638 92.4104 37.2358 91.3124 37.7758C92.0324 38.1538 92.4284 38.8198 92.6984 39.9178L93.6164 43.5898H91.4924L90.7544 40.3138C90.4304 38.9098 89.8904 38.6398 88.5404 38.6398H86.1464V43.5898H84.1304ZM88.6664 32.9698H86.1464V37.0198H88.6304C90.1244 37.0198 90.9704 36.2278 90.9704 34.9858C90.9704 33.7618 90.1244 32.9698 88.6664 32.9698ZM98.358 43.5898V33.0418H94.272V31.3498H104.442V33.0418H100.374V43.5898H98.358ZM120.368 43.5898L117.902 35.1298L117.614 34.0498L117.344 35.1298L114.878 43.5898H112.556L108.74 31.3498H110.882L113.51 40.4758L113.798 41.5378L114.05 40.4758L116.678 31.3498H118.676L121.304 40.4758L121.574 41.5378L121.826 40.4758L124.436 31.3498H126.488L122.672 43.5898H120.368ZM128.392 43.5898V31.3498H130.408V43.5898H128.392ZM136.327 43.5898V33.0418H132.241V31.3498H142.411V33.0418H138.343V43.5898H136.327ZM144.248 43.5898V31.3498H146.264V36.4798H152.204V31.3498H154.22V43.5898H152.204V38.1178H146.264V43.5898H144.248ZM162.305 43.8238C158.651 43.8238 156.419 41.4118 156.419 37.4878C156.419 33.5638 158.651 31.1158 162.305 31.1158C165.923 31.1158 168.173 33.5638 168.173 37.4878C168.173 41.4118 165.923 43.8238 162.305 43.8238ZM162.305 42.1318C164.699 42.1318 166.121 40.3678 166.121 37.4878C166.121 34.5898 164.699 32.8078 162.305 32.8078C159.911 32.8078 158.471 34.5898 158.471 37.4878C158.471 40.3678 159.911 42.1318 162.305 42.1318ZM180.215 38.9278C180.215 41.9698 178.307 43.8238 175.229 43.8238C172.151 43.8238 170.243 41.9698 170.243 38.9278V31.3498H172.259V38.9278C172.259 40.9798 173.375 42.2038 175.229 42.2038C177.101 42.2038 178.199 40.9618 178.199 38.9278V31.3498H180.215V38.9278ZM185.985 43.5898V33.0418H181.899V31.3498H192.069V33.0418H188.001V43.5898H185.985ZM197.087 43.5898V31.3498H201.281C205.115 31.3498 207.491 33.6538 207.491 37.4878C207.491 41.3218 205.115 43.5898 201.281 43.5898H197.087ZM201.281 41.9518C203.891 41.9518 205.439 40.2958 205.439 37.4878C205.439 34.6438 203.891 32.9878 201.281 32.9878H199.103V41.9518H201.281ZM209.709 43.5898V31.3498H211.725V43.5898H209.709ZM215.987 34.3738C215.987 37.5958 223.403 35.0578 223.403 40.0618C223.403 42.4738 221.441 43.8238 218.759 43.8238C216.041 43.8238 214.169 42.5818 213.665 40.0258H215.771C216.113 41.4118 217.139 42.1678 218.777 42.1678C220.451 42.1678 221.333 41.4298 221.333 40.3318C221.333 36.8758 213.917 39.4498 213.917 34.5358C213.917 32.6998 215.465 31.1158 218.255 31.1158C220.667 31.1158 222.647 32.2678 223.079 34.9498H220.937C220.595 33.4378 219.641 32.7718 218.201 32.7718C216.797 32.7718 215.987 33.4018 215.987 34.3738ZM228.032 43.5898V33.0418H223.946V31.3498H234.116V33.0418H230.048V43.5898H228.032ZM235.953 43.5898V31.3498H240.543C243.189 31.3498 244.863 32.7178 244.863 34.8778C244.863 36.2638 244.233 37.2358 243.135 37.7758C243.855 38.1538 244.251 38.8198 244.521 39.9178L245.439 43.5898H243.315L242.577 40.3138C242.253 38.9098 241.713 38.6398 240.363 38.6398H237.969V43.5898H235.953ZM240.489 32.9698H237.969V37.0198H240.453C241.947 37.0198 242.793 36.2278 242.793 34.9858C242.793 33.7618 241.947 32.9698 240.489 32.9698ZM255.949 43.5898L254.905 40.8358H249.325L248.281 43.5898H246.265L250.981 31.3498H253.339L258.055 43.5898H255.949ZM251.755 34.4818L249.937 39.2518H254.293L252.475 34.4818L252.115 33.2938L251.755 34.4818ZM269.294 34.9858H267.188C266.774 33.5818 265.604 32.8078 264.146 32.8078C261.914 32.8078 260.582 34.5898 260.582 37.4878C260.582 40.3858 261.896 42.1318 264.146 42.1318C265.55 42.1318 266.684 41.4118 267.152 40.0258H269.276C268.61 42.4558 266.558 43.8238 264.146 43.8238C260.654 43.8238 258.53 41.4298 258.53 37.4878C258.53 33.5638 260.672 31.1158 264.2 31.1158C266.63 31.1158 268.718 32.4478 269.294 34.9858ZM274.28 43.5898V33.0418H270.194V31.3498H280.364V33.0418H276.296V43.5898H274.28ZM282.201 43.5898V31.3498H284.217V43.5898H282.201ZM292.295 43.8238C288.641 43.8238 286.409 41.4118 286.409 37.4878C286.409 33.5638 288.641 31.1158 292.295 31.1158C295.913 31.1158 298.163 33.5638 298.163 37.4878C298.163 41.4118 295.913 43.8238 292.295 43.8238ZM292.295 42.1318C294.689 42.1318 296.111 40.3678 296.111 37.4878C296.111 34.5898 294.689 32.8078 292.295 32.8078C289.901 32.8078 288.461 34.5898 288.461 37.4878C288.461 40.3678 289.901 42.1318 292.295 42.1318ZM300.359 43.5898V31.3498H302.465L307.595 39.3418L308.369 40.7818L308.315 31.3498H310.331V43.5898H308.225L303.113 35.6338L302.321 34.1398L302.375 43.5898H300.359Z" fill="#D9FFC0"/>
<path d="M25.168 70.5898V59.7098H26.96V69.1338H32.224V70.5898H25.168ZM41.3111 67.8058C40.8471 69.7898 39.3751 70.7978 37.3751 70.7978C34.8631 70.7978 33.3271 69.1178 33.3271 66.3338C33.3271 63.4378 34.8631 61.8378 37.2951 61.8378C39.7591 61.8378 41.2471 63.5018 41.2471 66.2378V66.6538H35.0711C35.1671 68.3978 35.9831 69.3738 37.3751 69.3738C38.4631 69.3738 39.2311 68.8618 39.5191 67.8058H41.3111ZM37.2951 63.2618C36.0631 63.2618 35.3271 64.0458 35.1191 65.4858H39.4711C39.2631 64.0458 38.5111 63.2618 37.2951 63.2618ZM43.1859 68.0458V63.3898H42.0339V62.0618H43.1859V60.0938H44.8979V62.0618H46.7379V63.3898H44.8979V67.9498C44.8979 68.9258 45.1699 69.3898 46.3699 69.3898H46.7059V70.6378C46.5139 70.7338 46.1139 70.7978 45.6339 70.7978C43.9699 70.7978 43.1859 69.8858 43.1859 68.0458ZM51.389 68.0458V63.3898H50.237V62.0618H51.389V60.0938H53.101V62.0618H54.941V63.3898H53.101V67.9498C53.101 68.9258 53.373 69.3898 54.573 69.3898H54.909V70.6378C54.717 70.7338 54.317 70.7978 53.837 70.7978C52.173 70.7978 51.389 69.8858 51.389 68.0458ZM56.2275 70.5898V59.0698H57.9395V63.1978C58.5155 62.2858 59.4115 61.8378 60.5155 61.8378C62.2915 61.8378 63.3955 62.8778 63.3955 64.8938V70.5898H61.6995V65.2458C61.6995 64.0138 61.1555 63.2618 59.9875 63.2618C58.7075 63.2618 57.9395 64.3978 57.9395 65.5818V70.5898H56.2275ZM73.0455 67.8058C72.5815 69.7898 71.1095 70.7978 69.1095 70.7978C66.5975 70.7978 65.0615 69.1178 65.0615 66.3338C65.0615 63.4378 66.5975 61.8378 69.0295 61.8378C71.4935 61.8378 72.9815 63.5018 72.9815 66.2378V66.6538H66.8055C66.9015 68.3978 67.7175 69.3738 69.1095 69.3738C70.1975 69.3738 70.9655 68.8618 71.2535 67.8058H73.0455ZM69.0295 63.2618C67.7975 63.2618 67.0615 64.0458 66.8535 65.4858H71.2055C70.9975 64.0458 70.2455 63.2618 69.0295 63.2618ZM85.1765 70.5898L84.2485 68.1418H79.2885L78.3605 70.5898H76.5685L80.7605 59.7098H82.8565L87.0485 70.5898H85.1765ZM81.4485 62.4938L79.8325 66.7338H83.7045L82.0885 62.4938L81.7685 61.4378L81.4485 62.4938ZM88.4961 70.5898V59.7098H90.2881V70.5898H88.4961ZM95.6338 70.5898V59.0698H97.3458V70.5898H95.6338ZM99.415 61.0058V59.0698H101.127V61.0058H99.415ZM99.415 70.5898V62.0618H101.127V70.5898H99.415ZM104.556 64.3018C104.556 66.4778 110.012 64.6538 110.012 68.1258C110.012 69.7418 108.556 70.7978 106.492 70.7978C104.428 70.7978 102.972 69.8378 102.652 67.8058H104.364C104.54 68.8778 105.34 69.4698 106.54 69.4698C107.692 69.4698 108.3 68.9578 108.3 68.2378C108.3 66.1098 102.924 67.9018 102.924 64.3978C102.924 63.0698 103.964 61.8378 106.124 61.8378C108.028 61.8378 109.436 62.7178 109.708 64.8458H107.996C107.804 63.6458 107.132 63.1978 106.044 63.1978C105.1 63.1978 104.556 63.6618 104.556 64.3018ZM111.795 68.0458V63.3898H110.643V62.0618H111.795V60.0938H113.507V62.0618H115.347V63.3898H113.507V67.9498C113.507 68.9258 113.779 69.3898 114.979 69.3898H115.315V70.6378C115.123 70.7338 114.723 70.7978 114.243 70.7978C112.579 70.7978 111.795 69.8858 111.795 68.0458ZM124.202 67.8058C123.738 69.7898 122.266 70.7978 120.266 70.7978C117.754 70.7978 116.218 69.1178 116.218 66.3338C116.218 63.4378 117.754 61.8378 120.186 61.8378C122.65 61.8378 124.138 63.5018 124.138 66.2378V66.6538H117.962C118.058 68.3978 118.874 69.3738 120.266 69.3738C121.354 69.3738 122.122 68.8618 122.41 67.8058H124.202ZM120.186 63.2618C118.954 63.2618 118.218 64.0458 118.01 65.4858H122.362C122.154 64.0458 121.402 63.2618 120.186 63.2618ZM125.853 70.5898V62.0618H127.565V63.1978C128.141 62.2858 129.036 61.8378 130.141 61.8378C131.917 61.8378 133.021 62.8778 133.021 64.8938V70.5898H131.325V65.2458C131.325 64.0138 130.781 63.2618 129.613 63.2618C128.333 63.2618 127.565 64.3978 127.565 65.5818V70.5898H125.853ZM141.443 70.7978C139.187 70.7978 137.827 69.1178 137.827 66.3338C137.827 63.4378 139.219 61.8378 141.443 61.8378C142.419 61.8378 143.219 62.2378 143.763 63.0218V62.0618H145.475V74.1098H143.763V69.5498C143.219 70.3498 142.419 70.7978 141.443 70.7978ZM141.667 69.3578C143.027 69.3578 143.763 68.3018 143.763 66.3338C143.763 64.3818 142.995 63.2778 141.667 63.2778C140.307 63.2778 139.571 64.3658 139.571 66.3338C139.571 68.2698 140.339 69.3578 141.667 69.3578ZM152.932 67.0538V62.0618H154.628V70.5898H152.932V69.4378C152.372 70.3498 151.476 70.7978 150.388 70.7978C148.644 70.7978 147.556 69.7738 147.556 67.7578V62.0618H149.268V67.4058C149.268 68.6378 149.78 69.3738 150.916 69.3738C152.164 69.3738 152.932 68.2378 152.932 67.0538ZM156.712 61.0058V59.0698H158.424V61.0058H156.712ZM156.712 70.5898V62.0618H158.424V70.5898H156.712ZM168.061 67.8058C167.597 69.7898 166.125 70.7978 164.125 70.7978C161.613 70.7978 160.077 69.1178 160.077 66.3338C160.077 63.4378 161.613 61.8378 164.045 61.8378C166.509 61.8378 167.997 63.5018 167.997 66.2378V66.6538H161.821C161.917 68.3978 162.733 69.3738 164.125 69.3738C165.213 69.3738 165.981 68.8618 166.269 67.8058H168.061ZM164.045 63.2618C162.813 63.2618 162.077 64.0458 161.869 65.4858H166.221C166.013 64.0458 165.261 63.2618 164.045 63.2618ZM169.936 68.0458V63.3898H168.784V62.0618H169.936V60.0938H171.648V62.0618H173.488V63.3898H171.648V67.9498C171.648 68.9258 171.92 69.3898 173.12 69.3898H173.456V70.6378C173.264 70.7338 172.864 70.7978 172.384 70.7978C170.72 70.7978 169.936 69.8858 169.936 68.0458ZM174.774 70.5898V59.0698H176.486V70.5898H174.774ZM179.164 74.3178C178.796 74.3178 178.412 74.2218 178.22 74.1578V72.8458H178.684C179.66 72.8458 180.028 72.6538 180.764 70.8778L181.02 70.2858L177.596 62.0618H179.436L181.548 67.3738L181.916 68.5418L182.284 67.3738L184.332 62.0618H186.076L182.204 71.5818C181.34 73.7098 180.684 74.3178 179.164 74.3178ZM190.305 66.9578V65.5018H204.273V66.9578H190.305ZM209.478 70.5898V62.0618H211.19V63.1978C211.766 62.2858 212.661 61.8378 213.766 61.8378C215.542 61.8378 216.646 62.8778 216.646 64.8938V70.5898H214.95V65.2458C214.95 64.0138 214.406 63.2618 213.238 63.2618C211.958 63.2618 211.19 64.3978 211.19 65.5818V70.5898H209.478ZM222.296 70.7978C219.816 70.7978 218.312 69.1178 218.312 66.3338C218.312 63.4378 219.864 61.8378 222.296 61.8378C224.776 61.8378 226.28 63.5498 226.28 66.3338C226.28 69.2138 224.728 70.7978 222.296 70.7978ZM222.296 69.3578C223.752 69.3578 224.536 68.3018 224.536 66.3338C224.536 64.3818 223.736 63.2778 222.296 63.2778C220.856 63.2778 220.056 64.3498 220.056 66.3338C220.056 68.2698 220.856 69.3578 222.296 69.3578ZM228.17 68.0458V63.3898H227.018V62.0618H228.17V60.0938H229.882V62.0618H231.722V63.3898H229.882V67.9498C229.882 68.9258 230.154 69.3898 231.354 69.3898H231.69V70.6378C231.498 70.7338 231.098 70.7978 230.618 70.7978C228.954 70.7978 228.17 69.8858 228.17 68.0458ZM243.365 65.0378H241.653C241.445 63.8218 240.661 63.2778 239.669 63.2778C238.245 63.2778 237.477 64.3658 237.477 66.3338C237.477 68.2698 238.277 69.3738 239.717 69.3738C240.741 69.3738 241.461 68.8138 241.717 67.7258H243.413C243.045 69.8538 241.573 70.7978 239.685 70.7978C237.221 70.7978 235.733 69.1018 235.733 66.3338C235.733 63.4378 237.253 61.8378 239.669 61.8378C241.573 61.8378 243.077 62.9098 243.365 65.0378ZM248.577 70.7978C246.097 70.7978 244.593 69.1178 244.593 66.3338C244.593 63.4378 246.145 61.8378 248.577 61.8378C251.057 61.8378 252.561 63.5498 252.561 66.3338C252.561 69.2138 251.009 70.7978 248.577 70.7978ZM248.577 69.3578C250.033 69.3578 250.817 68.3018 250.817 66.3338C250.817 64.3818 250.017 63.2778 248.577 63.2778C247.137 63.2778 246.337 64.3498 246.337 66.3338C246.337 68.2698 247.137 69.3578 248.577 69.3578ZM254.228 70.5898V62.0618H255.94V63.1498C256.484 62.2698 257.332 61.8378 258.34 61.8378C259.476 61.8378 260.324 62.3338 260.74 63.3098C261.3 62.3338 262.227 61.8378 263.348 61.8378C265.028 61.8378 266.116 62.8778 266.116 64.8938V70.5898H264.404V65.2458C264.404 64.0138 263.94 63.2618 262.884 63.2618C261.732 63.2618 261.028 64.3978 261.028 65.5818V70.5898H259.316V65.2458C259.316 64.0138 258.836 63.2618 257.796 63.2618C256.644 63.2618 255.94 64.3978 255.94 65.5818V70.5898H254.228ZM269.908 74.1098H268.196V62.0618H269.908V63.0858C270.452 62.2858 271.252 61.8378 272.228 61.8378C274.484 61.8378 275.844 63.5178 275.844 66.3018C275.844 69.1978 274.452 70.7978 272.228 70.7978C271.252 70.7978 270.452 70.3978 269.908 69.6138V74.1098ZM272.02 63.2778C270.644 63.2778 269.908 64.3498 269.908 66.3018C269.908 68.2538 270.676 69.3578 272.02 69.3578C273.364 69.3578 274.1 68.2698 274.1 66.3018C274.1 64.3658 273.332 63.2778 272.02 63.2778ZM285.077 67.8058C284.613 69.7898 283.141 70.7978 281.141 70.7978C278.629 70.7978 277.093 69.1178 277.093 66.3338C277.093 63.4378 278.629 61.8378 281.061 61.8378C283.525 61.8378 285.013 63.5018 285.013 66.2378V66.6538H278.837C278.933 68.3978 279.749 69.3738 281.141 69.3738C282.229 69.3738 282.997 68.8618 283.285 67.8058H285.077ZM281.061 63.2618C279.829 63.2618 279.093 64.0458 278.885 65.4858H283.237C283.029 64.0458 282.277 63.2618 281.061 63.2618ZM286.952 68.0458V63.3898H285.8V62.0618H286.952V60.0938H288.664V62.0618H290.504V63.3898H288.664V67.9498C288.664 68.9258 288.936 69.3898 290.136 69.3898H290.472V70.6378C290.28 70.7338 289.88 70.7978 289.4 70.7978C287.736 70.7978 286.952 69.8858 286.952 68.0458ZM299.358 67.8058C298.894 69.7898 297.422 70.7978 295.422 70.7978C292.91 70.7978 291.374 69.1178 291.374 66.3338C291.374 63.4378 292.91 61.8378 295.342 61.8378C297.806 61.8378 299.294 63.5018 299.294 66.2378V66.6538H293.118C293.214 68.3978 294.03 69.3738 295.422 69.3738C296.51 69.3738 297.278 68.8618 297.566 67.8058H299.358ZM295.342 63.2618C294.11 63.2618 293.374 64.0458 293.166 65.4858H297.518C297.31 64.0458 296.558 63.2618 295.342 63.2618ZM303.189 63.3898V62.0618H304.341V61.6138C304.341 59.7578 305.125 58.8618 306.725 58.8618C307.157 58.8618 307.493 58.9418 307.669 59.0218V60.1738H307.509C306.325 60.1738 306.037 60.6538 306.037 61.6298V62.0618H307.669V63.3898H306.037V70.5898H304.341V63.3898H303.189ZM312.296 70.7978C309.816 70.7978 308.312 69.1178 308.312 66.3338C308.312 63.4378 309.864 61.8378 312.296 61.8378C314.776 61.8378 316.28 63.5498 316.28 66.3338C316.28 69.2138 314.728 70.7978 312.296 70.7978ZM312.296 69.3578C313.752 69.3578 314.536 68.3018 314.536 66.3338C314.536 64.3818 313.736 63.2778 312.296 63.2778C310.856 63.2778 310.056 64.3498 310.056 66.3338C310.056 68.2698 310.856 69.3578 312.296 69.3578ZM317.946 70.5898V62.0618H319.658V63.3258C320.218 62.3018 321.098 61.8378 322.09 61.8378C322.426 61.8378 322.746 61.9178 322.906 62.0618V63.5658C322.65 63.4858 322.346 63.4538 321.994 63.4538C320.362 63.4538 319.658 64.4458 319.658 65.9338V70.5898H317.946ZM26.656 88.8458H24.944C25.216 86.9578 26.512 85.8378 28.64 85.8378C30.96 85.8378 32.112 87.1978 32.112 89.1818V92.5098C32.112 93.5338 32.208 94.1258 32.4 94.5898H30.608C30.48 94.2698 30.432 93.8218 30.416 93.3418C29.696 94.3498 28.592 94.7978 27.568 94.7978C25.84 94.7978 24.656 93.9818 24.656 92.3498C24.656 91.1818 25.296 90.3178 26.576 89.8858C27.712 89.5018 28.864 89.4058 30.4 89.3898V89.1978C30.4 87.9498 29.824 87.2778 28.512 87.2778C27.408 87.2778 26.816 87.8858 26.656 88.8458ZM26.384 92.2858C26.384 93.0058 26.976 93.4538 27.888 93.4538C29.312 93.4538 30.4 92.3178 30.4 90.9418V90.5578C27.12 90.5898 26.384 91.3098 26.384 92.2858ZM34.4828 92.0458V87.3898H33.3308V86.0618H34.4828V84.0938H36.1948V86.0618H38.0348V87.3898H36.1948V91.9498C36.1948 92.9258 36.4668 93.3898 37.6668 93.3898H38.0028V94.6378C37.8108 94.7338 37.4108 94.7978 36.9308 94.7978C35.2668 94.7978 34.4828 93.8858 34.4828 92.0458ZM39.5453 92.0458V87.3898H38.3933V86.0618H39.5453V84.0938H41.2573V86.0618H43.0973V87.3898H41.2573V91.9498C41.2573 92.9258 41.5293 93.3898 42.7293 93.3898H43.0653V94.6378C42.8733 94.7338 42.4733 94.7978 41.9933 94.7978C40.3293 94.7978 39.5453 93.8858 39.5453 92.0458ZM51.9518 91.8058C51.4878 93.7898 50.0158 94.7978 48.0158 94.7978C45.5038 94.7978 43.9678 93.1178 43.9678 90.3338C43.9678 87.4378 45.5038 85.8378 47.9358 85.8378C50.3998 85.8378 51.8878 87.5018 51.8878 90.2378V90.6538H45.7118C45.8078 92.3978 46.6238 93.3738 48.0158 93.3738C49.1038 93.3738 49.8718 92.8618 50.1598 91.8058H51.9518ZM47.9358 87.2618C46.7038 87.2618 45.9678 88.0458 45.7598 89.4858H50.1118C49.9038 88.0458 49.1518 87.2618 47.9358 87.2618ZM53.6025 94.5898V86.0618H55.3145V87.1978C55.8905 86.2858 56.7865 85.8378 57.8905 85.8378C59.6665 85.8378 60.7705 86.8778 60.7705 88.8938V94.5898H59.0745V89.2458C59.0745 88.0138 58.5305 87.2618 57.3625 87.2618C56.0825 87.2618 55.3145 88.3978 55.3145 89.5818V94.5898H53.6025ZM63.0765 92.0458V87.3898H61.9245V86.0618H63.0765V84.0938H64.7885V86.0618H66.6285V87.3898H64.7885V91.9498C64.7885 92.9258 65.0605 93.3898 66.2605 93.3898H66.5965V94.6378C66.4045 94.7338 66.0045 94.7978 65.5245 94.7978C63.8605 94.7978 63.0765 93.8858 63.0765 92.0458ZM67.915 85.0058V83.0698H69.627V85.0058H67.915ZM67.915 94.5898V86.0618H69.627V94.5898H67.915ZM75.2643 94.7978C72.7843 94.7978 71.2803 93.1178 71.2803 90.3338C71.2803 87.4378 72.8323 85.8378 75.2643 85.8378C77.7443 85.8378 79.2483 87.5498 79.2483 90.3338C79.2483 93.2138 77.6963 94.7978 75.2643 94.7978ZM75.2643 93.3578C76.7203 93.3578 77.5043 92.3018 77.5043 90.3338C77.5043 88.3818 76.7043 87.2778 75.2643 87.2778C73.8243 87.2778 73.0243 88.3498 73.0243 90.3338C73.0243 92.2698 73.8243 93.3578 75.2643 93.3578ZM80.915 94.5898V86.0618H82.627V87.1978C83.203 86.2858 84.099 85.8378 85.203 85.8378C86.979 85.8378 88.083 86.8778 88.083 88.8938V94.5898H86.387V89.2458C86.387 88.0138 85.843 87.2618 84.675 87.2618C83.395 87.2618 82.627 88.3978 82.627 89.5818V94.5898H80.915ZM90.021 94.5898V92.6218H92.005V94.5898H90.021Z" fill="#D9FFC0"/>
<path d="M397.13 28.1012L337.221 128.49C334.038 133.823 337.881 140.59 344.09 140.59H463.91C470.119 140.59 473.962 133.823 470.779 128.49L410.87 28.1012C407.766 22.9008 400.234 22.9008 397.13 28.1012Z" fill="#A0EE71"/>
</g>
<g clip-path="url(#clip1_1_655)">
<rect x="496" y="0.589844" width="484" height="124" rx="12" fill="#00A27B"/>
<path d="M521.314 43.5898V31.3498H525.904C528.55 31.3498 530.224 32.7178 530.224 34.8778C530.224 36.2638 529.594 37.2358 528.496 37.7758C529.216 38.1538 529.612 38.8198 529.882 39.9178L530.8 43.5898H528.676L527.938 40.3138C527.614 38.9098 527.074 38.6398 525.724 38.6398H523.33V43.5898H521.314ZM525.85 32.9698H523.33V37.0198H525.814C527.308 37.0198 528.154 36.2278 528.154 34.9858C528.154 33.7618 527.308 32.9698 525.85 32.9698ZM532.652 43.5898V31.3498H541.094V32.9698H534.668V36.4618H540.41V38.0638H534.668V41.9698H541.094V43.5898H532.652ZM544.802 34.3738C544.802 37.5958 552.218 35.0578 552.218 40.0618C552.218 42.4738 550.256 43.8238 547.574 43.8238C544.856 43.8238 542.984 42.5818 542.48 40.0258H544.586C544.928 41.4118 545.954 42.1678 547.592 42.1678C549.266 42.1678 550.148 41.4298 550.148 40.3318C550.148 36.8758 542.732 39.4498 542.732 34.5358C542.732 32.6998 544.28 31.1158 547.07 31.1158C549.482 31.1158 551.462 32.2678 551.894 34.9498H549.752C549.41 33.4378 548.456 32.7718 547.016 32.7718C545.612 32.7718 544.802 33.4018 544.802 34.3738ZM554.168 43.5898V31.3498H558.524C561.386 31.3498 563.15 32.8438 563.15 35.2918C563.15 37.7938 561.35 39.2518 558.56 39.2518H556.184V43.5898H554.168ZM558.506 32.9698H556.184V37.6318H558.452C560.144 37.6318 561.08 36.7318 561.08 35.3098C561.08 33.8878 560.126 32.9698 558.506 32.9698ZM565.154 43.5898V31.3498H573.596V32.9698H567.17V36.4618H572.912V38.0638H567.17V41.9698H573.596V43.5898H565.154ZM585.998 34.9858H583.892C583.478 33.5818 582.308 32.8078 580.85 32.8078C578.618 32.8078 577.286 34.5898 577.286 37.4878C577.286 40.3858 578.6 42.1318 580.85 42.1318C582.254 42.1318 583.388 41.4118 583.856 40.0258H585.98C585.314 42.4558 583.262 43.8238 580.85 43.8238C577.358 43.8238 575.234 41.4298 575.234 37.4878C575.234 33.5638 577.376 31.1158 580.904 31.1158C583.334 31.1158 585.422 32.4478 585.998 34.9858ZM590.983 43.5898V33.0418H586.897V31.3498H597.067V33.0418H592.999V43.5898H590.983ZM612.417 34.9858H610.311C609.897 33.5818 608.727 32.8078 607.269 32.8078C605.037 32.8078 603.705 34.5898 603.705 37.4878C603.705 40.3858 605.019 42.1318 607.269 42.1318C608.673 42.1318 609.807 41.4118 610.275 40.0258H612.399C611.733 42.4558 609.681 43.8238 607.269 43.8238C603.777 43.8238 601.653 41.4298 601.653 37.4878C601.653 33.5638 603.795 31.1158 607.323 31.1158C609.753 31.1158 611.841 32.4478 612.417 34.9858ZM614.425 43.5898V31.3498H616.441V41.9518H622.363V43.5898H614.425ZM624.216 43.5898V31.3498H626.232V43.5898H624.216ZM628.857 43.5898V31.3498H630.963L636.093 39.3418L636.867 40.7818L636.813 31.3498H638.829V43.5898H636.723L631.611 35.6338L630.819 34.1398L630.873 43.5898H628.857ZM641.46 43.5898V31.3498H643.476V43.5898H641.46ZM656.433 34.9858H654.327C653.913 33.5818 652.743 32.8078 651.285 32.8078C649.053 32.8078 647.721 34.5898 647.721 37.4878C647.721 40.3858 649.035 42.1318 651.285 42.1318C652.689 42.1318 653.823 41.4118 654.291 40.0258H656.415C655.749 42.4558 653.697 43.8238 651.285 43.8238C647.793 43.8238 645.669 41.4298 645.669 37.4878C645.669 33.5638 647.811 31.1158 651.339 31.1158C653.769 31.1158 655.857 32.4478 656.433 34.9858ZM666.572 43.5898L665.528 40.8358H659.948L658.904 43.5898H656.888L661.604 31.3498H663.962L668.678 43.5898H666.572ZM662.378 34.4818L660.56 39.2518H664.916L663.098 34.4818L662.738 33.2938L662.378 34.4818ZM670.306 43.5898V31.3498H672.322V41.9518H678.244V43.5898H670.306ZM682.838 39.8638H684.854C684.98 41.2858 685.61 42.1318 686.852 42.1318C688.112 42.1318 688.85 41.1598 688.85 39.5398V31.3498H690.866V39.3598C690.866 42.1318 689.318 43.8238 686.852 43.8238C684.458 43.8238 682.982 42.2758 682.838 39.8638ZM703.197 38.9278C703.197 41.9698 701.289 43.8238 698.211 43.8238C695.133 43.8238 693.225 41.9698 693.225 38.9278V31.3498H695.241V38.9278C695.241 40.9798 696.357 42.2038 698.211 42.2038C700.083 42.2038 701.181 40.9618 701.181 38.9278V31.3498H703.197V38.9278ZM705.673 43.5898V31.3498H709.867C713.701 31.3498 716.077 33.6538 716.077 37.4878C716.077 41.3218 713.701 43.5898 709.867 43.5898H705.673ZM709.867 41.9518C712.477 41.9518 714.025 40.2958 714.025 37.4878C714.025 34.6438 712.477 32.9878 709.867 32.9878H707.689V41.9518H709.867ZM728.608 43.5898H727.15L726.988 41.8618C726.232 43.1938 724.918 43.8238 723.352 43.8238C720.004 43.8238 717.862 41.4298 717.862 37.4878C717.862 33.5638 720.004 31.1158 723.532 31.1158C725.962 31.1158 728.05 32.4478 728.626 34.9858H726.52C726.088 33.5818 724.936 32.8078 723.478 32.8078C721.246 32.8078 719.914 34.5898 719.914 37.4878C719.914 40.3858 721.264 42.1318 723.532 42.1318C725.206 42.1318 726.556 41.1238 726.682 38.7838H723.784V37.2178H728.608V43.5898ZM731.003 43.5898V31.3498H733.721L737.177 39.8278L737.591 41.1238L738.005 39.8278L741.425 31.3498H744.071V43.5898H742.055L742.109 33.6718L741.227 36.2998L738.257 43.5898H736.817L733.829 36.2818L732.965 33.7258L733.019 43.5898H731.003ZM746.701 43.5898V31.3498H755.143V32.9698H748.717V36.4618H754.459V38.0638H748.717V41.9698H755.143V43.5898H746.701ZM757.212 43.5898V31.3498H759.318L764.448 39.3418L765.222 40.7818L765.168 31.3498H767.184V43.5898H765.078L759.966 35.6338L759.174 34.1398L759.228 43.5898H757.212ZM773.11 43.5898V33.0418H769.024V31.3498H779.194V33.0418H775.126V43.5898H773.11Z" fill="#D0FFB3"/>
<path d="M522.624 62.3978C522.624 65.2618 529.216 63.0058 529.216 67.4538C529.216 69.5978 527.472 70.7978 525.088 70.7978C522.672 70.7978 521.008 69.6938 520.56 67.4218H522.432C522.736 68.6538 523.648 69.3258 525.104 69.3258C526.592 69.3258 527.376 68.6698 527.376 67.6938C527.376 64.6218 520.784 66.9098 520.784 62.5418C520.784 60.9098 522.16 59.5018 524.64 59.5018C526.784 59.5018 528.544 60.5258 528.928 62.9098H527.024C526.72 61.5658 525.872 60.9738 524.592 60.9738C523.344 60.9738 522.624 61.5338 522.624 62.3978ZM536.197 67.0538V62.0618H537.893V70.5898H536.197V69.4378C535.637 70.3498 534.741 70.7978 533.653 70.7978C531.909 70.7978 530.821 69.7738 530.821 67.7578V62.0618H532.533V67.4058C532.533 68.6378 533.045 69.3738 534.181 69.3738C535.429 69.3738 536.197 68.2378 536.197 67.0538ZM543.049 70.6378C540.874 70.6378 539.562 68.9738 539.562 66.2538C539.562 63.4058 540.906 61.8378 543.049 61.8378C544.138 61.8378 544.954 62.2218 545.498 62.9578V62.0618H547.21V70.8618C547.21 73.1978 545.658 74.3338 543.61 74.3338C541.562 74.3338 540.09 73.3738 539.786 71.3898H541.498C541.658 72.4138 542.474 72.9578 543.594 72.9578C544.73 72.9578 545.498 72.3658 545.498 70.8938V69.4538C544.922 70.2378 544.09 70.6378 543.049 70.6378ZM543.402 69.1978C544.762 69.1978 545.498 68.1578 545.498 66.2378C545.498 64.3658 544.73 63.2778 543.402 63.2778C542.042 63.2778 541.306 64.3178 541.306 66.2538C541.306 68.1258 542.058 69.1978 543.402 69.1978ZM552.362 70.6378C550.186 70.6378 548.874 68.9738 548.874 66.2538C548.874 63.4058 550.218 61.8378 552.362 61.8378C553.45 61.8378 554.266 62.2218 554.81 62.9578V62.0618H556.522V70.8618C556.522 73.1978 554.97 74.3338 552.922 74.3338C550.874 74.3338 549.402 73.3738 549.098 71.3898H550.81C550.97 72.4138 551.786 72.9578 552.906 72.9578C554.042 72.9578 554.81 72.3658 554.81 70.8938V69.4538C554.234 70.2378 553.402 70.6378 552.362 70.6378ZM552.714 69.1978C554.074 69.1978 554.81 68.1578 554.81 66.2378C554.81 64.3658 554.042 63.2778 552.714 63.2778C551.354 63.2778 550.618 64.3178 550.618 66.2538C550.618 68.1258 551.37 69.1978 552.714 69.1978ZM566.171 67.8058C565.707 69.7898 564.235 70.7978 562.235 70.7978C559.723 70.7978 558.187 69.1178 558.187 66.3338C558.187 63.4378 559.723 61.8378 562.155 61.8378C564.619 61.8378 566.107 63.5018 566.107 66.2378V66.6538H559.931C560.027 68.3978 560.843 69.3738 562.235 69.3738C563.323 69.3738 564.091 68.8618 564.379 67.8058H566.171ZM562.155 63.2618C560.923 63.2618 560.187 64.0458 559.979 65.4858H564.331C564.123 64.0458 563.371 63.2618 562.155 63.2618ZM569.181 64.3018C569.181 66.4778 574.637 64.6538 574.637 68.1258C574.637 69.7418 573.181 70.7978 571.117 70.7978C569.053 70.7978 567.597 69.8378 567.277 67.8058H568.989C569.165 68.8778 569.965 69.4698 571.165 69.4698C572.317 69.4698 572.925 68.9578 572.925 68.2378C572.925 66.1098 567.549 67.9018 567.549 64.3978C567.549 63.0698 568.589 61.8378 570.749 61.8378C572.653 61.8378 574.061 62.7178 574.333 64.8458H572.621C572.429 63.6458 571.757 63.1978 570.669 63.1978C569.725 63.1978 569.181 63.6618 569.181 64.3018ZM576.42 68.0458V63.3898H575.268V62.0618H576.42V60.0938H578.132V62.0618H579.972V63.3898H578.132V67.9498C578.132 68.9258 578.404 69.3898 579.604 69.3898H579.94V70.6378C579.748 70.7338 579.348 70.7978 578.868 70.7978C577.204 70.7978 576.42 69.8858 576.42 68.0458ZM581.259 61.0058V59.0698H582.971V61.0058H581.259ZM581.259 70.5898V62.0618H582.971V70.5898H581.259ZM588.608 70.7978C586.128 70.7978 584.624 69.1178 584.624 66.3338C584.624 63.4378 586.176 61.8378 588.608 61.8378C591.088 61.8378 592.592 63.5498 592.592 66.3338C592.592 69.2138 591.04 70.7978 588.608 70.7978ZM588.608 69.3578C590.064 69.3578 590.848 68.3018 590.848 66.3338C590.848 64.3818 590.048 63.2778 588.608 63.2778C587.168 63.2778 586.368 64.3498 586.368 66.3338C586.368 68.2698 587.168 69.3578 588.608 69.3578ZM594.259 70.5898V62.0618H595.971V63.1978C596.547 62.2858 597.443 61.8378 598.547 61.8378C600.323 61.8378 601.427 62.8778 601.427 64.8938V70.5898H599.731V65.2458C599.731 64.0138 599.187 63.2618 598.019 63.2618C596.739 63.2618 595.971 64.3978 595.971 65.5818V70.5898H594.259ZM604.869 64.3018C604.869 66.4778 610.325 64.6538 610.325 68.1258C610.325 69.7418 608.869 70.7978 606.805 70.7978C604.741 70.7978 603.285 69.8378 602.965 67.8058H604.677C604.853 68.8778 605.653 69.4698 606.853 69.4698C608.005 69.4698 608.613 68.9578 608.613 68.2378C608.613 66.1098 603.237 67.9018 603.237 64.3978C603.237 63.0698 604.277 61.8378 606.437 61.8378C608.341 61.8378 609.749 62.7178 610.021 64.8458H608.309C608.117 63.6458 607.445 63.1978 606.357 63.1978C605.413 63.1978 604.869 63.6618 604.869 64.3018ZM616.64 64.8458H614.928C615.2 62.9578 616.496 61.8378 618.624 61.8378C620.944 61.8378 622.096 63.1978 622.096 65.1818V68.5098C622.096 69.5338 622.192 70.1258 622.384 70.5898H620.592C620.464 70.2698 620.416 69.8218 620.4 69.3418C619.68 70.3498 618.576 70.7978 617.552 70.7978C615.824 70.7978 614.64 69.9818 614.64 68.3498C614.64 67.1818 615.28 66.3178 616.56 65.8858C617.696 65.5018 618.848 65.4058 620.384 65.3898V65.1978C620.384 63.9498 619.808 63.2778 618.496 63.2778C617.392 63.2778 616.8 63.8858 616.64 64.8458ZM616.368 68.2858C616.368 69.0058 616.96 69.4538 617.872 69.4538C619.296 69.4538 620.384 68.3178 620.384 66.9418V66.5578C617.104 66.5898 616.368 67.3098 616.368 68.2858ZM624.243 70.5898V62.0618H625.955V63.3258C626.515 62.3018 627.395 61.8378 628.387 61.8378C628.723 61.8378 629.043 61.9178 629.203 62.0618V63.5658C628.947 63.4858 628.643 63.4538 628.291 63.4538C626.659 63.4538 625.955 64.4458 625.955 65.9338V70.5898H624.243ZM637.78 67.8058C637.316 69.7898 635.844 70.7978 633.844 70.7978C631.332 70.7978 629.796 69.1178 629.796 66.3338C629.796 63.4378 631.332 61.8378 633.764 61.8378C636.228 61.8378 637.716 63.5018 637.716 66.2378V66.6538H631.54C631.636 68.3978 632.452 69.3738 633.844 69.3738C634.932 69.3738 635.7 68.8618 635.988 67.8058H637.78ZM633.764 63.2618C632.532 63.2618 631.796 64.0458 631.588 65.4858H635.94C635.732 64.0458 634.98 63.2618 633.764 63.2618ZM646.139 70.7978C643.659 70.7978 642.155 69.1178 642.155 66.3338C642.155 63.4378 643.707 61.8378 646.139 61.8378C648.619 61.8378 650.123 63.5498 650.123 66.3338C650.123 69.2138 648.571 70.7978 646.139 70.7978ZM646.139 69.3578C647.595 69.3578 648.379 68.3018 648.379 66.3338C648.379 64.3818 647.579 63.2778 646.139 63.2778C644.699 63.2778 643.899 64.3498 643.899 66.3338C643.899 68.2698 644.699 69.3578 646.139 69.3578ZM653.502 74.1098H651.79V62.0618H653.502V63.0858C654.046 62.2858 654.846 61.8378 655.822 61.8378C658.078 61.8378 659.438 63.5178 659.438 66.3018C659.438 69.1978 658.046 70.7978 655.822 70.7978C654.846 70.7978 654.046 70.3978 653.502 69.6138V74.1098ZM655.614 63.2778C654.238 63.2778 653.502 64.3498 653.502 66.3018C653.502 68.2538 654.27 69.3578 655.614 69.3578C656.958 69.3578 657.694 68.2698 657.694 66.3018C657.694 64.3658 656.926 63.2778 655.614 63.2778ZM661.327 68.0458V63.3898H660.175V62.0618H661.327V60.0938H663.039V62.0618H664.879V63.3898H663.039V67.9498C663.039 68.9258 663.311 69.3898 664.511 69.3898H664.847V70.6378C664.655 70.7338 664.255 70.7978 663.775 70.7978C662.111 70.7978 661.327 69.8858 661.327 68.0458ZM666.165 61.0058V59.0698H667.877V61.0058H666.165ZM666.165 70.5898V62.0618H667.877V70.5898H666.165ZM673.514 70.7978C671.034 70.7978 669.53 69.1178 669.53 66.3338C669.53 63.4378 671.082 61.8378 673.514 61.8378C675.994 61.8378 677.498 63.5498 677.498 66.3338C677.498 69.2138 675.946 70.7978 673.514 70.7978ZM673.514 69.3578C674.97 69.3578 675.754 68.3018 675.754 66.3338C675.754 64.3818 674.954 63.2778 673.514 63.2778C672.074 63.2778 671.274 64.3498 671.274 66.3338C671.274 68.2698 672.074 69.3578 673.514 69.3578ZM679.165 70.5898V62.0618H680.877V63.1978C681.453 62.2858 682.349 61.8378 683.453 61.8378C685.229 61.8378 686.333 62.8778 686.333 64.8938V70.5898H684.637V65.2458C684.637 64.0138 684.093 63.2618 682.925 63.2618C681.645 63.2618 680.877 64.3978 680.877 65.5818V70.5898H679.165ZM690.031 64.8458H688.319C688.591 62.9578 689.887 61.8378 692.015 61.8378C694.335 61.8378 695.487 63.1978 695.487 65.1818V68.5098C695.487 69.5338 695.583 70.1258 695.775 70.5898H693.983C693.855 70.2698 693.807 69.8218 693.791 69.3418C693.071 70.3498 691.967 70.7978 690.943 70.7978C689.215 70.7978 688.031 69.9818 688.031 68.3498C688.031 67.1818 688.671 66.3178 689.951 65.8858C691.087 65.5018 692.239 65.4058 693.775 65.3898V65.1978C693.775 63.9498 693.199 63.2778 691.887 63.2778C690.783 63.2778 690.191 63.8858 690.031 64.8458ZM689.759 68.2858C689.759 69.0058 690.351 69.4538 691.263 69.4538C692.687 69.4538 693.775 68.3178 693.775 66.9418V66.5578C690.495 66.5898 689.759 67.3098 689.759 68.2858ZM697.634 70.5898V59.0698H699.346V70.5898H697.634ZM701.271 70.5898V68.6218H703.255V69.6778C703.255 71.2138 702.983 72.1738 702.359 73.2778H701.431C701.815 72.3178 702.071 71.5818 702.071 70.5898H701.271ZM708.561 68.0458V63.3898H707.409V62.0618H708.561V60.0938H710.273V62.0618H712.113V63.3898H710.273V67.9498C710.273 68.9258 710.545 69.3898 711.745 69.3898H712.081V70.6378C711.889 70.7338 711.489 70.7978 711.009 70.7978C709.345 70.7978 708.561 69.8858 708.561 68.0458ZM713.399 70.5898V62.0618H715.111V63.3258C715.671 62.3018 716.551 61.8378 717.543 61.8378C717.879 61.8378 718.199 61.9178 718.359 62.0618V63.5658C718.103 63.4858 717.799 63.4538 717.447 63.4538C715.815 63.4538 715.111 64.4458 715.111 65.9338V70.5898H713.399ZM721.015 64.8458H719.303C719.575 62.9578 720.871 61.8378 722.999 61.8378C725.319 61.8378 726.471 63.1978 726.471 65.1818V68.5098C726.471 69.5338 726.567 70.1258 726.759 70.5898H724.967C724.839 70.2698 724.791 69.8218 724.775 69.3418C724.055 70.3498 722.951 70.7978 721.927 70.7978C720.199 70.7978 719.015 69.9818 719.015 68.3498C719.015 67.1818 719.655 66.3178 720.935 65.8858C722.071 65.5018 723.223 65.4058 724.759 65.3898V65.1978C724.759 63.9498 724.183 63.2778 722.871 63.2778C721.767 63.2778 721.175 63.8858 721.015 64.8458ZM720.743 68.2858C720.743 69.0058 721.335 69.4538 722.247 69.4538C723.671 69.4538 724.759 68.3178 724.759 66.9418V66.5578C721.479 66.5898 720.743 67.3098 720.743 68.2858ZM728.618 70.5898V62.0618H730.33V63.1978C730.906 62.2858 731.802 61.8378 732.906 61.8378C734.682 61.8378 735.786 62.8778 735.786 64.8938V70.5898H734.09V65.2458C734.09 64.0138 733.546 63.2618 732.378 63.2618C731.098 63.2618 730.33 64.3978 730.33 65.5818V70.5898H728.618ZM739.228 64.3018C739.228 66.4778 744.684 64.6538 744.684 68.1258C744.684 69.7418 743.228 70.7978 741.164 70.7978C739.1 70.7978 737.644 69.8378 737.324 67.8058H739.036C739.212 68.8778 740.012 69.4698 741.212 69.4698C742.364 69.4698 742.972 68.9578 742.972 68.2378C742.972 66.1098 737.596 67.9018 737.596 64.3978C737.596 63.0698 738.636 61.8378 740.796 61.8378C742.7 61.8378 744.108 62.7178 744.38 64.8458H742.668C742.476 63.6458 741.804 63.1978 740.716 63.1978C739.772 63.1978 739.228 63.6618 739.228 64.3018ZM747.955 74.1098H746.243V62.0618H747.955V63.0858C748.499 62.2858 749.299 61.8378 750.275 61.8378C752.531 61.8378 753.891 63.5178 753.891 66.3018C753.891 69.1978 752.499 70.7978 750.275 70.7978C749.299 70.7978 748.499 70.3978 747.955 69.6138V74.1098ZM750.067 63.2778C748.691 63.2778 747.955 64.3498 747.955 66.3018C747.955 68.2538 748.723 69.3578 750.067 69.3578C751.411 69.3578 752.147 68.2698 752.147 66.3018C752.147 64.3658 751.379 63.2778 750.067 63.2778ZM757.172 64.8458H755.46C755.732 62.9578 757.028 61.8378 759.156 61.8378C761.476 61.8378 762.628 63.1978 762.628 65.1818V68.5098C762.628 69.5338 762.724 70.1258 762.916 70.5898H761.124C760.996 70.2698 760.948 69.8218 760.932 69.3418C760.212 70.3498 759.108 70.7978 758.084 70.7978C756.356 70.7978 755.172 69.9818 755.172 68.3498C755.172 67.1818 755.812 66.3178 757.092 65.8858C758.228 65.5018 759.38 65.4058 760.916 65.3898V65.1978C760.916 63.9498 760.34 63.2778 759.028 63.2778C757.924 63.2778 757.332 63.8858 757.172 64.8458ZM756.9 68.2858C756.9 69.0058 757.492 69.4538 758.404 69.4538C759.828 69.4538 760.916 68.3178 760.916 66.9418V66.5578C757.636 66.5898 756.9 67.3098 756.9 68.2858ZM764.774 70.5898V62.0618H766.486V63.3258C767.046 62.3018 767.926 61.8378 768.918 61.8378C769.254 61.8378 769.574 61.9178 769.734 62.0618V63.5658C769.478 63.4858 769.174 63.4538 768.822 63.4538C767.19 63.4538 766.486 64.4458 766.486 65.9338V70.5898H764.774ZM778.311 67.8058C777.847 69.7898 776.375 70.7978 774.375 70.7978C771.863 70.7978 770.327 69.1178 770.327 66.3338C770.327 63.4378 771.863 61.8378 774.295 61.8378C776.759 61.8378 778.247 63.5018 778.247 66.2378V66.6538H772.071C772.167 68.3978 772.983 69.3738 774.375 69.3738C775.463 69.3738 776.231 68.8618 776.519 67.8058H778.311ZM774.295 63.2618C773.063 63.2618 772.327 64.0458 772.119 65.4858H776.471C776.263 64.0458 775.511 63.2618 774.295 63.2618ZM779.962 70.5898V62.0618H781.674V63.1978C782.25 62.2858 783.146 61.8378 784.25 61.8378C786.026 61.8378 787.13 62.8778 787.13 64.8938V70.5898H785.434V65.2458C785.434 64.0138 784.89 63.2618 783.722 63.2618C782.442 63.2618 781.674 64.3978 781.674 65.5818V70.5898H779.962ZM789.436 68.0458V63.3898H788.284V62.0618H789.436V60.0938H791.148V62.0618H792.988V63.3898H791.148V67.9498C791.148 68.9258 791.42 69.3898 792.62 69.3898H792.956V70.6378C792.764 70.7338 792.364 70.7978 791.884 70.7978C790.22 70.7978 789.436 69.8858 789.436 68.0458ZM794.13 70.5898V68.6218H796.114V69.6778C796.114 71.2138 795.842 72.1738 795.218 73.2778H794.29C794.674 72.3178 794.93 71.5818 794.93 70.5898H794.13ZM522.656 88.8458H520.944C521.216 86.9578 522.512 85.8378 524.64 85.8378C526.96 85.8378 528.112 87.1978 528.112 89.1818V92.5098C528.112 93.5338 528.208 94.1258 528.4 94.5898H526.608C526.48 94.2698 526.432 93.8218 526.416 93.3418C525.696 94.3498 524.592 94.7978 523.568 94.7978C521.84 94.7978 520.656 93.9818 520.656 92.3498C520.656 91.1818 521.296 90.3178 522.576 89.8858C523.712 89.5018 524.864 89.4058 526.4 89.3898V89.1978C526.4 87.9498 525.824 87.2778 524.512 87.2778C523.408 87.2778 522.816 87.8858 522.656 88.8458ZM522.384 92.2858C522.384 93.0058 522.976 93.4538 523.888 93.4538C525.312 93.4538 526.4 92.3178 526.4 90.9418V90.5578C523.12 90.5898 522.384 91.3098 522.384 92.2858ZM530.259 94.5898V86.0618H531.971V87.1978C532.547 86.2858 533.443 85.8378 534.547 85.8378C536.323 85.8378 537.427 86.8778 537.427 88.8938V94.5898H535.731V89.2458C535.731 88.0138 535.187 87.2618 534.019 87.2618C532.739 87.2618 531.971 88.3978 531.971 89.5818V94.5898H530.259ZM542.709 94.7978C540.453 94.7978 539.093 93.1178 539.093 90.3338C539.093 87.4378 540.485 85.8378 542.709 85.8378C543.685 85.8378 544.485 86.2378 545.029 87.0218V83.0698H546.741V94.5898H545.029V93.5498C544.485 94.3498 543.685 94.7978 542.709 94.7978ZM542.933 93.3578C544.293 93.3578 545.029 92.3018 545.029 90.3338C545.029 88.3818 544.261 87.2778 542.933 87.2778C541.573 87.2778 540.837 88.3658 540.837 90.3338C540.837 92.2698 541.605 93.3578 542.933 93.3578ZM559.514 91.8058C559.05 93.7898 557.578 94.7978 555.578 94.7978C553.066 94.7978 551.53 93.1178 551.53 90.3338C551.53 87.4378 553.066 85.8378 555.498 85.8378C557.962 85.8378 559.45 87.5018 559.45 90.2378V90.6538H553.274C553.37 92.3978 554.186 93.3738 555.578 93.3738C556.666 93.3738 557.434 92.8618 557.722 91.8058H559.514ZM555.498 87.2618C554.266 87.2618 553.53 88.0458 553.322 89.4858H557.674C557.466 88.0458 556.714 87.2618 555.498 87.2618ZM564.365 94.7978C562.109 94.7978 560.749 93.1178 560.749 90.3338C560.749 87.4378 562.141 85.8378 564.365 85.8378C565.341 85.8378 566.141 86.2378 566.685 87.0218V83.0698H568.397V94.5898H566.685V93.5498C566.141 94.3498 565.341 94.7978 564.365 94.7978ZM564.589 93.3578C565.949 93.3578 566.685 92.3018 566.685 90.3338C566.685 88.3818 565.917 87.2778 564.589 87.2778C563.229 87.2778 562.493 88.3658 562.493 90.3338C562.493 92.2698 563.261 93.3578 564.589 93.3578ZM570.462 85.0058V83.0698H572.174V85.0058H570.462ZM570.462 94.5898V86.0618H572.174V94.5898H570.462ZM574.467 92.0458V87.3898H573.315V86.0618H574.467V84.0938H576.179V86.0618H578.019V87.3898H576.179V91.9498C576.179 92.9258 576.451 93.3898 577.651 93.3898H577.987V94.6378C577.795 94.7338 577.395 94.7978 576.915 94.7978C575.251 94.7978 574.467 93.8858 574.467 92.0458ZM580.922 88.8458H579.21C579.482 86.9578 580.778 85.8378 582.906 85.8378C585.226 85.8378 586.378 87.1978 586.378 89.1818V92.5098C586.378 93.5338 586.474 94.1258 586.666 94.5898H584.874C584.746 94.2698 584.698 93.8218 584.682 93.3418C583.962 94.3498 582.858 94.7978 581.834 94.7978C580.106 94.7978 578.922 93.9818 578.922 92.3498C578.922 91.1818 579.562 90.3178 580.842 89.8858C581.978 89.5018 583.13 89.4058 584.666 89.3898V89.1978C584.666 87.9498 584.09 87.2778 582.778 87.2778C581.674 87.2778 581.082 87.8858 580.922 88.8458ZM580.65 92.2858C580.65 93.0058 581.242 93.4538 582.154 93.4538C583.578 93.4538 584.666 92.3178 584.666 90.9418V90.5578C581.386 90.5898 580.65 91.3098 580.65 92.2858ZM590.236 94.5898H588.524V83.0698H590.236V87.0538C590.78 86.2698 591.58 85.8378 592.556 85.8378C594.796 85.8378 596.156 87.5178 596.156 90.3018C596.156 93.1978 594.764 94.7978 592.556 94.7978C591.58 94.7978 590.78 94.3978 590.236 93.6298V94.5898ZM592.332 87.2778C590.956 87.2778 590.236 88.3498 590.236 90.3018C590.236 92.2538 590.988 93.3578 592.332 93.3578C593.676 93.3578 594.412 92.2858 594.412 90.3018C594.412 88.3658 593.66 87.2778 592.332 87.2778ZM597.821 94.5898V83.0698H599.533V94.5898H597.821ZM609.171 91.8058C608.707 93.7898 607.235 94.7978 605.235 94.7978C602.723 94.7978 601.187 93.1178 601.187 90.3338C601.187 87.4378 602.723 85.8378 605.155 85.8378C607.619 85.8378 609.107 87.5018 609.107 90.2378V90.6538H602.931C603.027 92.3978 603.843 93.3738 605.235 93.3738C606.323 93.3738 607.091 92.8618 607.379 91.8058H609.171ZM605.155 87.2618C603.923 87.2618 603.187 88.0458 602.979 89.4858H607.331C607.123 88.0458 606.371 87.2618 605.155 87.2618ZM610.396 94.5898V92.6218H612.38V94.5898H610.396Z" fill="#D0FFB3"/>
<path d="M906.5 21.7955L795.589 126.78C790.336 131.753 793.855 140.59 801.089 140.59H1022.91C1030.14 140.59 1033.66 131.753 1028.41 126.78L917.499 21.7955C914.414 18.8754 909.585 18.8754 906.5 21.7955Z" fill="#00D4A2"/>
</g>
<g clip-path="url(#clip2_1_655)">
<rect y="136.59" width="484" height="124" rx="12" fill="#AA7F29"/>
<path d="M25.314 179.59V167.35H29.508C33.342 167.35 35.718 169.654 35.718 173.488C35.718 177.322 33.342 179.59 29.508 179.59H25.314ZM29.508 177.952C32.118 177.952 33.666 176.296 33.666 173.488C33.666 170.644 32.118 168.988 29.508 168.988H27.33V177.952H29.508ZM37.9351 179.59V167.35H46.3771V168.97H39.9511V172.462H45.6931V174.064H39.9511V177.97H46.3771V179.59H37.9351ZM50.0848 170.374C50.0848 173.596 57.5008 171.058 57.5008 176.062C57.5008 178.474 55.5388 179.824 52.8568 179.824C50.1388 179.824 48.2668 178.582 47.7628 176.026H49.8688C50.2108 177.412 51.2368 178.168 52.8748 178.168C54.5488 178.168 55.4308 177.43 55.4308 176.332C55.4308 172.876 48.0148 175.45 48.0148 170.536C48.0148 168.7 49.5628 167.116 52.3528 167.116C54.7648 167.116 56.7448 168.268 57.1768 170.95H55.0348C54.6928 169.438 53.7388 168.772 52.2988 168.772C50.8948 168.772 50.0848 169.402 50.0848 170.374ZM59.4507 179.59V167.35H61.4667V179.59H59.4507ZM74.4053 179.59H72.9473L72.7853 177.862C72.0293 179.194 70.7153 179.824 69.1493 179.824C65.8013 179.824 63.6593 177.43 63.6593 173.488C63.6593 169.564 65.8013 167.116 69.3293 167.116C71.7593 167.116 73.8473 168.448 74.4233 170.986H72.3173C71.8853 169.582 70.7333 168.808 69.2753 168.808C67.0433 168.808 65.7113 170.59 65.7113 173.488C65.7113 176.386 67.0613 178.132 69.3293 178.132C71.0033 178.132 72.3533 177.124 72.4793 174.784H69.5813V173.218H74.4053V179.59ZM76.8003 179.59V167.35H78.9063L84.0363 175.342L84.8103 176.782L84.7563 167.35H86.7723V179.59H84.6663L79.5543 171.634L78.7623 170.14L78.8163 179.59H76.8003ZM92.937 179.59V167.35H101.379V168.97H94.953V172.822H100.695V174.442H94.953V179.59H92.937ZM108.516 179.824C104.862 179.824 102.63 177.412 102.63 173.488C102.63 169.564 104.862 167.116 108.516 167.116C112.134 167.116 114.384 169.564 114.384 173.488C114.384 177.412 112.134 179.824 108.516 179.824ZM108.516 178.132C110.91 178.132 112.332 176.368 112.332 173.488C112.332 170.59 110.91 168.808 108.516 168.808C106.122 168.808 104.682 170.59 104.682 173.488C104.682 176.368 106.122 178.132 108.516 178.132ZM116.58 179.59V167.35H121.17C123.816 167.35 125.49 168.718 125.49 170.878C125.49 172.264 124.86 173.236 123.762 173.776C124.482 174.154 124.878 174.82 125.148 175.918L126.066 179.59H123.942L123.204 176.314C122.88 174.91 122.34 174.64 120.99 174.64H118.596V179.59H116.58ZM121.116 168.97H118.596V173.02H121.08C122.574 173.02 123.42 172.228 123.42 170.986C123.42 169.762 122.574 168.97 121.116 168.97ZM134.393 179.59V169.042H130.307V167.35H140.477V169.042H136.409V179.59H134.393ZM142.314 179.59V167.35H146.904C149.55 167.35 151.224 168.718 151.224 170.878C151.224 172.264 150.594 173.236 149.496 173.776C150.216 174.154 150.612 174.82 150.882 175.918L151.8 179.59H149.676L148.938 176.314C148.614 174.91 148.074 174.64 146.724 174.64H144.33V179.59H142.314ZM146.85 168.97H144.33V173.02H146.814C148.308 173.02 149.154 172.228 149.154 170.986C149.154 169.762 148.308 168.97 146.85 168.97ZM163.498 174.928C163.498 177.97 161.59 179.824 158.512 179.824C155.434 179.824 153.526 177.97 153.526 174.928V167.35H155.542V174.928C155.542 176.98 156.658 178.204 158.512 178.204C160.384 178.204 161.482 176.962 161.482 174.928V167.35H163.498V174.928ZM167.612 170.374C167.612 173.596 175.028 171.058 175.028 176.062C175.028 178.474 173.066 179.824 170.384 179.824C167.666 179.824 165.794 178.582 165.29 176.026H167.396C167.738 177.412 168.764 178.168 170.402 178.168C172.076 178.168 172.958 177.43 172.958 176.332C172.958 172.876 165.542 175.45 165.542 170.536C165.542 168.7 167.09 167.116 169.88 167.116C172.292 167.116 174.272 168.268 174.704 170.95H172.562C172.22 169.438 171.266 168.772 169.826 168.772C168.422 168.772 167.612 169.402 167.612 170.374ZM179.657 179.59V169.042H175.571V167.35H185.741V169.042H181.673V179.59H179.657Z" fill="#FEE5B2"/>
<path d="M34.352 198.942H32.48C32.112 197.694 31.072 197.006 29.776 197.006C27.792 197.006 26.608 198.59 26.608 201.166C26.608 203.742 27.776 205.294 29.776 205.294C31.024 205.294 32.032 204.654 32.448 203.422H34.336C33.744 205.582 31.92 206.798 29.776 206.798C26.672 206.798 24.784 204.67 24.784 201.166C24.784 197.678 26.688 195.502 29.824 195.502C31.984 195.502 33.84 196.686 34.352 198.942ZM36.0088 206.59V195.07H37.7208V206.59H36.0088ZM47.358 203.806C46.894 205.79 45.422 206.798 43.422 206.798C40.91 206.798 39.374 205.118 39.374 202.334C39.374 199.438 40.91 197.838 43.342 197.838C45.806 197.838 47.294 199.502 47.294 202.238V202.654H41.118C41.214 204.398 42.03 205.374 43.422 205.374C44.51 205.374 45.278 204.862 45.566 203.806H47.358ZM43.342 199.262C42.11 199.262 41.374 200.046 41.166 201.486H45.518C45.31 200.046 44.558 199.262 43.342 199.262ZM50.6248 200.846H48.9128C49.1848 198.958 50.4808 197.838 52.6088 197.838C54.9288 197.838 56.0808 199.198 56.0808 201.182V204.51C56.0808 205.534 56.1768 206.126 56.3688 206.59H54.5768C54.4488 206.27 54.4008 205.822 54.3848 205.342C53.6648 206.35 52.5608 206.798 51.5368 206.798C49.8088 206.798 48.6248 205.982 48.6248 204.35C48.6248 203.182 49.2648 202.318 50.5448 201.886C51.6808 201.502 52.8328 201.406 54.3688 201.39V201.198C54.3688 199.95 53.7928 199.278 52.4808 199.278C51.3768 199.278 50.7848 199.886 50.6248 200.846ZM50.3528 204.286C50.3528 205.006 50.9448 205.454 51.8568 205.454C53.2808 205.454 54.3688 204.318 54.3688 202.942V202.558C51.0888 202.59 50.3528 203.31 50.3528 204.286ZM58.2275 206.59V198.062H59.9395V199.326C60.4995 198.302 61.3795 197.838 62.3715 197.838C62.7075 197.838 63.0275 197.918 63.1875 198.062V199.566C62.9315 199.486 62.6275 199.454 62.2755 199.454C60.6435 199.454 59.9395 200.446 59.9395 201.934V206.59H58.2275ZM74.7091 201.038H72.9971C72.7891 199.822 72.0051 199.278 71.0131 199.278C69.5891 199.278 68.8211 200.366 68.8211 202.334C68.8211 204.27 69.6211 205.374 71.0611 205.374C72.0851 205.374 72.8051 204.814 73.0611 203.726H74.7571C74.3891 205.854 72.9171 206.798 71.0291 206.798C68.5651 206.798 67.0771 205.102 67.0771 202.334C67.0771 199.438 68.5971 197.838 71.0131 197.838C72.9171 197.838 74.4211 198.91 74.7091 201.038ZM79.9205 206.798C77.4405 206.798 75.9365 205.118 75.9365 202.334C75.9365 199.438 77.4885 197.838 79.9205 197.838C82.4005 197.838 83.9045 199.55 83.9045 202.334C83.9045 205.214 82.3525 206.798 79.9205 206.798ZM79.9205 205.358C81.3765 205.358 82.1605 204.302 82.1605 202.334C82.1605 200.382 81.3605 199.278 79.9205 199.278C78.4805 199.278 77.6805 200.35 77.6805 202.334C77.6805 204.27 78.4805 205.358 79.9205 205.358ZM85.5713 206.59V198.062H87.2833V199.198C87.8593 198.286 88.7552 197.838 89.8593 197.838C91.6353 197.838 92.7393 198.878 92.7393 200.894V206.59H91.0433V201.246C91.0433 200.014 90.4993 199.262 89.3313 199.262C88.0513 199.262 87.2833 200.398 87.2833 201.582V206.59H85.5713ZM96.1813 200.302C96.1813 202.478 101.637 200.654 101.637 204.126C101.637 205.742 100.181 206.798 98.1173 206.798C96.0533 206.798 94.5973 205.838 94.2773 203.806H95.9893C96.1653 204.878 96.9653 205.47 98.1653 205.47C99.3173 205.47 99.9253 204.958 99.9253 204.238C99.9253 202.11 94.5493 203.902 94.5493 200.398C94.5493 199.07 95.5893 197.838 97.7493 197.838C99.6533 197.838 101.061 198.718 101.333 200.846H99.6213C99.4293 199.646 98.7573 199.198 97.6693 199.198C96.7253 199.198 96.1813 199.662 96.1813 200.302ZM110.764 203.806C110.3 205.79 108.828 206.798 106.828 206.798C104.316 206.798 102.78 205.118 102.78 202.334C102.78 199.438 104.316 197.838 106.748 197.838C109.212 197.838 110.7 199.502 110.7 202.238V202.654H104.524C104.62 204.398 105.436 205.374 106.828 205.374C107.916 205.374 108.684 204.862 108.972 203.806H110.764ZM106.748 199.262C105.516 199.262 104.78 200.046 104.572 201.486H108.924C108.716 200.046 107.964 199.262 106.748 199.262ZM112.415 206.59V198.062H114.127V199.198C114.703 198.286 115.599 197.838 116.703 197.838C118.479 197.838 119.583 198.878 119.583 200.894V206.59H117.887V201.246C117.887 200.014 117.343 199.262 116.175 199.262C114.895 199.262 114.127 200.398 114.127 201.582V206.59H112.415ZM121.889 204.046V199.39H120.737V198.062H121.889V196.094H123.601V198.062H125.441V199.39H123.601V203.95C123.601 204.926 123.873 205.39 125.073 205.39H125.409V206.638C125.217 206.734 124.817 206.798 124.337 206.798C122.673 206.798 121.889 205.886 121.889 204.046ZM126.584 206.59V204.622H128.568V205.678C128.568 207.214 128.296 208.174 127.672 209.278H126.743C127.128 208.318 127.384 207.582 127.384 206.59H126.584ZM135.009 200.302C135.009 202.478 140.465 200.654 140.465 204.126C140.465 205.742 139.009 206.798 136.945 206.798C134.881 206.798 133.425 205.838 133.105 203.806H134.817C134.993 204.878 135.793 205.47 136.993 205.47C138.145 205.47 138.753 204.958 138.753 204.238C138.753 202.11 133.377 203.902 133.377 200.398C133.377 199.07 134.417 197.838 136.577 197.838C138.481 197.838 139.889 198.718 140.161 200.846H138.449C138.257 199.646 137.585 199.198 136.497 199.198C135.553 199.198 135.009 199.662 135.009 200.302ZM142.248 204.046V199.39H141.096V198.062H142.248V196.094H143.96V198.062H145.8V199.39H143.96V203.95C143.96 204.926 144.232 205.39 145.432 205.39H145.768V206.638C145.576 206.734 145.176 206.798 144.696 206.798C143.032 206.798 142.248 205.886 142.248 204.046ZM147.087 206.59V198.062H148.799V199.326C149.359 198.302 150.239 197.838 151.231 197.838C151.567 197.838 151.887 197.918 152.047 198.062V199.566C151.791 199.486 151.487 199.454 151.135 199.454C149.503 199.454 148.799 200.446 148.799 201.934V206.59H147.087ZM156.624 206.798C154.144 206.798 152.64 205.118 152.64 202.334C152.64 199.438 154.192 197.838 156.624 197.838C159.104 197.838 160.608 199.55 160.608 202.334C160.608 205.214 159.056 206.798 156.624 206.798ZM156.624 205.358C158.08 205.358 158.864 204.302 158.864 202.334C158.864 200.382 158.064 199.278 156.624 199.278C155.184 199.278 154.384 200.35 154.384 202.334C154.384 204.27 155.184 205.358 156.624 205.358ZM162.274 206.59V198.062H163.986V199.198C164.562 198.286 165.458 197.838 166.562 197.838C168.338 197.838 169.442 198.878 169.442 200.894V206.59H167.746V201.246C167.746 200.014 167.202 199.262 166.034 199.262C164.754 199.262 163.986 200.398 163.986 201.582V206.59H162.274ZM174.596 206.638C172.42 206.638 171.108 204.974 171.108 202.254C171.108 199.406 172.452 197.838 174.596 197.838C175.684 197.838 176.5 198.222 177.044 198.958V198.062H178.756V206.862C178.756 209.198 177.204 210.334 175.156 210.334C173.108 210.334 171.636 209.374 171.332 207.39H173.044C173.204 208.414 174.02 208.958 175.14 208.958C176.276 208.958 177.044 208.366 177.044 206.894V205.454C176.468 206.238 175.636 206.638 174.596 206.638ZM174.948 205.198C176.308 205.198 177.044 204.158 177.044 202.238C177.044 200.366 176.276 199.278 174.948 199.278C173.588 199.278 172.852 200.318 172.852 202.254C172.852 204.126 173.604 205.198 174.948 205.198ZM185.69 210.11H183.978V198.062H185.69V199.086C186.234 198.286 187.034 197.838 188.01 197.838C190.266 197.838 191.626 199.518 191.626 202.302C191.626 205.198 190.234 206.798 188.01 206.798C187.034 206.798 186.234 206.398 185.69 205.614V210.11ZM187.802 199.278C186.426 199.278 185.69 200.35 185.69 202.302C185.69 204.254 186.458 205.358 187.802 205.358C189.146 205.358 189.882 204.27 189.882 202.302C189.882 200.366 189.114 199.278 187.802 199.278ZM193.29 206.59V198.062H195.002V199.326C195.562 198.302 196.442 197.838 197.434 197.838C197.77 197.838 198.09 197.918 198.25 198.062V199.566C197.994 199.486 197.69 199.454 197.338 199.454C195.706 199.454 195.002 200.446 195.002 201.934V206.59H193.29ZM199.415 197.006V195.07H201.127V197.006H199.415ZM199.415 206.59V198.062H201.127V206.59H199.415ZM205.356 206.59L202.22 198.062H204.06L206.252 204.398L206.46 205.214L206.668 204.398L208.844 198.062H210.588L207.452 206.59H205.356ZM213.265 200.846H211.553C211.825 198.958 213.121 197.838 215.249 197.838C217.569 197.838 218.721 199.198 218.721 201.182V204.51C218.721 205.534 218.817 206.126 219.009 206.59H217.217C217.089 206.27 217.041 205.822 217.025 205.342C216.305 206.35 215.201 206.798 214.177 206.798C212.449 206.798 211.265 205.982 211.265 204.35C211.265 203.182 211.905 202.318 213.185 201.886C214.321 201.502 215.473 201.406 217.009 201.39V201.198C217.009 199.95 216.433 199.278 215.121 199.278C214.017 199.278 213.425 199.886 213.265 200.846ZM212.993 204.286C212.993 205.006 213.585 205.454 214.497 205.454C215.921 205.454 217.009 204.318 217.009 202.942V202.558C213.729 202.59 212.993 203.31 212.993 204.286ZM228.084 201.038H226.372C226.164 199.822 225.38 199.278 224.388 199.278C222.964 199.278 222.196 200.366 222.196 202.334C222.196 204.27 222.996 205.374 224.436 205.374C225.46 205.374 226.18 204.814 226.436 203.726H228.132C227.764 205.854 226.292 206.798 224.404 206.798C221.94 206.798 220.452 205.102 220.452 202.334C220.452 199.438 221.972 197.838 224.388 197.838C226.292 197.838 227.796 198.91 228.084 201.038ZM230.07 210.318C229.702 210.318 229.318 210.222 229.126 210.158V208.846H229.59C230.566 208.846 230.934 208.654 231.67 206.878L231.926 206.286L228.502 198.062H230.342L232.454 203.374L232.822 204.542L233.19 203.374L235.238 198.062H236.982L233.11 207.582C232.246 209.71 231.59 210.318 230.07 210.318ZM236.802 206.59V204.622H238.786V205.678C238.786 207.214 238.514 208.174 237.89 209.278H236.962C237.346 208.318 237.602 207.582 237.602 206.59H236.802ZM245.484 200.846H243.772C244.044 198.958 245.34 197.838 247.468 197.838C249.788 197.838 250.94 199.198 250.94 201.182V204.51C250.94 205.534 251.036 206.126 251.228 206.59H249.436C249.308 206.27 249.26 205.822 249.244 205.342C248.524 206.35 247.42 206.798 246.396 206.798C244.668 206.798 243.484 205.982 243.484 204.35C243.484 203.182 244.124 202.318 245.404 201.886C246.54 201.502 247.692 201.406 249.228 201.39V201.198C249.228 199.95 248.652 199.278 247.34 199.278C246.236 199.278 245.644 199.886 245.484 200.846ZM245.212 204.286C245.212 205.006 245.804 205.454 246.716 205.454C248.14 205.454 249.228 204.318 249.228 202.942V202.558C245.948 202.59 245.212 203.31 245.212 204.286ZM253.087 206.59V198.062H254.799V199.198C255.375 198.286 256.271 197.838 257.375 197.838C259.151 197.838 260.255 198.878 260.255 200.894V206.59H258.559V201.246C258.559 200.014 258.015 199.262 256.847 199.262C255.567 199.262 254.799 200.398 254.799 201.582V206.59H253.087ZM265.537 206.798C263.281 206.798 261.921 205.118 261.921 202.334C261.921 199.438 263.313 197.838 265.537 197.838C266.513 197.838 267.313 198.238 267.857 199.022V195.07H269.569V206.59H267.857V205.55C267.313 206.35 266.513 206.798 265.537 206.798ZM265.761 205.358C267.121 205.358 267.857 204.302 267.857 202.334C267.857 200.382 267.089 199.278 265.761 199.278C264.401 199.278 263.665 200.366 263.665 202.334C263.665 204.27 264.433 205.358 265.761 205.358ZM276.934 206.59L273.798 198.062H275.638L277.83 204.398L278.038 205.214L278.246 204.398L280.422 198.062H282.166L279.03 206.59H276.934ZM283.274 197.006V195.07H284.986V197.006H283.274ZM283.274 206.59V198.062H284.986V206.59H283.274ZM288.416 200.302C288.416 202.478 293.872 200.654 293.872 204.126C293.872 205.742 292.416 206.798 290.352 206.798C288.288 206.798 286.832 205.838 286.512 203.806H288.224C288.4 204.878 289.2 205.47 290.4 205.47C291.552 205.47 292.16 204.958 292.16 204.238C292.16 202.11 286.784 203.902 286.784 200.398C286.784 199.07 287.824 197.838 289.984 197.838C291.888 197.838 293.296 198.718 293.568 200.846H291.856C291.664 199.646 290.992 199.198 289.904 199.198C288.96 199.198 288.416 199.662 288.416 200.302ZM295.431 197.006V195.07H297.143V197.006H295.431ZM295.431 206.59V198.062H297.143V206.59H295.431ZM300.924 206.59H299.212V195.07H300.924V199.054C301.468 198.27 302.268 197.838 303.244 197.838C305.484 197.838 306.844 199.518 306.844 202.302C306.844 205.198 305.452 206.798 303.244 206.798C302.268 206.798 301.468 206.398 300.924 205.63V206.59ZM303.02 199.278C301.644 199.278 300.924 200.35 300.924 202.302C300.924 204.254 301.676 205.358 303.02 205.358C304.364 205.358 305.1 204.286 305.1 202.302C305.1 200.366 304.348 199.278 303.02 199.278ZM308.509 206.59V195.07H310.221V206.59H308.509ZM319.858 203.806C319.394 205.79 317.922 206.798 315.922 206.798C313.41 206.798 311.874 205.118 311.874 202.334C311.874 199.438 313.41 197.838 315.842 197.838C318.306 197.838 319.794 199.502 319.794 202.238V202.654H313.618C313.714 204.398 314.53 205.374 315.922 205.374C317.01 205.374 317.778 204.862 318.066 203.806H319.858ZM315.842 199.262C314.61 199.262 313.874 200.046 313.666 201.486H318.018C317.81 200.046 317.058 199.262 315.842 199.262ZM32.256 225.038H30.544C30.336 223.822 29.552 223.278 28.56 223.278C27.136 223.278 26.368 224.366 26.368 226.334C26.368 228.27 27.168 229.374 28.608 229.374C29.632 229.374 30.352 228.814 30.608 227.726H32.304C31.936 229.854 30.464 230.798 28.576 230.798C26.112 230.798 24.624 229.102 24.624 226.334C24.624 223.438 26.144 221.838 28.56 221.838C30.464 221.838 31.968 222.91 32.256 225.038ZM37.4674 230.798C34.9874 230.798 33.4834 229.118 33.4834 226.334C33.4834 223.438 35.0354 221.838 37.4674 221.838C39.9474 221.838 41.4514 223.55 41.4514 226.334C41.4514 229.214 39.8994 230.798 37.4674 230.798ZM37.4674 229.358C38.9234 229.358 39.7074 228.302 39.7074 226.334C39.7074 224.382 38.9074 223.278 37.4674 223.278C36.0274 223.278 35.2274 224.35 35.2274 226.334C35.2274 228.27 36.0274 229.358 37.4674 229.358ZM43.1181 230.59V222.062H44.8301V223.198C45.4061 222.286 46.3021 221.838 47.4061 221.838C49.1821 221.838 50.2861 222.878 50.2861 224.894V230.59H48.5901V225.246C48.5901 224.014 48.0461 223.262 46.8781 223.262C45.5981 223.262 44.8301 224.398 44.8301 225.582V230.59H43.1181ZM52.5921 228.046V223.39H51.4401V222.062H52.5921V220.094H54.3041V222.062H56.1441V223.39H54.3041V227.95C54.3041 228.926 54.5761 229.39 55.7761 229.39H56.1121V230.638C55.9201 230.734 55.5201 230.798 55.0401 230.798C53.3761 230.798 52.5921 229.886 52.5921 228.046ZM57.4306 230.59V222.062H59.1426V223.326C59.7026 222.302 60.5826 221.838 61.5746 221.838C61.9106 221.838 62.2306 221.918 62.3906 222.062V223.566C62.1346 223.486 61.8306 223.454 61.4786 223.454C59.8466 223.454 59.1426 224.446 59.1426 225.934V230.59H57.4306ZM66.9674 230.798C64.4874 230.798 62.9834 229.118 62.9834 226.334C62.9834 223.438 64.5354 221.838 66.9674 221.838C69.4474 221.838 70.9514 223.55 70.9514 226.334C70.9514 229.214 69.3994 230.798 66.9674 230.798ZM66.9674 229.358C68.4234 229.358 69.2074 228.302 69.2074 226.334C69.2074 224.382 68.4074 223.278 66.9674 223.278C65.5274 223.278 64.7274 224.35 64.7274 226.334C64.7274 228.27 65.5274 229.358 66.9674 229.358ZM72.6181 230.59V219.07H74.3301V230.59H72.6181ZM77.7594 224.302C77.7594 226.478 83.2154 224.654 83.2154 228.126C83.2154 229.742 81.7594 230.798 79.6954 230.798C77.6314 230.798 76.1754 229.838 75.8554 227.806H77.5674C77.7434 228.878 78.5434 229.47 79.7434 229.47C80.8954 229.47 81.5034 228.958 81.5034 228.238C81.5034 226.11 76.1274 227.902 76.1274 224.398C76.1274 223.07 77.1674 221.838 79.3274 221.838C81.2314 221.838 82.6394 222.718 82.9114 224.846H81.1994C81.0074 223.646 80.3354 223.198 79.2474 223.198C78.3034 223.198 77.7594 223.662 77.7594 224.302ZM88.139 228.046V223.39H86.987V222.062H88.139V220.094H89.851V222.062H91.691V223.39H89.851V227.95C89.851 228.926 90.123 229.39 91.323 229.39H91.659V230.638C91.467 230.734 91.067 230.798 90.587 230.798C88.923 230.798 88.139 229.886 88.139 228.046ZM92.9775 230.59V219.07H94.6895V223.198C95.2655 222.286 96.1615 221.838 97.2655 221.838C99.0415 221.838 100.146 222.878 100.146 224.894V230.59H98.4495V225.246C98.4495 224.014 97.9055 223.262 96.7375 223.262C95.4575 223.262 94.6895 224.398 94.6895 225.582V230.59H92.9775ZM102.228 230.59V222.062H103.94V223.326C104.5 222.302 105.38 221.838 106.372 221.838C106.708 221.838 107.028 221.918 107.188 222.062V223.566C106.932 223.486 106.628 223.454 106.276 223.454C104.644 223.454 103.94 224.446 103.94 225.934V230.59H102.228ZM111.764 230.798C109.284 230.798 107.78 229.118 107.78 226.334C107.78 223.438 109.332 221.838 111.764 221.838C114.244 221.838 115.748 223.55 115.748 226.334C115.748 229.214 114.196 230.798 111.764 230.798ZM111.764 229.358C113.22 229.358 114.004 228.302 114.004 226.334C114.004 224.382 113.204 223.278 111.764 223.278C110.324 223.278 109.524 224.35 109.524 226.334C109.524 228.27 110.324 229.358 111.764 229.358ZM122.791 227.054V222.062H124.487V230.59H122.791V229.438C122.231 230.35 121.335 230.798 120.247 230.798C118.503 230.798 117.415 229.774 117.415 227.758V222.062H119.127V227.406C119.127 228.638 119.639 229.374 120.775 229.374C122.023 229.374 122.791 228.238 122.791 227.054ZM129.643 230.638C127.467 230.638 126.155 228.974 126.155 226.254C126.155 223.406 127.499 221.838 129.643 221.838C130.731 221.838 131.547 222.222 132.091 222.958V222.062H133.803V230.862C133.803 233.198 132.251 234.334 130.203 234.334C128.155 234.334 126.683 233.374 126.379 231.39H128.091C128.251 232.414 129.067 232.958 130.187 232.958C131.323 232.958 132.091 232.366 132.091 230.894V229.454C131.515 230.238 130.683 230.638 129.643 230.638ZM129.995 229.198C131.355 229.198 132.091 228.158 132.091 226.238C132.091 224.366 131.323 223.278 129.995 223.278C128.635 223.278 127.899 224.318 127.899 226.254C127.899 228.126 128.651 229.198 129.995 229.198ZM135.884 230.59V219.07H137.596V223.198C138.172 222.286 139.068 221.838 140.172 221.838C141.948 221.838 143.052 222.878 143.052 224.894V230.59H141.356V225.246C141.356 224.014 140.812 223.262 139.644 223.262C138.364 223.262 137.596 224.398 137.596 225.582V230.59H135.884ZM148.702 230.798C146.222 230.798 144.718 229.118 144.718 226.334C144.718 223.438 146.27 221.838 148.702 221.838C151.182 221.838 152.686 223.55 152.686 226.334C152.686 229.214 151.134 230.798 148.702 230.798ZM148.702 229.358C150.158 229.358 150.942 228.302 150.942 226.334C150.942 224.382 150.142 223.278 148.702 223.278C147.262 223.278 146.462 224.35 146.462 226.334C146.462 228.27 147.262 229.358 148.702 229.358ZM159.729 227.054V222.062H161.425V230.59H159.729V229.438C159.169 230.35 158.273 230.798 157.185 230.798C155.441 230.798 154.353 229.774 154.353 227.758V222.062H156.065V227.406C156.065 228.638 156.577 229.374 157.713 229.374C158.961 229.374 159.729 228.238 159.729 227.054ZM163.733 228.046V223.39H162.581V222.062H163.733V220.094H165.445V222.062H167.285V223.39H165.445V227.95C165.445 228.926 165.717 229.39 166.917 229.39H167.253V230.638C167.061 230.734 166.661 230.798 166.181 230.798C164.517 230.798 163.733 229.886 163.733 228.046ZM168.427 230.59V228.622H170.411V230.59H168.427Z" fill="#FEE5B2"/>
<circle cx="432" cy="224.59" r="72" fill="#F3D089"/>
</g>
<g clip-path="url(#clip3_1_655)">
<rect x="496" y="136.59" width="484" height="124" rx="12" fill="#CB3540"/>
<path d="M521.314 179.59V167.35H529.756V168.97H523.33V172.822H529.072V174.442H523.33V179.59H521.314ZM531.685 179.59V167.35H540.127V168.97H533.701V172.462H539.443V174.064H533.701V177.97H540.127V179.59H531.685ZM542.197 179.59V167.35H550.639V168.97H544.213V172.462H549.955V174.064H544.213V177.97H550.639V179.59H542.197ZM552.709 179.59V167.35H554.725V177.952H560.647V179.59H552.709ZM566.033 179.59V167.35H568.049V179.59H566.033ZM570.673 179.59V167.35H572.779L577.909 175.342L578.683 176.782L578.629 167.35H580.645V179.59H578.539L573.427 171.634L572.635 170.14L572.689 179.59H570.673ZM584.375 167.35L587.849 176.458L588.209 177.682L588.569 176.458L592.043 167.35H594.041L589.325 179.59H586.985L582.251 167.35H584.375ZM595.669 179.59V167.35H597.685V179.59H595.669ZM601.948 170.374C601.948 173.596 609.364 171.058 609.364 176.062C609.364 178.474 607.402 179.824 604.72 179.824C602.002 179.824 600.13 178.582 599.626 176.026H601.732C602.074 177.412 603.1 178.168 604.738 178.168C606.412 178.168 607.294 177.43 607.294 176.332C607.294 172.876 599.878 175.45 599.878 170.536C599.878 168.7 601.426 167.116 604.216 167.116C606.628 167.116 608.608 168.268 609.04 170.95H606.898C606.556 169.438 605.602 168.772 604.162 168.772C602.758 168.772 601.948 169.402 601.948 170.374ZM611.314 179.59V167.35H613.33V179.59H611.314ZM615.955 179.59V167.35H620.455C623.047 167.35 624.685 168.628 624.685 170.68C624.685 171.814 624.109 172.696 623.047 173.146C624.559 173.596 625.369 174.658 625.369 176.098C625.369 178.312 623.767 179.59 621.067 179.59H615.955ZM620.401 168.952H617.971V172.552H620.365C621.805 172.552 622.615 171.832 622.615 170.788C622.615 169.654 621.787 168.952 620.401 168.952ZM620.815 174.118H617.971V177.988H621.013C622.435 177.988 623.299 177.214 623.299 176.044C623.299 174.874 622.381 174.118 620.815 174.118ZM627.38 179.59V167.35H629.396V177.952H635.318V179.59H627.38ZM637.171 179.59V167.35H645.613V168.97H639.187V172.462H644.929V174.064H639.187V177.97H645.613V179.59H637.171ZM662.124 179.59L659.658 171.13L659.37 170.05L659.1 171.13L656.634 179.59H654.312L650.496 167.35H652.638L655.266 176.476L655.554 177.538L655.806 176.476L658.434 167.35H660.432L663.06 176.476L663.33 177.538L663.582 176.476L666.192 167.35H668.244L664.428 179.59H662.124ZM670.148 179.59V167.35H672.164V172.48H678.104V167.35H680.12V179.59H678.104V174.118H672.164V179.59H670.148ZM682.752 179.59V167.35H691.194V168.97H684.768V172.462H690.51V174.064H684.768V177.97H691.194V179.59H682.752ZM693.263 179.59V167.35H695.369L700.499 175.342L701.273 176.782L701.219 167.35H703.235V179.59H701.129L696.017 171.634L695.225 170.14L695.279 179.59H693.263ZM709.4 179.59V167.35H711.416V179.59H709.4ZM717.335 179.59V169.042H713.249V167.35H723.419V169.042H719.351V179.59H717.335ZM728.437 179.59V167.35H730.543L735.673 175.342L736.447 176.782L736.393 167.35H738.409V179.59H736.303L731.191 171.634L730.399 170.14L730.453 179.59H728.437ZM741.041 179.59V167.35H749.483V168.97H743.057V172.462H748.799V174.064H743.057V177.97H749.483V179.59H741.041ZM751.552 179.59V167.35H759.994V168.97H753.568V172.462H759.31V174.064H753.568V177.97H759.994V179.59H751.552ZM762.064 179.59V167.35H766.258C770.092 167.35 772.468 169.654 772.468 173.488C772.468 177.322 770.092 179.59 766.258 179.59H762.064ZM766.258 177.952C768.868 177.952 770.416 176.296 770.416 173.488C770.416 170.644 768.868 168.988 766.258 168.988H764.08V177.952H766.258ZM776.323 170.374C776.323 173.596 783.739 171.058 783.739 176.062C783.739 178.474 781.777 179.824 779.095 179.824C776.377 179.824 774.505 178.582 774.001 176.026H776.107C776.449 177.412 777.475 178.168 779.113 178.168C780.787 178.168 781.669 177.43 781.669 176.332C781.669 172.876 774.253 175.45 774.253 170.536C774.253 168.7 775.801 167.116 778.591 167.116C781.003 167.116 782.983 168.268 783.415 170.95H781.273C780.931 169.438 779.977 168.772 778.537 168.772C777.133 168.772 776.323 169.402 776.323 170.374ZM792.165 179.59V169.042H788.079V167.35H798.249V169.042H794.181V179.59H792.165ZM804.801 179.824C801.147 179.824 798.915 177.412 798.915 173.488C798.915 169.564 801.147 167.116 804.801 167.116C808.419 167.116 810.669 169.564 810.669 173.488C810.669 177.412 808.419 179.824 804.801 179.824ZM804.801 178.132C807.195 178.132 808.617 176.368 808.617 173.488C808.617 170.59 807.195 168.808 804.801 168.808C802.407 168.808 800.967 170.59 800.967 173.488C800.967 176.368 802.407 178.132 804.801 178.132Z" fill="#FFC9EC"/>
<path d="M521.168 206.59V195.71H523.584L526.656 203.246L527.024 204.398L527.392 203.246L530.432 195.71H532.784V206.59H530.992L531.04 197.774L530.256 200.11L527.616 206.59H526.336L523.68 200.094L522.912 197.822L522.96 206.59H521.168ZM534.993 197.006V195.07H536.705V197.006H534.993ZM534.993 206.59V198.062H536.705V206.59H534.993ZM538.774 206.59V198.062H540.486V199.198C541.062 198.286 541.958 197.838 543.062 197.838C544.838 197.838 545.942 198.878 545.942 200.894V206.59H544.246V201.246C544.246 200.014 543.702 199.262 542.534 199.262C541.254 199.262 540.486 200.398 540.486 201.582V206.59H538.774ZM548.024 197.006V195.07H549.736V197.006H548.024ZM548.024 206.59V198.062H549.736V206.59H548.024ZM551.806 206.59V198.062H553.518V199.15C554.062 198.27 554.91 197.838 555.918 197.838C557.054 197.838 557.902 198.334 558.318 199.31C558.878 198.334 559.806 197.838 560.926 197.838C562.606 197.838 563.694 198.878 563.694 200.894V206.59H561.982V201.246C561.982 200.014 561.518 199.262 560.462 199.262C559.31 199.262 558.606 200.398 558.606 201.582V206.59H556.894V201.246C556.894 200.014 556.414 199.262 555.374 199.262C554.222 199.262 553.518 200.398 553.518 201.582V206.59H551.806ZM567.39 200.846H565.678C565.95 198.958 567.246 197.838 569.374 197.838C571.694 197.838 572.846 199.198 572.846 201.182V204.51C572.846 205.534 572.942 206.126 573.134 206.59H571.342C571.214 206.27 571.166 205.822 571.15 205.342C570.43 206.35 569.326 206.798 568.302 206.798C566.574 206.798 565.39 205.982 565.39 204.35C565.39 203.182 566.03 202.318 567.31 201.886C568.446 201.502 569.598 201.406 571.134 201.39V201.198C571.134 199.95 570.558 199.278 569.246 199.278C568.142 199.278 567.55 199.886 567.39 200.846ZM567.118 204.286C567.118 205.006 567.71 205.454 568.622 205.454C570.046 205.454 571.134 204.318 571.134 202.942V202.558C567.854 202.59 567.118 203.31 567.118 204.286ZM574.993 206.59V195.07H576.705V206.59H574.993ZM590.795 202.446C590.795 205.15 589.099 206.798 586.363 206.798C583.627 206.798 581.931 205.15 581.931 202.446V195.71H583.723V202.446C583.723 204.27 584.715 205.358 586.363 205.358C588.027 205.358 589.003 204.254 589.003 202.446V195.71H590.795V202.446ZM592.996 206.59V195.71H594.788V206.59H592.996ZM603.334 206.798C601.078 206.798 599.718 205.118 599.718 202.334C599.718 199.438 601.11 197.838 603.334 197.838C604.31 197.838 605.11 198.238 605.654 199.022V195.07H607.366V206.59H605.654V205.55C605.11 206.35 604.31 206.798 603.334 206.798ZM603.558 205.358C604.918 205.358 605.654 204.302 605.654 202.334C605.654 200.382 604.886 199.278 603.558 199.278C602.198 199.278 601.462 200.366 601.462 202.334C601.462 204.27 602.23 205.358 603.558 205.358ZM614.807 203.054V198.062H616.503V206.59H614.807V205.438C614.247 206.35 613.351 206.798 612.263 206.798C610.519 206.798 609.431 205.774 609.431 203.758V198.062H611.143V203.406C611.143 204.638 611.655 205.374 612.791 205.374C614.039 205.374 614.807 204.238 614.807 203.054ZM618.587 206.59V198.062H620.299V199.326C620.859 198.302 621.739 197.838 622.731 197.838C623.067 197.838 623.387 197.918 623.547 198.062V199.566C623.291 199.486 622.987 199.454 622.635 199.454C621.003 199.454 620.299 200.446 620.299 201.934V206.59H618.587ZM624.712 197.006V195.07H626.424V197.006H624.712ZM624.712 206.59V198.062H626.424V206.59H624.712ZM628.493 206.59V198.062H630.205V199.198C630.781 198.286 631.677 197.838 632.781 197.838C634.557 197.838 635.661 198.878 635.661 200.894V206.59H633.965V201.246C633.965 200.014 633.421 199.262 632.253 199.262C630.973 199.262 630.205 200.398 630.205 201.582V206.59H628.493ZM640.815 206.638C638.639 206.638 637.327 204.974 637.327 202.254C637.327 199.406 638.671 197.838 640.815 197.838C641.903 197.838 642.719 198.222 643.263 198.958V198.062H644.975V206.862C644.975 209.198 643.423 210.334 641.375 210.334C639.327 210.334 637.855 209.374 637.551 207.39H639.263C639.423 208.414 640.239 208.958 641.359 208.958C642.495 208.958 643.263 208.366 643.263 206.894V205.454C642.687 206.238 641.855 206.638 640.815 206.638ZM641.167 205.198C642.527 205.198 643.263 204.158 643.263 202.238C643.263 200.366 642.495 199.278 641.167 199.278C639.807 199.278 639.071 200.318 639.071 202.254C639.071 204.126 639.823 205.198 641.167 205.198ZM650.42 204.046V199.39H649.268V198.062H650.42V196.094H652.132V198.062H653.972V199.39H652.132V203.95C652.132 204.926 652.404 205.39 653.604 205.39H653.94V206.638C653.748 206.734 653.348 206.798 652.868 206.798C651.204 206.798 650.42 205.886 650.42 204.046ZM655.259 206.59V195.07H656.971V199.198C657.547 198.286 658.443 197.838 659.547 197.838C661.323 197.838 662.427 198.878 662.427 200.894V206.59H660.731V201.246C660.731 200.014 660.187 199.262 659.019 199.262C657.739 199.262 656.971 200.398 656.971 201.582V206.59H655.259ZM672.077 203.806C671.613 205.79 670.141 206.798 668.141 206.798C665.629 206.798 664.093 205.118 664.093 202.334C664.093 199.438 665.629 197.838 668.061 197.838C670.525 197.838 672.013 199.502 672.013 202.238V202.654H665.837C665.933 204.398 666.749 205.374 668.141 205.374C669.229 205.374 669.997 204.862 670.285 203.806H672.077ZM668.061 199.262C666.829 199.262 666.093 200.046 665.885 201.486H670.237C670.029 200.046 669.277 199.262 668.061 199.262ZM679.028 206.59L675.892 198.062H677.732L679.924 204.398L680.132 205.214L680.34 204.398L682.516 198.062H684.26L681.124 206.59H679.028ZM685.368 197.006V195.07H687.08V197.006H685.368ZM685.368 206.59V198.062H687.08V206.59H685.368ZM690.509 200.302C690.509 202.478 695.965 200.654 695.965 204.126C695.965 205.742 694.509 206.798 692.445 206.798C690.381 206.798 688.925 205.838 688.605 203.806H690.317C690.493 204.878 691.293 205.47 692.493 205.47C693.645 205.47 694.253 204.958 694.253 204.238C694.253 202.11 688.877 203.902 688.877 200.398C688.877 199.07 689.917 197.838 692.077 197.838C693.981 197.838 695.389 198.718 695.661 200.846H693.949C693.757 199.646 693.085 199.198 691.997 199.198C691.053 199.198 690.509 199.662 690.509 200.302ZM697.524 197.006V195.07H699.236V197.006H697.524ZM697.524 206.59V198.062H699.236V206.59H697.524ZM701.53 204.046V199.39H700.378V198.062H701.53V196.094H703.242V198.062H705.082V199.39H703.242V203.95C703.242 204.926 703.514 205.39 704.714 205.39H705.05V206.638C704.858 206.734 704.458 206.798 703.978 206.798C702.314 206.798 701.53 205.886 701.53 204.046ZM706.224 206.59V204.622H708.208V205.678C708.208 207.214 707.936 208.174 707.312 209.278H706.384C706.768 208.318 707.024 207.582 707.024 206.59H706.224ZM720.746 206.59L719.05 200.526L718.874 199.566L718.682 200.526L716.986 206.59H714.874L712.41 198.062H714.25L715.818 204.398L716.026 205.358L716.25 204.398L718.042 198.062H719.85L721.658 204.398L721.85 205.31L722.042 204.398L723.61 198.062H725.37L722.89 206.59H720.746ZM726.571 197.006V195.07H728.283V197.006H726.571ZM726.571 206.59V198.062H728.283V206.59H726.571ZM730.577 204.046V199.39H729.425V198.062H730.577V196.094H732.289V198.062H734.129V199.39H732.289V203.95C732.289 204.926 732.561 205.39 733.761 205.39H734.097V206.638C733.905 206.734 733.505 206.798 733.025 206.798C731.361 206.798 730.577 205.886 730.577 204.046ZM735.415 206.59V195.07H737.127V199.198C737.703 198.286 738.599 197.838 739.703 197.838C741.479 197.838 742.583 198.878 742.583 200.894V206.59H740.887V201.246C740.887 200.014 740.343 199.262 739.175 199.262C737.895 199.262 737.127 200.398 737.127 201.582V206.59H735.415ZM755.022 201.038H753.31C753.102 199.822 752.318 199.278 751.326 199.278C749.902 199.278 749.134 200.366 749.134 202.334C749.134 204.27 749.934 205.374 751.374 205.374C752.398 205.374 753.118 204.814 753.374 203.726H755.07C754.702 205.854 753.23 206.798 751.342 206.798C748.878 206.798 747.39 205.102 747.39 202.334C747.39 199.438 748.91 197.838 751.326 197.838C753.23 197.838 754.734 198.91 755.022 201.038ZM756.665 206.59V195.07H758.377V206.59H756.665ZM762.062 200.846H760.35C760.622 198.958 761.918 197.838 764.046 197.838C766.366 197.838 767.518 199.198 767.518 201.182V204.51C767.518 205.534 767.614 206.126 767.806 206.59H766.014C765.886 206.27 765.838 205.822 765.822 205.342C765.102 206.35 763.998 206.798 762.974 206.798C761.246 206.798 760.062 205.982 760.062 204.35C760.062 203.182 760.702 202.318 761.982 201.886C763.118 201.502 764.27 201.406 765.806 201.39V201.198C765.806 199.95 765.23 199.278 763.918 199.278C762.814 199.278 762.222 199.886 762.062 200.846ZM761.79 204.286C761.79 205.006 762.382 205.454 763.294 205.454C764.718 205.454 765.806 204.318 765.806 202.942V202.558C762.526 202.59 761.79 203.31 761.79 204.286ZM769.665 206.59V198.062H771.377V199.326C771.937 198.302 772.817 197.838 773.809 197.838C774.145 197.838 774.465 197.918 774.625 198.062V199.566C774.369 199.486 774.065 199.454 773.713 199.454C772.081 199.454 771.377 200.446 771.377 201.934V206.59H769.665ZM775.79 197.006V195.07H777.502V197.006H775.79ZM775.79 206.59V198.062H777.502V206.59H775.79ZM779.795 204.046V199.39H778.643V198.062H779.795V196.094H781.507V198.062H783.347V199.39H781.507V203.95C781.507 204.926 781.779 205.39 782.979 205.39H783.315V206.638C783.123 206.734 782.723 206.798 782.243 206.798C780.579 206.798 779.795 205.886 779.795 204.046ZM785.242 210.318C784.874 210.318 784.49 210.222 784.298 210.158V208.846H784.762C785.738 208.846 786.106 208.654 786.842 206.878L787.098 206.286L783.674 198.062H785.514L787.626 203.374L787.994 204.542L788.362 203.374L790.41 198.062H792.154L788.282 207.582C787.418 209.71 786.762 210.318 785.242 210.318ZM528.496 230.59L526.8 224.526L526.624 223.566L526.432 224.526L524.736 230.59H522.624L520.16 222.062H522L523.568 228.398L523.776 229.358L524 228.398L525.792 222.062H527.6L529.408 228.398L529.6 229.31L529.792 228.398L531.36 222.062H533.12L530.64 230.59H528.496ZM534.321 230.59V219.07H536.033V223.198C536.609 222.286 537.505 221.838 538.609 221.838C540.385 221.838 541.489 222.878 541.489 224.894V230.59H539.793V225.246C539.793 224.014 539.249 223.262 538.081 223.262C536.801 223.262 536.033 224.398 536.033 225.582V230.59H534.321ZM551.139 227.806C550.675 229.79 549.203 230.798 547.203 230.798C544.691 230.798 543.155 229.118 543.155 226.334C543.155 223.438 544.691 221.838 547.123 221.838C549.587 221.838 551.075 223.502 551.075 226.238V226.654H544.899C544.995 228.398 545.811 229.374 547.203 229.374C548.291 229.374 549.059 228.862 549.347 227.806H551.139ZM547.123 223.262C545.891 223.262 545.155 224.046 544.947 225.486H549.299C549.091 224.046 548.339 223.262 547.123 223.262ZM552.79 230.59V222.062H554.502V223.198C555.078 222.286 555.974 221.838 557.078 221.838C558.854 221.838 559.958 222.878 559.958 224.894V230.59H558.262V225.246C558.262 224.014 557.718 223.262 556.55 223.262C555.27 223.262 554.502 224.398 554.502 225.582V230.59H552.79ZM565.181 221.006V219.07H566.893V221.006H565.181ZM565.181 230.59V222.062H566.893V230.59H565.181ZM569.186 228.046V223.39H568.034V222.062H569.186V220.094H570.898V222.062H572.738V223.39H570.898V227.95C570.898 228.926 571.17 229.39 572.37 229.39H572.706V230.638C572.514 230.734 572.114 230.798 571.634 230.798C569.97 230.798 569.186 229.886 569.186 228.046ZM584.381 225.038H582.669C582.461 223.822 581.677 223.278 580.685 223.278C579.261 223.278 578.493 224.366 578.493 226.334C578.493 228.27 579.293 229.374 580.733 229.374C581.757 229.374 582.477 228.814 582.733 227.726H584.429C584.061 229.854 582.589 230.798 580.701 230.798C578.237 230.798 576.749 229.102 576.749 226.334C576.749 223.438 578.269 221.838 580.685 221.838C582.589 221.838 584.093 222.91 584.381 225.038ZM589.592 230.798C587.112 230.798 585.608 229.118 585.608 226.334C585.608 223.438 587.16 221.838 589.592 221.838C592.072 221.838 593.576 223.55 593.576 226.334C593.576 229.214 592.024 230.798 589.592 230.798ZM589.592 229.358C591.048 229.358 591.832 228.302 591.832 226.334C591.832 224.382 591.032 223.278 589.592 223.278C588.152 223.278 587.352 224.35 587.352 226.334C587.352 228.27 588.152 229.358 589.592 229.358ZM600.619 227.054V222.062H602.315V230.59H600.619V229.438C600.059 230.35 599.163 230.798 598.075 230.798C596.331 230.798 595.243 229.774 595.243 227.758V222.062H596.955V227.406C596.955 228.638 597.467 229.374 598.603 229.374C599.851 229.374 600.619 228.238 600.619 227.054ZM604.399 230.59V222.062H606.111V223.198C606.687 222.286 607.583 221.838 608.687 221.838C610.463 221.838 611.567 222.878 611.567 224.894V230.59H609.871V225.246C609.871 224.014 609.327 223.262 608.159 223.262C606.879 223.262 606.111 224.398 606.111 225.582V230.59H604.399ZM613.873 228.046V223.39H612.721V222.062H613.873V220.094H615.585V222.062H617.425V223.39H615.585V227.95C615.585 228.926 615.857 229.39 617.057 229.39H617.393V230.638C617.201 230.734 616.801 230.798 616.321 230.798C614.657 230.798 613.873 229.886 613.873 228.046ZM620.072 224.302C620.072 226.478 625.528 224.654 625.528 228.126C625.528 229.742 624.072 230.798 622.008 230.798C619.944 230.798 618.488 229.838 618.168 227.806H619.88C620.056 228.878 620.856 229.47 622.056 229.47C623.208 229.47 623.816 228.958 623.816 228.238C623.816 226.11 618.44 227.902 618.44 224.398C618.44 223.07 619.48 221.838 621.64 221.838C623.544 221.838 624.952 222.718 625.224 224.846H623.512C623.32 223.646 622.648 223.198 621.56 223.198C620.616 223.198 620.072 223.662 620.072 224.302ZM626.943 230.59V228.622H628.927V230.59H626.943Z" fill="#FFC9EC"/>
<rect x="939.473" y="148.59" width="128" height="128" rx="8" transform="rotate(52 939.473 148.59)" fill="#FDB1E2"/>
</g>
<defs>
<clipPath id="clip0_1_655">
<rect y="0.589844" width="484" height="124" rx="12" fill="white"/>
</clipPath>
<clipPath id="clip1_1_655">
<rect x="496" y="0.589844" width="484" height="124" rx="12" fill="white"/>
</clipPath>
<clipPath id="clip2_1_655">
<rect y="136.59" width="484" height="124" rx="12" fill="white"/>
</clipPath>
<clipPath id="clip3_1_655">
<rect x="496" y="136.59" width="484" height="124" rx="12" fill="white"/>
</clipPath>
</defs>
</svg>
