<svg width="315" height="226" viewBox="0 0 315 226" fill="none" xmlns="http://www.w3.org/2000/svg">
<g clip-path="url(#clip0_1_476)">
<rect width="314.667" height="226" rx="18" fill="#DAECFF"/>
<mask id="path-3-inside-1_1_476" fill="white">
<path d="M0 0H314.667V50H0V0Z"/>
</mask>
<path d="M0 0H314.667V50H0V0Z" fill="#257BD7"/>
<path d="M314.667 50V48H0V50V52H314.667V50Z" fill="#257BD7" fill-opacity="0.2" mask="url(#path-3-inside-1_1_476)"/>
<path d="M25.2118 33V21.712H32.9972V23.206H27.071V26.4264H32.3664V27.9038H27.071V31.506H32.9972V33H25.2118ZM34.9059 33V21.712H36.7651V26.443H42.2431V21.712H44.1023V33H42.2431V27.9536H36.7651V33H34.9059ZM46.5292 33V21.712H50.7622C53.2024 21.712 54.7462 22.9736 54.7462 24.9656C54.7462 26.2438 54.1652 27.1402 53.1526 27.6382C53.8166 27.9868 54.1818 28.601 54.4308 29.6136L55.2774 33H53.3186L52.638 29.9788C52.3392 28.684 51.8412 28.435 50.5962 28.435H48.3884V33H46.5292ZM50.7124 23.206H48.3884V26.941H50.6792C52.057 26.941 52.8372 26.2106 52.8372 25.0652C52.8372 23.9364 52.057 23.206 50.7124 23.206ZM60.2436 33V21.712H62.7502L65.9374 29.5306L66.3192 30.7258L66.701 29.5306L69.855 21.712H72.2952V33H70.436L70.4858 23.8534L69.6724 26.277L66.9334 33H65.6054L62.8498 26.2604L62.053 23.9032L62.1028 33H60.2436ZM78.289 33.2158C75.716 33.2158 74.1556 31.4728 74.1556 28.5844C74.1556 25.5798 75.7658 23.9198 78.289 23.9198C80.862 23.9198 82.4224 25.696 82.4224 28.5844C82.4224 31.5724 80.8122 33.2158 78.289 33.2158ZM78.289 31.7218C79.7996 31.7218 80.613 30.6262 80.613 28.5844C80.613 26.5592 79.783 25.4138 78.289 25.4138C76.795 25.4138 75.965 26.526 75.965 28.5844C75.965 30.593 76.795 31.7218 78.289 31.7218ZM85.9279 33H84.1517V21.048H85.9279V25.1814C86.4923 24.368 87.3223 23.9198 88.3349 23.9198C90.6589 23.9198 92.0699 25.6628 92.0699 28.5512C92.0699 31.5558 90.6257 33.2158 88.3349 33.2158C87.3223 33.2158 86.4923 32.8008 85.9279 32.004V33ZM88.1025 25.4138C86.6749 25.4138 85.9279 26.526 85.9279 28.5512C85.9279 30.5764 86.7081 31.7218 88.1025 31.7218C89.4969 31.7218 90.2605 30.6096 90.2605 28.5512C90.2605 26.5426 89.4803 25.4138 88.1025 25.4138ZM93.7972 23.0566V21.048H95.5734V23.0566H93.7972ZM93.7972 33V24.1522H95.5734V33H93.7972ZM97.7202 33V21.048H99.4964V33H97.7202ZM109.495 30.1116C109.014 32.17 107.486 33.2158 105.411 33.2158C102.805 33.2158 101.212 31.4728 101.212 28.5844C101.212 25.5798 102.805 23.9198 105.328 23.9198C107.885 23.9198 109.429 25.6462 109.429 28.4848V28.9164H103.021C103.121 30.7258 103.967 31.7384 105.411 31.7384C106.54 31.7384 107.337 31.2072 107.636 30.1116H109.495ZM105.328 25.3972C104.05 25.3972 103.287 26.2106 103.071 27.7046H107.586C107.37 26.2106 106.59 25.3972 105.328 25.3972ZM122.081 33L121.118 30.4602H115.972L115.009 33H113.15L117.499 21.712H119.674L124.023 33H122.081ZM118.213 24.6004L116.537 28.9994H120.554L118.877 24.6004L118.545 23.5048L118.213 24.6004ZM127.168 36.652H125.392V24.1522H127.168V25.2146C127.733 24.3846 128.563 23.9198 129.575 23.9198C131.916 23.9198 133.327 25.6628 133.327 28.5512C133.327 31.5558 131.883 33.2158 129.575 33.2158C128.563 33.2158 127.733 32.8008 127.168 31.9874V36.652ZM129.36 25.4138C127.932 25.4138 127.168 26.526 127.168 28.5512C127.168 30.5764 127.965 31.7218 129.36 31.7218C130.754 31.7218 131.518 30.593 131.518 28.5512C131.518 26.5426 130.721 25.4138 129.36 25.4138ZM136.83 36.652H135.054V24.1522H136.83V25.2146C137.395 24.3846 138.225 23.9198 139.237 23.9198C141.578 23.9198 142.989 25.6628 142.989 28.5512C142.989 31.5558 141.545 33.2158 139.237 33.2158C138.225 33.2158 137.395 32.8008 136.83 31.9874V36.652ZM139.021 25.4138C137.594 25.4138 136.83 26.526 136.83 28.5512C136.83 30.5764 137.627 31.7218 139.021 31.7218C140.416 31.7218 141.179 30.593 141.179 28.5512C141.179 26.5426 140.383 25.4138 139.021 25.4138ZM146.127 26.4762C146.127 28.7338 151.787 26.8414 151.787 30.4436C151.787 32.1202 150.277 33.2158 148.135 33.2158C145.994 33.2158 144.483 32.2198 144.151 30.1116H145.928C146.11 31.2238 146.94 31.838 148.185 31.838C149.38 31.838 150.011 31.3068 150.011 30.5598C150.011 28.352 144.434 30.2112 144.434 26.5758C144.434 25.198 145.513 23.9198 147.754 23.9198C149.729 23.9198 151.19 24.8328 151.472 27.0406H149.696C149.497 25.7956 148.799 25.3308 147.671 25.3308C146.691 25.3308 146.127 25.8122 146.127 26.4762Z" fill="white"/>
<path fill-rule="evenodd" clip-rule="evenodd" d="M36 90.0625C31.5473 90.0625 27.9375 86.4528 27.9375 82C27.9375 77.5473 31.5473 73.9375 36 73.9375C40.4528 73.9375 44.0625 77.5473 44.0625 82C44.0625 86.4528 40.4528 90.0625 36 90.0625ZM39.36 80.0335C39.7238 79.8347 39.8573 79.3788 39.6585 79.015C39.4598 78.652 39.0037 78.5185 38.64 78.7172C37.269 79.4672 36.135 80.9148 35.3722 82.0825C35.0902 82.5138 34.8495 82.9225 34.6568 83.2683C34.4775 83.0943 34.2997 82.9428 34.14 82.8168C33.9322 82.6525 33.7448 82.5228 33.6083 82.4328L33.372 82.2865C33.012 82.081 32.5538 82.2062 32.349 82.5662C32.1435 82.9255 32.2688 83.3837 32.628 83.5892L32.7862 83.6875C32.8935 83.758 33.0435 83.8615 33.21 83.9935C33.5535 84.265 33.9232 84.6205 34.1565 85.0105C34.2997 85.249 34.563 85.3893 34.8413 85.3743C35.1195 85.3585 35.3663 85.1905 35.4825 84.937L35.556 84.7832C35.607 84.679 35.6828 84.5275 35.7818 84.34C35.9798 83.9658 36.2685 83.4527 36.6278 82.9022C37.3658 81.7735 38.3318 80.596 39.36 80.0335Z" fill="#005ABB"/>
<path d="M57.797 88.186C54.7125 88.186 52.8215 86.109 52.8215 82.7455C52.8215 79.382 54.7125 77.274 57.797 77.274C60.866 77.274 62.7725 79.382 62.7725 82.7455C62.7725 86.109 60.866 88.186 57.797 88.186ZM57.797 86.9615C59.998 86.9615 61.3155 85.365 61.3155 82.7455C61.3155 80.1105 59.998 78.4985 57.797 78.4985C55.596 78.4985 54.2785 80.1105 54.2785 82.7455C54.2785 85.365 55.596 86.9615 57.797 86.9615ZM63.6722 80.8545V79.7695H64.8192V79.2115C64.8192 77.4755 65.5322 76.654 67.0512 76.654C67.3922 76.654 67.6712 76.716 67.8107 76.778V77.7545H67.6712C66.4777 77.7545 66.1832 78.2195 66.1832 79.2115V79.7695H67.8107V80.8545H66.1832V88H64.8192V80.8545H63.6722ZM69.0889 85.6285V80.8545H67.9419V79.7695H69.0889V77.8785H70.4529V79.7695H72.2664V80.8545H70.4529V85.6285C70.4529 86.6205 70.7474 87.0855 71.9564 87.0855H72.2354V88.062C72.0804 88.1395 71.7394 88.186 71.3519 88.186C69.8174 88.186 69.0889 87.3645 69.0889 85.6285ZM80.6795 85.3185C80.23 87.2405 78.8505 88.186 76.975 88.186C74.588 88.186 73.1465 86.574 73.1465 83.8925C73.1465 81.1025 74.588 79.568 76.8975 79.568C79.2225 79.568 80.6175 81.1645 80.6175 83.784V84.125H74.5415C74.619 85.9695 75.487 87.008 76.975 87.008C78.1375 87.008 78.959 86.45 79.2535 85.3185H80.6795ZM76.8975 80.746C75.58 80.746 74.7895 81.5675 74.588 83.102H79.1915C79.0055 81.583 78.184 80.746 76.8975 80.746ZM82.4351 88V79.7695H83.7991V80.8855C84.3571 80.0175 85.2561 79.568 86.3411 79.568C88.0926 79.568 89.1311 80.591 89.1311 82.4975V88H87.7671V82.7765C87.7671 81.5365 87.2091 80.7305 85.9691 80.7305C84.6051 80.7305 83.7991 81.955 83.7991 83.133V88H82.4351ZM94.4082 78.669V76.84H95.7722V78.669H94.4082ZM95.7722 89.054C95.7722 90.79 95.0592 91.6115 93.5402 91.6115C93.1992 91.6115 92.9202 91.5495 92.7807 91.4875V90.511H92.9202C94.1137 90.511 94.4082 90.046 94.4082 89.054V79.7695H95.7722V89.054ZM103.174 84.6365V79.7695H104.538V88H103.174V86.884C102.616 87.752 101.748 88.186 100.679 88.186C98.9581 88.186 97.9351 87.1785 97.9351 85.272V79.7695H99.2991V84.993C99.2991 86.233 99.8416 87.0235 101.051 87.0235C102.384 87.0235 103.174 85.8145 103.174 84.6365ZM107.722 81.8775C107.722 84.1715 113.069 82.2805 113.069 85.675C113.069 87.2095 111.705 88.186 109.768 88.186C107.815 88.186 106.451 87.256 106.141 85.3185H107.505C107.691 86.4655 108.543 87.101 109.814 87.101C111.054 87.101 111.705 86.543 111.705 85.768C111.705 83.5205 106.42 85.3805 106.42 81.9705C106.42 80.715 107.396 79.568 109.411 79.568C111.194 79.568 112.511 80.405 112.775 82.451H111.411C111.209 81.1645 110.496 80.684 109.334 80.684C108.311 80.684 107.722 81.1955 107.722 81.8775ZM114.877 85.6285V80.8545H113.73V79.7695H114.877V77.8785H116.241V79.7695H118.055V80.8545H116.241V85.6285C116.241 86.6205 116.536 87.0855 117.745 87.0855H118.024V88.062C117.869 88.1395 117.528 88.186 117.14 88.186C115.606 88.186 114.877 87.3645 114.877 85.6285ZM129.261 82.606H127.897C127.68 81.3505 126.843 80.746 125.758 80.746C124.239 80.746 123.433 81.862 123.433 83.8925C123.433 85.892 124.286 87.0235 125.805 87.0235C126.905 87.0235 127.696 86.4345 127.959 85.2565H129.323C128.951 87.3025 127.572 88.186 125.774 88.186C123.433 88.186 122.038 86.5585 122.038 83.8925C122.038 81.1025 123.464 79.568 125.758 79.568C127.572 79.568 128.998 80.591 129.261 82.606ZM134.357 88.186C132.001 88.186 130.59 86.574 130.59 83.8925C130.59 81.1025 132.047 79.568 134.357 79.568C136.713 79.568 138.123 81.211 138.123 83.8925C138.123 86.667 136.666 88.186 134.357 88.186ZM134.357 87.008C135.891 87.008 136.728 85.9075 136.728 83.8925C136.728 81.893 135.876 80.746 134.357 80.746C132.822 80.746 131.985 81.862 131.985 83.8925C131.985 85.8765 132.838 87.008 134.357 87.008ZM139.879 88V79.7695H141.243V80.8855C141.801 80.0175 142.7 79.568 143.785 79.568C145.536 79.568 146.575 80.591 146.575 82.4975V88H145.211V82.7765C145.211 81.5365 144.653 80.7305 143.413 80.7305C142.049 80.7305 141.243 81.955 141.243 83.133V88H139.879ZM151.834 88.186C149.648 88.186 148.331 86.574 148.331 83.8925C148.331 81.1025 149.679 79.568 151.834 79.568C152.81 79.568 153.601 79.971 154.143 80.7305V76.84H155.507V88H154.143V86.9615C153.601 87.7365 152.81 88.186 151.834 88.186ZM151.927 87.008C153.368 87.008 154.143 85.9075 154.143 83.8925C154.143 81.893 153.337 80.746 151.927 80.746C150.501 80.746 149.726 81.862 149.726 83.8925C149.726 85.8765 150.532 87.008 151.927 87.008ZM164.794 85.3185C164.345 87.2405 162.965 88.186 161.09 88.186C158.703 88.186 157.261 86.574 157.261 83.8925C157.261 81.1025 158.703 79.568 161.012 79.568C163.337 79.568 164.732 81.1645 164.732 83.784V84.125H158.656C158.734 85.9695 159.602 87.008 161.09 87.008C162.252 87.008 163.074 86.45 163.368 85.3185H164.794ZM161.012 80.746C159.695 80.746 158.904 81.5675 158.703 83.102H163.306C163.12 81.583 162.299 80.746 161.012 80.746ZM166.55 88V79.7695H167.914V80.8855C168.472 80.0175 169.371 79.568 170.456 79.568C172.207 79.568 173.246 80.591 173.246 82.4975V88H171.882V82.7765C171.882 81.5365 171.324 80.7305 170.084 80.7305C168.72 80.7305 167.914 81.955 167.914 83.133V88H166.55ZM176.427 81.8775C176.427 84.1715 181.775 82.2805 181.775 85.675C181.775 87.2095 180.411 88.186 178.473 88.186C176.52 88.186 175.156 87.256 174.846 85.3185H176.21C176.396 86.4655 177.249 87.101 178.52 87.101C179.76 87.101 180.411 86.543 180.411 85.768C180.411 83.5205 175.125 85.3805 175.125 81.9705C175.125 80.715 176.102 79.568 178.117 79.568C179.899 79.568 181.217 80.405 181.48 82.451H180.116C179.915 81.1645 179.202 80.684 178.039 80.684C177.016 80.684 176.427 81.1955 176.427 81.8775ZM190.512 85.3185C190.062 87.2405 188.683 88.186 186.807 88.186C184.42 88.186 182.979 86.574 182.979 83.8925C182.979 81.1025 184.42 79.568 186.73 79.568C189.055 79.568 190.45 81.1645 190.45 83.784V84.125H184.374C184.451 85.9695 185.319 87.008 186.807 87.008C187.97 87.008 188.791 86.45 189.086 85.3185H190.512ZM186.73 80.746C185.412 80.746 184.622 81.5675 184.42 83.102H189.024C188.838 81.583 188.016 80.746 186.73 80.746ZM195.352 88.186C193.166 88.186 191.849 86.574 191.849 83.8925C191.849 81.1025 193.197 79.568 195.352 79.568C196.328 79.568 197.119 79.971 197.661 80.7305V76.84H199.025V88H197.661V86.9615C197.119 87.7365 196.328 88.186 195.352 88.186ZM195.445 87.008C196.886 87.008 197.661 85.9075 197.661 83.8925C197.661 81.893 196.855 80.746 195.445 80.746C194.019 80.746 193.244 81.862 193.244 83.8925C193.244 85.8765 194.05 87.008 195.445 87.008ZM206.362 88L203.293 79.7695H204.766L207.044 86.1555L207.246 86.8685L207.447 86.1555L209.726 79.7695H211.105L208.036 88H206.362ZM219.377 85.3185C218.928 87.2405 217.548 88.186 215.673 88.186C213.286 88.186 211.844 86.574 211.844 83.8925C211.844 81.1025 213.286 79.568 215.595 79.568C217.92 79.568 219.315 81.1645 219.315 83.784V84.125H213.239C213.317 85.9695 214.185 87.008 215.673 87.008C216.835 87.008 217.657 86.45 217.951 85.3185H219.377ZM215.595 80.746C214.278 80.746 213.487 81.5675 213.286 83.102H217.889C217.703 81.583 216.882 80.746 215.595 80.746ZM221.133 88V79.7695H222.497V81.0405C223.055 80.033 223.938 79.568 224.93 79.568C225.256 79.568 225.55 79.6455 225.705 79.7695V80.994C225.473 80.9165 225.178 80.8855 224.853 80.8855C223.21 80.8855 222.497 81.9085 222.497 83.3965V88H221.133ZM227.923 81.8775C227.923 84.1715 233.27 82.2805 233.27 85.675C233.27 87.2095 231.906 88.186 229.969 88.186C228.016 88.186 226.652 87.256 226.342 85.3185H227.706C227.892 86.4655 228.744 87.101 230.015 87.101C231.255 87.101 231.906 86.543 231.906 85.768C231.906 83.5205 226.621 85.3805 226.621 81.9705C226.621 80.715 227.597 79.568 229.612 79.568C231.395 79.568 232.712 80.405 232.976 82.451H231.612C231.41 81.1645 230.697 80.684 229.535 80.684C228.512 80.684 227.923 81.1955 227.923 81.8775ZM234.892 78.669V76.84H236.256V78.669H234.892ZM234.892 88V79.7695H236.256V88H234.892ZM241.767 88.186C239.411 88.186 238 86.574 238 83.8925C238 81.1025 239.457 79.568 241.767 79.568C244.123 79.568 245.533 81.211 245.533 83.8925C245.533 86.667 244.076 88.186 241.767 88.186ZM241.767 87.008C243.301 87.008 244.138 85.9075 244.138 83.8925C244.138 81.893 243.286 80.746 241.767 80.746C240.232 80.746 239.395 81.862 239.395 83.8925C239.395 85.8765 240.248 87.008 241.767 87.008ZM247.289 88V79.7695H248.653V80.8855C249.211 80.0175 250.11 79.568 251.195 79.568C252.947 79.568 253.985 80.591 253.985 82.4975V88H252.621V82.7765C252.621 81.5365 252.063 80.7305 250.823 80.7305C249.459 80.7305 248.653 81.955 248.653 83.133V88H247.289ZM257.167 81.8775C257.167 84.1715 262.514 82.2805 262.514 85.675C262.514 87.2095 261.15 88.186 259.213 88.186C257.26 88.186 255.896 87.256 255.586 85.3185H256.95C257.136 86.4655 257.988 87.101 259.259 87.101C260.499 87.101 261.15 86.543 261.15 85.768C261.15 83.5205 255.865 85.3805 255.865 81.9705C255.865 80.715 256.841 79.568 258.856 79.568C260.639 79.568 261.956 80.405 262.22 82.451H260.856C260.654 81.1645 259.941 80.684 258.779 80.684C257.756 80.684 257.167 81.1955 257.167 81.8775ZM270.587 88.186C268.231 88.186 266.821 86.574 266.821 83.8925C266.821 81.1025 268.278 79.568 270.587 79.568C272.943 79.568 274.354 81.211 274.354 83.8925C274.354 86.667 272.897 88.186 270.587 88.186ZM270.587 87.008C272.122 87.008 272.959 85.9075 272.959 83.8925C272.959 81.893 272.106 80.746 270.587 80.746C269.053 80.746 268.216 81.862 268.216 83.8925C268.216 85.8765 269.068 87.008 270.587 87.008ZM275.102 80.8545V79.7695H276.249V79.2115C276.249 77.4755 276.962 76.654 278.481 76.654C278.822 76.654 279.101 76.716 279.24 76.778V77.7545H279.101C277.907 77.7545 277.613 78.2195 277.613 79.2115V79.7695H279.24V80.8545H277.613V88H276.249V80.8545H275.102ZM56.1695 112.186C53.984 112.186 52.6665 110.574 52.6665 107.892C52.6665 105.102 54.015 103.568 56.1695 103.568C57.146 103.568 57.9365 103.971 58.479 104.73V100.84H59.843V112H58.479V110.961C57.9365 111.736 57.146 112.186 56.1695 112.186ZM56.2625 111.008C57.704 111.008 58.479 109.907 58.479 107.892C58.479 105.893 57.673 104.746 56.2625 104.746C54.8365 104.746 54.0615 105.862 54.0615 107.892C54.0615 109.876 54.8675 111.008 56.2625 111.008ZM69.1302 109.318C68.6807 111.24 67.3012 112.186 65.4257 112.186C63.0387 112.186 61.5972 110.574 61.5972 107.892C61.5972 105.102 63.0387 103.568 65.3482 103.568C67.6732 103.568 69.0682 105.164 69.0682 107.784V108.125H62.9922C63.0697 109.969 63.9377 111.008 65.4257 111.008C66.5882 111.008 67.4097 110.45 67.7042 109.318H69.1302ZM65.3482 104.746C64.0307 104.746 63.2402 105.567 63.0387 107.102H67.6422C67.4562 105.583 66.6347 104.746 65.3482 104.746ZM71.8933 105.877C71.8933 108.171 77.2408 106.28 77.2408 109.675C77.2408 111.209 75.8768 112.186 73.9393 112.186C71.9863 112.186 70.6223 111.256 70.3123 109.318H71.6763C71.8623 110.465 72.7148 111.101 73.9858 111.101C75.2258 111.101 75.8768 110.543 75.8768 109.768C75.8768 107.52 70.5913 109.38 70.5913 105.97C70.5913 104.715 71.5678 103.568 73.5828 103.568C75.3653 103.568 76.6828 104.405 76.9463 106.451H75.5823C75.3808 105.164 74.6678 104.684 73.5053 104.684C72.4823 104.684 71.8933 105.195 71.8933 105.877ZM78.8628 112V100.84H80.2268V107.303L83.7763 103.769H85.4503L81.6993 107.443L85.6673 112H83.9313L80.2268 107.799V112H78.8628ZM87.1773 109.628V104.854H86.0303V103.769H87.1773V101.878H88.5413V103.769H90.3548V104.854H88.5413V109.628C88.5413 110.62 88.8358 111.085 90.0448 111.085H90.3238V112.062C90.1688 112.14 89.8278 112.186 89.4403 112.186C87.9058 112.186 87.1773 111.364 87.1773 109.628ZM95.0014 112.186C92.6454 112.186 91.2349 110.574 91.2349 107.892C91.2349 105.102 92.6919 103.568 95.0014 103.568C97.3574 103.568 98.7679 105.211 98.7679 107.892C98.7679 110.667 97.3109 112.186 95.0014 112.186ZM95.0014 111.008C96.5359 111.008 97.3729 109.907 97.3729 107.892C97.3729 105.893 96.5204 104.746 95.0014 104.746C93.4669 104.746 92.6299 105.862 92.6299 107.892C92.6299 109.876 93.4824 111.008 95.0014 111.008ZM101.903 115.41H100.539V103.769H101.903V104.792C102.445 104.017 103.236 103.568 104.212 103.568C106.398 103.568 107.715 105.18 107.715 107.861C107.715 110.651 106.367 112.186 104.212 112.186C103.236 112.186 102.445 111.783 101.903 111.023V115.41ZM104.119 104.746C102.678 104.746 101.903 105.846 101.903 107.861C101.903 109.861 102.709 111.008 104.119 111.008C105.545 111.008 106.32 109.892 106.32 107.861C106.32 105.877 105.514 104.746 104.119 104.746ZM112.758 109.628V104.854H111.611V103.769H112.758V101.878H114.122V103.769H115.936V104.854H114.122V109.628C114.122 110.62 114.417 111.085 115.626 111.085H115.905V112.062C115.75 112.14 115.409 112.186 115.021 112.186C113.487 112.186 112.758 111.364 112.758 109.628ZM120.582 112.186C118.226 112.186 116.816 110.574 116.816 107.892C116.816 105.102 118.273 103.568 120.582 103.568C122.938 103.568 124.349 105.211 124.349 107.892C124.349 110.667 122.892 112.186 120.582 112.186ZM120.582 111.008C122.117 111.008 122.954 109.907 122.954 107.892C122.954 105.893 122.101 104.746 120.582 104.746C119.048 104.746 118.211 105.862 118.211 107.892C118.211 109.876 119.063 111.008 120.582 111.008ZM129.453 112.186C127.097 112.186 125.686 110.574 125.686 107.892C125.686 105.102 127.143 103.568 129.453 103.568C131.809 103.568 133.219 105.211 133.219 107.892C133.219 110.667 131.762 112.186 129.453 112.186ZM129.453 111.008C130.987 111.008 131.824 109.907 131.824 107.892C131.824 105.893 130.972 104.746 129.453 104.746C127.918 104.746 127.081 105.862 127.081 107.892C127.081 109.876 127.934 111.008 129.453 111.008ZM134.975 112V100.84H136.339V112H134.975ZM139.509 105.877C139.509 108.171 144.857 106.28 144.857 109.675C144.857 111.209 143.493 112.186 141.555 112.186C139.602 112.186 138.238 111.256 137.928 109.318H139.292C139.478 110.465 140.331 111.101 141.602 111.101C142.842 111.101 143.493 110.543 143.493 109.768C143.493 107.52 138.207 109.38 138.207 105.97C138.207 104.715 139.184 103.568 141.199 103.568C142.981 103.568 144.299 104.405 144.562 106.451H143.198C142.997 105.164 142.284 104.684 141.121 104.684C140.098 104.684 139.509 105.195 139.509 105.877ZM146.324 112V110.326H147.998V112H146.324Z" fill="#005ABB"/>
<path fill-rule="evenodd" clip-rule="evenodd" d="M36 146.062C31.5473 146.062 27.9375 142.453 27.9375 138C27.9375 133.547 31.5473 129.938 36 129.938C40.4528 129.938 44.0625 133.547 44.0625 138C44.0625 142.453 40.4528 146.062 36 146.062ZM39.36 136.033C39.7238 135.835 39.8573 135.379 39.6585 135.015C39.4598 134.652 39.0037 134.518 38.64 134.717C37.269 135.467 36.135 136.915 35.3722 138.083C35.0902 138.514 34.8495 138.923 34.6568 139.268C34.4775 139.094 34.2997 138.943 34.14 138.817C33.9322 138.653 33.7448 138.523 33.6083 138.433L33.372 138.286C33.012 138.081 32.5538 138.206 32.349 138.566C32.1435 138.925 32.2688 139.384 32.628 139.589L32.7862 139.688C32.8935 139.758 33.0435 139.862 33.21 139.994C33.5535 140.265 33.9232 140.621 34.1565 141.011C34.2997 141.249 34.563 141.389 34.8413 141.374C35.1195 141.359 35.3663 141.191 35.4825 140.937L35.556 140.783C35.607 140.679 35.6828 140.528 35.7818 140.34C35.9798 139.966 36.2685 139.453 36.6278 138.902C37.3658 137.773 38.3318 136.596 39.36 136.033Z" fill="#005ABB"/>
<path d="M61.889 136.498H60.401C60.0135 135.211 58.913 134.498 57.5645 134.498C55.503 134.498 54.2785 136.11 54.2785 138.745C54.2785 141.38 55.4875 142.961 57.5645 142.961C58.8665 142.961 59.9205 142.295 60.37 141.024H61.8735C61.2845 143.023 59.564 144.186 57.549 144.186C54.604 144.186 52.8215 142.124 52.8215 138.745C52.8215 135.382 54.635 133.274 57.611 133.274C59.6415 133.274 61.3775 134.39 61.889 136.498ZM63.6353 144V132.84H64.9993V144H63.6353ZM72.4011 140.636V135.769H73.7651V144H72.4011V142.884C71.8431 143.752 70.9751 144.186 69.9056 144.186C68.1851 144.186 67.1621 143.178 67.1621 141.272V135.769H68.5261V140.993C68.5261 142.233 69.0686 143.023 70.2776 143.023C71.6106 143.023 72.4011 141.814 72.4011 140.636ZM76.1274 141.628V136.854H74.9804V135.769H76.1274V133.878H77.4914V135.769H79.3049V136.854H77.4914V141.628C77.4914 142.62 77.7859 143.085 78.9949 143.085H79.2739V144.062C79.1189 144.14 78.7779 144.186 78.3904 144.186C76.8559 144.186 76.1274 143.364 76.1274 141.628ZM80.7896 141.628V136.854H79.6426V135.769H80.7896V133.878H82.1536V135.769H83.9671V136.854H82.1536V141.628C82.1536 142.62 82.4481 143.085 83.6571 143.085H83.9361V144.062C83.7811 144.14 83.4401 144.186 83.0526 144.186C81.5181 144.186 80.7896 143.364 80.7896 141.628ZM92.3802 141.318C91.9307 143.24 90.5512 144.186 88.6757 144.186C86.2887 144.186 84.8472 142.574 84.8472 139.892C84.8472 137.102 86.2887 135.568 88.5982 135.568C90.9232 135.568 92.3182 137.164 92.3182 139.784V140.125H86.2422C86.3197 141.969 87.1877 143.008 88.6757 143.008C89.8382 143.008 90.6597 142.45 90.9542 141.318H92.3802ZM88.5982 136.746C87.2807 136.746 86.4902 137.567 86.2887 139.102H90.8922C90.7062 137.583 89.8847 136.746 88.5982 136.746ZM94.1358 144V135.769H95.4998V137.04C96.0578 136.033 96.9413 135.568 97.9333 135.568C98.2588 135.568 98.5533 135.645 98.7083 135.769V136.994C98.4758 136.916 98.1813 136.885 97.8558 136.885C96.2128 136.885 95.4998 137.908 95.4998 139.396V144H94.1358ZM106.881 141.318C106.432 143.24 105.052 144.186 103.177 144.186C100.79 144.186 99.3481 142.574 99.3481 139.892C99.3481 137.102 100.79 135.568 103.099 135.568C105.424 135.568 106.819 137.164 106.819 139.784V140.125H100.743C100.821 141.969 101.689 143.008 103.177 143.008C104.339 143.008 105.161 142.45 105.455 141.318H106.881ZM103.099 136.746C101.782 136.746 100.991 137.567 100.79 139.102H105.393C105.207 137.583 104.386 136.746 103.099 136.746ZM111.721 144.186C109.536 144.186 108.218 142.574 108.218 139.892C108.218 137.102 109.567 135.568 111.721 135.568C112.698 135.568 113.488 135.971 114.031 136.73V132.84H115.395V144H114.031V142.961C113.488 143.736 112.698 144.186 111.721 144.186ZM111.814 143.008C113.256 143.008 114.031 141.907 114.031 139.892C114.031 137.893 113.225 136.746 111.814 136.746C110.388 136.746 109.613 137.862 109.613 139.892C109.613 141.876 110.419 143.008 111.814 143.008ZM129.087 139.985C129.087 142.589 127.475 144.186 124.886 144.186C122.282 144.186 120.67 142.589 120.67 139.985V133.46H122.112V139.985C122.112 141.892 123.15 143.039 124.886 143.039C126.622 143.039 127.661 141.876 127.661 139.985V133.46H129.087V139.985ZM131.375 144V133.46H132.801V144H131.375ZM134.941 144V142.326H136.615V143.225C136.615 144.667 136.382 145.55 135.84 146.558H135.065C135.421 145.628 135.623 144.961 135.623 144H134.941ZM141.912 141.628V136.854H140.765V135.769H141.912V133.878H143.276V135.769H145.089V136.854H143.276V141.628C143.276 142.62 143.57 143.085 144.779 143.085H145.058V144.062C144.903 144.14 144.562 144.186 144.175 144.186C142.64 144.186 141.912 143.364 141.912 141.628ZM147.643 138.451H146.279C146.543 136.637 147.736 135.568 149.751 135.568C151.952 135.568 153.022 136.854 153.022 138.776V142.016C153.022 142.961 153.099 143.55 153.316 144H151.875C151.72 143.674 151.673 143.194 151.658 142.698C150.96 143.736 149.844 144.186 148.852 144.186C147.147 144.186 146 143.395 146 141.83C146 140.698 146.62 139.877 147.829 139.474C148.945 139.102 150.077 139.009 151.658 138.993V138.807C151.658 137.474 151.038 136.746 149.627 136.746C148.449 136.746 147.814 137.397 147.643 138.451ZM147.395 141.799C147.395 142.558 148.031 143.008 148.992 143.008C150.511 143.008 151.658 141.814 151.658 140.404V140.017C148.155 140.047 147.395 140.791 147.395 141.799ZM156.637 147.41H155.273V135.769H156.637V136.792C157.18 136.017 157.97 135.568 158.947 135.568C161.132 135.568 162.45 137.18 162.45 139.861C162.45 142.651 161.101 144.186 158.947 144.186C157.97 144.186 157.18 143.783 156.637 143.023V147.41ZM158.854 136.746C157.412 136.746 156.637 137.846 156.637 139.861C156.637 141.861 157.443 143.008 158.854 143.008C160.28 143.008 161.055 141.892 161.055 139.861C161.055 137.877 160.249 136.746 158.854 136.746ZM164.173 140.357V139.195H168.296V140.357H164.173ZM170.455 144V132.84H171.819V136.885C172.377 136.017 173.276 135.568 174.361 135.568C176.113 135.568 177.151 136.591 177.151 138.497V144H175.787V138.776C175.787 137.536 175.229 136.73 173.989 136.73C172.625 136.73 171.819 137.955 171.819 139.133V144H170.455ZM186.44 141.318C185.99 143.24 184.611 144.186 182.735 144.186C180.348 144.186 178.907 142.574 178.907 139.892C178.907 137.102 180.348 135.568 182.658 135.568C184.983 135.568 186.378 137.164 186.378 139.784V140.125H180.302C180.379 141.969 181.247 143.008 182.735 143.008C183.898 143.008 184.719 142.45 185.014 141.318H186.44ZM182.658 136.746C181.34 136.746 180.55 137.567 180.348 139.102H184.952C184.766 137.583 183.944 136.746 182.658 136.746ZM189.451 138.451H188.087C188.35 136.637 189.544 135.568 191.559 135.568C193.76 135.568 194.829 136.854 194.829 138.776V142.016C194.829 142.961 194.907 143.55 195.124 144H193.682C193.527 143.674 193.481 143.194 193.465 142.698C192.768 143.736 191.652 144.186 190.66 144.186C188.955 144.186 187.808 143.395 187.808 141.83C187.808 140.698 188.428 139.877 189.637 139.474C190.753 139.102 191.884 139.009 193.465 138.993V138.807C193.465 137.474 192.845 136.746 191.435 136.746C190.257 136.746 189.621 137.397 189.451 138.451ZM189.203 141.799C189.203 142.558 189.838 143.008 190.799 143.008C192.318 143.008 193.465 141.814 193.465 140.404V140.017C189.962 140.047 189.203 140.791 189.203 141.799ZM198.824 144L195.755 135.769H197.228L199.506 142.155L199.708 142.868L199.909 142.155L202.188 135.769H203.567L200.498 144H198.824ZM205.097 147.596C204.787 147.596 204.461 147.519 204.291 147.472V146.418H204.709C205.717 146.418 205.996 146.217 206.802 144.372L207.081 143.736L203.717 135.769H205.19L207.422 141.21L207.794 142.31L208.166 141.21L210.336 135.769H211.731L207.887 145.085C207.065 147.069 206.523 147.596 205.097 147.596ZM223.132 144L221.349 137.846L221.163 136.916L220.977 137.846L219.21 144H217.521L215.072 135.769H216.544L218.234 142.155L218.435 142.992L218.637 142.155L220.512 135.769H221.985L223.86 142.155L224.046 142.961L224.217 142.155L225.906 135.769H227.317L224.852 144H223.132ZM231.822 144.186C229.466 144.186 228.056 142.574 228.056 139.892C228.056 137.102 229.513 135.568 231.822 135.568C234.178 135.568 235.589 137.211 235.589 139.892C235.589 142.667 234.132 144.186 231.822 144.186ZM231.822 143.008C233.357 143.008 234.194 141.907 234.194 139.892C234.194 137.893 233.341 136.746 231.822 136.746C230.288 136.746 229.451 137.862 229.451 139.892C229.451 141.876 230.303 143.008 231.822 143.008ZM237.344 144V135.769H238.708V137.04C239.266 136.033 240.15 135.568 241.142 135.568C241.467 135.568 241.762 135.645 241.917 135.769V136.994C241.684 136.916 241.39 136.885 241.064 136.885C239.421 136.885 238.708 137.908 238.708 139.396V144H237.344ZM243.127 144V132.84H244.491V139.303L248.04 135.769H249.714L245.963 139.443L249.931 144H248.195L244.491 139.799V144H243.127ZM250.247 136.854V135.769H251.394V135.211C251.394 133.475 252.107 132.654 253.626 132.654C253.967 132.654 254.246 132.716 254.386 132.778V133.754H254.246C253.053 133.754 252.758 134.219 252.758 135.211V135.769H254.386V136.854H252.758V144H251.394V136.854H250.247ZM255.471 144V132.84H256.835V144H255.471ZM262.353 144.186C259.997 144.186 258.586 142.574 258.586 139.892C258.586 137.102 260.043 135.568 262.353 135.568C264.709 135.568 266.119 137.211 266.119 139.892C266.119 142.667 264.662 144.186 262.353 144.186ZM262.353 143.008C263.887 143.008 264.724 141.907 264.724 139.892C264.724 137.893 263.872 136.746 262.353 136.746C260.818 136.746 259.981 137.862 259.981 139.892C259.981 141.876 260.834 143.008 262.353 143.008ZM274.854 144L273.071 137.846L272.885 136.916L272.699 137.846L270.932 144H269.243L266.794 135.769H268.266L269.956 142.155L270.157 142.992L270.359 142.155L272.234 135.769H273.707L275.582 142.155L275.768 142.961L275.939 142.155L277.628 135.769H279.039L276.574 144H274.854ZM281.28 137.877C281.28 140.171 286.627 138.28 286.627 141.675C286.627 143.209 285.263 144.186 283.326 144.186C281.373 144.186 280.009 143.256 279.699 141.318H281.063C281.249 142.465 282.101 143.101 283.372 143.101C284.612 143.101 285.263 142.543 285.263 141.768C285.263 139.52 279.978 141.38 279.978 137.97C279.978 136.715 280.954 135.568 282.969 135.568C284.752 135.568 286.069 136.405 286.333 138.451H284.969C284.767 137.164 284.054 136.684 282.892 136.684C281.869 136.684 281.28 137.195 281.28 137.877Z" fill="#005ABB"/>
<path fill-rule="evenodd" clip-rule="evenodd" d="M36 178.062C31.5473 178.062 27.9375 174.453 27.9375 170C27.9375 165.547 31.5473 161.938 36 161.938C40.4528 161.938 44.0625 165.547 44.0625 170C44.0625 174.453 40.4528 178.062 36 178.062ZM39.36 168.033C39.7238 167.835 39.8573 167.379 39.6585 167.015C39.4598 166.652 39.0037 166.518 38.64 166.717C37.269 167.467 36.135 168.915 35.3722 170.083C35.0902 170.514 34.8495 170.923 34.6568 171.268C34.4775 171.094 34.2997 170.943 34.14 170.817C33.9322 170.653 33.7448 170.523 33.6083 170.433L33.372 170.286C33.012 170.081 32.5538 170.206 32.349 170.566C32.1435 170.925 32.2688 171.384 32.628 171.589L32.7862 171.688C32.8935 171.758 33.0435 171.862 33.21 171.994C33.5535 172.265 33.9232 172.621 34.1565 173.011C34.2997 173.249 34.563 173.389 34.8413 173.374C35.1195 173.359 35.3663 173.191 35.4825 172.937L35.556 172.783C35.607 172.679 35.6828 172.528 35.7818 172.34C35.9798 171.966 36.2685 171.453 36.6278 170.902C37.3658 169.773 38.3318 168.596 39.36 168.033Z" fill="#005ABB"/>
<path d="M53.209 176V165.46H57.0065C59.223 165.46 60.6335 166.607 60.6335 168.436C60.6335 169.645 60.0445 170.497 59.0525 170.947C59.7345 171.257 60.091 171.83 60.3545 172.869L61.145 176H59.6415L58.975 173.148C58.665 171.83 58.138 171.582 56.867 171.582H54.635V176H53.209ZM56.9755 166.622H54.635V170.42H56.9445C58.3395 170.42 59.161 169.676 59.161 168.513C59.161 167.351 58.3395 166.622 56.9755 166.622ZM69.8416 173.318C69.3921 175.24 68.0126 176.186 66.1371 176.186C63.7501 176.186 62.3086 174.574 62.3086 171.892C62.3086 169.102 63.7501 167.568 66.0596 167.568C68.3846 167.568 69.7796 169.164 69.7796 171.784V172.125H63.7036C63.7811 173.969 64.6491 175.008 66.1371 175.008C67.2996 175.008 68.1211 174.45 68.4156 173.318H69.8416ZM66.0596 168.746C64.7421 168.746 63.9516 169.567 63.7501 171.102H68.3536C68.1676 169.583 67.3461 168.746 66.0596 168.746ZM74.6817 176.186C72.4962 176.186 71.1787 174.574 71.1787 171.892C71.1787 169.102 72.5272 167.568 74.6817 167.568C75.6582 167.568 76.4487 167.971 76.9912 168.73V167.769H78.3552V179.41H76.9912V174.961C76.4487 175.736 75.6582 176.186 74.6817 176.186ZM74.7747 175.008C76.2162 175.008 76.9912 173.907 76.9912 171.892C76.9912 169.893 76.1852 168.746 74.7747 168.746C73.3487 168.746 72.5737 169.862 72.5737 171.892C72.5737 173.876 73.3797 175.008 74.7747 175.008ZM85.782 172.636V167.769H87.146V176H85.782V174.884C85.224 175.752 84.356 176.186 83.2865 176.186C81.566 176.186 80.543 175.178 80.543 173.272V167.769H81.907V172.993C81.907 174.233 82.4495 175.023 83.6585 175.023C84.9915 175.023 85.782 173.814 85.782 172.636ZM89.3223 166.669V164.84H90.6863V166.669H89.3223ZM89.3223 176V167.769H90.6863V176H89.3223ZM92.8492 176V167.769H94.2132V169.04C94.7712 168.033 95.6547 167.568 96.6467 167.568C96.9722 167.568 97.2667 167.645 97.4217 167.769V168.994C97.1892 168.916 96.8947 168.885 96.5692 168.885C94.9262 168.885 94.2132 169.908 94.2132 171.396V176H92.8492ZM105.595 173.318C105.145 175.24 103.766 176.186 101.89 176.186C99.503 176.186 98.0615 174.574 98.0615 171.892C98.0615 169.102 99.503 167.568 101.813 167.568C104.138 167.568 105.533 169.164 105.533 171.784V172.125H99.4565C99.534 173.969 100.402 175.008 101.89 175.008C103.053 175.008 103.874 174.45 104.169 173.318H105.595ZM101.813 168.746C100.495 168.746 99.7045 169.567 99.503 171.102H104.107C103.921 169.583 103.099 168.746 101.813 168.746ZM110.435 176.186C108.249 176.186 106.932 174.574 106.932 171.892C106.932 169.102 108.28 167.568 110.435 167.568C111.411 167.568 112.202 167.971 112.744 168.73V164.84H114.108V176H112.744V174.961C112.202 175.736 111.411 176.186 110.435 176.186ZM110.528 175.008C111.969 175.008 112.744 173.907 112.744 171.892C112.744 169.893 111.938 168.746 110.528 168.746C109.102 168.746 108.327 169.862 108.327 171.892C108.327 173.876 109.133 175.008 110.528 175.008ZM120.763 179.41H119.399V167.769H120.763V168.792C121.306 168.017 122.096 167.568 123.073 167.568C125.258 167.568 126.576 169.18 126.576 171.861C126.576 174.651 125.227 176.186 123.073 176.186C122.096 176.186 121.306 175.783 120.763 175.023V179.41ZM122.98 168.746C121.538 168.746 120.763 169.846 120.763 171.861C120.763 173.861 121.569 175.008 122.98 175.008C124.406 175.008 125.181 173.892 125.181 171.861C125.181 169.877 124.375 168.746 122.98 168.746ZM128.33 176V167.769H129.694V169.04C130.252 168.033 131.135 167.568 132.127 167.568C132.453 167.568 132.747 167.645 132.902 167.769V168.994C132.67 168.916 132.375 168.885 132.05 168.885C130.407 168.885 129.694 169.908 129.694 171.396V176H128.33ZM137.308 176.186C134.952 176.186 133.542 174.574 133.542 171.892C133.542 169.102 134.999 167.568 137.308 167.568C139.664 167.568 141.075 169.211 141.075 171.892C141.075 174.667 139.618 176.186 137.308 176.186ZM137.308 175.008C138.843 175.008 139.68 173.907 139.68 171.892C139.68 169.893 138.827 168.746 137.308 168.746C135.774 168.746 134.937 169.862 134.937 171.892C134.937 173.876 135.789 175.008 137.308 175.008ZM144.741 176L141.672 167.769H143.144L145.423 174.155L145.624 174.868L145.826 174.155L148.104 167.769H149.484L146.415 176H144.741ZM150.641 166.669V164.84H152.005V166.669H150.641ZM150.641 176V167.769H152.005V176H150.641ZM157.253 176.186C155.067 176.186 153.75 174.574 153.75 171.892C153.75 169.102 155.098 167.568 157.253 167.568C158.229 167.568 159.02 167.971 159.562 168.73V164.84H160.926V176H159.562V174.961C159.02 175.736 158.229 176.186 157.253 176.186ZM157.346 175.008C158.787 175.008 159.562 173.907 159.562 171.892C159.562 169.893 158.756 168.746 157.346 168.746C155.92 168.746 155.145 169.862 155.145 171.892C155.145 173.876 155.951 175.008 157.346 175.008ZM170.213 173.318C169.764 175.24 168.384 176.186 166.509 176.186C164.122 176.186 162.68 174.574 162.68 171.892C162.68 169.102 164.122 167.568 166.431 167.568C168.756 167.568 170.151 169.164 170.151 171.784V172.125H164.075C164.153 173.969 165.021 175.008 166.509 175.008C167.671 175.008 168.493 174.45 168.787 173.318H170.213ZM166.431 168.746C165.114 168.746 164.323 169.567 164.122 171.102H168.725C168.539 169.583 167.718 168.746 166.431 168.746ZM171.969 176V167.769H173.333V169.04C173.891 168.033 174.774 167.568 175.766 167.568C176.092 167.568 176.386 167.645 176.541 167.769V168.994C176.309 168.916 176.014 168.885 175.689 168.885C174.046 168.885 173.333 169.908 173.333 171.396V176H171.969ZM178.759 169.877C178.759 172.171 184.106 170.28 184.106 173.675C184.106 175.209 182.742 176.186 180.805 176.186C178.852 176.186 177.488 175.256 177.178 173.318H178.542C178.728 174.465 179.58 175.101 180.851 175.101C182.091 175.101 182.742 174.543 182.742 173.768C182.742 171.52 177.457 173.38 177.457 169.97C177.457 168.715 178.433 167.568 180.448 167.568C182.231 167.568 183.548 168.405 183.812 170.451H182.448C182.246 169.164 181.533 168.684 180.371 168.684C179.348 168.684 178.759 169.195 178.759 169.877ZM189.017 173.628V168.854H187.87V167.769H189.017V165.878H190.381V167.769H192.195V168.854H190.381V173.628C190.381 174.62 190.676 175.085 191.885 175.085H192.164V176.062C192.009 176.14 191.668 176.186 191.28 176.186C189.746 176.186 189.017 175.364 189.017 173.628ZM196.841 176.186C194.485 176.186 193.075 174.574 193.075 171.892C193.075 169.102 194.532 167.568 196.841 167.568C199.197 167.568 200.608 169.211 200.608 171.892C200.608 174.667 199.151 176.186 196.841 176.186ZM196.841 175.008C198.376 175.008 199.213 173.907 199.213 171.892C199.213 169.893 198.36 168.746 196.841 168.746C195.307 168.746 194.47 169.862 194.47 171.892C194.47 173.876 195.322 175.008 196.841 175.008ZM212.271 170.606H210.907C210.69 169.35 209.853 168.746 208.768 168.746C207.249 168.746 206.443 169.862 206.443 171.892C206.443 173.892 207.295 175.023 208.814 175.023C209.915 175.023 210.705 174.434 210.969 173.256H212.333C211.961 175.302 210.581 176.186 208.783 176.186C206.443 176.186 205.048 174.558 205.048 171.892C205.048 169.102 206.474 167.568 208.768 167.568C210.581 167.568 212.007 168.591 212.271 170.606ZM217.367 176.186C215.011 176.186 213.6 174.574 213.6 171.892C213.6 169.102 215.057 167.568 217.367 167.568C219.723 167.568 221.133 169.211 221.133 171.892C221.133 174.667 219.676 176.186 217.367 176.186ZM217.367 175.008C218.901 175.008 219.738 173.907 219.738 171.892C219.738 169.893 218.886 168.746 217.367 168.746C215.832 168.746 214.995 169.862 214.995 171.892C214.995 173.876 215.848 175.008 217.367 175.008ZM222.889 176V167.769H224.253V168.885C224.811 168.017 225.71 167.568 226.795 167.568C228.546 167.568 229.585 168.591 229.585 170.497V176H228.221V170.776C228.221 169.536 227.663 168.73 226.423 168.73C225.059 168.73 224.253 169.955 224.253 171.133V176H222.889ZM232.766 169.877C232.766 172.171 238.114 170.28 238.114 173.675C238.114 175.209 236.75 176.186 234.812 176.186C232.859 176.186 231.495 175.256 231.185 173.318H232.549C232.735 174.465 233.588 175.101 234.859 175.101C236.099 175.101 236.75 174.543 236.75 173.768C236.75 171.52 231.464 173.38 231.464 169.97C231.464 168.715 232.441 167.568 234.456 167.568C236.238 167.568 237.556 168.405 237.819 170.451H236.455C236.254 169.164 235.541 168.684 234.378 168.684C233.355 168.684 232.766 169.195 232.766 169.877ZM239.922 173.628V168.854H238.775V167.769H239.922V165.878H241.286V167.769H243.099V168.854H241.286V173.628C241.286 174.62 241.58 175.085 242.789 175.085H243.068V176.062C242.913 176.14 242.572 176.186 242.185 176.186C240.65 176.186 239.922 175.364 239.922 173.628ZM245.653 170.451H244.289C244.553 168.637 245.746 167.568 247.761 167.568C249.962 167.568 251.032 168.854 251.032 170.776V174.016C251.032 174.961 251.109 175.55 251.326 176H249.885C249.73 175.674 249.683 175.194 249.668 174.698C248.97 175.736 247.854 176.186 246.862 176.186C245.157 176.186 244.01 175.395 244.01 173.83C244.01 172.698 244.63 171.877 245.839 171.474C246.955 171.102 248.087 171.009 249.668 170.993V170.807C249.668 169.474 249.048 168.746 247.637 168.746C246.459 168.746 245.824 169.397 245.653 170.451ZM245.405 173.799C245.405 174.558 246.041 175.008 247.002 175.008C248.521 175.008 249.668 173.814 249.668 172.404V172.017C246.165 172.047 245.405 172.791 245.405 173.799ZM253.268 176V167.769H254.632V168.885C255.19 168.017 256.089 167.568 257.174 167.568C258.926 167.568 259.964 168.591 259.964 170.497V176H258.6V170.776C258.6 169.536 258.042 168.73 256.802 168.73C255.438 168.73 254.632 169.955 254.632 171.133V176H253.268ZM262.324 173.628V168.854H261.177V167.769H262.324V165.878H263.688V167.769H265.502V168.854H263.688V173.628C263.688 174.62 263.983 175.085 265.192 175.085H265.471V176.062C265.316 176.14 264.975 176.186 264.587 176.186C263.053 176.186 262.324 175.364 262.324 173.628ZM266.8 176V164.84H268.164V176H266.8ZM270.699 179.596C270.389 179.596 270.064 179.519 269.893 179.472V178.418H270.312C271.319 178.418 271.598 178.217 272.404 176.372L272.683 175.736L269.32 167.769H270.792L273.024 173.21L273.396 174.31L273.768 173.21L275.938 167.769H277.333L273.489 177.085C272.668 179.069 272.125 179.596 270.699 179.596ZM53.085 190.669V188.84H54.449V190.669H53.085ZM53.085 200V191.769H54.449V200H53.085ZM56.6119 200V191.769H57.9759V192.885C58.5339 192.017 59.4329 191.568 60.5179 191.568C62.2694 191.568 63.3079 192.591 63.3079 194.497V200H61.9439V194.776C61.9439 193.536 61.3859 192.73 60.1459 192.73C58.7819 192.73 57.9759 193.955 57.9759 195.133V200H56.6119ZM65.668 197.628V192.854H64.521V191.769H65.668V189.878H67.032V191.769H68.8455V192.854H67.032V197.628C67.032 198.62 67.3265 199.085 68.5355 199.085H68.8145V200.062C68.6595 200.14 68.3185 200.186 67.931 200.186C66.3965 200.186 65.668 199.364 65.668 197.628ZM77.2586 197.318C76.8091 199.24 75.4296 200.186 73.5541 200.186C71.1671 200.186 69.7256 198.574 69.7256 195.892C69.7256 193.102 71.1671 191.568 73.4766 191.568C75.8016 191.568 77.1966 193.164 77.1966 195.784V196.125H71.1206C71.1981 197.969 72.0661 199.008 73.5541 199.008C74.7166 199.008 75.5381 198.45 75.8326 197.318H77.2586ZM73.4766 192.746C72.1591 192.746 71.3686 193.567 71.1671 195.102H75.7706C75.5846 193.583 74.7631 192.746 73.4766 192.746ZM79.0142 200V191.769H80.3782V193.04C80.9362 192.033 81.8197 191.568 82.8117 191.568C83.1372 191.568 83.4317 191.645 83.5867 191.769V192.994C83.3542 192.916 83.0597 192.885 82.7342 192.885C81.0912 192.885 80.3782 193.908 80.3782 195.396V200H79.0142ZM85.9006 194.451H84.5366C84.8001 192.637 85.9936 191.568 88.0086 191.568C90.2096 191.568 91.2791 192.854 91.2791 194.776V198.016C91.2791 198.961 91.3566 199.55 91.5736 200H90.1321C89.9771 199.674 89.9306 199.194 89.9151 198.698C89.2176 199.736 88.1016 200.186 87.1096 200.186C85.4046 200.186 84.2576 199.395 84.2576 197.83C84.2576 196.698 84.8776 195.877 86.0866 195.474C87.2026 195.102 88.3341 195.009 89.9151 194.993V194.807C89.9151 193.474 89.2951 192.746 87.8846 192.746C86.7066 192.746 86.0711 193.397 85.9006 194.451ZM85.6526 197.799C85.6526 198.558 86.2881 199.008 87.2491 199.008C88.7681 199.008 89.9151 197.814 89.9151 196.404V196.017C86.4121 196.047 85.6526 196.791 85.6526 197.799ZM100.32 194.606H98.9557C98.7387 193.35 97.9017 192.746 96.8167 192.746C95.2977 192.746 94.4917 193.862 94.4917 195.892C94.4917 197.892 95.3442 199.023 96.8632 199.023C97.9637 199.023 98.7542 198.434 99.0177 197.256H100.382C100.01 199.302 98.6302 200.186 96.8322 200.186C94.4917 200.186 93.0967 198.558 93.0967 195.892C93.0967 193.102 94.5227 191.568 96.8167 191.568C98.6302 191.568 100.056 192.591 100.32 194.606ZM102.253 197.628V192.854H101.106V191.769H102.253V189.878H103.617V191.769H105.431V192.854H103.617V197.628C103.617 198.62 103.912 199.085 105.121 199.085H105.4V200.062C105.245 200.14 104.904 200.186 104.516 200.186C102.982 200.186 102.253 199.364 102.253 197.628ZM116.963 200L115.18 193.846L114.994 192.916L114.808 193.846L113.041 200H111.352L108.903 191.769H110.375L112.065 198.155L112.266 198.992L112.468 198.155L114.343 191.769H115.816L117.691 198.155L117.877 198.961L118.048 198.155L119.737 191.769H121.148L118.683 200H116.963ZM122.381 190.669V188.84H123.745V190.669H122.381ZM122.381 200V191.769H123.745V200H122.381ZM126.094 197.628V192.854H124.947V191.769H126.094V189.878H127.458V191.769H129.271V192.854H127.458V197.628C127.458 198.62 127.752 199.085 128.961 199.085H129.24V200.062C129.085 200.14 128.744 200.186 128.357 200.186C126.822 200.186 126.094 199.364 126.094 197.628ZM130.57 200V188.84H131.934V192.885C132.492 192.017 133.391 191.568 134.476 191.568C136.227 191.568 137.266 192.591 137.266 194.497V200H135.902V194.776C135.902 193.536 135.344 192.73 134.104 192.73C132.74 192.73 131.934 193.955 131.934 195.133V200H130.57ZM143.551 193.877C143.551 196.171 148.898 194.28 148.898 197.675C148.898 199.209 147.534 200.186 145.597 200.186C143.644 200.186 142.28 199.256 141.97 197.318H143.334C143.52 198.465 144.372 199.101 145.643 199.101C146.883 199.101 147.534 198.543 147.534 197.768C147.534 195.52 142.249 197.38 142.249 193.97C142.249 192.715 143.225 191.568 145.24 191.568C147.023 191.568 148.34 192.405 148.604 194.451H147.24C147.038 193.164 146.325 192.684 145.163 192.684C144.14 192.684 143.551 193.195 143.551 193.877ZM157.325 194.606H155.961C155.744 193.35 154.907 192.746 153.822 192.746C152.303 192.746 151.497 193.862 151.497 195.892C151.497 197.892 152.349 199.023 153.868 199.023C154.969 199.023 155.759 198.434 156.023 197.256H157.387C157.015 199.302 155.635 200.186 153.837 200.186C151.497 200.186 150.102 198.558 150.102 195.892C150.102 193.102 151.528 191.568 153.822 191.568C155.635 191.568 157.061 192.591 157.325 194.606ZM159.072 200V191.769H160.436V193.04C160.994 192.033 161.878 191.568 162.87 191.568C163.195 191.568 163.49 191.645 163.645 191.769V192.994C163.412 192.916 163.118 192.885 162.792 192.885C161.149 192.885 160.436 193.908 160.436 195.396V200H159.072ZM171.818 197.318C171.368 199.24 169.989 200.186 168.113 200.186C165.726 200.186 164.285 198.574 164.285 195.892C164.285 193.102 165.726 191.568 168.036 191.568C170.361 191.568 171.756 193.164 171.756 195.784V196.125H165.68C165.757 197.969 166.625 199.008 168.113 199.008C169.276 199.008 170.097 198.45 170.392 197.318H171.818ZM168.036 192.746C166.718 192.746 165.928 193.567 165.726 195.102H170.33C170.144 193.583 169.322 192.746 168.036 192.746ZM180.688 197.318C180.238 199.24 178.859 200.186 176.983 200.186C174.596 200.186 173.155 198.574 173.155 195.892C173.155 193.102 174.596 191.568 176.906 191.568C179.231 191.568 180.626 193.164 180.626 195.784V196.125H174.55C174.627 197.969 175.495 199.008 176.983 199.008C178.146 199.008 178.967 198.45 179.262 197.318H180.688ZM176.906 192.746C175.588 192.746 174.798 193.567 174.596 195.102H179.2C179.014 193.583 178.192 192.746 176.906 192.746ZM182.443 200V191.769H183.807V192.885C184.365 192.017 185.264 191.568 186.349 191.568C188.101 191.568 189.139 192.591 189.139 194.497V200H187.775V194.776C187.775 193.536 187.217 192.73 185.977 192.73C184.613 192.73 183.807 193.955 183.807 195.133V200H182.443ZM192.321 193.877C192.321 196.171 197.669 194.28 197.669 197.675C197.669 199.209 196.305 200.186 194.367 200.186C192.414 200.186 191.05 199.256 190.74 197.318H192.104C192.29 198.465 193.143 199.101 194.414 199.101C195.654 199.101 196.305 198.543 196.305 197.768C196.305 195.52 191.019 197.38 191.019 193.97C191.019 192.715 191.996 191.568 194.011 191.568C195.793 191.568 197.111 192.405 197.374 194.451H196.01C195.809 193.164 195.096 192.684 193.933 192.684C192.91 192.684 192.321 193.195 192.321 193.877Z" fill="#005ABB"/>
</g>
<rect x="1" y="1" width="312.667" height="224" rx="17" stroke="#257BD7" stroke-opacity="0.2" stroke-width="2"/>
<defs>
<clipPath id="clip0_1_476">
<rect width="314.667" height="226" rx="18" fill="white"/>
</clipPath>
</defs>
</svg>
