<svg width="336" height="131" viewBox="0 0 336 131" fill="none" xmlns="http://www.w3.org/2000/svg">
<g filter="url(#filter0_dddd_1_388)">
<g filter="url(#filter1_ddddi_1_388)">
<path d="M249.611 17.4331L256.455 23.0518L263.704 17.8884L268.174 25.483L276.768 23.0666L278.326 31.721L287.227 32.3429L285.686 41.0132L293.822 44.5986L289.367 52.2388L295.755 58.3552L288.923 64.0442L292.794 71.9537L284.409 75.0052L285.297 83.7537L276.37 83.7996L274.166 92.3323L265.775 89.367L260.745 96.6545L253.901 91.0358L246.653 96.199L242.181 88.6046L233.588 91.021L232.029 82.3667L223.128 81.7447L224.669 73.0745L216.534 69.4891L220.989 61.8486L214.6 55.7325L221.432 50.0435L217.561 42.1339L225.946 39.0825L225.059 30.3339L233.985 30.288L236.19 21.7552L244.581 24.7206L249.611 17.4331Z" fill="#007AFF"/>
<path fill-rule="evenodd" clip-rule="evenodd" d="M252.337 60.9397C253.008 60.7302 253.721 61.0954 253.93 61.7554C254.35 63.0748 255.776 63.8052 257.118 63.3866C258.459 62.9679 259.206 61.5588 258.787 60.2392C258.578 59.5795 258.951 58.875 259.622 58.6656C260.293 58.4563 261.006 58.8215 261.216 59.4813C262.054 62.1204 260.559 64.9386 257.877 65.7758C255.194 66.6131 252.34 65.1524 251.502 62.5133C251.293 61.8534 251.667 61.1489 252.337 60.9397Z" fill="white"/>
<path d="M241.366 53.694L242.624 55.2262C243.735 56.5798 245.366 57.4157 247.128 57.5347L249.135 57.6703L247.568 58.9211C246.193 60.0193 245.34 61.6307 245.211 63.3714L245.065 65.3418L243.807 63.8096C242.695 62.4561 241.064 61.6202 239.303 61.5011L237.296 61.3656L238.863 60.1147C240.237 59.0167 241.091 57.4051 241.22 55.6644L241.366 53.694Z" fill="white"/>
<path d="M264.744 46.3993L266.003 47.9312C267.114 49.2848 268.744 50.1209 270.507 50.2398L272.512 50.3755L270.947 51.6262C269.572 52.7243 268.719 54.3358 268.59 56.0765L268.444 58.0469L267.186 56.5147C266.074 55.1612 264.443 54.3252 262.682 54.2061L260.675 54.0706L262.241 52.82C263.616 51.7218 264.47 50.1102 264.598 48.3696L264.744 46.3993Z" fill="white"/>
<path d="M249.93 19.6307L255.494 24.1989L256.394 24.9378L257.347 24.2587L263.241 20.0608L266.876 26.2353L267.463 27.2342L268.594 26.9164L275.581 24.9517L276.848 31.9879L277.052 33.1261L278.224 33.2077L285.46 33.7136L284.207 40.7625L284.005 41.9027L285.074 42.3744L291.689 45.2893L288.067 51.501L287.481 52.5058L288.321 53.3103L293.515 58.2829L287.96 62.9082L287.062 63.6563L287.571 64.6966L290.718 71.1272L283.902 73.608L282.798 74.0094L282.915 75.16L283.637 82.2727L276.379 82.31L275.205 82.3161L274.915 83.4382L273.123 90.3754L266.301 87.9646L265.197 87.5747L264.535 88.5331L260.446 94.4579L254.883 89.8898L253.982 89.1508L253.029 89.8299L247.136 94.0277L243.5 87.8533L242.913 86.8544L241.782 87.1723L234.796 89.1368L233.529 82.1008L233.324 80.9625L232.154 80.8807L224.916 80.3751L226.169 73.3261L226.372 72.1857L225.302 71.7143L218.687 68.7992L222.31 62.5876L222.895 61.5827L222.055 60.7784L216.861 55.8057L222.416 51.1805L223.315 50.4321L222.805 49.392L219.658 42.9615L226.476 40.4805L227.578 40.0792L227.461 38.9287L226.74 31.8159L233.997 31.7786L235.172 31.7725L235.461 30.6504L237.254 23.7131L244.076 26.124L245.179 26.5139L245.841 25.5555L249.93 19.6307Z" stroke="white" stroke-width="1.37143"/>
</g>
</g>
<path d="M0.875 105L16.625 59.9062H27.7188L43.4375 105H33.5312L30.125 94.0625H14.1875L10.7812 105H0.875ZM22.0625 68.6562L16.375 87H27.9375L22.25 68.6562H22.0625ZM47.2812 105V71.5H56.4062V77.125H56.5938C57.9688 73.3125 61.4688 70.8125 65.9688 70.8125C70.6562 70.8125 74.0625 73.3125 75.1875 77.7188H75.375C76.875 73.5 80.875 70.8125 85.7812 70.8125C92.3438 70.8125 96.75 75.3438 96.75 82.0938V105H87.625V84.375C87.625 80.5 85.6875 78.375 82.1562 78.375C78.6875 78.375 76.4062 80.9062 76.4062 84.625V105H67.625V84.0938C67.625 80.5 65.5938 78.375 62.2188 78.375C58.75 78.375 56.4062 81 56.4062 84.7812V105H47.2812ZM122.375 105.688C117.562 105.688 113.875 103.25 112.062 99.2812H111.875V105H102.75V59.9062H111.875V77.3125H112.062C113.906 73.25 117.625 70.8125 122.406 70.8125C130.812 70.8125 136.031 77.3125 136.031 88.2188V88.25C136.031 99.125 130.812 105.688 122.375 105.688ZM119.344 98.125C123.875 98.125 126.75 94.3438 126.75 88.25V88.2188C126.75 82.0938 123.875 78.375 119.344 78.375C114.938 78.375 111.875 82.1875 111.875 88.2188V88.25C111.875 94.3125 114.906 98.125 119.344 98.125ZM145.469 67.1875C142.719 67.1875 140.594 65.0312 140.594 62.4375C140.594 59.8438 142.719 57.6875 145.469 57.6875C148.219 57.6875 150.344 59.8438 150.344 62.4375C150.344 65.0312 148.219 67.1875 145.469 67.1875ZM140.906 105V71.5H150.031V105H140.906ZM171.406 105.688C161.156 105.688 154.938 99.0312 154.938 88.3125V88.2812C154.938 77.625 161.219 70.8125 171.031 70.8125C180.844 70.8125 187 77.4688 187 87.5938V90.4062H163.938C164.031 95.75 166.938 98.875 171.594 98.875C175.344 98.875 177.625 96.8125 178.281 94.9375L178.344 94.75H186.719L186.625 95.0938C185.594 100.031 180.969 105.688 171.406 105.688ZM171.188 77.625C167.438 77.625 164.625 80.125 164.031 84.6562H178.25C177.688 80.0312 174.969 77.625 171.188 77.625ZM191.719 105V71.5H200.844V77H201.031C202.75 73.1562 206.188 70.8125 211.25 70.8125C218.625 70.8125 222.812 75.5312 222.812 83.375V105H213.688V85.25C213.688 80.875 211.625 78.375 207.531 78.375C203.438 78.375 200.844 81.375 200.844 85.75V105H191.719ZM241.906 105.688C234.469 105.688 230.969 102.812 230.969 95.625V78.375H226.312V71.5H230.969V63.3125H240.188V71.5H246.312V78.375H240.188V94.625C240.188 97.75 241.594 98.8125 244.344 98.8125C245.156 98.8125 245.75 98.7188 246.312 98.6562V105.344C245.281 105.5 243.812 105.688 241.906 105.688ZM261.938 105L277.688 59.9062H288.781L304.5 105H294.594L291.188 94.0625H275.25L271.844 105H261.938ZM283.125 68.6562L277.438 87H289L283.312 68.6562H283.125ZM309.125 105V59.9062H318.562V105H309.125Z" fill="url(#paint0_linear_1_388)"/>
<defs>
<filter id="filter0_dddd_1_388" x="189.228" y="0.0854893" width="131.898" height="130.744" filterUnits="userSpaceOnUse" color-interpolation-filters="sRGB">
<feFlood flood-opacity="0" result="BackgroundImageFix"/>
<feColorMatrix in="SourceAlpha" type="matrix" values="0 0 0 0 0 0 0 0 0 0 0 0 0 0 0 0 0 0 127 0" result="hardAlpha"/>
<feOffset dy="1.72753"/>
<feGaussianBlur stdDeviation="2.5913"/>
<feComposite in2="hardAlpha" operator="out"/>
<feColorMatrix type="matrix" values="0 0 0 0 0 0 0 0 0 0 0 0 0 0 0 0 0 0 0.02 0"/>
<feBlend mode="normal" in2="BackgroundImageFix" result="effect1_dropShadow_1_388"/>
<feColorMatrix in="SourceAlpha" type="matrix" values="0 0 0 0 0 0 0 0 0 0 0 0 0 0 0 0 0 0 127 0" result="hardAlpha"/>
<feOffset dy="4.22863"/>
<feGaussianBlur stdDeviation="2.11431"/>
<feComposite in2="hardAlpha" operator="out"/>
<feColorMatrix type="matrix" values="0 0 0 0 0 0 0 0 0 0 0 0 0 0 0 0 0 0 0.075 0"/>
<feBlend mode="normal" in2="effect1_dropShadow_1_388" result="effect2_dropShadow_1_388"/>
<feColorMatrix in="SourceAlpha" type="matrix" values="0 0 0 0 0 0 0 0 0 0 0 0 0 0 0 0 0 0 127 0" result="hardAlpha"/>
<feOffset dy="8.45725"/>
<feGaussianBlur stdDeviation="12.6859"/>
<feComposite in2="hardAlpha" operator="out"/>
<feColorMatrix type="matrix" values="0 0 0 0 0 0 0 0 0 0 0 0 0 0 0 0 0 0 0.025 0"/>
<feBlend mode="normal" in2="effect2_dropShadow_1_388" result="effect3_dropShadow_1_388"/>
<feColorMatrix in="SourceAlpha" type="matrix" values="0 0 0 0 0 0 0 0 0 0 0 0 0 0 0 0 0 0 127 0" result="hardAlpha"/>
<feOffset dy="0.432853"/>
<feGaussianBlur stdDeviation="0.649279"/>
<feComposite in2="hardAlpha" operator="out"/>
<feColorMatrix type="matrix" values="0 0 0 0 0 0 0 0 0 0 0 0 0 0 0 0 0 0 0.2 0"/>
<feBlend mode="normal" in2="effect3_dropShadow_1_388" result="effect4_dropShadow_1_388"/>
<feBlend mode="normal" in="SourceGraphic" in2="effect4_dropShadow_1_388" result="shape"/>
</filter>
<filter id="filter1_ddddi_1_388" x="206.019" y="11.7124" width="98.3169" height="96.3835" filterUnits="userSpaceOnUse" color-interpolation-filters="sRGB">
<feFlood flood-opacity="0" result="BackgroundImageFix"/>
<feColorMatrix in="SourceAlpha" type="matrix" values="0 0 0 0 0 0 0 0 0 0 0 0 0 0 0 0 0 0 127 0" result="hardAlpha"/>
<feOffset dy="1.26013"/>
<feGaussianBlur stdDeviation="1.89019"/>
<feComposite in2="hardAlpha" operator="out"/>
<feColorMatrix type="matrix" values="0 0 0 0 0 0 0 0 0 0 0 0 0 0 0 0 0 0 0.02 0"/>
<feBlend mode="normal" in2="BackgroundImageFix" result="effect1_dropShadow_1_388"/>
<feColorMatrix in="SourceAlpha" type="matrix" values="0 0 0 0 0 0 0 0 0 0 0 0 0 0 0 0 0 0 127 0" result="hardAlpha"/>
<feOffset dy="1.43017"/>
<feGaussianBlur stdDeviation="0.715086"/>
<feComposite in2="hardAlpha" operator="out"/>
<feColorMatrix type="matrix" values="0 0 0 0 0 0 0 0 0 0 0 0 0 0 0 0 0 0 0.075 0"/>
<feBlend mode="normal" in2="effect1_dropShadow_1_388" result="effect2_dropShadow_1_388"/>
<feColorMatrix in="SourceAlpha" type="matrix" values="0 0 0 0 0 0 0 0 0 0 0 0 0 0 0 0 0 0 127 0" result="hardAlpha"/>
<feOffset dy="2.86034"/>
<feGaussianBlur stdDeviation="4.29051"/>
<feComposite in2="hardAlpha" operator="out"/>
<feColorMatrix type="matrix" values="0 0 0 0 0 0 0 0 0 0 0 0 0 0 0 0 0 0 0.075 0"/>
<feBlend mode="normal" in2="effect2_dropShadow_1_388" result="effect3_dropShadow_1_388"/>
<feColorMatrix in="SourceAlpha" type="matrix" values="0 0 0 0 0 0 0 0 0 0 0 0 0 0 0 0 0 0 127 0" result="hardAlpha"/>
<feOffset dy="0.146396"/>
<feGaussianBlur stdDeviation="0.219594"/>
<feComposite in2="hardAlpha" operator="out"/>
<feColorMatrix type="matrix" values="0 0 0 0 0 0 0 0 0 0 0 0 0 0 0 0 0 0 0.2 0"/>
<feBlend mode="normal" in2="effect3_dropShadow_1_388" result="effect4_dropShadow_1_388"/>
<feBlend mode="normal" in="SourceGraphic" in2="effect4_dropShadow_1_388" result="shape"/>
<feColorMatrix in="SourceAlpha" type="matrix" values="0 0 0 0 0 0 0 0 0 0 0 0 0 0 0 0 0 0 127 0" result="hardAlpha"/>
<feOffset dy="0.630065"/>
<feGaussianBlur stdDeviation="0.315032"/>
<feComposite in2="hardAlpha" operator="arithmetic" k2="-1" k3="1"/>
<feColorMatrix type="matrix" values="0 0 0 0 0 0 0 0 0 0 0 0 0 0 0 0 0 0 0.03 0"/>
<feBlend mode="normal" in2="shape" result="effect5_innerShadow_1_388"/>
</filter>
<linearGradient id="paint0_linear_1_388" x1="0" y1="82.5" x2="336" y2="82.5" gradientUnits="userSpaceOnUse">
<stop stop-color="#010101"/>
<stop offset="0.394231" stop-color="#676767"/>
<stop offset="1" stop-color="#010101"/>
</linearGradient>
</defs>
</svg>
