<svg width="344" height="195" viewBox="0 0 344 195" fill="none" xmlns="http://www.w3.org/2000/svg">
<g filter="url(#filter0_dddd_217_12238)">
<g clip-path="url(#clip0_217_12238)">
<rect x="238" y="81" width="80" height="80" rx="24" fill="#FA7319"/>
<path d="M238 153C251.255 153 262 142.255 262 129C262 115.745 251.255 105 238 105V121.8C241.976 121.8 245.2 125.024 245.2 129C245.2 132.977 241.976 136.2 238 136.2V153Z" fill="url(#paint0_linear_217_12238)" fill-opacity="0.72"/>
<path d="M318 113.001C313.899 111.702 309.531 111.001 305 111.001C281.252 111.001 262 130.253 262 154.001C262 156.384 262.194 158.723 262.567 161.001H289.284C288.33 158.862 287.8 156.494 287.8 154.001C287.8 144.501 295.501 136.801 305 136.801C310.192 136.801 314.846 139.101 318 142.738V113.001Z" fill="url(#paint1_linear_217_12238)" fill-opacity="0.88"/>
<path d="M242.219 81.0007C244.209 99.0005 259.469 113.001 277.999 113.001C296.529 113.001 311.79 99.0005 313.779 81.0007H288.034C286.445 84.9852 282.55 87.8007 277.999 87.8007C273.447 87.8007 269.554 84.9852 267.964 81.0007H242.219Z" fill="url(#paint2_linear_217_12238)" fill-opacity="0.72"/>
</g>
</g>
<path d="M3.75 96V50.9062H14.6562L27.4688 83.3125H27.6562L40.4688 50.9062H51.375V96H42.9688V65.5H42.6875L30.5312 96H24.5938L12.4062 65.5H12.1562V96H3.75ZM73.3438 96.6875C63.0938 96.6875 56.875 90.0312 56.875 79.3125V79.2812C56.875 68.625 63.1562 61.8125 72.9688 61.8125C82.7812 61.8125 88.9375 68.4688 88.9375 78.5938V81.4062H65.875C65.9688 86.75 68.875 89.875 73.5312 89.875C77.2812 89.875 79.5625 87.8125 80.2188 85.9375L80.2812 85.75H88.6562L88.5625 86.0938C87.5312 91.0312 82.9062 96.6875 73.3438 96.6875ZM73.125 68.625C69.375 68.625 66.5625 71.125 65.9688 75.6562H80.1875C79.625 71.0312 76.9062 68.625 73.125 68.625ZM106.062 96.6875C97.625 96.6875 92.4375 90.125 92.4375 79.25V79.2188C92.4375 68.3125 97.625 61.8125 106.062 61.8125C110.812 61.8125 114.562 64.25 116.375 68.3125H116.562V50.9062H125.688V96H116.562V90.2812H116.375C114.594 94.25 110.906 96.6875 106.062 96.6875ZM109.125 89.125C113.562 89.125 116.594 85.3125 116.594 79.25V79.2188C116.594 73.1875 113.531 69.375 109.125 69.375C104.594 69.375 101.719 73.0938 101.719 79.2188V79.25C101.719 85.3438 104.562 89.125 109.125 89.125ZM147.156 96.6875C136.969 96.6875 130.562 90.1562 130.562 79.25V79.1875C130.562 68.4062 137.125 61.8125 147.125 61.8125C157.156 61.8125 163.75 68.3438 163.75 79.1875V79.25C163.75 90.1875 157.281 96.6875 147.156 96.6875ZM147.188 89.5312C151.625 89.5312 154.469 85.7812 154.469 79.25V79.1875C154.469 72.7188 151.562 68.9688 147.125 68.9688C142.719 68.9688 139.844 72.7188 139.844 79.1875V79.25C139.844 85.8125 142.688 89.5312 147.188 89.5312ZM168.469 96V62.5H177.594V68.3438H177.781C178.781 64.2188 181.5 61.8125 185.406 61.8125C186.406 61.8125 187.344 61.9688 188.031 62.1562V70.1875C187.281 69.875 186.031 69.6875 184.719 69.6875C180.219 69.6875 177.594 72.375 177.594 77.25V96H168.469ZM200.938 96.5312C194.219 96.5312 189.688 92.3125 189.688 86.4062V86.3438C189.688 80.25 194.406 76.6875 202.719 76.1562L211 75.6562V73.5938C211 70.625 209.062 68.7812 205.5 68.7812C202.094 68.7812 200.031 70.375 199.594 72.5312L199.531 72.8125H191.188L191.219 72.4375C191.719 66.25 197.031 61.8125 205.875 61.8125C214.531 61.8125 220.125 66.2812 220.125 73.0312V96H211V91H210.812C208.906 94.4375 205.344 96.5312 200.938 96.5312ZM198.719 85.9375C198.719 88.4062 200.75 89.875 203.906 89.875C208 89.875 211 87.25 211 83.75V81.3438L204.094 81.7812C200.562 82 198.719 83.5 198.719 85.875V85.9375ZM3.75 161V115.906H13.1875V134.219H33.5V115.906H42.9375V161H33.5V142H13.1875V161H3.75ZM64.9062 161.688C54.6562 161.688 48.4375 155.031 48.4375 144.312V144.281C48.4375 133.625 54.7188 126.812 64.5312 126.812C74.3438 126.812 80.5 133.469 80.5 143.594V146.406H57.4375C57.5312 151.75 60.4375 154.875 65.0938 154.875C68.8438 154.875 71.125 152.812 71.7812 150.938L71.8438 150.75H80.2188L80.125 151.094C79.0938 156.031 74.4688 161.688 64.9062 161.688ZM64.6875 133.625C60.9375 133.625 58.125 136.125 57.5312 140.656H71.75C71.1875 136.031 68.4688 133.625 64.6875 133.625ZM95.1875 161.531C88.4688 161.531 83.9375 157.312 83.9375 151.406V151.344C83.9375 145.25 88.6562 141.688 96.9688 141.156L105.25 140.656V138.594C105.25 135.625 103.312 133.781 99.75 133.781C96.3438 133.781 94.2812 135.375 93.8438 137.531L93.7812 137.812H85.4375L85.4688 137.438C85.9688 131.25 91.2812 126.812 100.125 126.812C108.781 126.812 114.375 131.281 114.375 138.031V161H105.25V156H105.062C103.156 159.438 99.5938 161.531 95.1875 161.531ZM92.9688 150.938C92.9688 153.406 95 154.875 98.1562 154.875C102.25 154.875 105.25 152.25 105.25 148.75V146.344L98.3438 146.781C94.8125 147 92.9688 148.5 92.9688 150.875V150.938ZM120.5 161V115.906H129.625V161H120.5ZM149.094 161.688C141.656 161.688 138.156 158.812 138.156 151.625V134.375H133.5V127.5H138.156V119.312H147.375V127.5H153.5V134.375H147.375V150.625C147.375 153.75 148.781 154.812 151.531 154.812C152.344 154.812 152.938 154.719 153.5 154.656V161.344C152.469 161.5 151 161.688 149.094 161.688ZM158.75 161V115.906H167.875V133.281H168.062C169.781 129.125 173.312 126.812 178.344 126.812C185.594 126.812 190.094 131.875 190.094 139.969V161H180.969V141.844C180.969 137.156 178.656 134.375 174.5 134.375C170.469 134.375 167.875 137.438 167.875 141.812V161H158.75Z" fill="url(#paint3_linear_217_12238)"/>
<defs>
<filter id="filter0_dddd_217_12238" x="212.628" y="64.0855" width="130.744" height="130.744" filterUnits="userSpaceOnUse" color-interpolation-filters="sRGB">
<feFlood flood-opacity="0" result="BackgroundImageFix"/>
<feColorMatrix in="SourceAlpha" type="matrix" values="0 0 0 0 0 0 0 0 0 0 0 0 0 0 0 0 0 0 127 0" result="hardAlpha"/>
<feOffset dy="1.72753"/>
<feGaussianBlur stdDeviation="2.5913"/>
<feComposite in2="hardAlpha" operator="out"/>
<feColorMatrix type="matrix" values="0 0 0 0 0 0 0 0 0 0 0 0 0 0 0 0 0 0 0.02 0"/>
<feBlend mode="normal" in2="BackgroundImageFix" result="effect1_dropShadow_217_12238"/>
<feColorMatrix in="SourceAlpha" type="matrix" values="0 0 0 0 0 0 0 0 0 0 0 0 0 0 0 0 0 0 127 0" result="hardAlpha"/>
<feOffset dy="4.22863"/>
<feGaussianBlur stdDeviation="2.11431"/>
<feComposite in2="hardAlpha" operator="out"/>
<feColorMatrix type="matrix" values="0 0 0 0 0 0 0 0 0 0 0 0 0 0 0 0 0 0 0.075 0"/>
<feBlend mode="normal" in2="effect1_dropShadow_217_12238" result="effect2_dropShadow_217_12238"/>
<feColorMatrix in="SourceAlpha" type="matrix" values="0 0 0 0 0 0 0 0 0 0 0 0 0 0 0 0 0 0 127 0" result="hardAlpha"/>
<feOffset dy="8.45725"/>
<feGaussianBlur stdDeviation="12.6859"/>
<feComposite in2="hardAlpha" operator="out"/>
<feColorMatrix type="matrix" values="0 0 0 0 0 0 0 0 0 0 0 0 0 0 0 0 0 0 0.025 0"/>
<feBlend mode="normal" in2="effect2_dropShadow_217_12238" result="effect3_dropShadow_217_12238"/>
<feColorMatrix in="SourceAlpha" type="matrix" values="0 0 0 0 0 0 0 0 0 0 0 0 0 0 0 0 0 0 127 0" result="hardAlpha"/>
<feOffset dy="0.432853"/>
<feGaussianBlur stdDeviation="0.649279"/>
<feComposite in2="hardAlpha" operator="out"/>
<feColorMatrix type="matrix" values="0 0 0 0 0 0 0 0 0 0 0 0 0 0 0 0 0 0 0.2 0"/>
<feBlend mode="normal" in2="effect3_dropShadow_217_12238" result="effect4_dropShadow_217_12238"/>
<feBlend mode="normal" in="SourceGraphic" in2="effect4_dropShadow_217_12238" result="shape"/>
</filter>
<linearGradient id="paint0_linear_217_12238" x1="250" y1="105" x2="250" y2="177.785" gradientUnits="userSpaceOnUse">
<stop offset="0.313079" stop-color="white"/>
<stop offset="1" stop-color="white" stop-opacity="0"/>
</linearGradient>
<linearGradient id="paint1_linear_217_12238" x1="290" y1="111.001" x2="290" y2="186.818" gradientUnits="userSpaceOnUse">
<stop offset="0.313079" stop-color="white"/>
<stop offset="1" stop-color="white" stop-opacity="0"/>
</linearGradient>
<linearGradient id="paint2_linear_217_12238" x1="277.999" y1="81.0007" x2="277.999" y2="129.524" gradientUnits="userSpaceOnUse">
<stop offset="0.313079" stop-color="white"/>
<stop offset="1" stop-color="white" stop-opacity="0"/>
</linearGradient>
<linearGradient id="paint3_linear_217_12238" x1="0" y1="106" x2="336" y2="106" gradientUnits="userSpaceOnUse">
<stop stop-color="#010101"/>
<stop offset="0.394231" stop-color="#676767"/>
<stop offset="1" stop-color="#010101"/>
</linearGradient>
<clipPath id="clip0_217_12238">
<rect x="238" y="81" width="80" height="80" rx="24" fill="white"/>
</clipPath>
</defs>
</svg>
