<svg width="960" height="204" viewBox="0 0 960 204" fill="none" xmlns="http://www.w3.org/2000/svg">
<rect width="960" height="60" rx="16" fill="#196D60"/>
<path d="M41.1786 37H38.9986V34.12H32.8786V32.2L39.2186 24.14H41.1786V32.44H42.9586V34.12H41.1786V37ZM34.7386 32.44H38.9986V26.84L34.7386 32.44ZM49.342 37.26C46.122 37.26 44.262 34.78 44.262 30.58C44.262 26.28 46.162 23.88 49.342 23.88C52.542 23.88 54.402 26.36 54.402 30.58C54.402 34.88 52.502 37.26 49.342 37.26ZM49.342 35.44C51.202 35.44 52.222 33.72 52.222 30.58C52.222 27.46 51.182 25.7 49.342 25.7C47.482 25.7 46.442 27.42 46.442 30.58C46.442 33.66 47.482 35.44 49.342 35.44ZM58.5455 31.14C56.5855 31.14 55.4255 29.82 55.4255 27.52C55.4255 25.2 56.6055 23.88 58.5455 23.88C60.5055 23.88 61.6655 25.24 61.6655 27.52C61.6655 29.82 60.5055 31.14 58.5455 31.14ZM57.5655 37L66.5655 24.14H68.5655L59.5855 37H57.5655ZM58.5455 29.7C59.4255 29.7 59.9055 28.94 59.9055 27.52C59.9055 26.12 59.4255 25.34 58.5455 25.34C57.6655 25.34 57.2055 26.1 57.2055 27.52C57.2055 28.92 57.6855 29.7 58.5455 29.7ZM67.5655 37.18C65.6055 37.18 64.4455 35.84 64.4455 33.56C64.4455 31.24 65.6255 29.9 67.5655 29.9C69.5255 29.9 70.6855 31.26 70.6855 33.56C70.6855 35.86 69.5455 37.18 67.5655 37.18ZM67.5655 35.74C68.4455 35.74 68.9255 34.98 68.9255 33.56C68.9255 32.14 68.4455 31.36 67.5655 31.36C66.7055 31.36 66.2255 32.14 66.2255 33.56C66.2255 34.96 66.7055 35.74 67.5655 35.74ZM76.4092 37V23.4H81.5092C84.4492 23.4 86.3092 24.92 86.3092 27.32C86.3092 28.86 85.6092 29.94 84.3892 30.54C85.1892 30.96 85.6292 31.7 85.9292 32.92L86.9492 37H84.5892L83.7692 33.36C83.4092 31.8 82.8092 31.5 81.3092 31.5H78.6492V37H76.4092ZM81.4492 25.2H78.6492V29.7H81.4092C83.0692 29.7 84.0092 28.82 84.0092 27.44C84.0092 26.08 83.0692 25.2 81.4492 25.2ZM89.0069 37V23.4H98.3869V25.2H91.2469V29.08H97.6269V30.86H91.2469V35.2H98.3869V37H89.0069ZM100.687 37V23.4H105.347C109.607 23.4 112.247 25.96 112.247 30.22C112.247 34.48 109.607 37 105.347 37H100.687ZM105.347 35.18C108.247 35.18 109.967 33.34 109.967 30.22C109.967 27.06 108.247 25.22 105.347 25.22H102.927V35.18H105.347ZM125.65 31.82C125.65 35.2 123.53 37.26 120.11 37.26C116.69 37.26 114.57 35.2 114.57 31.82V23.4H116.81V31.82C116.81 34.1 118.05 35.46 120.11 35.46C122.19 35.46 123.41 34.08 123.41 31.82V23.4H125.65V31.82ZM139.881 27.44H137.541C137.081 25.88 135.781 25.02 134.161 25.02C131.681 25.02 130.201 27 130.201 30.22C130.201 33.44 131.661 35.38 134.161 35.38C135.721 35.38 136.981 34.58 137.501 33.04H139.861C139.121 35.74 136.841 37.26 134.161 37.26C130.281 37.26 127.921 34.6 127.921 30.22C127.921 25.86 130.301 23.14 134.221 23.14C136.921 23.14 139.241 24.62 139.881 27.44ZM145.421 37V25.28H140.881V23.4H152.181V25.28H147.661V37H145.421ZM154.222 37V23.4H156.462V37H154.222ZM165.438 37.26C161.378 37.26 158.898 34.58 158.898 30.22C158.898 25.86 161.378 23.14 165.438 23.14C169.458 23.14 171.958 25.86 171.958 30.22C171.958 34.58 169.458 37.26 165.438 37.26ZM165.438 35.38C168.098 35.38 169.678 33.42 169.678 30.22C169.678 27 168.098 25.02 165.438 25.02C162.778 25.02 161.178 27 161.178 30.22C161.178 33.42 162.778 35.38 165.438 35.38ZM174.398 37V23.4H176.738L182.438 32.28L183.298 33.88L183.238 23.4H185.478V37H183.138L177.458 28.16L176.578 26.5L176.638 37H174.398Z" fill="#E6FFFB"/>
<path opacity="0.3" d="M199 16V44" stroke="#E6FFFB"/>
<path d="M212.4 24.96V22.6H214.16V24.96H212.4ZM212.4 37V26.38H214.16V37H212.4ZM216.951 37V26.38H218.711V27.82C219.431 26.7 220.591 26.12 221.991 26.12C224.251 26.12 225.591 27.44 225.591 29.9V37H223.831V30.26C223.831 28.66 223.111 27.62 221.511 27.62C219.751 27.62 218.711 29.2 218.711 30.72V37H216.951ZM232.64 33.94V27.78H231.16V26.38H232.64V23.94H234.4V26.38H236.74V27.78H234.4V33.94C234.4 35.22 234.78 35.82 236.34 35.82H236.7V37.08C236.5 37.18 236.06 37.24 235.56 37.24C233.58 37.24 232.64 36.18 232.64 33.94ZM238.416 24.96V22.6H240.176V24.96H238.416ZM238.416 37V26.38H240.176V37H238.416ZM242.966 37V26.38H244.726V27.74C245.406 26.66 246.466 26.12 247.766 26.12C249.226 26.12 250.286 26.76 250.786 28C251.486 26.76 252.646 26.12 254.066 26.12C256.226 26.12 257.526 27.44 257.526 29.9V37H255.766V30.26C255.766 28.66 255.126 27.62 253.686 27.62C252.086 27.62 251.126 29.2 251.126 30.72V37H249.366V30.26C249.366 28.66 248.726 27.62 247.286 27.62C245.686 27.62 244.726 29.2 244.726 30.72V37H242.966ZM269.51 33.54C268.93 36.02 267.15 37.24 264.73 37.24C261.65 37.24 259.79 35.16 259.79 31.7C259.79 28.1 261.65 26.12 264.63 26.12C267.63 26.12 269.43 28.18 269.43 31.56V32H261.59C261.69 34.38 262.81 35.72 264.73 35.72C266.23 35.72 267.29 35 267.67 33.54H269.51ZM264.63 27.64C262.93 27.64 261.91 28.7 261.65 30.68H267.59C267.35 28.72 266.29 27.64 264.63 27.64ZM277.079 29.1C277.079 32.06 283.979 29.62 283.979 34C283.979 35.98 282.219 37.24 279.719 37.24C277.199 37.24 275.439 36.04 275.039 33.54H276.799C277.039 35.02 278.139 35.84 279.779 35.84C281.379 35.84 282.219 35.12 282.219 34.12C282.219 31.22 275.399 33.62 275.399 29.22C275.399 27.6 276.659 26.12 279.259 26.12C281.559 26.12 283.259 27.2 283.599 29.84H281.839C281.579 28.18 280.659 27.56 279.159 27.56C277.839 27.56 277.079 28.22 277.079 29.1ZM287.852 41.4H286.092V26.38H287.852V27.7C288.552 26.7 289.572 26.12 290.832 26.12C293.652 26.12 295.352 28.2 295.352 31.66C295.352 35.26 293.612 37.24 290.832 37.24C289.572 37.24 288.552 36.72 287.852 35.74V41.4ZM290.712 27.64C288.852 27.64 287.852 29.06 287.852 31.66C287.852 34.24 288.892 35.72 290.712 35.72C292.552 35.72 293.552 34.28 293.552 31.66C293.552 29.1 292.512 27.64 290.712 27.64ZM306.795 33.54C306.215 36.02 304.435 37.24 302.015 37.24C298.935 37.24 297.075 35.16 297.075 31.7C297.075 28.1 298.935 26.12 301.915 26.12C304.915 26.12 306.715 28.18 306.715 31.56V32H298.875C298.975 34.38 300.095 35.72 302.015 35.72C303.515 35.72 304.575 35 304.955 33.54H306.795ZM301.915 27.64C300.215 27.64 299.195 28.7 298.935 30.68H304.875C304.635 28.72 303.575 27.64 301.915 27.64ZM309.06 37V26.38H310.82V27.82C311.54 26.7 312.7 26.12 314.1 26.12C316.36 26.12 317.7 27.44 317.7 29.9V37H315.94V30.26C315.94 28.66 315.22 27.62 313.62 27.62C311.86 27.62 310.82 29.2 310.82 30.72V37H309.06ZM320.745 33.94V27.78H319.265V26.38H320.745V23.94H322.505V26.38H324.845V27.78H322.505V33.94C322.505 35.22 322.885 35.82 324.445 35.82H324.805V37.08C324.605 37.18 324.165 37.24 323.665 37.24C321.685 37.24 320.745 36.18 320.745 33.94ZM334.845 37.24C331.805 37.24 329.985 35.16 329.985 31.7C329.985 28.1 331.865 26.12 334.845 26.12C337.885 26.12 339.705 28.24 339.705 31.7C339.705 35.28 337.825 37.24 334.845 37.24ZM334.845 35.72C336.825 35.72 337.905 34.3 337.905 31.7C337.905 29.12 336.805 27.64 334.845 27.64C332.865 27.64 331.785 29.08 331.785 31.7C331.785 34.26 332.885 35.72 334.845 35.72ZM341.97 37V26.38H343.73V27.82C344.45 26.7 345.61 26.12 347.01 26.12C349.27 26.12 350.61 27.44 350.61 29.9V37H348.85V30.26C348.85 28.66 348.13 27.62 346.53 27.62C344.77 27.62 343.73 29.2 343.73 30.72V37H341.97ZM366.2 30.04H364.44C364.16 28.42 363.08 27.64 361.68 27.64C359.72 27.64 358.68 29.08 358.68 31.7C358.68 34.28 359.78 35.74 361.74 35.74C363.16 35.74 364.18 34.98 364.52 33.46H366.28C365.8 36.1 364.02 37.24 361.7 37.24C358.68 37.24 356.88 35.14 356.88 31.7C356.88 28.1 358.72 26.12 361.68 26.12C364.02 26.12 365.86 27.44 366.2 30.04ZM370.075 29.84H368.315C368.655 27.5 370.195 26.12 372.795 26.12C375.635 26.12 377.015 27.78 377.015 30.26V34.44C377.015 35.66 377.115 36.42 377.395 37H375.535C375.335 36.58 375.275 35.96 375.255 35.32C374.355 36.66 372.915 37.24 371.635 37.24C369.435 37.24 367.955 36.22 367.955 34.2C367.955 32.74 368.755 31.68 370.315 31.16C371.755 30.68 373.215 30.56 375.255 30.54V30.3C375.255 28.58 374.455 27.64 372.635 27.64C371.115 27.64 370.295 28.48 370.075 29.84ZM369.755 34.16C369.755 35.14 370.575 35.72 371.815 35.72C373.775 35.72 375.255 34.18 375.255 32.36V31.86C370.735 31.9 369.755 32.86 369.755 34.16ZM379.9 37V26.38H381.66V27.74C382.34 26.66 383.4 26.12 384.7 26.12C386.16 26.12 387.22 26.76 387.72 28C388.42 26.76 389.58 26.12 391 26.12C393.16 26.12 394.46 27.44 394.46 29.9V37H392.7V30.26C392.7 28.66 392.06 27.62 390.62 27.62C389.02 27.62 388.06 29.2 388.06 30.72V37H386.3V30.26C386.3 28.66 385.66 27.62 384.22 27.62C382.62 27.62 381.66 29.2 381.66 30.72V37H379.9ZM399.043 41.4H397.283V26.38H399.043V27.7C399.743 26.7 400.763 26.12 402.023 26.12C404.843 26.12 406.543 28.2 406.543 31.66C406.543 35.26 404.803 37.24 402.023 37.24C400.763 37.24 399.743 36.72 399.043 35.74V41.4ZM401.903 27.64C400.043 27.64 399.043 29.06 399.043 31.66C399.043 34.24 400.083 35.72 401.903 35.72C403.743 35.72 404.743 34.28 404.743 31.66C404.743 29.1 403.703 27.64 401.903 27.64ZM410.426 29.84H408.666C409.006 27.5 410.546 26.12 413.146 26.12C415.986 26.12 417.366 27.78 417.366 30.26V34.44C417.366 35.66 417.466 36.42 417.746 37H415.886C415.686 36.58 415.626 35.96 415.606 35.32C414.706 36.66 413.266 37.24 411.986 37.24C409.786 37.24 408.306 36.22 408.306 34.2C408.306 32.74 409.106 31.68 410.666 31.16C412.106 30.68 413.566 30.56 415.606 30.54V30.3C415.606 28.58 414.806 27.64 412.986 27.64C411.466 27.64 410.646 28.48 410.426 29.84ZM410.106 34.16C410.106 35.14 410.926 35.72 412.166 35.72C414.126 35.72 415.606 34.18 415.606 32.36V31.86C411.086 31.9 410.106 32.86 410.106 34.16ZM420.252 24.96V22.6H422.012V24.96H420.252ZM420.252 37V26.38H422.012V37H420.252ZM428.582 37.08C425.882 37.08 424.262 35.02 424.262 31.62C424.262 28.06 425.922 26.12 428.582 26.12C430.002 26.12 431.062 26.62 431.762 27.54V26.38H433.522V37.32C433.522 40.28 431.622 41.66 429.182 41.66C426.682 41.66 424.922 40.46 424.542 38.04H426.302C426.522 39.44 427.622 40.2 429.162 40.2C430.722 40.2 431.762 39.36 431.762 37.38V35.56C431.022 36.56 429.942 37.08 428.582 37.08ZM428.902 35.56C430.762 35.56 431.762 34.16 431.762 31.6C431.762 29.1 430.722 27.64 428.902 27.64C427.062 27.64 426.062 29.04 426.062 31.62C426.062 34.12 427.082 35.56 428.902 35.56ZM436.345 37V26.38H438.105V27.82C438.825 26.7 439.985 26.12 441.385 26.12C443.645 26.12 444.985 27.44 444.985 29.9V37H443.225V30.26C443.225 28.66 442.505 27.62 440.905 27.62C439.145 27.62 438.105 29.2 438.105 30.72V37H436.345ZM460.575 30.04H458.815C458.535 28.42 457.455 27.64 456.055 27.64C454.095 27.64 453.055 29.08 453.055 31.7C453.055 34.28 454.155 35.74 456.115 35.74C457.535 35.74 458.555 34.98 458.895 33.46H460.655C460.175 36.1 458.395 37.24 456.075 37.24C453.055 37.24 451.255 35.14 451.255 31.7C451.255 28.1 453.095 26.12 456.055 26.12C458.395 26.12 460.235 27.44 460.575 30.04ZM462.83 37V26.38H464.59V28.02C465.31 26.72 466.45 26.12 467.73 26.12C468.15 26.12 468.53 26.22 468.73 26.38V27.96C468.43 27.86 468.05 27.82 467.63 27.82C465.51 27.82 464.59 29.14 464.59 31.06V37H462.83ZM479.275 33.54C478.695 36.02 476.915 37.24 474.495 37.24C471.415 37.24 469.555 35.16 469.555 31.7C469.555 28.1 471.415 26.12 474.395 26.12C477.395 26.12 479.195 28.18 479.195 31.56V32H471.355C471.455 34.38 472.575 35.72 474.495 35.72C475.995 35.72 477.055 35 477.435 33.54H479.275ZM474.395 27.64C472.695 27.64 471.675 28.7 471.415 30.68H477.355C477.115 28.72 476.055 27.64 474.395 27.64ZM483.161 29.84H481.401C481.741 27.5 483.281 26.12 485.881 26.12C488.721 26.12 490.101 27.78 490.101 30.26V34.44C490.101 35.66 490.201 36.42 490.481 37H488.621C488.421 36.58 488.361 35.96 488.341 35.32C487.441 36.66 486.001 37.24 484.721 37.24C482.521 37.24 481.041 36.22 481.041 34.2C481.041 32.74 481.841 31.68 483.401 31.16C484.841 30.68 486.301 30.56 488.341 30.54V30.3C488.341 28.58 487.541 27.64 485.721 27.64C484.201 27.64 483.381 28.48 483.161 29.84ZM482.841 34.16C482.841 35.14 483.661 35.72 484.901 35.72C486.861 35.72 488.341 34.18 488.341 32.36V31.86C483.821 31.9 482.841 32.86 482.841 34.16ZM493.226 33.94V27.78H491.746V26.38H493.226V23.94H494.986V26.38H497.326V27.78H494.986V33.94C494.986 35.22 495.366 35.82 496.926 35.82H497.286V37.08C497.086 37.18 496.646 37.24 496.146 37.24C494.166 37.24 493.226 36.18 493.226 33.94ZM499.002 24.96V22.6H500.762V24.96H499.002ZM499.002 37V26.38H500.762V37H499.002ZM507.872 37.24C504.832 37.24 503.012 35.16 503.012 31.7C503.012 28.1 504.892 26.12 507.872 26.12C510.912 26.12 512.732 28.24 512.732 31.7C512.732 35.28 510.852 37.24 507.872 37.24ZM507.872 35.72C509.852 35.72 510.932 34.3 510.932 31.7C510.932 29.12 509.832 27.64 507.872 27.64C505.892 27.64 504.812 29.08 504.812 31.7C504.812 34.26 505.912 35.72 507.872 35.72ZM514.998 37V26.38H516.758V27.82C517.478 26.7 518.638 26.12 520.038 26.12C522.298 26.12 523.638 27.44 523.638 29.9V37H521.878V30.26C521.878 28.66 521.158 27.62 519.558 27.62C517.798 27.62 516.758 29.2 516.758 30.72V37H514.998ZM526.243 37V34.84H528.403V37H526.243Z" fill="#E6FFFB"/>
<rect y="72" width="960" height="60" rx="16" fill="#196D60"/>
<path d="M33.4193 109V108.44C33.4193 102.68 40.3993 103.08 40.3993 99.82C40.3993 98.48 39.5993 97.68 38.1593 97.68C36.5793 97.68 35.7993 98.5 35.5593 99.86H33.3793C33.7193 97.4 35.4193 95.88 38.1793 95.88C41.0793 95.88 42.5593 97.6 42.5593 99.8C42.5593 103.82 36.4993 103.96 35.6193 107.34H42.6593V109H33.4193ZM54.5827 104.7C54.5827 107.34 52.9027 109.26 49.7427 109.26C46.8427 109.26 45.0627 107.78 44.7027 105.32H46.8427C47.0627 106.64 48.0027 107.46 49.7227 107.46C51.5227 107.46 52.4427 106.44 52.4427 104.74C52.4427 103.32 51.7627 101.92 49.7027 101.92C48.3427 101.92 47.5627 102.52 47.1227 103.18L45.2027 103L45.6027 96.14H53.9627V97.82H47.3227L47.1227 101C47.8427 100.48 48.7027 100.14 49.8827 100.14C53.2627 100.14 54.5827 102.26 54.5827 104.7ZM58.7662 103.14C56.8062 103.14 55.6462 101.82 55.6462 99.52C55.6462 97.2 56.8262 95.88 58.7662 95.88C60.7262 95.88 61.8862 97.24 61.8862 99.52C61.8862 101.82 60.7262 103.14 58.7662 103.14ZM57.7862 109L66.7862 96.14H68.7862L59.8062 109H57.7862ZM58.7662 101.7C59.6462 101.7 60.1262 100.94 60.1262 99.52C60.1262 98.12 59.6462 97.34 58.7662 97.34C57.8862 97.34 57.4262 98.1 57.4262 99.52C57.4262 100.92 57.9062 101.7 58.7662 101.7ZM67.7862 109.18C65.8262 109.18 64.6662 107.84 64.6662 105.56C64.6662 103.24 65.8462 101.9 67.7862 101.9C69.7462 101.9 70.9062 103.26 70.9062 105.56C70.9062 107.86 69.7662 109.18 67.7862 109.18ZM67.7862 107.74C68.6662 107.74 69.1462 106.98 69.1462 105.56C69.1462 104.14 68.6662 103.36 67.7862 103.36C66.9262 103.36 66.4462 104.14 66.4462 105.56C66.4462 106.96 66.9262 107.74 67.7862 107.74ZM76.6299 109V95.4H78.8699V109H76.6299ZM81.7862 109V95.4H84.1262L89.8262 104.28L90.6862 105.88L90.6262 95.4H92.8662V109H90.5262L84.8462 100.16L83.9662 98.5L84.0262 109H81.7862ZM107.27 99.44H104.93C104.47 97.88 103.17 97.02 101.55 97.02C99.0701 97.02 97.5901 99 97.5901 102.22C97.5901 105.44 99.0501 107.38 101.55 107.38C103.11 107.38 104.37 106.58 104.89 105.04H107.25C106.51 107.74 104.23 109.26 101.55 109.26C97.6701 109.26 95.3101 106.6 95.3101 102.22C95.3101 97.86 97.6901 95.14 101.61 95.14C104.31 95.14 106.63 96.62 107.27 99.44ZM109.501 109V95.4H114.601C117.541 95.4 119.401 96.92 119.401 99.32C119.401 100.86 118.701 101.94 117.481 102.54C118.281 102.96 118.721 103.7 119.021 104.92L120.041 109H117.681L116.861 105.36C116.501 103.8 115.901 103.5 114.401 103.5H111.741V109H109.501ZM114.541 97.2H111.741V101.7H114.501C116.161 101.7 117.101 100.82 117.101 99.44C117.101 98.08 116.161 97.2 114.541 97.2ZM122.099 109V95.4H131.479V97.2H124.339V101.08H130.719V102.86H124.339V107.2H131.479V109H122.099ZM143.398 109L142.238 105.94H136.038L134.878 109H132.638L137.878 95.4H140.498L145.738 109H143.398ZM138.738 98.88L136.718 104.18H141.558L139.538 98.88L139.138 97.56L138.738 98.88ZM149.094 98.76C149.094 102.34 157.334 99.52 157.334 105.08C157.334 107.76 155.154 109.26 152.174 109.26C149.154 109.26 147.074 107.88 146.514 105.04H148.854C149.234 106.58 150.374 107.42 152.194 107.42C154.054 107.42 155.034 106.6 155.034 105.38C155.034 101.54 146.794 104.4 146.794 98.94C146.794 96.9 148.514 95.14 151.614 95.14C154.294 95.14 156.494 96.42 156.974 99.4H154.594C154.214 97.72 153.154 96.98 151.554 96.98C149.994 96.98 149.094 97.68 149.094 98.76ZM159.501 109V95.4H168.881V97.2H161.741V101.08H168.121V102.86H161.741V107.2H168.881V109H159.501Z" fill="#E6FFFB"/>
<path opacity="0.3" d="M182 88V116" stroke="#E6FFFB"/>
<path d="M195.4 96.96V94.6H197.16V96.96H195.4ZM195.4 109V98.38H197.16V109H195.4ZM199.951 109V98.38H201.711V99.82C202.431 98.7 203.591 98.12 204.991 98.12C207.251 98.12 208.591 99.44 208.591 101.9V109H206.831V102.26C206.831 100.66 206.111 99.62 204.511 99.62C202.751 99.62 201.711 101.2 201.711 102.72V109H199.951ZM224.58 105.54C224 108.02 222.22 109.24 219.8 109.24C216.72 109.24 214.86 107.16 214.86 103.7C214.86 100.1 216.72 98.12 219.7 98.12C222.7 98.12 224.5 100.18 224.5 103.56V104H216.66C216.76 106.38 217.88 107.72 219.8 107.72C221.3 107.72 222.36 107 222.74 105.54H224.58ZM219.7 99.64C218 99.64 216.98 100.7 216.72 102.68H222.66C222.42 100.72 221.36 99.64 219.7 99.64ZM226.845 109V98.38H228.605V99.82C229.325 98.7 230.485 98.12 231.885 98.12C234.145 98.12 235.485 99.44 235.485 101.9V109H233.725V102.26C233.725 100.66 233.005 99.62 231.405 99.62C229.645 99.62 228.605 101.2 228.605 102.72V109H226.845ZM242.071 109.08C239.371 109.08 237.751 107.02 237.751 103.62C237.751 100.06 239.411 98.12 242.071 98.12C243.491 98.12 244.551 98.62 245.251 99.54V98.38H247.011V109.32C247.011 112.28 245.111 113.66 242.671 113.66C240.171 113.66 238.411 112.46 238.031 110.04H239.791C240.011 111.44 241.111 112.2 242.651 112.2C244.211 112.2 245.251 111.36 245.251 109.38V107.56C244.511 108.56 243.431 109.08 242.071 109.08ZM242.391 107.56C244.251 107.56 245.251 106.16 245.251 103.6C245.251 101.1 244.211 99.64 242.391 99.64C240.551 99.64 239.551 101.04 239.551 103.62C239.551 106.12 240.571 107.56 242.391 107.56ZM251.454 101.84H249.694C250.034 99.5 251.574 98.12 254.174 98.12C257.014 98.12 258.394 99.78 258.394 102.26V106.44C258.394 107.66 258.494 108.42 258.774 109H256.914C256.714 108.58 256.654 107.96 256.634 107.32C255.734 108.66 254.294 109.24 253.014 109.24C250.814 109.24 249.334 108.22 249.334 106.2C249.334 104.74 250.134 103.68 251.694 103.16C253.134 102.68 254.594 102.56 256.634 102.54V102.3C256.634 100.58 255.834 99.64 254.014 99.64C252.494 99.64 251.674 100.48 251.454 101.84ZM251.134 106.16C251.134 107.14 251.954 107.72 253.194 107.72C255.154 107.72 256.634 106.18 256.634 104.36V103.86C252.114 103.9 251.134 104.86 251.134 106.16ZM265.059 109.08C262.359 109.08 260.739 107.02 260.739 103.62C260.739 100.06 262.399 98.12 265.059 98.12C266.479 98.12 267.539 98.62 268.239 99.54V98.38H269.999V109.32C269.999 112.28 268.099 113.66 265.659 113.66C263.159 113.66 261.399 112.46 261.019 110.04H262.779C262.999 111.44 264.099 112.2 265.639 112.2C267.199 112.2 268.239 111.36 268.239 109.38V107.56C267.499 108.56 266.419 109.08 265.059 109.08ZM265.379 107.56C267.239 107.56 268.239 106.16 268.239 103.6C268.239 101.1 267.199 99.64 265.379 99.64C263.539 99.64 262.539 101.04 262.539 103.62C262.539 106.12 263.559 107.56 265.379 107.56ZM282.002 105.54C281.422 108.02 279.642 109.24 277.222 109.24C274.142 109.24 272.282 107.16 272.282 103.7C272.282 100.1 274.142 98.12 277.122 98.12C280.122 98.12 281.922 100.18 281.922 103.56V104H274.082C274.182 106.38 275.302 107.72 277.222 107.72C278.722 107.72 279.782 107 280.162 105.54H282.002ZM277.122 99.64C275.422 99.64 274.402 100.7 274.142 102.68H280.082C279.842 100.72 278.782 99.64 277.122 99.64ZM284.267 109V98.38H286.027V99.74C286.707 98.66 287.767 98.12 289.067 98.12C290.527 98.12 291.587 98.76 292.087 100C292.787 98.76 293.947 98.12 295.367 98.12C297.527 98.12 298.827 99.44 298.827 101.9V109H297.067V102.26C297.067 100.66 296.427 99.62 294.987 99.62C293.387 99.62 292.427 101.2 292.427 102.72V109H290.667V102.26C290.667 100.66 290.027 99.62 288.587 99.62C286.987 99.62 286.027 101.2 286.027 102.72V109H284.267ZM310.81 105.54C310.23 108.02 308.45 109.24 306.03 109.24C302.95 109.24 301.09 107.16 301.09 103.7C301.09 100.1 302.95 98.12 305.93 98.12C308.93 98.12 310.73 100.18 310.73 103.56V104H302.89C302.99 106.38 304.11 107.72 306.03 107.72C307.53 107.72 308.59 107 308.97 105.54H310.81ZM305.93 99.64C304.23 99.64 303.21 100.7 302.95 102.68H308.89C308.65 100.72 307.59 99.64 305.93 99.64ZM313.076 109V98.38H314.836V99.82C315.556 98.7 316.716 98.12 318.116 98.12C320.376 98.12 321.716 99.44 321.716 101.9V109H319.956V102.26C319.956 100.66 319.236 99.62 317.636 99.62C315.876 99.62 314.836 101.2 314.836 102.72V109H313.076ZM324.761 105.94V99.78H323.281V98.38H324.761V95.94H326.521V98.38H328.861V99.78H326.521V105.94C326.521 107.22 326.901 107.82 328.461 107.82H328.821V109.08C328.621 109.18 328.181 109.24 327.681 109.24C325.701 109.24 324.761 108.18 324.761 105.94ZM338.521 109.24C335.701 109.24 334.001 107.16 334.001 103.7C334.001 100.1 335.741 98.12 338.521 98.12C339.781 98.12 340.801 98.64 341.501 99.62V94.6H343.261V109H341.501V107.66C340.801 108.66 339.781 109.24 338.521 109.24ZM338.641 107.72C340.501 107.72 341.501 106.3 341.501 103.7C341.501 101.12 340.461 99.64 338.641 99.64C336.801 99.64 335.801 101.08 335.801 103.7C335.801 106.26 336.841 107.72 338.641 107.72ZM352.824 104.66V98.38H354.584V109H352.824V107.56C352.104 108.68 350.984 109.24 349.604 109.24C347.384 109.24 346.064 107.94 346.064 105.48V98.38H347.824V105.12C347.824 106.72 348.524 107.74 350.084 107.74C351.804 107.74 352.824 106.18 352.824 104.66ZM366.572 105.54C365.992 108.02 364.212 109.24 361.792 109.24C358.712 109.24 356.852 107.16 356.852 103.7C356.852 100.1 358.712 98.12 361.692 98.12C364.692 98.12 366.492 100.18 366.492 103.56V104H358.652C358.752 106.38 359.872 107.72 361.792 107.72C363.292 107.72 364.352 107 364.732 105.54H366.572ZM361.692 99.64C359.992 99.64 358.972 100.7 358.712 102.68H364.652C364.412 100.72 363.352 99.64 361.692 99.64ZM373.081 105.94V99.78H371.601V98.38H373.081V95.94H374.841V98.38H377.181V99.78H374.841V105.94C374.841 107.22 375.221 107.82 376.781 107.82H377.141V109.08C376.941 109.18 376.501 109.24 376.001 109.24C374.021 109.24 373.081 108.18 373.081 105.94ZM383.177 109.24C380.137 109.24 378.317 107.16 378.317 103.7C378.317 100.1 380.197 98.12 383.177 98.12C386.217 98.12 388.037 100.24 388.037 103.7C388.037 107.28 386.157 109.24 383.177 109.24ZM383.177 107.72C385.157 107.72 386.237 106.3 386.237 103.7C386.237 101.12 385.137 99.64 383.177 99.64C381.197 99.64 380.117 101.08 380.117 103.7C380.117 106.26 381.217 107.72 383.177 107.72ZM395.606 101.1C395.606 104.06 402.506 101.62 402.506 106C402.506 107.98 400.746 109.24 398.246 109.24C395.726 109.24 393.966 108.04 393.566 105.54H395.326C395.566 107.02 396.666 107.84 398.306 107.84C399.906 107.84 400.746 107.12 400.746 106.12C400.746 103.22 393.926 105.62 393.926 101.22C393.926 99.6 395.186 98.12 397.786 98.12C400.086 98.12 401.786 99.2 402.126 101.84H400.366C400.106 100.18 399.186 99.56 397.686 99.56C396.366 99.56 395.606 100.22 395.606 101.1ZM404.599 96.96V94.6H406.359V96.96H404.599ZM404.599 109V98.38H406.359V109H404.599ZM409.15 109V98.38H410.91V99.74C411.59 98.66 412.65 98.12 413.95 98.12C415.41 98.12 416.47 98.76 416.97 100C417.67 98.76 418.83 98.12 420.25 98.12C422.41 98.12 423.71 99.44 423.71 101.9V109H421.95V102.26C421.95 100.66 421.31 99.62 419.87 99.62C418.27 99.62 417.31 101.2 417.31 102.72V109H415.55V102.26C415.55 100.66 414.91 99.62 413.47 99.62C411.87 99.62 410.91 101.2 410.91 102.72V109H409.15ZM428.293 113.4H426.533V98.38H428.293V99.7C428.993 98.7 430.013 98.12 431.273 98.12C434.093 98.12 435.793 100.2 435.793 103.66C435.793 107.26 434.053 109.24 431.273 109.24C430.013 109.24 428.993 108.72 428.293 107.74V113.4ZM431.153 99.64C429.293 99.64 428.293 101.06 428.293 103.66C428.293 106.24 429.333 107.72 431.153 107.72C432.993 107.72 433.993 106.28 433.993 103.66C433.993 101.1 432.953 99.64 431.153 99.64ZM438.056 109V94.6H439.816V109H438.056ZM442.607 96.96V94.6H444.367V96.96H442.607ZM442.607 109V98.38H444.367V109H442.607ZM445.858 99.78V98.38H447.338V97.66C447.338 95.42 448.258 94.36 450.218 94.36C450.658 94.36 451.018 94.44 451.198 94.52V95.78H451.018C449.478 95.78 449.098 96.38 449.098 97.66V98.38H451.198V99.78H449.098V109H447.338V99.78H445.858ZM452.598 96.96V94.6H454.358V96.96H452.598ZM452.598 109V98.38H454.358V109H452.598ZM466.338 105.54C465.758 108.02 463.978 109.24 461.558 109.24C458.478 109.24 456.618 107.16 456.618 103.7C456.618 100.1 458.478 98.12 461.458 98.12C464.458 98.12 466.258 100.18 466.258 103.56V104H458.418C458.518 106.38 459.638 107.72 461.558 107.72C463.058 107.72 464.118 107 464.498 105.54H466.338ZM461.458 99.64C459.758 99.64 458.738 100.7 458.478 102.68H464.418C464.178 100.72 463.118 99.64 461.458 99.64ZM472.583 109.24C469.763 109.24 468.063 107.16 468.063 103.7C468.063 100.1 469.803 98.12 472.583 98.12C473.843 98.12 474.863 98.64 475.563 99.62V94.6H477.323V109H475.563V107.66C474.863 108.66 473.843 109.24 472.583 109.24ZM472.703 107.72C474.563 107.72 475.563 106.3 475.563 103.7C475.563 101.12 474.523 99.64 472.703 99.64C470.863 99.64 469.863 101.08 469.863 103.7C469.863 106.26 470.903 107.72 472.703 107.72ZM488.11 109.24C485.29 109.24 483.59 107.16 483.59 103.7C483.59 100.1 485.33 98.12 488.11 98.12C489.37 98.12 490.39 98.64 491.09 99.62V94.6H492.85V109H491.09V107.66C490.39 108.66 489.37 109.24 488.11 109.24ZM488.23 107.72C490.09 107.72 491.09 106.3 491.09 103.7C491.09 101.12 490.05 99.64 488.23 99.64C486.39 99.64 485.39 101.08 485.39 103.7C485.39 106.26 486.43 107.72 488.23 107.72ZM497.274 101.84H495.514C495.854 99.5 497.394 98.12 499.994 98.12C502.834 98.12 504.214 99.78 504.214 102.26V106.44C504.214 107.66 504.314 108.42 504.594 109H502.734C502.534 108.58 502.474 107.96 502.454 107.32C501.554 108.66 500.114 109.24 498.834 109.24C496.634 109.24 495.154 108.22 495.154 106.2C495.154 104.74 495.954 103.68 497.514 103.16C498.954 102.68 500.414 102.56 502.454 102.54V102.3C502.454 100.58 501.654 99.64 499.834 99.64C498.314 99.64 497.494 100.48 497.274 101.84ZM496.954 106.16C496.954 107.14 497.774 107.72 499.014 107.72C500.974 107.72 502.454 106.18 502.454 104.36V103.86C497.934 103.9 496.954 104.86 496.954 106.16ZM508.399 101.1C508.399 104.06 515.299 101.62 515.299 106C515.299 107.98 513.539 109.24 511.039 109.24C508.519 109.24 506.759 108.04 506.359 105.54H508.119C508.359 107.02 509.459 107.84 511.099 107.84C512.699 107.84 513.539 107.12 513.539 106.12C513.539 103.22 506.719 105.62 506.719 101.22C506.719 99.6 507.979 98.12 510.579 98.12C512.879 98.12 514.579 99.2 514.919 101.84H513.159C512.899 100.18 511.979 99.56 510.479 99.56C509.159 99.56 508.399 100.22 508.399 101.1ZM517.392 109V94.6H519.152V99.82C519.872 98.7 521.032 98.12 522.432 98.12C524.692 98.12 526.032 99.44 526.032 101.9V109H524.272V102.26C524.272 100.66 523.552 99.62 521.952 99.62C520.192 99.62 519.152 101.2 519.152 102.72V109H517.392ZM530.598 109H528.838V94.6H530.598V99.7C531.298 98.7 532.318 98.12 533.578 98.12C536.398 98.12 538.098 100.2 538.098 103.66C538.098 107.26 536.358 109.24 533.578 109.24C532.318 109.24 531.298 108.72 530.598 107.74V109ZM533.458 99.64C531.598 99.64 530.598 101.06 530.598 103.66C530.598 106.24 531.638 107.72 533.458 107.72C535.298 107.72 536.298 106.28 536.298 103.66C536.298 101.1 535.258 99.64 533.458 99.64ZM544.681 109.24C541.641 109.24 539.821 107.16 539.821 103.7C539.821 100.1 541.701 98.12 544.681 98.12C547.721 98.12 549.541 100.24 549.541 103.7C549.541 107.28 547.661 109.24 544.681 109.24ZM544.681 107.72C546.661 107.72 547.741 106.3 547.741 103.7C547.741 101.12 546.641 99.64 544.681 99.64C542.701 99.64 541.621 101.08 541.621 103.7C541.621 106.26 542.721 107.72 544.681 107.72ZM553.426 101.84H551.666C552.006 99.5 553.546 98.12 556.146 98.12C558.986 98.12 560.366 99.78 560.366 102.26V106.44C560.366 107.66 560.466 108.42 560.746 109H558.886C558.686 108.58 558.626 107.96 558.606 107.32C557.706 108.66 556.266 109.24 554.986 109.24C552.786 109.24 551.306 108.22 551.306 106.2C551.306 104.74 552.106 103.68 553.666 103.16C555.106 102.68 556.566 102.56 558.606 102.54V102.3C558.606 100.58 557.806 99.64 555.986 99.64C554.466 99.64 553.646 100.48 553.426 101.84ZM553.106 106.16C553.106 107.14 553.926 107.72 555.166 107.72C557.126 107.72 558.606 106.18 558.606 104.36V103.86C554.086 103.9 553.106 104.86 553.106 106.16ZM563.252 109V98.38H565.012V100.02C565.732 98.72 566.872 98.12 568.152 98.12C568.572 98.12 568.952 98.22 569.152 98.38V99.96C568.852 99.86 568.472 99.82 568.052 99.82C565.932 99.82 565.012 101.14 565.012 103.06V109H563.252ZM574.497 109.24C571.677 109.24 569.977 107.16 569.977 103.7C569.977 100.1 571.717 98.12 574.497 98.12C575.757 98.12 576.777 98.64 577.477 99.62V94.6H579.237V109H577.477V107.66C576.777 108.66 575.757 109.24 574.497 109.24ZM574.617 107.72C576.477 107.72 577.477 106.3 577.477 103.7C577.477 101.12 576.437 99.64 574.617 99.64C572.777 99.64 571.777 101.08 571.777 103.7C571.777 106.26 572.817 107.72 574.617 107.72ZM583.341 101.1C583.341 104.06 590.241 101.62 590.241 106C590.241 107.98 588.481 109.24 585.981 109.24C583.461 109.24 581.701 108.04 581.301 105.54H583.061C583.301 107.02 584.401 107.84 586.041 107.84C587.641 107.84 588.481 107.12 588.481 106.12C588.481 103.22 581.661 105.62 581.661 101.22C581.661 99.6 582.921 98.12 585.521 98.12C587.821 98.12 589.521 99.2 589.861 101.84H588.101C587.841 100.18 586.921 99.56 585.421 99.56C584.101 99.56 583.341 100.22 583.341 101.1ZM592.134 109V106.84H594.294V109H592.134Z" fill="#E6FFFB"/>
<rect y="144" width="960" height="60" rx="16" fill="#196D60"/>
<path d="M37.7094 167.88C37.7294 167.88 37.7294 167.88 37.7494 167.88C40.8894 167.9 42.8694 170 42.8694 174.5C42.8694 178.88 40.8694 181.26 37.6494 181.26C35.2694 181.26 33.4894 179.92 32.9094 177.44H35.0894C35.4694 178.78 36.4494 179.44 37.7294 179.44C39.6894 179.44 40.7494 177.92 40.8294 175.04C40.1094 176.06 38.9694 176.66 37.6294 176.66C34.8294 176.66 32.9494 175.04 32.9494 172.22C32.9494 169.52 34.9094 167.88 37.7094 167.88ZM37.7894 169.68C36.1894 169.68 35.1494 170.6 35.1494 172.22C35.1494 173.9 36.1894 174.88 37.7894 174.88C39.3694 174.88 40.4094 173.92 40.4094 172.22C40.4094 170.62 39.3694 169.68 37.7894 169.68ZM49.3928 181.26C46.1728 181.26 44.3128 178.78 44.3128 174.58C44.3128 170.28 46.2128 167.88 49.3928 167.88C52.5928 167.88 54.4528 170.36 54.4528 174.58C54.4528 178.88 52.5528 181.26 49.3928 181.26ZM49.3928 179.44C51.2528 179.44 52.2728 177.72 52.2728 174.58C52.2728 171.46 51.2328 169.7 49.3928 169.7C47.5328 169.7 46.4928 171.42 46.4928 174.58C46.4928 177.66 47.5328 179.44 49.3928 179.44ZM58.5963 175.14C56.6363 175.14 55.4763 173.82 55.4763 171.52C55.4763 169.2 56.6563 167.88 58.5963 167.88C60.5563 167.88 61.7163 169.24 61.7163 171.52C61.7163 173.82 60.5563 175.14 58.5963 175.14ZM57.6163 181L66.6163 168.14H68.6163L59.6363 181H57.6163ZM58.5963 173.7C59.4763 173.7 59.9563 172.94 59.9563 171.52C59.9563 170.12 59.4763 169.34 58.5963 169.34C57.7163 169.34 57.2563 170.1 57.2563 171.52C57.2563 172.92 57.7363 173.7 58.5963 173.7ZM67.6163 181.18C65.6563 181.18 64.4963 179.84 64.4963 177.56C64.4963 175.24 65.6763 173.9 67.6163 173.9C69.5763 173.9 70.7363 175.26 70.7363 177.56C70.7363 179.86 69.5963 181.18 67.6163 181.18ZM67.6163 179.74C68.4963 179.74 68.9763 178.98 68.9763 177.56C68.9763 176.14 68.4963 175.36 67.6163 175.36C66.7563 175.36 66.2763 176.14 66.2763 177.56C66.2763 178.96 66.7563 179.74 67.6163 179.74ZM82.52 181.26C78.46 181.26 75.98 178.58 75.98 174.22C75.98 169.86 78.46 167.14 82.52 167.14C86.54 167.14 89.04 169.86 89.04 174.22C89.04 178.58 86.54 181.26 82.52 181.26ZM82.52 179.38C85.18 179.38 86.76 177.42 86.76 174.22C86.76 171 85.18 169.02 82.52 169.02C79.86 169.02 78.26 171 78.26 174.22C78.26 177.42 79.86 179.38 82.52 179.38ZM91.4795 181V167.4H100.86V169.2H93.7195V173.48H100.1V175.28H93.7195V181H91.4795ZM117.869 175.82C117.869 179.2 115.749 181.26 112.329 181.26C108.909 181.26 106.789 179.2 106.789 175.82V167.4H109.029V175.82C109.029 178.1 110.269 179.46 112.329 179.46C114.409 179.46 115.629 178.08 115.629 175.82V167.4H117.869V175.82ZM122.44 170.76C122.44 174.34 130.68 171.52 130.68 177.08C130.68 179.76 128.5 181.26 125.52 181.26C122.5 181.26 120.42 179.88 119.86 177.04H122.2C122.58 178.58 123.72 179.42 125.54 179.42C127.4 179.42 128.38 178.6 128.38 177.38C128.38 173.54 120.14 176.4 120.14 170.94C120.14 168.9 121.86 167.14 124.96 167.14C127.64 167.14 129.84 168.42 130.32 171.4H127.94C127.56 169.72 126.5 168.98 124.9 168.98C123.34 168.98 122.44 169.68 122.44 170.76ZM132.847 181V167.4H142.227V169.2H135.087V173.08H141.467V174.86H135.087V179.2H142.227V181H132.847ZM144.526 181V167.4H149.626C152.566 167.4 154.426 168.92 154.426 171.32C154.426 172.86 153.726 173.94 152.506 174.54C153.306 174.96 153.746 175.7 154.046 176.92L155.066 181H152.706L151.886 177.36C151.526 175.8 150.926 175.5 149.426 175.5H146.766V181H144.526ZM149.566 169.2H146.766V173.7H149.526C151.186 173.7 152.126 172.82 152.126 171.44C152.126 170.08 151.186 169.2 149.566 169.2ZM158.944 170.76C158.944 174.34 167.184 171.52 167.184 177.08C167.184 179.76 165.004 181.26 162.024 181.26C159.004 181.26 156.924 179.88 156.364 177.04H158.704C159.084 178.58 160.224 179.42 162.044 179.42C163.904 179.42 164.884 178.6 164.884 177.38C164.884 173.54 156.644 176.4 156.644 170.94C156.644 168.9 158.364 167.14 161.464 167.14C164.144 167.14 166.344 168.42 166.824 171.4H164.444C164.064 169.72 163.004 168.98 161.404 168.98C159.844 168.98 158.944 169.68 158.944 170.76Z" fill="#E6FFFB"/>
<path opacity="0.3" d="M180 160V188" stroke="#E6FFFB"/>
<path d="M193.4 181V170.38H195.16V172.02C195.88 170.72 197.02 170.12 198.3 170.12C198.72 170.12 199.1 170.22 199.3 170.38V171.96C199 171.86 198.62 171.82 198.2 171.82C196.08 171.82 195.16 173.14 195.16 175.06V181H193.4ZM209.846 177.54C209.266 180.02 207.486 181.24 205.066 181.24C201.986 181.24 200.126 179.16 200.126 175.7C200.126 172.1 201.986 170.12 204.966 170.12C207.966 170.12 209.766 172.18 209.766 175.56V176H201.926C202.026 178.38 203.146 179.72 205.066 179.72C206.566 179.72 207.626 179 208.006 177.54H209.846ZM204.966 171.64C203.266 171.64 202.246 172.7 201.986 174.68H207.926C207.686 172.72 206.626 171.64 204.966 171.64ZM213.891 185.4H212.131V170.38H213.891V171.7C214.591 170.7 215.611 170.12 216.871 170.12C219.691 170.12 221.391 172.2 221.391 175.66C221.391 179.26 219.651 181.24 216.871 181.24C215.611 181.24 214.591 180.72 213.891 179.74V185.4ZM216.751 171.64C214.891 171.64 213.891 173.06 213.891 175.66C213.891 178.24 214.931 179.72 216.751 179.72C218.591 179.72 219.591 178.28 219.591 175.66C219.591 173.1 218.551 171.64 216.751 171.64ZM227.974 181.24C224.934 181.24 223.114 179.16 223.114 175.7C223.114 172.1 224.994 170.12 227.974 170.12C231.014 170.12 232.834 172.24 232.834 175.7C232.834 179.28 230.954 181.24 227.974 181.24ZM227.974 179.72C229.954 179.72 231.034 178.3 231.034 175.7C231.034 173.12 229.934 171.64 227.974 171.64C225.994 171.64 224.914 173.08 224.914 175.7C224.914 178.26 226.014 179.72 227.974 179.72ZM235.099 181V170.38H236.859V172.02C237.579 170.72 238.719 170.12 239.999 170.12C240.419 170.12 240.799 170.22 240.999 170.38V171.96C240.699 171.86 240.319 171.82 239.899 171.82C237.779 171.82 236.859 173.14 236.859 175.06V181H235.099ZM242.8 177.94V171.78H241.32V170.38H242.8V167.94H244.56V170.38H246.9V171.78H244.56V177.94C244.56 179.22 244.94 179.82 246.5 179.82H246.86V181.08C246.66 181.18 246.22 181.24 245.72 181.24C243.74 181.24 242.8 180.18 242.8 177.94ZM257.756 177.54C257.176 180.02 255.396 181.24 252.976 181.24C249.896 181.24 248.036 179.16 248.036 175.7C248.036 172.1 249.896 170.12 252.876 170.12C255.876 170.12 257.676 172.18 257.676 175.56V176H249.836C249.936 178.38 251.056 179.72 252.976 179.72C254.476 179.72 255.536 179 255.916 177.54H257.756ZM252.876 171.64C251.176 171.64 250.156 172.7 249.896 174.68H255.836C255.596 172.72 254.536 171.64 252.876 171.64ZM264.001 181.24C261.181 181.24 259.481 179.16 259.481 175.7C259.481 172.1 261.221 170.12 264.001 170.12C265.261 170.12 266.281 170.64 266.981 171.62V166.6H268.741V181H266.981V179.66C266.281 180.66 265.261 181.24 264.001 181.24ZM264.121 179.72C265.981 179.72 266.981 178.3 266.981 175.7C266.981 173.12 265.941 171.64 264.121 171.64C262.281 171.64 261.281 173.08 261.281 175.7C261.281 178.26 262.321 179.72 264.121 179.72ZM275.788 177.94V171.78H274.308V170.38H275.788V167.94H277.548V170.38H279.888V171.78H277.548V177.94C277.548 179.22 277.928 179.82 279.488 179.82H279.848V181.08C279.648 181.18 279.208 181.24 278.708 181.24C276.728 181.24 275.788 180.18 275.788 177.94ZM281.564 181V166.6H283.324V171.82C284.044 170.7 285.204 170.12 286.604 170.12C288.864 170.12 290.204 171.44 290.204 173.9V181H288.444V174.26C288.444 172.66 287.724 171.62 286.124 171.62C284.364 171.62 283.324 173.2 283.324 174.72V181H281.564ZM302.189 177.54C301.609 180.02 299.829 181.24 297.409 181.24C294.329 181.24 292.469 179.16 292.469 175.7C292.469 172.1 294.329 170.12 297.309 170.12C300.309 170.12 302.109 172.18 302.109 175.56V176H294.269C294.369 178.38 295.489 179.72 297.409 179.72C298.909 179.72 299.969 179 300.349 177.54H302.189ZM297.309 171.64C295.609 171.64 294.589 172.7 294.329 174.68H300.269C300.029 172.72 298.969 171.64 297.309 171.64ZM304.642 185.64C304.242 185.64 303.822 185.54 303.602 185.48V184.12H304.142C305.442 184.12 305.802 183.86 306.842 181.48L307.202 180.66L302.862 170.38H304.762L307.642 177.4L308.122 178.82L308.602 177.4L311.402 170.38H313.202L308.242 182.4C307.182 184.96 306.482 185.64 304.642 185.64ZM327.493 174.04H325.733C325.453 172.42 324.373 171.64 322.973 171.64C321.013 171.64 319.973 173.08 319.973 175.7C319.973 178.28 321.073 179.74 323.033 179.74C324.453 179.74 325.473 178.98 325.813 177.46H327.573C327.093 180.1 325.313 181.24 322.993 181.24C319.973 181.24 318.173 179.14 318.173 175.7C318.173 172.1 320.013 170.12 322.973 170.12C325.313 170.12 327.153 171.44 327.493 174.04ZM334.068 181.24C331.028 181.24 329.208 179.16 329.208 175.7C329.208 172.1 331.088 170.12 334.068 170.12C337.108 170.12 338.928 172.24 338.928 175.7C338.928 179.28 337.048 181.24 334.068 181.24ZM334.068 179.72C336.048 179.72 337.128 178.3 337.128 175.7C337.128 173.12 336.028 171.64 334.068 171.64C332.088 171.64 331.008 173.08 331.008 175.7C331.008 178.26 332.108 179.72 334.068 179.72ZM347.953 176.66V170.38H349.713V181H347.953V179.56C347.233 180.68 346.113 181.24 344.733 181.24C342.513 181.24 341.193 179.94 341.193 177.48V170.38H342.953V177.12C342.953 178.72 343.653 179.74 345.213 179.74C346.933 179.74 347.953 178.18 347.953 176.66ZM352.521 181V166.6H354.281V181H352.521ZM361.052 181.24C358.232 181.24 356.532 179.16 356.532 175.7C356.532 172.1 358.272 170.12 361.052 170.12C362.312 170.12 363.332 170.64 364.032 171.62V166.6H365.792V181H364.032V179.66C363.332 180.66 362.312 181.24 361.052 181.24ZM361.172 179.72C363.032 179.72 364.032 178.3 364.032 175.7C364.032 173.12 362.992 171.64 361.172 171.64C359.332 171.64 358.332 173.08 358.332 175.7C358.332 178.26 359.372 179.72 361.172 179.72ZM371.299 171.78V170.38H372.779V169.66C372.779 167.42 373.699 166.36 375.659 166.36C376.099 166.36 376.459 166.44 376.639 166.52V167.78H376.459C374.919 167.78 374.539 168.38 374.539 169.66V170.38H376.639V171.78H374.539V181H372.779V171.78H371.299ZM378.039 168.96V166.6H379.799V168.96H378.039ZM378.039 181V170.38H379.799V181H378.039ZM382.599 181V170.38H384.359V171.82C385.079 170.7 386.239 170.12 387.639 170.12C389.899 170.12 391.239 171.44 391.239 173.9V181H389.479V174.26C389.479 172.66 388.759 171.62 387.159 171.62C385.399 171.62 384.359 173.2 384.359 174.72V181H382.599ZM398.025 181.24C395.205 181.24 393.505 179.16 393.505 175.7C393.505 172.1 395.245 170.12 398.025 170.12C399.285 170.12 400.305 170.64 401.005 171.62V166.6H402.765V181H401.005V179.66C400.305 180.66 399.285 181.24 398.025 181.24ZM398.145 179.72C400.005 179.72 401.005 178.3 401.005 175.7C401.005 173.12 399.965 171.64 398.145 171.64C396.305 171.64 395.305 173.08 395.305 175.7C395.305 178.26 396.345 179.72 398.145 179.72ZM409.572 168.96V166.6H411.332V168.96H409.572ZM409.572 181V170.38H411.332V181H409.572ZM414.123 181V170.38H415.883V171.82C416.603 170.7 417.763 170.12 419.163 170.12C421.423 170.12 422.763 171.44 422.763 173.9V181H421.003V174.26C421.003 172.66 420.283 171.62 418.683 171.62C416.923 171.62 415.883 173.2 415.883 174.72V181H414.123ZM426.868 173.1C426.868 176.06 433.768 173.62 433.768 178C433.768 179.98 432.008 181.24 429.508 181.24C426.988 181.24 425.228 180.04 424.828 177.54H426.588C426.828 179.02 427.928 179.84 429.568 179.84C431.168 179.84 432.008 179.12 432.008 178.12C432.008 175.22 425.188 177.62 425.188 173.22C425.188 171.6 426.448 170.12 429.048 170.12C431.348 170.12 433.048 171.2 433.388 173.84H431.628C431.368 172.18 430.448 171.56 428.948 171.56C427.628 171.56 426.868 172.22 426.868 173.1ZM435.861 168.96V166.6H437.621V168.96H435.861ZM435.861 181V170.38H437.621V181H435.861ZM444.192 181.08C441.492 181.08 439.872 179.02 439.872 175.62C439.872 172.06 441.532 170.12 444.192 170.12C445.612 170.12 446.672 170.62 447.372 171.54V170.38H449.132V181.32C449.132 184.28 447.232 185.66 444.792 185.66C442.292 185.66 440.532 184.46 440.152 182.04H441.912C442.132 183.44 443.232 184.2 444.772 184.2C446.332 184.2 447.372 183.36 447.372 181.38V179.56C446.632 180.56 445.552 181.08 444.192 181.08ZM444.512 179.56C446.372 179.56 447.372 178.16 447.372 175.6C447.372 173.1 446.332 171.64 444.512 171.64C442.672 171.64 441.672 173.04 441.672 175.62C441.672 178.12 442.692 179.56 444.512 179.56ZM451.955 181V166.6H453.715V171.82C454.435 170.7 455.595 170.12 456.995 170.12C459.255 170.12 460.595 171.44 460.595 173.9V181H458.835V174.26C458.835 172.66 458.115 171.62 456.515 171.62C454.755 171.62 453.715 173.2 453.715 174.72V181H451.955ZM463.64 177.94V171.78H462.16V170.38H463.64V167.94H465.4V170.38H467.74V171.78H465.4V177.94C465.4 179.22 465.78 179.82 467.34 179.82H467.7V181.08C467.5 181.18 467.06 181.24 466.56 181.24C464.58 181.24 463.64 180.18 463.64 177.94ZM470.716 173.1C470.716 176.06 477.616 173.62 477.616 178C477.616 179.98 475.856 181.24 473.356 181.24C470.836 181.24 469.076 180.04 468.676 177.54H470.436C470.676 179.02 471.776 179.84 473.416 179.84C475.016 179.84 475.856 179.12 475.856 178.12C475.856 175.22 469.036 177.62 469.036 173.22C469.036 171.6 470.296 170.12 472.896 170.12C475.196 170.12 476.896 171.2 477.236 173.84H475.476C475.216 172.18 474.296 171.56 472.796 171.56C471.476 171.56 470.716 172.22 470.716 173.1ZM482.413 171.78V170.38H483.893V169.66C483.893 167.42 484.812 166.36 486.773 166.36C487.213 166.36 487.573 166.44 487.753 166.52V167.78H487.573C486.033 167.78 485.653 168.38 485.653 169.66V170.38H487.753V171.78H485.653V181H483.893V171.78H482.413ZM490.782 173.84H489.022C489.362 171.5 490.902 170.12 493.502 170.12C496.342 170.12 497.722 171.78 497.722 174.26V178.44C497.722 179.66 497.822 180.42 498.102 181H496.242C496.042 180.58 495.982 179.96 495.962 179.32C495.062 180.66 493.622 181.24 492.342 181.24C490.142 181.24 488.662 180.22 488.662 178.2C488.662 176.74 489.462 175.68 491.022 175.16C492.462 174.68 493.922 174.56 495.962 174.54V174.3C495.962 172.58 495.162 171.64 493.342 171.64C491.822 171.64 491.002 172.48 490.782 173.84ZM490.462 178.16C490.462 179.14 491.282 179.72 492.522 179.72C494.482 179.72 495.962 178.18 495.962 176.36V175.86C491.442 175.9 490.462 176.86 490.462 178.16ZM501.907 173.1C501.907 176.06 508.807 173.62 508.807 178C508.807 179.98 507.047 181.24 504.547 181.24C502.027 181.24 500.267 180.04 499.867 177.54H501.627C501.867 179.02 502.967 179.84 504.607 179.84C506.207 179.84 507.047 179.12 507.047 178.12C507.047 175.22 500.227 177.62 500.227 173.22C500.227 171.6 501.487 170.12 504.087 170.12C506.387 170.12 508.087 171.2 508.427 173.84H506.667C506.407 172.18 505.487 171.56 503.987 171.56C502.667 171.56 501.907 172.22 501.907 173.1ZM511.14 177.94V171.78H509.66V170.38H511.14V167.94H512.9V170.38H515.24V171.78H512.9V177.94C512.9 179.22 513.28 179.82 514.84 179.82H515.2V181.08C515 181.18 514.56 181.24 514.06 181.24C512.08 181.24 511.14 180.18 511.14 177.94ZM526.096 177.54C525.516 180.02 523.736 181.24 521.316 181.24C518.236 181.24 516.376 179.16 516.376 175.7C516.376 172.1 518.236 170.12 521.216 170.12C524.216 170.12 526.016 172.18 526.016 175.56V176H518.176C518.276 178.38 519.396 179.72 521.316 179.72C522.816 179.72 523.876 179 524.256 177.54H526.096ZM521.216 171.64C519.516 171.64 518.496 172.7 518.236 174.68H524.176C523.936 172.72 522.876 171.64 521.216 171.64ZM528.361 181V170.38H530.121V172.02C530.841 170.72 531.981 170.12 533.261 170.12C533.681 170.12 534.061 170.22 534.261 170.38V171.96C533.961 171.86 533.581 171.82 533.161 171.82C531.041 171.82 530.121 173.14 530.121 175.06V181H528.361ZM533.63 181V178.84H535.79V181H533.63Z" fill="#E6FFFB"/>
</svg>
