<svg width="980" height="431" viewBox="0 0 980 431" fill="none" xmlns="http://www.w3.org/2000/svg">
<rect width="980" height="431" fill="#FFF9F5"/>
<path d="M58.0022 184L55.0622 173.96L54.7622 172.86L54.4422 173.96L51.5022 184H49.3222L45.0022 170.4H46.9622L50.1822 181.04L50.4622 182.06L50.7222 181.04L53.8222 170.4H55.8022L58.8822 181.04L59.1422 182.06L59.4022 181.04L62.6022 170.4H64.4822L60.1622 184H58.0022ZM67.2622 176.84H65.5022C65.8422 174.5 67.3822 173.12 69.9822 173.12C72.8222 173.12 74.2022 174.78 74.2022 177.26V181.44C74.2022 182.66 74.3022 183.42 74.5822 184H72.7222C72.5222 183.58 72.4622 182.96 72.4422 182.32C71.5422 183.66 70.1022 184.24 68.8222 184.24C66.6222 184.24 65.1422 183.22 65.1422 181.2C65.1422 179.74 65.9422 178.68 67.5022 178.16C68.9422 177.68 70.4022 177.56 72.4422 177.54V177.3C72.4422 175.58 71.6422 174.64 69.8222 174.64C68.3022 174.64 67.4822 175.48 67.2622 176.84ZM66.9422 181.16C66.9422 182.14 67.7622 182.72 69.0022 182.72C70.9622 182.72 72.4422 181.18 72.4422 179.36V178.86C67.9222 178.9 66.9422 179.86 66.9422 181.16ZM78.3875 176.1C78.3875 179.06 85.2875 176.62 85.2875 181C85.2875 182.98 83.5275 184.24 81.0275 184.24C78.5075 184.24 76.7475 183.04 76.3475 180.54H78.1075C78.3475 182.02 79.4475 182.84 81.0875 182.84C82.6875 182.84 83.5275 182.12 83.5275 181.12C83.5275 178.22 76.7075 180.62 76.7075 176.22C76.7075 174.6 77.9675 173.12 80.5675 173.12C82.8675 173.12 84.5675 174.2 84.9075 176.84H83.1475C82.8875 175.18 81.9675 174.56 80.4675 174.56C79.1475 174.56 78.3875 175.22 78.3875 176.1ZM87.6205 180.94V174.78H86.1405V173.38H87.6205V170.94H89.3805V173.38H91.7205V174.78H89.3805V180.94C89.3805 182.22 89.7605 182.82 91.3205 182.82H91.6805V184.08C91.4805 184.18 91.0405 184.24 90.5405 184.24C88.5605 184.24 87.6205 183.18 87.6205 180.94ZM102.576 180.54C101.996 183.02 100.216 184.24 97.7961 184.24C94.7161 184.24 92.8561 182.16 92.8561 178.7C92.8561 175.1 94.7161 173.12 97.6961 173.12C100.696 173.12 102.496 175.18 102.496 178.56V179H94.6561C94.7561 181.38 95.8761 182.72 97.7961 182.72C99.2961 182.72 100.356 182 100.736 180.54H102.576ZM97.6961 174.64C95.9961 174.64 94.9761 175.7 94.7161 177.68H100.656C100.416 175.72 99.3561 174.64 97.6961 174.64ZM113.165 184.24C110.125 184.24 108.305 182.16 108.305 178.7C108.305 175.1 110.185 173.12 113.165 173.12C116.205 173.12 118.025 175.24 118.025 178.7C118.025 182.28 116.145 184.24 113.165 184.24ZM113.165 182.72C115.145 182.72 116.225 181.3 116.225 178.7C116.225 176.12 115.125 174.64 113.165 174.64C111.185 174.64 110.105 176.08 110.105 178.7C110.105 181.26 111.205 182.72 113.165 182.72ZM118.991 174.78V173.38H120.471V172.66C120.471 170.42 121.391 169.36 123.351 169.36C123.791 169.36 124.151 169.44 124.331 169.52V170.78H124.151C122.611 170.78 122.231 171.38 122.231 172.66V173.38H124.331V174.78H122.231V184H120.471V174.78H118.991ZM129.984 180.94V174.78H128.504V173.38H129.984V170.94H131.744V173.38H134.084V174.78H131.744V180.94C131.744 182.22 132.124 182.82 133.684 182.82H134.044V184.08C133.844 184.18 133.404 184.24 132.904 184.24C130.924 184.24 129.984 183.18 129.984 180.94ZM135.759 171.96V169.6H137.519V171.96H135.759ZM135.759 184V173.38H137.519V184H135.759ZM140.31 184V173.38H142.07V174.74C142.75 173.66 143.81 173.12 145.11 173.12C146.57 173.12 147.63 173.76 148.13 175C148.83 173.76 149.99 173.12 151.41 173.12C153.57 173.12 154.87 174.44 154.87 176.9V184H153.11V177.26C153.11 175.66 152.47 174.62 151.03 174.62C149.43 174.62 148.47 176.2 148.47 177.72V184H146.71V177.26C146.71 175.66 146.07 174.62 144.63 174.62C143.03 174.62 142.07 176.2 142.07 177.72V184H140.31ZM166.853 180.54C166.273 183.02 164.493 184.24 162.073 184.24C158.993 184.24 157.133 182.16 157.133 178.7C157.133 175.1 158.993 173.12 161.973 173.12C164.973 173.12 166.773 175.18 166.773 178.56V179H158.933C159.033 181.38 160.153 182.72 162.073 182.72C163.573 182.72 164.633 182 165.013 180.54H166.853ZM161.973 174.64C160.273 174.64 159.253 175.7 158.993 177.68H164.933C164.693 175.72 163.633 174.64 161.973 174.64ZM173.123 184V169.6H174.883V184H173.123ZM181.993 184.24C178.953 184.24 177.133 182.16 177.133 178.7C177.133 175.1 179.013 173.12 181.993 173.12C185.033 173.12 186.853 175.24 186.853 178.7C186.853 182.28 184.973 184.24 181.993 184.24ZM181.993 182.72C183.973 182.72 185.053 181.3 185.053 178.7C185.053 176.12 183.953 174.64 181.993 174.64C180.013 174.64 178.933 176.08 178.933 178.7C178.933 181.26 180.033 182.72 181.993 182.72ZM190.419 176.1C190.419 179.06 197.319 176.62 197.319 181C197.319 182.98 195.559 184.24 193.059 184.24C190.539 184.24 188.779 183.04 188.379 180.54H190.139C190.379 182.02 191.479 182.84 193.119 182.84C194.719 182.84 195.559 182.12 195.559 181.12C195.559 178.22 188.739 180.62 188.739 176.22C188.739 174.6 189.999 173.12 192.599 173.12C194.899 173.12 196.599 174.2 196.939 176.84H195.179C194.919 175.18 193.999 174.56 192.499 174.56C191.179 174.56 190.419 175.22 190.419 176.1ZM199.652 180.94V174.78H198.172V173.38H199.652V170.94H201.412V173.38H203.752V174.78H201.412V180.94C201.412 182.22 201.792 182.82 203.352 182.82H203.712V184.08C203.512 184.18 203.072 184.24 202.572 184.24C200.592 184.24 199.652 183.18 199.652 180.94ZM209.431 171.96V169.6H211.191V171.96H209.431ZM209.431 184V173.38H211.191V184H209.431ZM213.982 184V173.38H215.742V174.82C216.462 173.7 217.622 173.12 219.022 173.12C221.282 173.12 222.622 174.44 222.622 176.9V184H220.862V177.26C220.862 175.66 220.142 174.62 218.542 174.62C216.782 174.62 215.742 176.2 215.742 177.72V184H213.982ZM229.591 184V170.4H232.131L236.311 180.38L236.711 181.6L237.131 180.38L241.291 170.4H243.751V184H241.911V172.62L240.951 175.3L237.311 184H236.011L232.371 175.28L231.431 172.68V184H229.591ZM248.336 176.84H246.576C246.916 174.5 248.456 173.12 251.056 173.12C253.896 173.12 255.276 174.78 255.276 177.26V181.44C255.276 182.66 255.376 183.42 255.656 184H253.796C253.596 183.58 253.536 182.96 253.516 182.32C252.616 183.66 251.176 184.24 249.896 184.24C247.696 184.24 246.216 183.22 246.216 181.2C246.216 179.74 247.016 178.68 248.576 178.16C250.016 177.68 251.476 177.56 253.516 177.54V177.3C253.516 175.58 252.716 174.64 250.896 174.64C249.376 174.64 248.556 175.48 248.336 176.84ZM248.016 181.16C248.016 182.14 248.836 182.72 250.076 182.72C252.036 182.72 253.516 181.18 253.516 179.36V178.86C248.996 178.9 248.016 179.86 248.016 181.16ZM258.162 184V173.38H259.922V174.82C260.642 173.7 261.802 173.12 263.202 173.12C265.462 173.12 266.802 174.44 266.802 176.9V184H265.042V177.26C265.042 175.66 264.322 174.62 262.722 174.62C260.962 174.62 259.922 176.2 259.922 177.72V184H258.162ZM276.367 179.66V173.38H278.127V184H276.367V182.56C275.647 183.68 274.527 184.24 273.147 184.24C270.927 184.24 269.607 182.94 269.607 180.48V173.38H271.367V180.12C271.367 181.72 272.067 182.74 273.627 182.74C275.347 182.74 276.367 181.18 276.367 179.66ZM282.555 176.84H280.795C281.135 174.5 282.675 173.12 285.275 173.12C288.115 173.12 289.495 174.78 289.495 177.26V181.44C289.495 182.66 289.595 183.42 289.875 184H288.015C287.815 183.58 287.755 182.96 287.735 182.32C286.835 183.66 285.395 184.24 284.115 184.24C281.915 184.24 280.435 183.22 280.435 181.2C280.435 179.74 281.235 178.68 282.795 178.16C284.235 177.68 285.695 177.56 287.735 177.54V177.3C287.735 175.58 286.935 174.64 285.115 174.64C283.595 174.64 282.775 175.48 282.555 176.84ZM282.235 181.16C282.235 182.14 283.055 182.72 284.295 182.72C286.255 182.72 287.735 181.18 287.735 179.36V178.86C283.215 178.9 282.235 179.86 282.235 181.16ZM292.38 184V169.6H294.14V184H292.38ZM310.135 184L307.835 176.06L307.595 174.86L307.355 176.06L305.075 184H302.895L299.735 173.38H301.635L303.815 181.62L304.075 182.7L304.335 181.62L306.755 173.38H308.655L311.075 181.62L311.315 182.66L311.535 181.62L313.715 173.38H315.535L312.355 184H310.135ZM321.349 184.24C318.309 184.24 316.489 182.16 316.489 178.7C316.489 175.1 318.369 173.12 321.349 173.12C324.389 173.12 326.209 175.24 326.209 178.7C326.209 182.28 324.329 184.24 321.349 184.24ZM321.349 182.72C323.329 182.72 324.409 181.3 324.409 178.7C324.409 176.12 323.309 174.64 321.349 174.64C319.369 174.64 318.289 176.08 318.289 178.7C318.289 181.26 319.389 182.72 321.349 182.72ZM328.474 184V173.38H330.234V175.02C330.954 173.72 332.094 173.12 333.374 173.12C333.794 173.12 334.174 173.22 334.374 173.38V174.96C334.074 174.86 333.694 174.82 333.274 174.82C331.154 174.82 330.234 176.14 330.234 178.06V184H328.474ZM335.935 184V169.6H337.695V177.94L342.275 173.38H344.435L339.595 178.12L344.715 184H342.475L337.695 178.58V184H335.935ZM345.123 174.78V173.38H346.603V172.66C346.603 170.42 347.523 169.36 349.483 169.36C349.923 169.36 350.283 169.44 350.463 169.52V170.78H350.283C348.743 170.78 348.363 171.38 348.363 172.66V173.38H350.463V174.78H348.363V184H346.603V174.78H345.123ZM351.863 184V169.6H353.623V184H351.863ZM360.743 184.24C357.703 184.24 355.883 182.16 355.883 178.7C355.883 175.1 357.763 173.12 360.743 173.12C363.783 173.12 365.603 175.24 365.603 178.7C365.603 182.28 363.723 184.24 360.743 184.24ZM360.743 182.72C362.723 182.72 363.803 181.3 363.803 178.7C363.803 176.12 362.703 174.64 360.743 174.64C358.763 174.64 357.683 176.08 357.683 178.7C357.683 181.26 358.783 182.72 360.743 182.72ZM376.873 184L374.573 176.06L374.333 174.86L374.093 176.06L371.813 184H369.633L366.473 173.38H368.373L370.553 181.62L370.813 182.7L371.073 181.62L373.493 173.38H375.393L377.813 181.62L378.053 182.66L378.273 181.62L380.453 173.38H382.273L379.093 184H376.873ZM385.165 176.1C385.165 179.06 392.065 176.62 392.065 181C392.065 182.98 390.305 184.24 387.805 184.24C385.285 184.24 383.525 183.04 383.125 180.54H384.885C385.125 182.02 386.225 182.84 387.865 182.84C389.465 182.84 390.305 182.12 390.305 181.12C390.305 178.22 383.485 180.62 383.485 176.22C383.485 174.6 384.745 173.12 387.345 173.12C389.645 173.12 391.345 174.2 391.685 176.84H389.925C389.665 175.18 388.745 174.56 387.245 174.56C385.925 174.56 385.165 175.22 385.165 176.1Z" fill="#474747"/>
<path d="M634.499 184V171.96H629.839V170.4H640.999V171.96H636.339V184H634.499ZM643.021 171.96V169.6H644.781V171.96H643.021ZM643.021 184V173.38H644.781V184H643.021ZM647.572 184V173.38H649.332V174.74C650.012 173.66 651.072 173.12 652.372 173.12C653.832 173.12 654.892 173.76 655.392 175C656.092 173.76 657.252 173.12 658.672 173.12C660.832 173.12 662.132 174.44 662.132 176.9V184H660.372V177.26C660.372 175.66 659.732 174.62 658.292 174.62C656.692 174.62 655.732 176.2 655.732 177.72V184H653.972V177.26C653.972 175.66 653.332 174.62 651.892 174.62C650.292 174.62 649.332 176.2 649.332 177.72V184H647.572ZM674.115 180.54C673.535 183.02 671.755 184.24 669.335 184.24C666.255 184.24 664.395 182.16 664.395 178.7C664.395 175.1 666.255 173.12 669.235 173.12C672.235 173.12 674.035 175.18 674.035 178.56V179H666.195C666.295 181.38 667.415 182.72 669.335 182.72C670.835 182.72 671.895 182 672.275 180.54H674.115ZM669.235 174.64C667.535 174.64 666.515 175.7 666.255 177.68H672.195C671.955 175.72 670.895 174.64 669.235 174.64ZM681.944 173.72C681.944 177.56 690.284 174.58 690.284 180.16C690.284 182.78 688.164 184.24 685.264 184.24C682.344 184.24 680.344 182.9 679.744 180.16H681.664C682.104 181.78 683.324 182.66 685.284 182.66C687.324 182.66 688.404 181.76 688.404 180.4C688.404 176.24 680.064 179.34 680.064 173.84C680.064 171.88 681.704 170.16 684.704 170.16C687.324 170.16 689.424 171.42 689.924 174.32H687.984C687.564 172.52 686.404 171.74 684.664 171.74C682.944 171.74 681.944 172.52 681.944 173.72ZM694.055 176.84H692.295C692.635 174.5 694.175 173.12 696.775 173.12C699.615 173.12 700.995 174.78 700.995 177.26V181.44C700.995 182.66 701.095 183.42 701.375 184H699.515C699.315 183.58 699.255 182.96 699.235 182.32C698.335 183.66 696.895 184.24 695.615 184.24C693.415 184.24 691.935 183.22 691.935 181.2C691.935 179.74 692.735 178.68 694.295 178.16C695.735 177.68 697.195 177.56 699.235 177.54V177.3C699.235 175.58 698.435 174.64 696.615 174.64C695.095 174.64 694.275 175.48 694.055 176.84ZM693.735 181.16C693.735 182.14 694.555 182.72 695.795 182.72C697.755 182.72 699.235 181.18 699.235 179.36V178.86C694.715 178.9 693.735 179.86 693.735 181.16ZM706.15 184L702.19 173.38H704.09L707.03 181.62L707.29 182.54L707.55 181.62L710.49 173.38H712.27L708.31 184H706.15ZM722.943 180.54C722.363 183.02 720.583 184.24 718.163 184.24C715.083 184.24 713.223 182.16 713.223 178.7C713.223 175.1 715.083 173.12 718.063 173.12C721.063 173.12 722.863 175.18 722.863 178.56V179H715.023C715.123 181.38 716.243 182.72 718.163 182.72C719.663 182.72 720.723 182 721.103 180.54H722.943ZM718.063 174.64C716.363 174.64 715.343 175.7 715.083 177.68H721.023C720.783 175.72 719.723 174.64 718.063 174.64ZM729.189 184.24C726.369 184.24 724.669 182.16 724.669 178.7C724.669 175.1 726.409 173.12 729.189 173.12C730.449 173.12 731.469 173.64 732.169 174.62V169.6H733.929V184H732.169V182.66C731.469 183.66 730.449 184.24 729.189 184.24ZM729.309 182.72C731.169 182.72 732.169 181.3 732.169 178.7C732.169 176.12 731.129 174.64 729.309 174.64C727.469 174.64 726.469 176.08 726.469 178.7C726.469 181.26 727.509 182.72 729.309 182.72ZM742.356 176.84H740.596C740.936 174.5 742.476 173.12 745.076 173.12C747.916 173.12 749.296 174.78 749.296 177.26V181.44C749.296 182.66 749.396 183.42 749.676 184H747.816C747.616 183.58 747.556 182.96 747.536 182.32C746.636 183.66 745.196 184.24 743.916 184.24C741.716 184.24 740.236 183.22 740.236 181.2C740.236 179.74 741.036 178.68 742.596 178.16C744.036 177.68 745.496 177.56 747.536 177.54V177.3C747.536 175.58 746.736 174.64 744.916 174.64C743.396 174.64 742.576 175.48 742.356 176.84ZM742.036 181.16C742.036 182.14 742.856 182.72 744.096 182.72C746.056 182.72 747.536 181.18 747.536 179.36V178.86C743.016 178.9 742.036 179.86 742.036 181.16ZM750.881 174.78V173.38H752.361V172.66C752.361 170.42 753.281 169.36 755.241 169.36C755.681 169.36 756.041 169.44 756.221 169.52V170.78H756.041C754.501 170.78 754.121 171.38 754.121 172.66V173.38H756.221V174.78H754.121V184H752.361V174.78H750.881ZM757.87 180.94V174.78H756.39V173.38H757.87V170.94H759.63V173.38H761.97V174.78H759.63V180.94C759.63 182.22 760.01 182.82 761.57 182.82H761.93V184.08C761.73 184.18 761.29 184.24 760.79 184.24C758.81 184.24 757.87 183.18 757.87 180.94ZM772.826 180.54C772.246 183.02 770.466 184.24 768.046 184.24C764.966 184.24 763.106 182.16 763.106 178.7C763.106 175.1 764.966 173.12 767.946 173.12C770.946 173.12 772.746 175.18 772.746 178.56V179H764.906C765.006 181.38 766.126 182.72 768.046 182.72C769.546 182.72 770.606 182 770.986 180.54H772.826ZM767.946 174.64C766.246 174.64 765.226 175.7 764.966 177.68H770.906C770.666 175.72 769.606 174.64 767.946 174.64ZM775.091 184V173.38H776.851V175.02C777.571 173.72 778.711 173.12 779.991 173.12C780.411 173.12 780.791 173.22 780.991 173.38V174.96C780.691 174.86 780.311 174.82 779.891 174.82C777.771 174.82 776.851 176.14 776.851 178.06V184H775.091ZM787.856 176.1C787.856 179.06 794.756 176.62 794.756 181C794.756 182.98 792.996 184.24 790.496 184.24C787.976 184.24 786.216 183.04 785.816 180.54H787.576C787.816 182.02 788.916 182.84 790.556 182.84C792.156 182.84 792.996 182.12 792.996 181.12C792.996 178.22 786.176 180.62 786.176 176.22C786.176 174.6 787.436 173.12 790.036 173.12C792.336 173.12 794.036 174.2 794.376 176.84H792.616C792.356 175.18 791.436 174.56 789.936 174.56C788.616 174.56 787.856 175.22 787.856 176.1ZM796.849 171.96V169.6H798.609V171.96H796.849ZM796.849 184V173.38H798.609V184H796.849ZM801.4 184V173.38H803.16V174.74C803.84 173.66 804.9 173.12 806.2 173.12C807.66 173.12 808.72 173.76 809.22 175C809.92 173.76 811.08 173.12 812.5 173.12C814.66 173.12 815.96 174.44 815.96 176.9V184H814.2V177.26C814.2 175.66 813.56 174.62 812.12 174.62C810.52 174.62 809.56 176.2 809.56 177.72V184H807.8V177.26C807.8 175.66 807.16 174.62 805.72 174.62C804.12 174.62 803.16 176.2 803.16 177.72V184H801.4ZM820.543 188.4H818.783V173.38H820.543V174.7C821.243 173.7 822.263 173.12 823.523 173.12C826.343 173.12 828.043 175.2 828.043 178.66C828.043 182.26 826.303 184.24 823.523 184.24C822.263 184.24 821.243 183.72 820.543 182.74V188.4ZM823.403 174.64C821.543 174.64 820.543 176.06 820.543 178.66C820.543 181.24 821.583 182.72 823.403 182.72C825.243 182.72 826.243 181.28 826.243 178.66C826.243 176.1 825.203 174.64 823.403 174.64ZM830.306 184V169.6H832.066V184H830.306ZM834.857 171.96V169.6H836.617V171.96H834.857ZM834.857 184V173.38H836.617V184H834.857ZM838.108 174.78V173.38H839.588V172.66C839.588 170.42 840.508 169.36 842.468 169.36C842.908 169.36 843.268 169.44 843.448 169.52V170.78H843.268C841.728 170.78 841.348 171.38 841.348 172.66V173.38H843.448V174.78H841.348V184H839.588V174.78H838.108ZM844.848 171.96V169.6H846.608V171.96H844.848ZM844.848 184V173.38H846.608V184H844.848ZM858.588 180.54C858.008 183.02 856.228 184.24 853.808 184.24C850.728 184.24 848.868 182.16 848.868 178.7C848.868 175.1 850.728 173.12 853.708 173.12C856.708 173.12 858.508 175.18 858.508 178.56V179H850.668C850.768 181.38 851.888 182.72 853.808 182.72C855.308 182.72 856.368 182 856.748 180.54H858.588ZM853.708 174.64C852.008 174.64 850.988 175.7 850.728 177.68H856.668C856.428 175.72 855.368 174.64 853.708 174.64ZM864.833 184.24C862.013 184.24 860.313 182.16 860.313 178.7C860.313 175.1 862.053 173.12 864.833 173.12C866.093 173.12 867.113 173.64 867.813 174.62V169.6H869.573V184H867.813V182.66C867.113 183.66 866.093 184.24 864.833 184.24ZM864.953 182.72C866.813 182.72 867.813 181.3 867.813 178.7C867.813 176.12 866.773 174.64 864.953 174.64C863.113 174.64 862.113 176.08 862.113 178.7C862.113 181.26 863.153 182.72 864.953 182.72ZM880.36 184.24C877.54 184.24 875.84 182.16 875.84 178.7C875.84 175.1 877.58 173.12 880.36 173.12C881.62 173.12 882.64 173.64 883.34 174.62V169.6H885.1V184H883.34V182.66C882.64 183.66 881.62 184.24 880.36 184.24ZM880.48 182.72C882.34 182.72 883.34 181.3 883.34 178.7C883.34 176.12 882.3 174.64 880.48 174.64C878.64 174.64 877.64 176.08 877.64 178.7C877.64 181.26 878.68 182.72 880.48 182.72ZM897.084 180.54C896.504 183.02 894.724 184.24 892.304 184.24C889.224 184.24 887.364 182.16 887.364 178.7C887.364 175.1 889.224 173.12 892.204 173.12C895.204 173.12 897.004 175.18 897.004 178.56V179H889.164C889.264 181.38 890.384 182.72 892.304 182.72C893.804 182.72 894.864 182 895.244 180.54H897.084ZM892.204 174.64C890.504 174.64 889.484 175.7 889.224 177.68H895.164C894.924 175.72 893.864 174.64 892.204 174.64ZM900.649 176.1C900.649 179.06 907.549 176.62 907.549 181C907.549 182.98 905.789 184.24 903.289 184.24C900.769 184.24 899.009 183.04 898.609 180.54H900.369C900.609 182.02 901.709 182.84 903.349 182.84C904.949 182.84 905.789 182.12 905.789 181.12C905.789 178.22 898.969 180.62 898.969 176.22C898.969 174.6 900.229 173.12 902.829 173.12C905.129 173.12 906.829 174.2 907.169 176.84H905.409C905.149 175.18 904.229 174.56 902.729 174.56C901.409 174.56 900.649 175.22 900.649 176.1ZM909.642 171.96V169.6H911.402V171.96H909.642ZM909.642 184V173.38H911.402V184H909.642ZM917.973 184.08C915.273 184.08 913.653 182.02 913.653 178.62C913.653 175.06 915.313 173.12 917.973 173.12C919.393 173.12 920.453 173.62 921.153 174.54V173.38H922.913V184.32C922.913 187.28 921.013 188.66 918.573 188.66C916.073 188.66 914.313 187.46 913.933 185.04H915.693C915.913 186.44 917.013 187.2 918.553 187.2C920.113 187.2 921.153 186.36 921.153 184.38V182.56C920.413 183.56 919.333 184.08 917.973 184.08ZM918.293 182.56C920.153 182.56 921.153 181.16 921.153 178.6C921.153 176.1 920.113 174.64 918.293 174.64C916.453 174.64 915.453 176.04 915.453 178.62C915.453 181.12 916.473 182.56 918.293 182.56ZM925.736 184V173.38H927.496V174.82C928.216 173.7 929.376 173.12 930.776 173.12C933.036 173.12 934.376 174.44 934.376 176.9V184H932.616V177.26C932.616 175.66 931.896 174.62 930.296 174.62C928.536 174.62 927.496 176.2 927.496 177.72V184H925.736Z" fill="#474747"/>
<rect x="44" y="200" width="625" height="65" fill="#FAD7C1"/>
<path d="M669 200V265" stroke="#B03A2E" stroke-width="8" stroke-dasharray="8 8"/>
<rect x="669" y="200" width="267" height="65" fill="#FA7319"/>
<path d="M339.865 242H337.177C337.945 236.936 339.889 232.496 342.769 228.584H334.465V226.568H345.529V228.2C342.313 232.544 340.417 237.176 339.865 242ZM359.885 236.84C359.885 240.008 357.869 242.312 354.077 242.312C350.597 242.312 348.461 240.536 348.029 237.584H350.597C350.861 239.168 351.989 240.152 354.053 240.152C356.213 240.152 357.317 238.928 357.317 236.888C357.317 235.184 356.501 233.504 354.029 233.504C352.397 233.504 351.461 234.224 350.933 235.016L348.629 234.8L349.109 226.568H359.141V228.584H351.173L350.933 232.4C351.797 231.776 352.829 231.368 354.245 231.368C358.301 231.368 359.885 233.912 359.885 236.84ZM364.905 234.968C362.553 234.968 361.161 233.384 361.161 230.624C361.161 227.84 362.577 226.256 364.905 226.256C367.257 226.256 368.649 227.888 368.649 230.624C368.649 233.384 367.257 234.968 364.905 234.968ZM363.729 242L374.529 226.568H376.929L366.153 242H363.729ZM364.905 233.24C365.961 233.24 366.537 232.328 366.537 230.624C366.537 228.944 365.961 228.008 364.905 228.008C363.849 228.008 363.297 228.92 363.297 230.624C363.297 232.304 363.873 233.24 364.905 233.24ZM375.729 242.216C373.377 242.216 371.985 240.608 371.985 237.872C371.985 235.088 373.401 233.48 375.729 233.48C378.081 233.48 379.473 235.112 379.473 237.872C379.473 240.632 378.105 242.216 375.729 242.216ZM375.729 240.488C376.785 240.488 377.361 239.576 377.361 237.872C377.361 236.168 376.785 235.232 375.729 235.232C374.697 235.232 374.121 236.168 374.121 237.872C374.121 239.552 374.697 240.488 375.729 240.488Z" fill="black"/>
<path d="M780.489 242V241.328C780.489 234.416 788.865 234.896 788.865 230.984C788.865 229.376 787.905 228.416 786.177 228.416C784.281 228.416 783.345 229.4 783.057 231.032H780.441C780.849 228.08 782.889 226.256 786.201 226.256C789.681 226.256 791.457 228.32 791.457 230.96C791.457 235.784 784.185 235.952 783.129 240.008H791.577V242H780.489ZM805.885 236.84C805.885 240.008 803.869 242.312 800.077 242.312C796.597 242.312 794.461 240.536 794.029 237.584H796.597C796.861 239.168 797.989 240.152 800.053 240.152C802.213 240.152 803.317 238.928 803.317 236.888C803.317 235.184 802.501 233.504 800.029 233.504C798.397 233.504 797.461 234.224 796.933 235.016L794.629 234.8L795.109 226.568H805.141V228.584H797.173L796.933 232.4C797.797 231.776 798.829 231.368 800.245 231.368C804.301 231.368 805.885 233.912 805.885 236.84ZM810.905 234.968C808.553 234.968 807.161 233.384 807.161 230.624C807.161 227.84 808.577 226.256 810.905 226.256C813.257 226.256 814.649 227.888 814.649 230.624C814.649 233.384 813.257 234.968 810.905 234.968ZM809.729 242L820.529 226.568H822.929L812.153 242H809.729ZM810.905 233.24C811.961 233.24 812.537 232.328 812.537 230.624C812.537 228.944 811.961 228.008 810.905 228.008C809.849 228.008 809.297 228.92 809.297 230.624C809.297 232.304 809.873 233.24 810.905 233.24ZM821.729 242.216C819.377 242.216 817.985 240.608 817.985 237.872C817.985 235.088 819.401 233.48 821.729 233.48C824.081 233.48 825.473 235.112 825.473 237.872C825.473 240.632 824.105 242.216 821.729 242.216ZM821.729 240.488C822.785 240.488 823.361 239.576 823.361 237.872C823.361 236.168 822.785 235.232 821.729 235.232C820.697 235.232 820.121 236.168 820.121 237.872C820.121 239.552 820.697 240.488 821.729 240.488Z" fill="white"/>
</svg>
