<svg width="980" height="252" viewBox="0 0 980 252" fill="none" xmlns="http://www.w3.org/2000/svg">
<rect width="980" height="76" rx="12" fill="#FFBDBD"/>
<path fill-rule="evenodd" clip-rule="evenodd" d="M46.8684 23.1101C48.0558 23.2248 49.0545 23.4636 49.9865 23.9936C50.9217 24.5255 51.6311 25.2606 52.3199 26.2198C52.9845 27.1455 53.6742 28.3457 54.5359 29.8449L55.4796 31.4869C56.2944 32.9043 56.9478 34.0411 57.3911 35.0229C57.85 36.0393 58.125 36.9744 58.125 37.9988C58.125 39.0231 57.85 39.9582 57.3911 40.9746C56.9478 41.9565 56.2944 43.0932 55.4796 44.5107L54.5358 46.1528C53.6742 47.6519 52.9845 48.852 52.3199 49.7777C51.6311 50.7369 50.9217 51.4721 49.9865 52.004C49.0545 52.5339 48.0558 52.7727 46.8684 52.8875C45.8436 52.9864 44.6123 52.9974 43.1015 52.9986L41.4784 52.9988C39.6988 52.9988 38.2846 52.9988 37.1315 52.8875C35.9443 52.7727 34.9455 52.5339 34.0136 52.004C33.0783 51.4721 32.3689 50.7369 31.6802 49.7777C31.0156 48.852 30.3258 47.6519 29.4642 46.1528L28.5204 44.5107C27.7057 43.0932 27.0522 41.9565 26.6089 40.9746C26.15 39.9582 25.875 39.0231 25.875 37.9988C25.875 36.9744 26.15 36.0393 26.6089 35.0229C27.0522 34.0411 27.7057 32.9043 28.5204 31.4869L29.4641 29.8449C30.3257 28.3458 31.0156 27.1455 31.6802 26.2198C32.3689 25.2606 33.0783 24.5255 34.0136 23.9936C34.9455 23.4636 35.9443 23.2248 37.1315 23.1101C38.0283 23.0235 39.0831 23.0043 40.3449 23H43.6551C44.9169 23.0043 45.9717 23.0235 46.8684 23.1101ZM41.9932 42.4988C41.1685 42.4988 40.5 43.1703 40.5 43.9988C40.5 44.8272 41.1686 45.4988 42.0068 45.4988C42.8315 45.4988 43.5 44.8272 43.5 43.9988C43.5 43.1703 42.8314 42.4988 41.9932 42.4988ZM42 30.4988C41.1715 30.4988 40.5 31.1704 40.5 31.9988V37.9988C40.5 38.8272 41.1715 39.4988 42 39.4988C42.8284 39.4988 43.5 38.8272 43.5 37.9988V31.9988C43.5 31.1704 42.8284 30.4988 42 30.4988Z" fill="#470000"/>
<path opacity="0.7" d="M73.022 30V20.48H75.136L77.824 27.074L78.146 28.082L78.468 27.074L81.128 20.48H83.186V30H81.618L81.66 22.286L80.974 24.33L78.664 30H77.544L75.22 24.316L74.548 22.328L74.59 30H73.022ZM91.965 30L91.153 27.858H86.813L86.001 30H84.433L88.101 20.48H89.935L93.603 30H91.965ZM88.703 22.916L87.289 26.626H90.677L89.263 22.916L88.983 21.992L88.703 22.916ZM94.8697 30V20.48H96.5077L100.498 26.696L101.1 27.816L101.058 20.48H102.626V30H100.988L97.0117 23.812L96.3957 22.65L96.4377 30H94.8697ZM112.33 26.374C112.33 28.74 110.846 30.182 108.452 30.182C106.058 30.182 104.574 28.74 104.574 26.374V20.48H106.142V26.374C106.142 27.97 107.01 28.922 108.452 28.922C109.908 28.922 110.762 27.956 110.762 26.374V20.48H112.33V26.374ZM120.635 30L119.823 27.858H115.483L114.671 30H113.103L116.771 20.48H118.605L122.273 30H120.635ZM117.373 22.916L115.959 26.626H119.347L117.933 22.916L117.653 21.992L117.373 22.916ZM123.54 30V20.48H125.108V28.726H129.714V30H123.54ZM138.145 30.182C135.303 30.182 133.567 28.306 133.567 25.254C133.567 22.202 135.303 20.298 138.145 20.298C140.959 20.298 142.709 22.202 142.709 25.254C142.709 28.306 140.959 30.182 138.145 30.182ZM138.145 28.866C140.007 28.866 141.113 27.494 141.113 25.254C141.113 23 140.007 21.614 138.145 21.614C136.283 21.614 135.163 23 135.163 25.254C135.163 27.494 136.283 28.866 138.145 28.866ZM144.915 20.48L147.617 27.564L147.897 28.516L148.177 27.564L150.879 20.48H152.433L148.765 30H146.945L143.263 20.48H144.915ZM153.7 30V20.48H160.266V21.74H155.268V24.456H159.734V25.702H155.268V28.74H160.266V30H153.7ZM161.876 30V20.48H165.446C167.504 20.48 168.806 21.544 168.806 23.224C168.806 24.302 168.316 25.058 167.462 25.478C168.022 25.772 168.33 26.29 168.54 27.144L169.254 30H167.602L167.028 27.452C166.776 26.36 166.356 26.15 165.306 26.15H163.444V30H161.876ZM165.404 21.74H163.444V24.89H165.376C166.538 24.89 167.196 24.274 167.196 23.308C167.196 22.356 166.538 21.74 165.404 21.74ZM170.694 30V20.48H172.262V28.726H176.868V30H170.694ZM182.114 30.182C179.272 30.182 177.536 28.306 177.536 25.254C177.536 22.202 179.272 20.298 182.114 20.298C184.928 20.298 186.678 22.202 186.678 25.254C186.678 28.306 184.928 30.182 182.114 30.182ZM182.114 28.866C183.976 28.866 185.082 27.494 185.082 25.254C185.082 23 183.976 21.614 182.114 21.614C180.252 21.614 179.132 23 179.132 25.254C179.132 27.494 180.252 28.866 182.114 28.866ZM194.559 30L193.747 27.858H189.407L188.595 30H187.027L190.695 20.48H192.529L196.197 30H194.559ZM191.297 22.916L189.883 26.626H193.271L191.857 22.916L191.577 21.992L191.297 22.916ZM197.463 30V20.48H200.725C203.707 20.48 205.555 22.272 205.555 25.254C205.555 28.236 203.707 30 200.725 30H197.463ZM200.725 28.726C202.755 28.726 203.959 27.438 203.959 25.254C203.959 23.042 202.755 21.754 200.725 21.754H199.031V28.726H200.725Z" fill="#470000"/>
<path d="M83.16 50.338C83.16 53.38 81.252 55.234 78.174 55.234C75.096 55.234 73.188 53.38 73.188 50.338V42.76H75.204V50.338C75.204 52.39 76.32 53.614 78.174 53.614C80.046 53.614 81.144 52.372 81.144 50.338V42.76H83.16V50.338ZM87.0223 47.926C87.0223 50.374 93.1603 48.322 93.1603 52.228C93.1603 54.046 91.5223 55.234 89.2003 55.234C86.8783 55.234 85.2403 54.154 84.8803 51.868H86.8063C87.0043 53.074 87.9043 53.74 89.2543 53.74C90.5503 53.74 91.2343 53.164 91.2343 52.354C91.2343 49.96 85.1863 51.976 85.1863 48.034C85.1863 46.54 86.3563 45.154 88.7863 45.154C90.9283 45.154 92.5123 46.144 92.8183 48.538H90.8923C90.6763 47.188 89.9203 46.684 88.6963 46.684C87.6343 46.684 87.0223 47.206 87.0223 47.926ZM103.428 51.868C102.906 54.1 101.25 55.234 99.0001 55.234C96.1741 55.234 94.4461 53.344 94.4461 50.212C94.4461 46.954 96.1741 45.154 98.9101 45.154C101.682 45.154 103.356 47.026 103.356 50.104V50.572H96.4081C96.5161 52.534 97.4341 53.632 99.0001 53.632C100.224 53.632 101.088 53.056 101.412 51.868H103.428ZM98.9101 46.756C97.5241 46.756 96.6961 47.638 96.4621 49.258H101.358C101.124 47.638 100.278 46.756 98.9101 46.756ZM105.285 55V45.406H107.211V46.828C107.841 45.676 108.831 45.154 109.947 45.154C110.325 45.154 110.685 45.244 110.865 45.406V47.098C110.577 47.008 110.235 46.972 109.839 46.972C108.003 46.972 107.211 48.088 107.211 49.762V55H105.285ZM113.706 47.926C113.706 50.374 119.844 48.322 119.844 52.228C119.844 54.046 118.206 55.234 115.884 55.234C113.562 55.234 111.924 54.154 111.564 51.868H113.49C113.688 53.074 114.588 53.74 115.938 53.74C117.234 53.74 117.918 53.164 117.918 52.354C117.918 49.96 111.87 51.976 111.87 48.034C111.87 46.54 113.04 45.154 115.47 45.154C117.612 45.154 119.196 46.144 119.502 48.538H117.576C117.36 47.188 116.604 46.684 115.38 46.684C114.318 46.684 113.706 47.206 113.706 47.926ZM126.661 47.926C126.661 50.374 132.799 48.322 132.799 52.228C132.799 54.046 131.161 55.234 128.839 55.234C126.517 55.234 124.879 54.154 124.519 51.868H126.445C126.643 53.074 127.543 53.74 128.893 53.74C130.189 53.74 130.873 53.164 130.873 52.354C130.873 49.96 124.825 51.976 124.825 48.034C124.825 46.54 125.995 45.154 128.425 45.154C130.567 45.154 132.151 46.144 132.457 48.538H130.531C130.315 47.188 129.559 46.684 128.335 46.684C127.273 46.684 126.661 47.206 126.661 47.926ZM136.479 58.96H134.553V45.406H136.479V46.558C137.091 45.658 137.991 45.154 139.089 45.154C141.627 45.154 143.157 47.044 143.157 50.176C143.157 53.434 141.591 55.234 139.089 55.234C137.991 55.234 137.091 54.784 136.479 53.902V58.96ZM138.855 46.774C137.307 46.774 136.479 47.98 136.479 50.176C136.479 52.372 137.343 53.614 138.855 53.614C140.367 53.614 141.195 52.39 141.195 50.176C141.195 47.998 140.331 46.774 138.855 46.774ZM153.543 51.868C153.021 54.1 151.365 55.234 149.115 55.234C146.289 55.234 144.561 53.344 144.561 50.212C144.561 46.954 146.289 45.154 149.025 45.154C151.797 45.154 153.471 47.026 153.471 50.104V50.572H146.523C146.631 52.534 147.549 53.632 149.115 53.632C150.339 53.632 151.203 53.056 151.527 51.868H153.543ZM149.025 46.756C147.639 46.756 146.811 47.638 146.577 49.258H151.473C151.239 47.638 150.393 46.756 149.025 46.756ZM155.4 55V45.406H157.326V46.684C157.974 45.658 158.982 45.154 160.224 45.154C162.222 45.154 163.464 46.324 163.464 48.592V55H161.556V48.988C161.556 47.602 160.944 46.756 159.63 46.756C158.19 46.756 157.326 48.034 157.326 49.366V55H155.4ZM166.059 52.138V46.9H164.763V45.406H166.059V43.192H167.985V45.406H170.055V46.9H167.985V52.03C167.985 53.128 168.291 53.65 169.641 53.65H170.019V55.054C169.803 55.162 169.353 55.234 168.813 55.234C166.941 55.234 166.059 54.208 166.059 52.138ZM175.035 55V42.04H176.961V46.684C177.609 45.658 178.617 45.154 179.859 45.154C181.857 45.154 183.099 46.324 183.099 48.592V55H181.191V48.988C181.191 47.602 180.579 46.756 179.265 46.756C177.825 46.756 176.961 48.034 176.961 49.366V55H175.035ZM189.455 55.234C186.665 55.234 184.973 53.344 184.973 50.212C184.973 46.954 186.719 45.154 189.455 45.154C192.245 45.154 193.937 47.08 193.937 50.212C193.937 53.452 192.191 55.234 189.455 55.234ZM189.455 53.614C191.093 53.614 191.975 52.426 191.975 50.212C191.975 48.016 191.075 46.774 189.455 46.774C187.835 46.774 186.935 47.98 186.935 50.212C186.935 52.39 187.835 53.614 189.455 53.614ZM201.861 51.022V45.406H203.769V55H201.861V53.704C201.231 54.73 200.223 55.234 198.999 55.234C197.037 55.234 195.813 54.082 195.813 51.814V45.406H197.739V51.418C197.739 52.804 198.315 53.632 199.593 53.632C200.997 53.632 201.861 52.354 201.861 51.022ZM206.113 55V45.406H208.039V46.828C208.669 45.676 209.659 45.154 210.775 45.154C211.153 45.154 211.513 45.244 211.693 45.406V47.098C211.405 47.008 211.063 46.972 210.667 46.972C208.831 46.972 208.039 48.088 208.039 49.762V55H206.113ZM214.534 47.926C214.534 50.374 220.672 48.322 220.672 52.228C220.672 54.046 219.034 55.234 216.712 55.234C214.39 55.234 212.752 54.154 212.392 51.868H214.318C214.516 53.074 215.416 53.74 216.766 53.74C218.062 53.74 218.746 53.164 218.746 52.354C218.746 49.96 212.698 51.976 212.698 48.034C212.698 46.54 213.868 45.154 216.298 45.154C218.44 45.154 220.024 46.144 220.33 48.538H218.404C218.188 47.188 217.432 46.684 216.208 46.684C215.146 46.684 214.534 47.206 214.534 47.926ZM229.973 55.234C227.183 55.234 225.491 53.344 225.491 50.212C225.491 46.954 227.237 45.154 229.973 45.154C232.763 45.154 234.455 47.08 234.455 50.212C234.455 53.452 232.709 55.234 229.973 55.234ZM229.973 53.614C231.611 53.614 232.493 52.426 232.493 50.212C232.493 48.016 231.593 46.774 229.973 46.774C228.353 46.774 227.453 47.98 227.453 50.212C227.453 52.39 228.353 53.614 229.973 53.614ZM236.33 55V45.406H238.256V46.684C238.904 45.658 239.912 45.154 241.154 45.154C243.152 45.154 244.394 46.324 244.394 48.592V55H242.486V48.988C242.486 47.602 241.874 46.756 240.56 46.756C239.12 46.756 238.256 48.034 238.256 49.366V55H236.33ZM250.27 55V45.406H252.196V46.828C252.826 45.676 253.816 45.154 254.932 45.154C255.31 45.154 255.67 45.244 255.85 45.406V47.098C255.562 47.008 255.22 46.972 254.824 46.972C252.988 46.972 252.196 48.088 252.196 49.762V55H250.27ZM265.498 51.868C264.976 54.1 263.32 55.234 261.07 55.234C258.244 55.234 256.516 53.344 256.516 50.212C256.516 46.954 258.244 45.154 260.98 45.154C263.752 45.154 265.426 47.026 265.426 50.104V50.572H258.478C258.586 52.534 259.504 53.632 261.07 53.632C262.294 53.632 263.158 53.056 263.482 51.868H265.498ZM260.98 46.756C259.594 46.756 258.766 47.638 258.532 49.258H263.428C263.194 47.638 262.348 46.756 260.98 46.756ZM269.282 58.96H267.356V45.406H269.282V46.558C269.894 45.658 270.794 45.154 271.892 45.154C274.43 45.154 275.96 47.044 275.96 50.176C275.96 53.434 274.394 55.234 271.892 55.234C270.794 55.234 269.894 54.784 269.282 53.902V58.96ZM271.658 46.774C270.11 46.774 269.282 47.98 269.282 50.176C269.282 52.372 270.146 53.614 271.658 53.614C273.17 53.614 273.998 52.39 273.998 50.176C273.998 47.998 273.134 46.774 271.658 46.774ZM286.346 51.868C285.824 54.1 284.168 55.234 281.918 55.234C279.092 55.234 277.364 53.344 277.364 50.212C277.364 46.954 279.092 45.154 281.828 45.154C284.6 45.154 286.274 47.026 286.274 50.104V50.572H279.326C279.434 52.534 280.352 53.632 281.918 53.632C283.142 53.632 284.006 53.056 284.33 51.868H286.346ZM281.828 46.756C280.442 46.756 279.614 47.638 279.38 49.258H284.276C284.042 47.638 283.196 46.756 281.828 46.756ZM288.455 52.138V46.9H287.159V45.406H288.455V43.192H290.381V45.406H292.451V46.9H290.381V52.03C290.381 53.128 290.687 53.65 292.037 53.65H292.415V55.054C292.199 55.162 291.749 55.234 291.209 55.234C289.337 55.234 288.455 54.208 288.455 52.138ZM293.899 44.218V42.04H295.825V44.218H293.899ZM293.899 55V45.406H295.825V55H293.899ZM298.404 52.138V46.9H297.108V45.406H298.404V43.192H300.33V45.406H302.4V46.9H300.33V52.03C300.33 53.128 300.636 53.65 301.986 53.65H302.364V55.054C302.148 55.162 301.698 55.234 301.158 55.234C299.286 55.234 298.404 54.208 298.404 52.138ZM303.848 44.218V42.04H305.774V44.218H303.848ZM303.848 55V45.406H305.774V55H303.848ZM310.532 55L307.004 45.406H309.074L311.54 52.534L311.774 53.452L312.008 52.534L314.456 45.406H316.418L312.89 55H310.532ZM326.125 51.868C325.603 54.1 323.947 55.234 321.697 55.234C318.871 55.234 317.143 53.344 317.143 50.212C317.143 46.954 318.871 45.154 321.607 45.154C324.379 45.154 326.053 47.026 326.053 50.104V50.572H319.105C319.213 52.534 320.131 53.632 321.697 53.632C322.921 53.632 323.785 53.056 324.109 51.868H326.125ZM321.607 46.756C320.221 46.756 319.393 47.638 319.159 49.258H324.055C323.821 47.638 322.975 46.756 321.607 46.756ZM331.768 52.138V46.9H330.472V45.406H331.768V43.192H333.694V45.406H335.764V46.9H333.694V52.03C333.694 53.128 334 53.65 335.35 53.65H335.728V55.054C335.512 55.162 335.062 55.234 334.522 55.234C332.65 55.234 331.768 54.208 331.768 52.138ZM339.029 48.538H337.103C337.409 46.414 338.867 45.154 341.261 45.154C343.871 45.154 345.167 46.684 345.167 48.916V52.66C345.167 53.812 345.275 54.478 345.491 55H343.475C343.331 54.64 343.277 54.136 343.259 53.596C342.449 54.73 341.207 55.234 340.055 55.234C338.111 55.234 336.779 54.316 336.779 52.48C336.779 51.166 337.499 50.194 338.939 49.708C340.217 49.276 341.513 49.168 343.241 49.15V48.934C343.241 47.53 342.593 46.774 341.117 46.774C339.875 46.774 339.209 47.458 339.029 48.538ZM338.723 52.408C338.723 53.218 339.389 53.722 340.415 53.722C342.017 53.722 343.241 52.444 343.241 50.896V50.464C339.551 50.5 338.723 51.31 338.723 52.408ZM349.112 47.926C349.112 50.374 355.25 48.322 355.25 52.228C355.25 54.046 353.612 55.234 351.29 55.234C348.968 55.234 347.33 54.154 346.97 51.868H348.896C349.094 53.074 349.994 53.74 351.344 53.74C352.64 53.74 353.324 53.164 353.324 52.354C353.324 49.96 347.276 51.976 347.276 48.034C347.276 46.54 348.446 45.154 350.876 45.154C353.018 45.154 354.602 46.144 354.908 48.538H352.982C352.766 47.188 352.01 46.684 350.786 46.684C349.724 46.684 349.112 47.206 349.112 47.926ZM357.004 55V42.04H358.93V49.474L362.746 45.406H365.05L360.91 49.672L365.302 55H362.908L358.93 50.212V55H357.004ZM367.692 47.926C367.692 50.374 373.83 48.322 373.83 52.228C373.83 54.046 372.192 55.234 369.87 55.234C367.548 55.234 365.91 54.154 365.55 51.868H367.476C367.674 53.074 368.574 53.74 369.924 53.74C371.22 53.74 371.904 53.164 371.904 52.354C371.904 49.96 365.856 51.976 365.856 48.034C365.856 46.54 367.026 45.154 369.456 45.154C371.598 45.154 373.182 46.144 373.488 48.538H371.562C371.346 47.188 370.59 46.684 369.366 46.684C368.304 46.684 367.692 47.206 367.692 47.926ZM375.422 55V52.786H377.654V53.974C377.654 55.702 377.348 56.782 376.646 58.024H375.602C376.034 56.944 376.322 56.116 376.322 55H375.422ZM383.371 44.218V42.04H385.297V44.218H383.371ZM385.297 56.116C385.297 58.204 384.397 59.212 382.597 59.212C382.129 59.212 381.769 59.122 381.589 59.032V57.628H381.751C383.047 57.628 383.371 57.106 383.371 56.008V45.406H385.297V56.116ZM393.673 51.022V45.406H395.581V55H393.673V53.704C393.043 54.73 392.035 55.234 390.811 55.234C388.849 55.234 387.625 54.082 387.625 51.814V45.406H389.551V51.418C389.551 52.804 390.127 53.632 391.405 53.632C392.809 53.632 393.673 52.354 393.673 51.022ZM401.382 55.054C398.934 55.054 397.458 53.182 397.458 50.122C397.458 46.918 398.97 45.154 401.382 45.154C402.606 45.154 403.524 45.586 404.136 46.414V45.406H406.062V55.306C406.062 57.934 404.316 59.212 402.012 59.212C399.708 59.212 398.052 58.132 397.71 55.9H399.636C399.816 57.052 400.734 57.664 401.994 57.664C403.272 57.664 404.136 56.998 404.136 55.342V53.722C403.488 54.604 402.552 55.054 401.382 55.054ZM401.778 53.434C403.308 53.434 404.136 52.264 404.136 50.104C404.136 47.998 403.272 46.774 401.778 46.774C400.248 46.774 399.42 47.944 399.42 50.122C399.42 52.228 400.266 53.434 401.778 53.434ZM411.858 55.054C409.41 55.054 407.934 53.182 407.934 50.122C407.934 46.918 409.446 45.154 411.858 45.154C413.082 45.154 414 45.586 414.612 46.414V45.406H416.538V55.306C416.538 57.934 414.792 59.212 412.488 59.212C410.184 59.212 408.528 58.132 408.186 55.9H410.112C410.292 57.052 411.21 57.664 412.47 57.664C413.748 57.664 414.612 56.998 414.612 55.342V53.722C413.964 54.604 413.028 55.054 411.858 55.054ZM412.254 53.434C413.784 53.434 414.612 52.264 414.612 50.104C414.612 47.998 413.748 46.774 412.254 46.774C410.724 46.774 409.896 47.944 409.896 50.122C409.896 52.228 410.742 53.434 412.254 53.434ZM418.879 55V42.04H420.805V55H418.879ZM423.133 44.218V42.04H425.059V44.218H423.133ZM423.133 55V45.406H425.059V55H423.133ZM427.387 55V45.406H429.313V46.684C429.961 45.658 430.969 45.154 432.211 45.154C434.209 45.154 435.451 46.324 435.451 48.592V55H433.543V48.988C433.543 47.602 432.931 46.756 431.617 46.756C430.177 46.756 429.313 48.034 429.313 49.366V55H427.387ZM441.249 55.054C438.801 55.054 437.325 53.182 437.325 50.122C437.325 46.918 438.837 45.154 441.249 45.154C442.473 45.154 443.391 45.586 444.003 46.414V45.406H445.929V55.306C445.929 57.934 444.183 59.212 441.879 59.212C439.575 59.212 437.919 58.132 437.577 55.9H439.503C439.683 57.052 440.601 57.664 441.861 57.664C443.139 57.664 444.003 56.998 444.003 55.342V53.722C443.355 54.604 442.419 55.054 441.249 55.054ZM441.645 53.434C443.175 53.434 444.003 52.264 444.003 50.104C444.003 47.998 443.139 46.774 441.645 46.774C440.115 46.774 439.287 47.944 439.287 50.122C439.287 52.228 440.133 53.434 441.645 53.434ZM453.333 47.926C453.333 50.374 459.471 48.322 459.471 52.228C459.471 54.046 457.833 55.234 455.511 55.234C453.189 55.234 451.551 54.154 451.191 51.868H453.117C453.315 53.074 454.215 53.74 455.565 53.74C456.861 53.74 457.545 53.164 457.545 52.354C457.545 49.96 451.497 51.976 451.497 48.034C451.497 46.54 452.667 45.154 455.097 45.154C457.239 45.154 458.823 46.144 459.129 48.538H457.203C456.987 47.188 456.231 46.684 455.007 46.684C453.945 46.684 453.333 47.206 453.333 47.926ZM463.151 58.96H461.225V45.406H463.151V46.558C463.763 45.658 464.663 45.154 465.761 45.154C468.299 45.154 469.829 47.044 469.829 50.176C469.829 53.434 468.263 55.234 465.761 55.234C464.663 55.234 463.763 54.784 463.151 53.902V58.96ZM465.527 46.774C463.979 46.774 463.151 47.98 463.151 50.176C463.151 52.372 464.015 53.614 465.527 53.614C467.039 53.614 467.867 52.39 467.867 50.176C467.867 47.998 467.003 46.774 465.527 46.774ZM471.701 55V45.406H473.627V46.828C474.257 45.676 475.247 45.154 476.363 45.154C476.741 45.154 477.101 45.244 477.281 45.406V47.098C476.993 47.008 476.651 46.972 476.255 46.972C474.419 46.972 473.627 48.088 473.627 49.762V55H471.701ZM486.93 51.868C486.408 54.1 484.752 55.234 482.502 55.234C479.676 55.234 477.948 53.344 477.948 50.212C477.948 46.954 479.676 45.154 482.412 45.154C485.184 45.154 486.858 47.026 486.858 50.104V50.572H479.91C480.018 52.534 480.936 53.632 482.502 53.632C483.726 53.632 484.59 53.056 484.914 51.868H486.93ZM482.412 46.756C481.026 46.756 480.198 47.638 479.964 49.258H484.86C484.626 47.638 483.78 46.756 482.412 46.756ZM490.605 48.538H488.679C488.985 46.414 490.443 45.154 492.837 45.154C495.447 45.154 496.743 46.684 496.743 48.916V52.66C496.743 53.812 496.851 54.478 497.067 55H495.051C494.907 54.64 494.853 54.136 494.835 53.596C494.025 54.73 492.783 55.234 491.631 55.234C489.687 55.234 488.355 54.316 488.355 52.48C488.355 51.166 489.075 50.194 490.515 49.708C491.793 49.276 493.089 49.168 494.817 49.15V48.934C494.817 47.53 494.169 46.774 492.693 46.774C491.451 46.774 490.785 47.458 490.605 48.538ZM490.299 52.408C490.299 53.218 490.965 53.722 491.991 53.722C493.593 53.722 494.817 52.444 494.817 50.896V50.464C491.127 50.5 490.299 51.31 490.299 52.408ZM502.758 55.234C500.22 55.234 498.69 53.344 498.69 50.212C498.69 46.954 500.256 45.154 502.758 45.154C503.856 45.154 504.756 45.604 505.368 46.486V42.04H507.294V55H505.368V53.83C504.756 54.73 503.856 55.234 502.758 55.234ZM503.01 53.614C504.54 53.614 505.368 52.426 505.368 50.212C505.368 48.016 504.504 46.774 503.01 46.774C501.48 46.774 500.652 47.998 500.652 50.212C500.652 52.39 501.516 53.614 503.01 53.614ZM511.147 47.926C511.147 50.374 517.285 48.322 517.285 52.228C517.285 54.046 515.647 55.234 513.325 55.234C511.003 55.234 509.365 54.154 509.005 51.868H510.931C511.129 53.074 512.029 53.74 513.379 53.74C514.675 53.74 515.359 53.164 515.359 52.354C515.359 49.96 509.311 51.976 509.311 48.034C509.311 46.54 510.481 45.154 512.911 45.154C515.053 45.154 516.637 46.144 516.943 48.538H515.017C514.801 47.188 514.045 46.684 512.821 46.684C511.759 46.684 511.147 47.206 511.147 47.926ZM519.039 55V42.04H520.965V46.684C521.613 45.658 522.621 45.154 523.863 45.154C525.861 45.154 527.103 46.324 527.103 48.592V55H525.195V48.988C525.195 47.602 524.583 46.756 523.269 46.756C521.829 46.756 520.965 48.034 520.965 49.366V55H519.039ZM537.959 51.868C537.437 54.1 535.781 55.234 533.531 55.234C530.705 55.234 528.977 53.344 528.977 50.212C528.977 46.954 530.705 45.154 533.441 45.154C536.213 45.154 537.887 47.026 537.887 50.104V50.572H530.939C531.047 52.534 531.965 53.632 533.531 53.632C534.755 53.632 535.619 53.056 535.943 51.868H537.959ZM533.441 46.756C532.055 46.756 531.227 47.638 530.993 49.258H535.889C535.655 47.638 534.809 46.756 533.441 46.756ZM548.33 51.868C547.808 54.1 546.152 55.234 543.902 55.234C541.076 55.234 539.348 53.344 539.348 50.212C539.348 46.954 541.076 45.154 543.812 45.154C546.584 45.154 548.258 47.026 548.258 50.104V50.572H541.31C541.418 52.534 542.336 53.632 543.902 53.632C545.126 53.632 545.99 53.056 546.314 51.868H548.33ZM543.812 46.756C542.426 46.756 541.598 47.638 541.364 49.258H546.26C546.026 47.638 545.18 46.756 543.812 46.756ZM550.44 52.138V46.9H549.144V45.406H550.44V43.192H552.366V45.406H554.436V46.9H552.366V52.03C552.366 53.128 552.672 53.65 554.022 53.65H554.4V55.054C554.184 55.162 553.734 55.234 553.194 55.234C551.322 55.234 550.44 54.208 550.44 52.138ZM557.413 47.926C557.413 50.374 563.551 48.322 563.551 52.228C563.551 54.046 561.913 55.234 559.591 55.234C557.269 55.234 555.631 54.154 555.271 51.868H557.197C557.395 53.074 558.295 53.74 559.645 53.74C560.941 53.74 561.625 53.164 561.625 52.354C561.625 49.96 555.577 51.976 555.577 48.034C555.577 46.54 556.747 45.154 559.177 45.154C561.319 45.154 562.903 46.144 563.209 48.538H561.283C561.067 47.188 560.311 46.684 559.087 46.684C558.025 46.684 557.413 47.206 557.413 47.926ZM570.656 48.538H568.73C569.036 46.414 570.494 45.154 572.888 45.154C575.498 45.154 576.794 46.684 576.794 48.916V52.66C576.794 53.812 576.902 54.478 577.118 55H575.102C574.958 54.64 574.904 54.136 574.886 53.596C574.076 54.73 572.834 55.234 571.682 55.234C569.738 55.234 568.406 54.316 568.406 52.48C568.406 51.166 569.126 50.194 570.566 49.708C571.844 49.276 573.14 49.168 574.868 49.15V48.934C574.868 47.53 574.22 46.774 572.744 46.774C571.502 46.774 570.836 47.458 570.656 48.538ZM570.35 52.408C570.35 53.218 571.016 53.722 572.042 53.722C573.644 53.722 574.868 52.444 574.868 50.896V50.464C571.178 50.5 570.35 51.31 570.35 52.408ZM579.209 55V45.406H581.135V46.684C581.783 45.658 582.791 45.154 584.033 45.154C586.031 45.154 587.273 46.324 587.273 48.592V55H585.365V48.988C585.365 47.602 584.753 46.756 583.439 46.756C581.999 46.756 581.135 48.034 581.135 49.366V55H579.209ZM593.215 55.234C590.677 55.234 589.147 53.344 589.147 50.212C589.147 46.954 590.713 45.154 593.215 45.154C594.313 45.154 595.213 45.604 595.825 46.486V42.04H597.751V55H595.825V53.83C595.213 54.73 594.313 55.234 593.215 55.234ZM593.467 53.614C594.997 53.614 595.825 52.426 595.825 50.212C595.825 48.016 594.961 46.774 593.467 46.774C591.937 46.774 591.109 47.998 591.109 50.212C591.109 52.39 591.973 53.614 593.467 53.614ZM607.622 55.234C604.832 55.234 603.14 53.344 603.14 50.212C603.14 46.954 604.886 45.154 607.622 45.154C610.412 45.154 612.104 47.08 612.104 50.212C612.104 53.452 610.358 55.234 607.622 55.234ZM607.622 53.614C609.26 53.614 610.142 52.426 610.142 50.212C610.142 48.016 609.242 46.774 607.622 46.774C606.002 46.774 605.102 47.98 605.102 50.212C605.102 52.39 606.002 53.614 607.622 53.614ZM620.027 51.022V45.406H621.935V55H620.027V53.704C619.397 54.73 618.389 55.234 617.165 55.234C615.203 55.234 613.979 54.082 613.979 51.814V45.406H615.905V51.418C615.905 52.804 616.481 53.632 617.759 53.632C619.163 53.632 620.027 52.354 620.027 51.022ZM624.531 52.138V46.9H623.235V45.406H624.531V43.192H626.457V45.406H628.527V46.9H626.457V52.03C626.457 53.128 626.763 53.65 628.113 53.65H628.491V55.054C628.275 55.162 627.825 55.234 627.285 55.234C625.413 55.234 624.531 54.208 624.531 52.138ZM633.575 55.234C631.037 55.234 629.507 53.344 629.507 50.212C629.507 46.954 631.073 45.154 633.575 45.154C634.673 45.154 635.573 45.604 636.185 46.486V42.04H638.111V55H636.185V53.83C635.573 54.73 634.673 55.234 633.575 55.234ZM633.827 53.614C635.357 53.614 636.185 52.426 636.185 50.212C636.185 48.016 635.321 46.774 633.827 46.774C632.297 46.774 631.469 47.998 631.469 50.212C631.469 52.39 632.333 53.614 633.827 53.614ZM642.252 48.538H640.326C640.632 46.414 642.09 45.154 644.484 45.154C647.094 45.154 648.39 46.684 648.39 48.916V52.66C648.39 53.812 648.498 54.478 648.714 55H646.698C646.554 54.64 646.5 54.136 646.482 53.596C645.672 54.73 644.43 55.234 643.278 55.234C641.334 55.234 640.002 54.316 640.002 52.48C640.002 51.166 640.722 50.194 642.162 49.708C643.44 49.276 644.736 49.168 646.464 49.15V48.934C646.464 47.53 645.816 46.774 644.34 46.774C643.098 46.774 642.432 47.458 642.252 48.538ZM641.946 52.408C641.946 53.218 642.612 53.722 643.638 53.722C645.24 53.722 646.464 52.444 646.464 50.896V50.464C642.774 50.5 641.946 51.31 641.946 52.408ZM651.057 52.138V46.9H649.761V45.406H651.057V43.192H652.983V45.406H655.053V46.9H652.983V52.03C652.983 53.128 653.289 53.65 654.639 53.65H655.017V55.054C654.801 55.162 654.351 55.234 653.811 55.234C651.939 55.234 651.057 54.208 651.057 52.138ZM665.014 51.868C664.492 54.1 662.836 55.234 660.586 55.234C657.76 55.234 656.032 53.344 656.032 50.212C656.032 46.954 657.76 45.154 660.496 45.154C663.268 45.154 664.942 47.026 664.942 50.104V50.572H657.994C658.102 52.534 659.02 53.632 660.586 53.632C661.81 53.632 662.674 53.056 662.998 51.868H665.014ZM660.496 46.756C659.11 46.756 658.282 47.638 658.048 49.258H662.944C662.71 47.638 661.864 46.756 660.496 46.756ZM670.471 55.234C667.933 55.234 666.403 53.344 666.403 50.212C666.403 46.954 667.969 45.154 670.471 45.154C671.569 45.154 672.469 45.604 673.081 46.486V42.04H675.007V55H673.081V53.83C672.469 54.73 671.569 55.234 670.471 55.234ZM670.723 53.614C672.253 53.614 673.081 52.426 673.081 50.212C673.081 48.016 672.217 46.774 670.723 46.774C669.193 46.774 668.365 47.998 668.365 50.212C668.365 52.39 669.229 53.614 670.723 53.614ZM681.115 52.138V46.9H679.819V45.406H681.115V43.192H683.041V45.406H685.111V46.9H683.041V52.03C683.041 53.128 683.347 53.65 684.697 53.65H685.075V55.054C684.859 55.162 684.409 55.234 683.869 55.234C681.997 55.234 681.115 54.208 681.115 52.138ZM690.573 55.234C687.783 55.234 686.091 53.344 686.091 50.212C686.091 46.954 687.837 45.154 690.573 45.154C693.363 45.154 695.055 47.08 695.055 50.212C695.055 53.452 693.309 55.234 690.573 55.234ZM690.573 53.614C692.211 53.614 693.093 52.426 693.093 50.212C693.093 48.016 692.193 46.774 690.573 46.774C688.953 46.774 688.053 47.98 688.053 50.212C688.053 52.39 688.953 53.614 690.573 53.614ZM700.944 55.234C698.154 55.234 696.462 53.344 696.462 50.212C696.462 46.954 698.208 45.154 700.944 45.154C703.734 45.154 705.426 47.08 705.426 50.212C705.426 53.452 703.68 55.234 700.944 55.234ZM700.944 53.614C702.582 53.614 703.464 52.426 703.464 50.212C703.464 48.016 702.564 46.774 700.944 46.774C699.324 46.774 698.424 47.98 698.424 50.212C698.424 52.39 699.324 53.614 700.944 53.614ZM707.301 55V42.04H709.227V55H707.301ZM713.085 47.926C713.085 50.374 719.223 48.322 719.223 52.228C719.223 54.046 717.585 55.234 715.263 55.234C712.941 55.234 711.303 54.154 710.943 51.868H712.869C713.067 53.074 713.967 53.74 715.317 53.74C716.613 53.74 717.297 53.164 717.297 52.354C717.297 49.96 711.249 51.976 711.249 48.034C711.249 46.54 712.419 45.154 714.849 45.154C716.991 45.154 718.575 46.144 718.881 48.538H716.955C716.739 47.188 715.983 46.684 714.759 46.684C713.697 46.684 713.085 47.206 713.085 47.926ZM720.815 55V52.786H723.047V55H720.815Z" fill="#470000"/>
<rect y="88" width="980" height="76" rx="12" fill="#FFBDBD"/>
<path fill-rule="evenodd" clip-rule="evenodd" d="M46.8684 111.11C48.0558 111.225 49.0545 111.464 49.9865 111.994C50.9217 112.526 51.6311 113.261 52.3199 114.22C52.9845 115.146 53.6742 116.346 54.5359 117.845L55.4796 119.487C56.2944 120.904 56.9478 122.041 57.3911 123.023C57.85 124.039 58.125 124.974 58.125 125.999C58.125 127.023 57.85 127.958 57.3911 128.975C56.9478 129.957 56.2944 131.093 55.4796 132.511L54.5358 134.153C53.6742 135.652 52.9845 136.852 52.3199 137.778C51.6311 138.737 50.9217 139.472 49.9865 140.004C49.0545 140.534 48.0558 140.773 46.8684 140.887C45.8436 140.986 44.6123 140.997 43.1015 140.999L41.4784 140.999C39.6988 140.999 38.2846 140.999 37.1315 140.887C35.9443 140.773 34.9455 140.534 34.0136 140.004C33.0783 139.472 32.3689 138.737 31.6802 137.778C31.0156 136.852 30.3258 135.652 29.4642 134.153L28.5204 132.511C27.7057 131.093 27.0522 129.957 26.6089 128.975C26.15 127.958 25.875 127.023 25.875 125.999C25.875 124.974 26.15 124.039 26.6089 123.023C27.0522 122.041 27.7057 120.904 28.5204 119.487L29.4641 117.845C30.3257 116.346 31.0156 115.146 31.6802 114.22C32.3689 113.261 33.0783 112.526 34.0136 111.994C34.9455 111.464 35.9443 111.225 37.1315 111.11C38.0283 111.024 39.0831 111.004 40.3449 111H43.6551C44.9169 111.004 45.9717 111.024 46.8684 111.11ZM41.9932 130.499C41.1685 130.499 40.5 131.17 40.5 131.999C40.5 132.827 41.1686 133.499 42.0068 133.499C42.8315 133.499 43.5 132.827 43.5 131.999C43.5 131.17 42.8314 130.499 41.9932 130.499ZM42 118.499C41.1715 118.499 40.5 119.17 40.5 119.999V125.999C40.5 126.827 41.1715 127.499 42 127.499C42.8284 127.499 43.5 126.827 43.5 125.999V119.999C43.5 119.17 42.8284 118.499 42 118.499Z" fill="#470000"/>
<path opacity="0.7" d="M73.022 118V108.48H74.59V116.726H79.196V118H73.022ZM87.3712 118L86.5592 115.858H82.2192L81.4072 118H79.8392L83.5072 108.48H85.3412L89.0092 118H87.3712ZM84.1092 110.916L82.6952 114.626H86.0832L84.6692 110.916L84.3892 109.992L84.1092 110.916ZM97.7514 111.308H96.1134C95.7914 110.216 94.8814 109.614 93.7474 109.614C92.0114 109.614 90.9754 111 90.9754 113.254C90.9754 115.508 91.9974 116.866 93.7474 116.866C94.8394 116.866 95.7214 116.306 96.0854 115.228H97.7374C97.2194 117.118 95.6234 118.182 93.7474 118.182C91.0314 118.182 89.3794 116.32 89.3794 113.254C89.3794 110.202 91.0454 108.298 93.7894 108.298C95.6794 108.298 97.3034 109.334 97.7514 111.308ZM99.313 118V108.48H100.881V113.044L104.983 108.48H106.887L102.617 113.156L107.027 118H104.983L100.881 113.506V118H99.313ZM115.231 118.182C112.389 118.182 110.653 116.306 110.653 113.254C110.653 110.202 112.389 108.298 115.231 108.298C118.045 108.298 119.795 110.202 119.795 113.254C119.795 116.306 118.045 118.182 115.231 118.182ZM115.231 116.866C117.093 116.866 118.199 115.494 118.199 113.254C118.199 111 117.093 109.614 115.231 109.614C113.369 109.614 112.249 111 112.249 113.254C112.249 115.494 113.369 116.866 115.231 116.866ZM121.502 118V108.48H128.068V109.74H123.07V112.736H127.536V113.996H123.07V118H121.502ZM140.339 118H139.205L139.079 116.656C138.491 117.692 137.469 118.182 136.251 118.182C133.647 118.182 131.981 116.32 131.981 113.254C131.981 110.202 133.647 108.298 136.391 108.298C138.281 108.298 139.905 109.334 140.353 111.308H138.715C138.379 110.216 137.483 109.614 136.349 109.614C134.613 109.614 133.577 111 133.577 113.254C133.577 115.508 134.627 116.866 136.391 116.866C137.693 116.866 138.743 116.082 138.841 114.262H136.587V113.044H140.339V118ZM149.86 114.374C149.86 116.74 148.376 118.182 145.982 118.182C143.588 118.182 142.104 116.74 142.104 114.374V108.48H143.672V114.374C143.672 115.97 144.54 116.922 145.982 116.922C147.438 116.922 148.292 115.956 148.292 114.374V108.48H149.86V114.374ZM151.786 118V108.48H153.354V118H151.786ZM155.395 118V108.48H158.657C161.639 108.48 163.487 110.272 163.487 113.254C163.487 116.236 161.639 118 158.657 118H155.395ZM158.657 116.726C160.687 116.726 161.891 115.438 161.891 113.254C161.891 111.042 160.687 109.754 158.657 109.754H156.963V116.726H158.657ZM171.385 118L170.573 115.858H166.233L165.421 118H163.853L167.521 108.48H169.355L173.023 118H171.385ZM168.123 110.916L166.709 114.626H170.097L168.683 110.916L168.403 109.992L168.123 110.916ZM174.29 118V108.48H175.928L179.918 114.696L180.52 115.816L180.478 108.48H182.046V118H180.408L176.432 111.812L175.816 110.65L175.858 118H174.29ZM192.128 111.308H190.49C190.168 110.216 189.258 109.614 188.124 109.614C186.388 109.614 185.352 111 185.352 113.254C185.352 115.508 186.374 116.866 188.124 116.866C189.216 116.866 190.098 116.306 190.462 115.228H192.114C191.596 117.118 190 118.182 188.124 118.182C185.408 118.182 183.756 116.32 183.756 113.254C183.756 110.202 185.422 108.298 188.166 108.298C190.056 108.298 191.68 109.334 192.128 111.308ZM193.69 118V108.48H200.256V109.74H195.258V112.456H199.724V113.702H195.258V116.74H200.256V118H193.69Z" fill="#470000"/>
<path d="M83.646 134.396H81.54C81.126 132.992 79.956 132.218 78.498 132.218C76.266 132.218 74.934 134 74.934 136.898C74.934 139.796 76.248 141.542 78.498 141.542C79.902 141.542 81.036 140.822 81.504 139.436H83.628C82.962 141.866 80.91 143.234 78.498 143.234C75.006 143.234 72.882 140.84 72.882 136.898C72.882 132.974 75.024 130.526 78.552 130.526C80.982 130.526 83.07 131.858 83.646 134.396ZM85.5098 143V133.406H87.4358V134.828C88.0658 133.676 89.0558 133.154 90.1718 133.154C90.5498 133.154 90.9098 133.244 91.0898 133.406V135.098C90.8018 135.008 90.4598 134.972 90.0638 134.972C88.2278 134.972 87.4358 136.088 87.4358 137.762V143H85.5098ZM100.739 139.868C100.217 142.1 98.5607 143.234 96.3107 143.234C93.4847 143.234 91.7567 141.344 91.7567 138.212C91.7567 134.954 93.4847 133.154 96.2207 133.154C98.9927 133.154 100.667 135.026 100.667 138.104V138.572H93.7187C93.8267 140.534 94.7447 141.632 96.3107 141.632C97.5347 141.632 98.3987 141.056 98.7227 139.868H100.739ZM96.2207 134.756C94.8347 134.756 94.0067 135.638 93.7727 137.258H98.6687C98.4347 135.638 97.5887 134.756 96.2207 134.756ZM104.414 136.538H102.488C102.794 134.414 104.252 133.154 106.646 133.154C109.256 133.154 110.552 134.684 110.552 136.916V140.66C110.552 141.812 110.66 142.478 110.876 143H108.86C108.716 142.64 108.662 142.136 108.644 141.596C107.834 142.73 106.592 143.234 105.44 143.234C103.496 143.234 102.164 142.316 102.164 140.48C102.164 139.166 102.884 138.194 104.324 137.708C105.602 137.276 106.898 137.168 108.626 137.15V136.934C108.626 135.53 107.978 134.774 106.502 134.774C105.26 134.774 104.594 135.458 104.414 136.538ZM104.108 140.408C104.108 141.218 104.774 141.722 105.8 141.722C107.402 141.722 108.626 140.444 108.626 138.896V138.464C104.936 138.5 104.108 139.31 104.108 140.408ZM113.219 140.138V134.9H111.923V133.406H113.219V131.192H115.145V133.406H117.215V134.9H115.145V140.03C115.145 141.128 115.451 141.65 116.801 141.65H117.179V143.054C116.963 143.162 116.513 143.234 115.973 143.234C114.101 143.234 113.219 142.208 113.219 140.138ZM118.662 132.218V130.04H120.588V132.218H118.662ZM118.662 143V133.406H120.588V143H118.662ZM122.916 143V133.406H124.842V134.684C125.49 133.658 126.498 133.154 127.74 133.154C129.738 133.154 130.98 134.324 130.98 136.592V143H129.072V136.988C129.072 135.602 128.46 134.756 127.146 134.756C125.706 134.756 124.842 136.034 124.842 137.366V143H122.916ZM136.778 143.054C134.33 143.054 132.854 141.182 132.854 138.122C132.854 134.918 134.366 133.154 136.778 133.154C138.002 133.154 138.92 133.586 139.532 134.414V133.406H141.458V143.306C141.458 145.934 139.712 147.212 137.408 147.212C135.104 147.212 133.448 146.132 133.106 143.9H135.032C135.212 145.052 136.13 145.664 137.39 145.664C138.668 145.664 139.532 144.998 139.532 143.342V141.722C138.884 142.604 137.948 143.054 136.778 143.054ZM137.174 141.434C138.704 141.434 139.532 140.264 139.532 138.104C139.532 135.998 138.668 134.774 137.174 134.774C135.644 134.774 134.816 135.944 134.816 138.122C134.816 140.228 135.662 141.434 137.174 141.434ZM155.45 136.754H153.524C153.29 135.386 152.408 134.774 151.292 134.774C149.69 134.774 148.826 135.998 148.826 138.212C148.826 140.39 149.726 141.632 151.346 141.632C152.498 141.632 153.308 141.002 153.596 139.778H155.504C155.09 142.172 153.434 143.234 151.31 143.234C148.538 143.234 146.864 141.326 146.864 138.212C146.864 134.954 148.574 133.154 151.292 133.154C153.434 133.154 155.126 134.36 155.45 136.754ZM159.117 136.538H157.191C157.497 134.414 158.955 133.154 161.349 133.154C163.959 133.154 165.255 134.684 165.255 136.916V140.66C165.255 141.812 165.363 142.478 165.579 143H163.563C163.419 142.64 163.365 142.136 163.347 141.596C162.537 142.73 161.295 143.234 160.143 143.234C158.199 143.234 156.867 142.316 156.867 140.48C156.867 139.166 157.587 138.194 159.027 137.708C160.305 137.276 161.601 137.168 163.329 137.15V136.934C163.329 135.53 162.681 134.774 161.205 134.774C159.963 134.774 159.297 135.458 159.117 136.538ZM158.811 140.408C158.811 141.218 159.477 141.722 160.503 141.722C162.105 141.722 163.329 140.444 163.329 138.896V138.464C159.639 138.5 158.811 139.31 158.811 140.408ZM167.67 143V133.406H169.596V134.63C170.208 133.64 171.162 133.154 172.296 133.154C173.574 133.154 174.528 133.712 174.996 134.81C175.626 133.712 176.67 133.154 177.93 133.154C179.82 133.154 181.044 134.324 181.044 136.592V143H179.118V136.988C179.118 135.602 178.596 134.756 177.408 134.756C176.112 134.756 175.32 136.034 175.32 137.366V143H173.394V136.988C173.394 135.602 172.854 134.756 171.684 134.756C170.388 134.756 169.596 136.034 169.596 137.366V143H167.67ZM185.311 146.96H183.385V133.406H185.311V134.558C185.923 133.658 186.823 133.154 187.921 133.154C190.459 133.154 191.989 135.044 191.989 138.176C191.989 141.434 190.423 143.234 187.921 143.234C186.823 143.234 185.923 142.784 185.311 141.902V146.96ZM187.687 134.774C186.139 134.774 185.311 135.98 185.311 138.176C185.311 140.372 186.175 141.614 187.687 141.614C189.199 141.614 190.027 140.39 190.027 138.176C190.027 135.998 189.163 134.774 187.687 134.774ZM195.679 136.538H193.753C194.059 134.414 195.517 133.154 197.911 133.154C200.521 133.154 201.817 134.684 201.817 136.916V140.66C201.817 141.812 201.925 142.478 202.141 143H200.125C199.981 142.64 199.927 142.136 199.909 141.596C199.099 142.73 197.857 143.234 196.705 143.234C194.761 143.234 193.429 142.316 193.429 140.48C193.429 139.166 194.149 138.194 195.589 137.708C196.867 137.276 198.163 137.168 199.891 137.15V136.934C199.891 135.53 199.243 134.774 197.767 134.774C196.525 134.774 195.859 135.458 195.679 136.538ZM195.373 140.408C195.373 141.218 196.039 141.722 197.065 141.722C198.667 141.722 199.891 140.444 199.891 138.896V138.464C196.201 138.5 195.373 139.31 195.373 140.408ZM204.233 132.218V130.04H206.159V132.218H204.233ZM204.233 143V133.406H206.159V143H204.233ZM211.942 143.054C209.494 143.054 208.018 141.182 208.018 138.122C208.018 134.918 209.53 133.154 211.942 133.154C213.166 133.154 214.084 133.586 214.696 134.414V133.406H216.622V143.306C216.622 145.934 214.876 147.212 212.572 147.212C210.268 147.212 208.612 146.132 208.27 143.9H210.196C210.376 145.052 211.294 145.664 212.554 145.664C213.832 145.664 214.696 144.998 214.696 143.342V141.722C214.048 142.604 213.112 143.054 211.942 143.054ZM212.338 141.434C213.868 141.434 214.696 140.264 214.696 138.104C214.696 135.998 213.832 134.774 212.338 134.774C210.808 134.774 209.98 135.944 209.98 138.122C209.98 140.228 210.826 141.434 212.338 141.434ZM218.963 143V133.406H220.889V134.684C221.537 133.658 222.545 133.154 223.787 133.154C225.785 133.154 227.027 134.324 227.027 136.592V143H225.119V136.988C225.119 135.602 224.507 134.756 223.193 134.756C221.753 134.756 220.889 136.034 220.889 137.366V143H218.963ZM230.899 135.926C230.899 138.374 237.037 136.322 237.037 140.228C237.037 142.046 235.399 143.234 233.077 143.234C230.755 143.234 229.117 142.154 228.757 139.868H230.683C230.881 141.074 231.781 141.74 233.131 141.74C234.427 141.74 235.111 141.164 235.111 140.354C235.111 137.96 229.063 139.976 229.063 136.034C229.063 134.54 230.233 133.154 232.663 133.154C234.805 133.154 236.389 134.144 236.695 136.538H234.769C234.553 135.188 233.797 134.684 232.573 134.684C231.511 134.684 230.899 135.206 230.899 135.926ZM241.244 134.9V133.406H242.54V132.902C242.54 130.814 243.422 129.806 245.222 129.806C245.708 129.806 246.086 129.896 246.284 129.986V131.282H246.104C244.772 131.282 244.448 131.822 244.448 132.92V133.406H246.284V134.9H244.448V143H242.54V134.9H241.244ZM255.989 139.868C255.467 142.1 253.811 143.234 251.561 143.234C248.735 143.234 247.007 141.344 247.007 138.212C247.007 134.954 248.735 133.154 251.471 133.154C254.243 133.154 255.917 135.026 255.917 138.104V138.572H248.969C249.077 140.534 249.995 141.632 251.561 141.632C252.785 141.632 253.649 141.056 253.973 139.868H255.989ZM251.471 134.756C250.085 134.756 249.257 135.638 249.023 137.258H253.919C253.685 135.638 252.839 134.756 251.471 134.756ZM257.846 143V130.04H259.772V143H257.846ZM262.352 140.138V134.9H261.056V133.406H262.352V131.192H264.278V133.406H266.348V134.9H264.278V140.03C264.278 141.128 264.584 141.65 265.934 141.65H266.312V143.054C266.096 143.162 265.646 143.234 265.106 143.234C263.234 143.234 262.352 142.208 262.352 140.138ZM271.328 143V130.04H273.254V143H271.328ZM275.582 132.218V130.04H277.508V132.218H275.582ZM275.582 143V133.406H277.508V143H275.582ZM279.836 143V130.04H281.762V137.474L285.578 133.406H287.882L283.742 137.672L288.134 143H285.74L281.762 138.212V143H279.836ZM297.28 139.868C296.758 142.1 295.102 143.234 292.852 143.234C290.026 143.234 288.298 141.344 288.298 138.212C288.298 134.954 290.026 133.154 292.762 133.154C295.534 133.154 297.208 135.026 297.208 138.104V138.572H290.26C290.368 140.534 291.286 141.632 292.852 141.632C294.076 141.632 294.94 141.056 295.264 139.868H297.28ZM292.762 134.756C291.376 134.756 290.548 135.638 290.314 137.258H295.21C294.976 135.638 294.13 134.756 292.762 134.756ZM306.126 143.054C303.678 143.054 302.202 141.182 302.202 138.122C302.202 134.918 303.714 133.154 306.126 133.154C307.35 133.154 308.268 133.586 308.88 134.414V133.406H310.806V143.306C310.806 145.934 309.06 147.212 306.756 147.212C304.452 147.212 302.796 146.132 302.454 143.9H304.38C304.56 145.052 305.478 145.664 306.738 145.664C308.016 145.664 308.88 144.998 308.88 143.342V141.722C308.232 142.604 307.296 143.054 306.126 143.054ZM306.522 141.434C308.052 141.434 308.88 140.264 308.88 138.104C308.88 135.998 308.016 134.774 306.522 134.774C304.992 134.774 304.164 135.944 304.164 138.122C304.164 140.228 305.01 141.434 306.522 141.434ZM319.195 139.022V133.406H321.103V143H319.195V141.704C318.565 142.73 317.557 143.234 316.333 143.234C314.371 143.234 313.147 142.082 313.147 139.814V133.406H315.073V139.418C315.073 140.804 315.649 141.632 316.927 141.632C318.331 141.632 319.195 140.354 319.195 139.022ZM331.961 139.868C331.439 142.1 329.783 143.234 327.533 143.234C324.707 143.234 322.979 141.344 322.979 138.212C322.979 134.954 324.707 133.154 327.443 133.154C330.215 133.154 331.889 135.026 331.889 138.104V138.572H324.941C325.049 140.534 325.967 141.632 327.533 141.632C328.757 141.632 329.621 141.056 329.945 139.868H331.961ZM327.443 134.756C326.057 134.756 325.229 135.638 324.995 137.258H329.891C329.657 135.638 328.811 134.756 327.443 134.756ZM335.348 135.926C335.348 138.374 341.486 136.322 341.486 140.228C341.486 142.046 339.848 143.234 337.526 143.234C335.204 143.234 333.566 142.154 333.206 139.868H335.132C335.33 141.074 336.23 141.74 337.58 141.74C338.876 141.74 339.56 141.164 339.56 140.354C339.56 137.96 333.512 139.976 333.512 136.034C333.512 134.54 334.682 133.154 337.112 133.154C339.254 133.154 340.838 134.144 341.144 136.538H339.218C339.002 135.188 338.246 134.684 337.022 134.684C335.96 134.684 335.348 135.206 335.348 135.926ZM344.77 135.926C344.77 138.374 350.908 136.322 350.908 140.228C350.908 142.046 349.27 143.234 346.948 143.234C344.626 143.234 342.988 142.154 342.628 139.868H344.554C344.752 141.074 345.652 141.74 347.002 141.74C348.298 141.74 348.982 141.164 348.982 140.354C348.982 137.96 342.934 139.976 342.934 136.034C342.934 134.54 344.104 133.154 346.534 133.154C348.676 133.154 350.26 134.144 350.566 136.538H348.64C348.424 135.188 347.668 134.684 346.444 134.684C345.382 134.684 344.77 135.206 344.77 135.926ZM360.91 143L359.002 136.178L358.804 135.098L358.588 136.178L356.68 143H354.304L351.532 133.406H353.602L355.366 140.534L355.6 141.614L355.852 140.534L357.868 133.406H359.902L361.936 140.534L362.152 141.56L362.368 140.534L364.132 133.406H366.112L363.322 143H360.91ZM371.407 143.234C368.617 143.234 366.925 141.344 366.925 138.212C366.925 134.954 368.671 133.154 371.407 133.154C374.197 133.154 375.889 135.08 375.889 138.212C375.889 141.452 374.143 143.234 371.407 143.234ZM371.407 141.614C373.045 141.614 373.927 140.426 373.927 138.212C373.927 136.016 373.027 134.774 371.407 134.774C369.787 134.774 368.887 135.98 368.887 138.212C368.887 140.39 369.787 141.614 371.407 141.614ZM377.764 143V133.406H379.69V134.828C380.32 133.676 381.31 133.154 382.426 133.154C382.804 133.154 383.164 133.244 383.344 133.406V135.098C383.056 135.008 382.714 134.972 382.318 134.972C380.482 134.972 379.69 136.088 379.69 137.762V143H377.764ZM384.654 143V130.04H386.58V137.474L390.396 133.406H392.7L388.56 137.672L392.952 143H390.558L386.58 138.212V143H384.654ZM396.811 134.9V133.406H398.107V132.902C398.107 130.814 398.989 129.806 400.789 129.806C401.275 129.806 401.653 129.896 401.851 129.986V131.282H401.671C400.339 131.282 400.015 131.822 400.015 132.92V133.406H401.851V134.9H400.015V143H398.107V134.9H396.811ZM407.055 143.234C404.265 143.234 402.573 141.344 402.573 138.212C402.573 134.954 404.319 133.154 407.055 133.154C409.845 133.154 411.537 135.08 411.537 138.212C411.537 141.452 409.791 143.234 407.055 143.234ZM407.055 141.614C408.693 141.614 409.575 140.426 409.575 138.212C409.575 136.016 408.675 134.774 407.055 134.774C405.435 134.774 404.535 135.98 404.535 138.212C404.535 140.39 405.435 141.614 407.055 141.614ZM413.412 143V133.406H415.338V134.828C415.968 133.676 416.958 133.154 418.074 133.154C418.452 133.154 418.812 133.244 418.992 133.406V135.098C418.704 135.008 418.362 134.972 417.966 134.972C416.13 134.972 415.338 136.088 415.338 137.762V143H413.412ZM423.836 143V133.406H425.762V134.684C426.41 133.658 427.418 133.154 428.66 133.154C430.658 133.154 431.9 134.324 431.9 136.592V143H429.992V136.988C429.992 135.602 429.38 134.756 428.066 134.756C426.626 134.756 425.762 136.034 425.762 137.366V143H423.836ZM438.256 143.234C435.466 143.234 433.774 141.344 433.774 138.212C433.774 134.954 435.52 133.154 438.256 133.154C441.046 133.154 442.738 135.08 442.738 138.212C442.738 141.452 440.992 143.234 438.256 143.234ZM438.256 141.614C439.894 141.614 440.776 140.426 440.776 138.212C440.776 136.016 439.876 134.774 438.256 134.774C436.636 134.774 435.736 135.98 435.736 138.212C435.736 140.39 436.636 141.614 438.256 141.614ZM444.613 143V133.406H446.539V134.684C447.187 133.658 448.195 133.154 449.437 133.154C451.435 133.154 452.677 134.324 452.677 136.592V143H450.769V136.988C450.769 135.602 450.157 134.756 448.843 134.756C447.403 134.756 446.539 136.034 446.539 137.366V143H444.613ZM454.984 138.914V137.276H459.826V138.914H454.984ZM462.408 140.138V134.9H461.112V133.406H462.408V131.192H464.334V133.406H466.404V134.9H464.334V140.03C464.334 141.128 464.64 141.65 465.99 141.65H466.368V143.054C466.152 143.162 465.702 143.234 465.162 143.234C463.29 143.234 462.408 142.208 462.408 140.138ZM476.366 139.868C475.844 142.1 474.188 143.234 471.938 143.234C469.112 143.234 467.384 141.344 467.384 138.212C467.384 134.954 469.112 133.154 471.848 133.154C474.62 133.154 476.294 135.026 476.294 138.104V138.572H469.346C469.454 140.534 470.372 141.632 471.938 141.632C473.162 141.632 474.026 141.056 474.35 139.868H476.366ZM471.848 134.756C470.462 134.756 469.634 135.638 469.4 137.258H474.296C474.062 135.638 473.216 134.756 471.848 134.756ZM486.341 136.754H484.415C484.181 135.386 483.299 134.774 482.183 134.774C480.581 134.774 479.717 135.998 479.717 138.212C479.717 140.39 480.617 141.632 482.237 141.632C483.389 141.632 484.199 141.002 484.487 139.778H486.395C485.981 142.172 484.325 143.234 482.201 143.234C479.429 143.234 477.755 141.326 477.755 138.212C477.755 134.954 479.465 133.154 482.183 133.154C484.325 133.154 486.017 134.36 486.341 136.754ZM488.19 143V130.04H490.116V134.684C490.764 133.658 491.772 133.154 493.014 133.154C495.012 133.154 496.254 134.324 496.254 136.592V143H494.346V136.988C494.346 135.602 493.734 134.756 492.42 134.756C490.98 134.756 490.116 136.034 490.116 137.366V143H488.19ZM498.596 143V133.406H500.522V134.684C501.17 133.658 502.178 133.154 503.42 133.154C505.418 133.154 506.66 134.324 506.66 136.592V143H504.752V136.988C504.752 135.602 504.14 134.756 502.826 134.756C501.386 134.756 500.522 136.034 500.522 137.366V143H498.596ZM509.002 132.218V130.04H510.928V132.218H509.002ZM509.002 143V133.406H510.928V143H509.002ZM521.374 136.754H519.448C519.214 135.386 518.332 134.774 517.216 134.774C515.614 134.774 514.75 135.998 514.75 138.212C514.75 140.39 515.65 141.632 517.27 141.632C518.422 141.632 519.232 141.002 519.52 139.778H521.428C521.014 142.172 519.358 143.234 517.234 143.234C514.462 143.234 512.788 141.326 512.788 138.212C512.788 134.954 514.498 133.154 517.216 133.154C519.358 133.154 521.05 134.36 521.374 136.754ZM525.041 136.538H523.115C523.421 134.414 524.879 133.154 527.273 133.154C529.883 133.154 531.179 134.684 531.179 136.916V140.66C531.179 141.812 531.287 142.478 531.503 143H529.487C529.343 142.64 529.289 142.136 529.271 141.596C528.461 142.73 527.219 143.234 526.067 143.234C524.123 143.234 522.791 142.316 522.791 140.48C522.791 139.166 523.511 138.194 524.951 137.708C526.229 137.276 527.525 137.168 529.253 137.15V136.934C529.253 135.53 528.605 134.774 527.129 134.774C525.887 134.774 525.221 135.458 525.041 136.538ZM524.735 140.408C524.735 141.218 525.401 141.722 526.427 141.722C528.029 141.722 529.253 140.444 529.253 138.896V138.464C525.563 138.5 524.735 139.31 524.735 140.408ZM533.594 143V130.04H535.52V143H533.594ZM547.429 139.022V133.406H549.337V143H547.429V141.704C546.799 142.73 545.791 143.234 544.567 143.234C542.605 143.234 541.381 142.082 541.381 139.814V133.406H543.307V139.418C543.307 140.804 543.883 141.632 545.161 141.632C546.565 141.632 547.429 140.354 547.429 139.022ZM553.212 135.926C553.212 138.374 559.35 136.322 559.35 140.228C559.35 142.046 557.712 143.234 555.39 143.234C553.068 143.234 551.43 142.154 551.07 139.868H552.996C553.194 141.074 554.094 141.74 555.444 141.74C556.74 141.74 557.424 141.164 557.424 140.354C557.424 137.96 551.376 139.976 551.376 136.034C551.376 134.54 552.546 133.154 554.976 133.154C557.118 133.154 558.702 134.144 559.008 136.538H557.082C556.866 135.188 556.11 134.684 554.886 134.684C553.824 134.684 553.212 135.206 553.212 135.926ZM569.618 139.868C569.096 142.1 567.44 143.234 565.19 143.234C562.364 143.234 560.636 141.344 560.636 138.212C560.636 134.954 562.364 133.154 565.1 133.154C567.872 133.154 569.546 135.026 569.546 138.104V138.572H562.598C562.706 140.534 563.624 141.632 565.19 141.632C566.414 141.632 567.278 141.056 567.602 139.868H569.618ZM565.1 134.756C563.714 134.756 562.886 135.638 562.652 137.258H567.548C567.314 135.638 566.468 134.756 565.1 134.756ZM571.475 143V133.406H573.401V134.828C574.031 133.676 575.021 133.154 576.137 133.154C576.515 133.154 576.875 133.244 577.055 133.406V135.098C576.767 135.008 576.425 134.972 576.029 134.972C574.193 134.972 573.401 136.088 573.401 137.762V143H571.475ZM579.895 135.926C579.895 138.374 586.033 136.322 586.033 140.228C586.033 142.046 584.395 143.234 582.073 143.234C579.751 143.234 578.113 142.154 577.753 139.868H579.679C579.877 141.074 580.777 141.74 582.127 141.74C583.423 141.74 584.107 141.164 584.107 140.354C584.107 137.96 578.059 139.976 578.059 136.034C578.059 134.54 579.229 133.154 581.659 133.154C583.801 133.154 585.385 134.144 585.691 136.538H583.765C583.549 135.188 582.793 134.684 581.569 134.684C580.507 134.684 579.895 135.206 579.895 135.926ZM587.625 143V140.786H589.857V143H587.625Z" fill="#470000"/>
<rect y="176" width="980" height="76" rx="12" fill="#FFBDBD"/>
<path fill-rule="evenodd" clip-rule="evenodd" d="M46.8684 199.11C48.0558 199.225 49.0545 199.464 49.9865 199.994C50.9217 200.526 51.6311 201.261 52.3199 202.22C52.9845 203.146 53.6742 204.346 54.5359 205.845L55.4796 207.487C56.2944 208.904 56.9478 210.041 57.3911 211.023C57.85 212.039 58.125 212.974 58.125 213.999C58.125 215.023 57.85 215.958 57.3911 216.975C56.9478 217.957 56.2944 219.093 55.4796 220.511L54.5358 222.153C53.6742 223.652 52.9845 224.852 52.3199 225.778C51.6311 226.737 50.9217 227.472 49.9865 228.004C49.0545 228.534 48.0558 228.773 46.8684 228.887C45.8436 228.986 44.6123 228.997 43.1015 228.999L41.4784 228.999C39.6988 228.999 38.2846 228.999 37.1315 228.887C35.9443 228.773 34.9455 228.534 34.0136 228.004C33.0783 227.472 32.3689 226.737 31.6802 225.778C31.0156 224.852 30.3258 223.652 29.4642 222.153L28.5204 220.511C27.7057 219.093 27.0522 217.957 26.6089 216.975C26.15 215.958 25.875 215.023 25.875 213.999C25.875 212.974 26.15 212.039 26.6089 211.023C27.0522 210.041 27.7057 208.904 28.5204 207.487L29.4641 205.845C30.3257 204.346 31.0156 203.146 31.6802 202.22C32.3689 201.261 33.0783 200.526 34.0136 199.994C34.9455 199.464 35.9443 199.225 37.1315 199.11C38.0283 199.024 39.0831 199.004 40.3449 199H43.6551C44.9169 199.004 45.9717 199.024 46.8684 199.11ZM41.9932 218.499C41.1685 218.499 40.5 219.17 40.5 219.999C40.5 220.827 41.1686 221.499 42.0068 221.499C42.8315 221.499 43.5 220.827 43.5 219.999C43.5 219.17 42.8314 218.499 41.9932 218.499ZM42 206.499C41.1715 206.499 40.5 207.17 40.5 207.999V213.999C40.5 214.827 41.1715 215.499 42 215.499C42.8284 215.499 43.5 214.827 43.5 213.999V207.999C43.5 207.17 42.8284 206.499 42 206.499Z" fill="#470000"/>
<path opacity="0.7" d="M73.022 206V196.48H76.284C79.266 196.48 81.114 198.272 81.114 201.254C81.114 204.236 79.266 206 76.284 206H73.022ZM76.284 204.726C78.314 204.726 79.518 203.438 79.518 201.254C79.518 199.042 78.314 197.754 76.284 197.754H74.59V204.726H76.284ZM89.0119 206L88.1999 203.858H83.8599L83.0479 206H81.4799L85.1479 196.48H86.9819L90.6499 206H89.0119ZM85.7499 198.916L84.3359 202.626H87.7239L86.3099 198.916L86.0299 197.992L85.7499 198.916ZM93.2754 206V197.796H90.0974V196.48H98.0074V197.796H94.8434V206H93.2754ZM104.967 206L104.155 203.858H99.8149L99.0029 206H97.4349L101.103 196.48H102.937L106.605 206H104.967ZM101.705 198.916L100.291 202.626H103.679L102.265 198.916L101.985 197.992L101.705 198.916ZM110.196 206V196.48H116.762V197.74H111.764V200.736H116.23V201.996H111.764V206H110.196ZM124.162 206L123.35 203.858H119.01L118.198 206H116.63L120.298 196.48H122.132L125.8 206H124.162ZM120.9 198.916L119.486 202.626H122.874L121.46 198.916L121.18 197.992L120.9 198.916ZM128.426 206V197.796H125.248V196.48H133.158V197.796H129.994V206H128.426ZM134.586 206V196.48H136.154V206H134.586ZM146.218 206H145.084L144.958 204.656C144.37 205.692 143.348 206.182 142.13 206.182C139.526 206.182 137.86 204.32 137.86 201.254C137.86 198.202 139.526 196.298 142.27 196.298C144.16 196.298 145.784 197.334 146.232 199.308H144.594C144.258 198.216 143.362 197.614 142.228 197.614C140.492 197.614 139.456 199 139.456 201.254C139.456 203.508 140.506 204.866 142.27 204.866C143.572 204.866 144.622 204.082 144.72 202.262H142.466V201.044H146.218V206ZM155.739 202.374C155.739 204.74 154.255 206.182 151.861 206.182C149.467 206.182 147.983 204.74 147.983 202.374V196.48H149.551V202.374C149.551 203.97 150.419 204.922 151.861 204.922C153.317 204.922 154.171 203.956 154.171 202.374V196.48H155.739V202.374ZM157.665 206V196.48H164.231V197.74H159.233V200.456H163.699V201.702H159.233V204.74H164.231V206H157.665Z" fill="#470000"/>
<path d="M73.314 231V218.76H76.032L79.488 227.238L79.902 228.534L80.316 227.238L83.736 218.76H86.382V231H84.366L84.42 221.082L83.538 223.71L80.568 231H79.128L76.14 223.692L75.276 221.136L75.33 231H73.314ZM97.3813 227.868C96.8593 230.1 95.2033 231.234 92.9533 231.234C90.1273 231.234 88.3993 229.344 88.3993 226.212C88.3993 222.954 90.1273 221.154 92.8633 221.154C95.6353 221.154 97.3093 223.026 97.3093 226.104V226.572H90.3613C90.4693 228.534 91.3873 229.632 92.9533 229.632C94.1773 229.632 95.0413 229.056 95.3653 227.868H97.3813ZM92.8633 222.756C91.4773 222.756 90.6493 223.638 90.4153 225.258H95.3113C95.0773 223.638 94.2313 222.756 92.8633 222.756ZM99.4904 228.138V222.9H98.1944V221.406H99.4904V219.192H101.416V221.406H103.486V222.9H101.416V228.03C101.416 229.128 101.722 229.65 103.072 229.65H103.45V231.054C103.234 231.162 102.784 231.234 102.244 231.234C100.372 231.234 99.4904 230.208 99.4904 228.138ZM104.934 231V221.406H106.86V222.828C107.49 221.676 108.48 221.154 109.596 221.154C109.974 221.154 110.334 221.244 110.514 221.406V223.098C110.226 223.008 109.884 222.972 109.488 222.972C107.652 222.972 106.86 224.088 106.86 225.762V231H104.934ZM111.824 220.218V218.04H113.75V220.218H111.824ZM111.824 231V221.406H113.75V231H111.824ZM124.196 224.754H122.27C122.036 223.386 121.154 222.774 120.038 222.774C118.436 222.774 117.572 223.998 117.572 226.212C117.572 228.39 118.472 229.632 120.092 229.632C121.244 229.632 122.054 229.002 122.342 227.778H124.25C123.836 230.172 122.18 231.234 120.056 231.234C117.284 231.234 115.61 229.326 115.61 226.212C115.61 222.954 117.32 221.154 120.038 221.154C122.18 221.154 123.872 222.36 124.196 224.754ZM127.575 223.926C127.575 226.374 133.713 224.322 133.713 228.228C133.713 230.046 132.075 231.234 129.753 231.234C127.431 231.234 125.793 230.154 125.433 227.868H127.359C127.557 229.074 128.457 229.74 129.807 229.74C131.103 229.74 131.787 229.164 131.787 228.354C131.787 225.96 125.739 227.976 125.739 224.034C125.739 222.54 126.909 221.154 129.339 221.154C131.481 221.154 133.065 222.144 133.371 224.538H131.445C131.229 223.188 130.473 222.684 129.249 222.684C128.187 222.684 127.575 223.206 127.575 223.926ZM147.388 231L145.48 224.178L145.282 223.098L145.066 224.178L143.158 231H140.782L138.01 221.406H140.08L141.844 228.534L142.078 229.614L142.33 228.534L144.346 221.406H146.38L148.414 228.534L148.63 229.56L148.846 228.534L150.61 221.406H152.59L149.8 231H147.388ZM162.385 227.868C161.863 230.1 160.207 231.234 157.957 231.234C155.131 231.234 153.403 229.344 153.403 226.212C153.403 222.954 155.131 221.154 157.867 221.154C160.639 221.154 162.313 223.026 162.313 226.104V226.572H155.365C155.473 228.534 156.391 229.632 157.957 229.632C159.181 229.632 160.045 229.056 160.369 227.868H162.385ZM157.867 222.756C156.481 222.756 155.653 223.638 155.419 225.258H160.315C160.081 223.638 159.235 222.756 157.867 222.756ZM164.242 231V221.406H166.168V222.828C166.798 221.676 167.788 221.154 168.904 221.154C169.282 221.154 169.642 221.244 169.822 221.406V223.098C169.534 223.008 169.192 222.972 168.796 222.972C166.96 222.972 166.168 224.088 166.168 225.762V231H164.242ZM179.471 227.868C178.949 230.1 177.293 231.234 175.043 231.234C172.217 231.234 170.489 229.344 170.489 226.212C170.489 222.954 172.217 221.154 174.953 221.154C177.725 221.154 179.399 223.026 179.399 226.104V226.572H172.451C172.559 228.534 173.477 229.632 175.043 229.632C176.267 229.632 177.131 229.056 177.455 227.868H179.471ZM174.953 222.756C173.567 222.756 172.739 223.638 172.505 225.258H177.401C177.167 223.638 176.321 222.756 174.953 222.756ZM186.787 231H184.861V218.04H186.787V222.522C187.399 221.64 188.299 221.154 189.397 221.154C191.917 221.154 193.447 223.044 193.447 226.176C193.447 229.434 191.881 231.234 189.397 231.234C188.299 231.234 187.399 230.784 186.787 229.92V231ZM189.145 222.774C187.597 222.774 186.787 223.98 186.787 226.176C186.787 228.372 187.633 229.614 189.145 229.614C190.657 229.614 191.485 228.408 191.485 226.176C191.485 223.998 190.639 222.774 189.145 222.774ZM201.368 227.022V221.406H203.276V231H201.368V229.704C200.738 230.73 199.73 231.234 198.506 231.234C196.544 231.234 195.32 230.082 195.32 227.814V221.406H197.246V227.418C197.246 228.804 197.822 229.632 199.1 229.632C200.504 229.632 201.368 228.354 201.368 227.022ZM205.621 231V221.406H207.547V222.828C208.177 221.676 209.167 221.154 210.283 221.154C210.661 221.154 211.021 221.244 211.201 221.406V223.098C210.913 223.008 210.571 222.972 210.175 222.972C208.339 222.972 207.547 224.088 207.547 225.762V231H205.621ZM212.512 220.218V218.04H214.438V220.218H212.512ZM212.512 231V221.406H214.438V231H212.512ZM225.28 227.868C224.758 230.1 223.102 231.234 220.852 231.234C218.026 231.234 216.298 229.344 216.298 226.212C216.298 222.954 218.026 221.154 220.762 221.154C223.534 221.154 225.208 223.026 225.208 226.104V226.572H218.26C218.368 228.534 219.286 229.632 220.852 229.632C222.076 229.632 222.94 229.056 223.264 227.868H225.28ZM220.762 222.756C219.376 222.756 218.548 223.638 218.314 225.258H223.21C222.976 223.638 222.13 222.756 220.762 222.756ZM230.737 231.234C228.199 231.234 226.669 229.344 226.669 226.212C226.669 222.954 228.235 221.154 230.737 221.154C231.835 221.154 232.735 221.604 233.347 222.486V218.04H235.273V231H233.347V229.83C232.735 230.73 231.835 231.234 230.737 231.234ZM230.989 229.614C232.519 229.614 233.347 228.426 233.347 226.212C233.347 224.016 232.483 222.774 230.989 222.774C229.459 222.774 228.631 223.998 228.631 226.212C228.631 228.39 229.495 229.614 230.989 229.614ZM241.129 220.218V218.04H243.055V220.218H241.129ZM241.129 231V221.406H243.055V231H241.129ZM245.383 231V221.406H247.309V222.684C247.957 221.658 248.965 221.154 250.207 221.154C252.205 221.154 253.447 222.324 253.447 224.592V231H251.539V224.988C251.539 223.602 250.927 222.756 249.613 222.756C248.173 222.756 247.309 224.034 247.309 225.366V231H245.383ZM267.44 224.754H265.514C265.28 223.386 264.398 222.774 263.282 222.774C261.68 222.774 260.816 223.998 260.816 226.212C260.816 228.39 261.716 229.632 263.336 229.632C264.488 229.632 265.298 229.002 265.586 227.778H267.494C267.08 230.172 265.424 231.234 263.3 231.234C260.528 231.234 258.854 229.326 258.854 226.212C258.854 222.954 260.564 221.154 263.282 221.154C265.424 221.154 267.116 222.36 267.44 224.754ZM273.303 231.234C270.513 231.234 268.821 229.344 268.821 226.212C268.821 222.954 270.567 221.154 273.303 221.154C276.093 221.154 277.785 223.08 277.785 226.212C277.785 229.452 276.039 231.234 273.303 231.234ZM273.303 229.614C274.941 229.614 275.823 228.426 275.823 226.212C275.823 224.016 274.923 222.774 273.303 222.774C271.683 222.774 270.783 223.98 270.783 226.212C270.783 228.39 271.683 229.614 273.303 229.614ZM279.66 231V221.406H281.586V222.63C282.198 221.64 283.152 221.154 284.286 221.154C285.564 221.154 286.518 221.712 286.986 222.81C287.616 221.712 288.66 221.154 289.92 221.154C291.81 221.154 293.034 222.324 293.034 224.592V231H291.108V224.988C291.108 223.602 290.586 222.756 289.398 222.756C288.102 222.756 287.31 224.034 287.31 225.366V231H285.384V224.988C285.384 223.602 284.844 222.756 283.674 222.756C282.378 222.756 281.586 224.034 281.586 225.366V231H279.66ZM297.301 234.96H295.375V221.406H297.301V222.558C297.913 221.658 298.813 221.154 299.911 221.154C302.449 221.154 303.979 223.044 303.979 226.176C303.979 229.434 302.413 231.234 299.911 231.234C298.813 231.234 297.913 230.784 297.301 229.902V234.96ZM299.677 222.774C298.129 222.774 297.301 223.98 297.301 226.176C297.301 228.372 298.165 229.614 299.677 229.614C301.189 229.614 302.017 228.39 302.017 226.176C302.017 223.998 301.153 222.774 299.677 222.774ZM305.852 231V218.04H307.778V231H305.852ZM318.62 227.868C318.098 230.1 316.442 231.234 314.192 231.234C311.366 231.234 309.638 229.344 309.638 226.212C309.638 222.954 311.366 221.154 314.102 221.154C316.874 221.154 318.548 223.026 318.548 226.104V226.572H311.6C311.708 228.534 312.626 229.632 314.192 229.632C315.416 229.632 316.28 229.056 316.604 227.868H318.62ZM314.102 222.756C312.716 222.756 311.888 223.638 311.654 225.258H316.55C316.316 223.638 315.47 222.756 314.102 222.756ZM326.19 231L324.138 228.048L323.67 227.238L323.202 228.048L321.204 231H319.08L322.626 226.014L319.35 221.406H321.672L323.454 223.998L323.922 224.826L324.39 223.998L326.136 221.406H328.242L324.966 226.014L328.512 231H326.19ZM336.909 231.234C334.371 231.234 332.841 229.344 332.841 226.212C332.841 222.954 334.407 221.154 336.909 221.154C338.007 221.154 338.907 221.604 339.519 222.486V218.04H341.445V231H339.519V229.83C338.907 230.73 338.007 231.234 336.909 231.234ZM337.161 229.614C338.691 229.614 339.519 228.426 339.519 226.212C339.519 224.016 338.655 222.774 337.161 222.774C335.631 222.774 334.803 223.998 334.803 226.212C334.803 228.39 335.667 229.614 337.161 229.614ZM345.586 224.538H343.66C343.966 222.414 345.424 221.154 347.818 221.154C350.428 221.154 351.724 222.684 351.724 224.916V228.66C351.724 229.812 351.832 230.478 352.048 231H350.032C349.888 230.64 349.834 230.136 349.816 229.596C349.006 230.73 347.764 231.234 346.612 231.234C344.668 231.234 343.336 230.316 343.336 228.48C343.336 227.166 344.056 226.194 345.496 225.708C346.774 225.276 348.07 225.168 349.798 225.15V224.934C349.798 223.53 349.15 222.774 347.674 222.774C346.432 222.774 345.766 223.458 345.586 224.538ZM345.28 228.408C345.28 229.218 345.946 229.722 346.972 229.722C348.574 229.722 349.798 228.444 349.798 226.896V226.464C346.108 226.5 345.28 227.31 345.28 228.408ZM355.669 223.926C355.669 226.374 361.807 224.322 361.807 228.228C361.807 230.046 360.169 231.234 357.847 231.234C355.525 231.234 353.887 230.154 353.527 227.868H355.453C355.651 229.074 356.551 229.74 357.901 229.74C359.197 229.74 359.881 229.164 359.881 228.354C359.881 225.96 353.833 227.976 353.833 224.034C353.833 222.54 355.003 221.154 357.433 221.154C359.575 221.154 361.159 222.144 361.465 224.538H359.539C359.323 223.188 358.567 222.684 357.343 222.684C356.281 222.684 355.669 223.206 355.669 223.926ZM363.561 231V218.04H365.487V222.684C366.135 221.658 367.143 221.154 368.385 221.154C370.383 221.154 371.625 222.324 371.625 224.592V231H369.717V224.988C369.717 223.602 369.105 222.756 367.791 222.756C366.351 222.756 365.487 224.034 365.487 225.366V231H363.561ZM375.893 231H373.967V218.04H375.893V222.522C376.505 221.64 377.405 221.154 378.503 221.154C381.023 221.154 382.553 223.044 382.553 226.176C382.553 229.434 380.987 231.234 378.503 231.234C377.405 231.234 376.505 230.784 375.893 229.92V231ZM378.251 222.774C376.703 222.774 375.893 223.98 375.893 226.176C375.893 228.372 376.739 229.614 378.251 229.614C379.763 229.614 380.591 228.408 380.591 226.176C380.591 223.998 379.745 222.774 378.251 222.774ZM388.44 231.234C385.65 231.234 383.958 229.344 383.958 226.212C383.958 222.954 385.704 221.154 388.44 221.154C391.23 221.154 392.922 223.08 392.922 226.212C392.922 229.452 391.176 231.234 388.44 231.234ZM388.44 229.614C390.078 229.614 390.96 228.426 390.96 226.212C390.96 224.016 390.06 222.774 388.44 222.774C386.82 222.774 385.92 223.98 385.92 226.212C385.92 228.39 386.82 229.614 388.44 229.614ZM396.615 224.538H394.689C394.995 222.414 396.453 221.154 398.847 221.154C401.457 221.154 402.753 222.684 402.753 224.916V228.66C402.753 229.812 402.861 230.478 403.077 231H401.061C400.917 230.64 400.863 230.136 400.845 229.596C400.035 230.73 398.793 231.234 397.641 231.234C395.697 231.234 394.365 230.316 394.365 228.48C394.365 227.166 395.085 226.194 396.525 225.708C397.803 225.276 399.099 225.168 400.827 225.15V224.934C400.827 223.53 400.179 222.774 398.703 222.774C397.461 222.774 396.795 223.458 396.615 224.538ZM396.309 228.408C396.309 229.218 396.975 229.722 398.001 229.722C399.603 229.722 400.827 228.444 400.827 226.896V226.464C397.137 226.5 396.309 227.31 396.309 228.408ZM405.168 231V221.406H407.094V222.828C407.724 221.676 408.714 221.154 409.83 221.154C410.208 221.154 410.568 221.244 410.748 221.406V223.098C410.46 223.008 410.118 222.972 409.722 222.972C407.886 222.972 407.094 224.088 407.094 225.762V231H405.168ZM415.483 231.234C412.945 231.234 411.415 229.344 411.415 226.212C411.415 222.954 412.981 221.154 415.483 221.154C416.581 221.154 417.481 221.604 418.093 222.486V218.04H420.019V231H418.093V229.83C417.481 230.73 416.581 231.234 415.483 231.234ZM415.735 229.614C417.265 229.614 418.093 228.426 418.093 226.212C418.093 224.016 417.229 222.774 415.735 222.774C414.205 222.774 413.377 223.998 413.377 226.212C413.377 228.39 414.241 229.614 415.735 229.614ZM423.872 223.926C423.872 226.374 430.01 224.322 430.01 228.228C430.01 230.046 428.372 231.234 426.05 231.234C423.728 231.234 422.09 230.154 421.73 227.868H423.656C423.854 229.074 424.754 229.74 426.104 229.74C427.4 229.74 428.084 229.164 428.084 228.354C428.084 225.96 422.036 227.976 422.036 224.034C422.036 222.54 423.206 221.154 425.636 221.154C427.778 221.154 429.362 222.144 429.668 224.538H427.742C427.526 223.188 426.77 222.684 425.546 222.684C424.484 222.684 423.872 223.206 423.872 223.926ZM431.602 231V228.786H433.834V229.974C433.834 231.702 433.528 232.782 432.826 234.024H431.782C432.214 232.944 432.502 232.116 432.502 231H431.602ZM439.551 231V221.406H441.477V222.63C442.089 221.64 443.043 221.154 444.177 221.154C445.455 221.154 446.409 221.712 446.877 222.81C447.507 221.712 448.551 221.154 449.811 221.154C451.701 221.154 452.925 222.324 452.925 224.592V231H450.999V224.988C450.999 223.602 450.477 222.756 449.289 222.756C447.993 222.756 447.201 224.034 447.201 225.366V231H445.275V224.988C445.275 223.602 444.735 222.756 443.565 222.756C442.269 222.756 441.477 224.034 441.477 225.366V231H439.551ZM457.084 224.538H455.158C455.464 222.414 456.922 221.154 459.316 221.154C461.926 221.154 463.222 222.684 463.222 224.916V228.66C463.222 229.812 463.33 230.478 463.546 231H461.53C461.386 230.64 461.332 230.136 461.314 229.596C460.504 230.73 459.262 231.234 458.11 231.234C456.166 231.234 454.834 230.316 454.834 228.48C454.834 227.166 455.554 226.194 456.994 225.708C458.272 225.276 459.568 225.168 461.296 225.15V224.934C461.296 223.53 460.648 222.774 459.172 222.774C457.93 222.774 457.264 223.458 457.084 224.538ZM456.778 228.408C456.778 229.218 457.444 229.722 458.47 229.722C460.072 229.722 461.296 228.444 461.296 226.896V226.464C457.606 226.5 456.778 227.31 456.778 228.408ZM465.637 231V218.04H467.563V225.474L471.379 221.406H473.683L469.543 225.672L473.935 231H471.541L467.563 226.212V231H465.637ZM475.34 220.218V218.04H477.266V220.218H475.34ZM475.34 231V221.406H477.266V231H475.34ZM479.594 231V221.406H481.52V222.684C482.168 221.658 483.176 221.154 484.418 221.154C486.416 221.154 487.658 222.324 487.658 224.592V231H485.75V224.988C485.75 223.602 485.138 222.756 483.824 222.756C482.384 222.756 481.52 224.034 481.52 225.366V231H479.594ZM493.456 231.054C491.008 231.054 489.532 229.182 489.532 226.122C489.532 222.918 491.044 221.154 493.456 221.154C494.68 221.154 495.598 221.586 496.21 222.414V221.406H498.136V231.306C498.136 233.934 496.39 235.212 494.086 235.212C491.782 235.212 490.126 234.132 489.784 231.9H491.71C491.89 233.052 492.808 233.664 494.068 233.664C495.346 233.664 496.21 232.998 496.21 231.342V229.722C495.562 230.604 494.626 231.054 493.456 231.054ZM493.852 229.434C495.382 229.434 496.21 228.264 496.21 226.104C496.21 223.998 495.346 222.774 493.852 222.774C492.322 222.774 491.494 223.944 491.494 226.122C491.494 228.228 492.34 229.434 493.852 229.434ZM504.01 220.218V218.04H505.936V220.218H504.01ZM504.01 231V221.406H505.936V231H504.01ZM508.516 228.138V222.9H507.22V221.406H508.516V219.192H510.442V221.406H512.512V222.9H510.442V228.03C510.442 229.128 510.748 229.65 512.098 229.65H512.476V231.054C512.26 231.162 511.81 231.234 511.27 231.234C509.398 231.234 508.516 230.208 508.516 228.138ZM517.492 231V218.04H519.418V222.684C520.066 221.658 521.074 221.154 522.316 221.154C524.314 221.154 525.556 222.324 525.556 224.592V231H523.648V224.988C523.648 223.602 523.036 222.756 521.722 222.756C520.282 222.756 519.418 224.034 519.418 225.366V231H517.492ZM529.717 224.538H527.791C528.097 222.414 529.555 221.154 531.949 221.154C534.559 221.154 535.855 222.684 535.855 224.916V228.66C535.855 229.812 535.963 230.478 536.179 231H534.163C534.019 230.64 533.965 230.136 533.947 229.596C533.137 230.73 531.895 231.234 530.743 231.234C528.799 231.234 527.467 230.316 527.467 228.48C527.467 227.166 528.187 226.194 529.627 225.708C530.905 225.276 532.201 225.168 533.929 225.15V224.934C533.929 223.53 533.281 222.774 531.805 222.774C530.563 222.774 529.897 223.458 529.717 224.538ZM529.411 228.408C529.411 229.218 530.077 229.722 531.103 229.722C532.705 229.722 533.929 228.444 533.929 226.896V226.464C530.239 226.5 529.411 227.31 529.411 228.408ZM538.27 231V221.406H540.196V222.828C540.826 221.676 541.816 221.154 542.932 221.154C543.31 221.154 543.67 221.244 543.85 221.406V223.098C543.562 223.008 543.22 222.972 542.824 222.972C540.988 222.972 540.196 224.088 540.196 225.762V231H538.27ZM548.584 231.234C546.046 231.234 544.516 229.344 544.516 226.212C544.516 222.954 546.082 221.154 548.584 221.154C549.682 221.154 550.582 221.604 551.194 222.486V218.04H553.12V231H551.194V229.83C550.582 230.73 549.682 231.234 548.584 231.234ZM548.836 229.614C550.366 229.614 551.194 228.426 551.194 226.212C551.194 224.016 550.33 222.774 548.836 222.774C547.306 222.774 546.478 223.998 546.478 226.212C546.478 228.39 547.342 229.614 548.836 229.614ZM559.229 228.138V222.9H557.933V221.406H559.229V219.192H561.155V221.406H563.225V222.9H561.155V228.03C561.155 229.128 561.461 229.65 562.811 229.65H563.189V231.054C562.973 231.162 562.523 231.234 561.983 231.234C560.111 231.234 559.229 230.208 559.229 228.138ZM568.686 231.234C565.896 231.234 564.204 229.344 564.204 226.212C564.204 222.954 565.95 221.154 568.686 221.154C571.476 221.154 573.168 223.08 573.168 226.212C573.168 229.452 571.422 231.234 568.686 231.234ZM568.686 229.614C570.324 229.614 571.206 228.426 571.206 226.212C571.206 224.016 570.306 222.774 568.686 222.774C567.066 222.774 566.166 223.98 566.166 226.212C566.166 228.39 567.066 229.614 568.686 229.614ZM580.106 223.926C580.106 226.374 586.244 224.322 586.244 228.228C586.244 230.046 584.606 231.234 582.284 231.234C579.962 231.234 578.324 230.154 577.964 227.868H579.89C580.088 229.074 580.988 229.74 582.338 229.74C583.634 229.74 584.318 229.164 584.318 228.354C584.318 225.96 578.27 227.976 578.27 224.034C578.27 222.54 579.44 221.154 581.87 221.154C584.012 221.154 585.596 222.144 585.902 224.538H583.976C583.76 223.188 583.004 222.684 581.78 222.684C580.718 222.684 580.106 223.206 580.106 223.926ZM589.924 234.96H587.998V221.406H589.924V222.558C590.536 221.658 591.436 221.154 592.534 221.154C595.072 221.154 596.602 223.044 596.602 226.176C596.602 229.434 595.036 231.234 592.534 231.234C591.436 231.234 590.536 230.784 589.924 229.902V234.96ZM592.3 222.774C590.752 222.774 589.924 223.98 589.924 226.176C589.924 228.372 590.788 229.614 592.3 229.614C593.812 229.614 594.64 228.39 594.64 226.176C594.64 223.998 593.776 222.774 592.3 222.774ZM602.489 231.234C599.699 231.234 598.007 229.344 598.007 226.212C598.007 222.954 599.753 221.154 602.489 221.154C605.279 221.154 606.971 223.08 606.971 226.212C606.971 229.452 605.225 231.234 602.489 231.234ZM602.489 229.614C604.127 229.614 605.009 228.426 605.009 226.212C605.009 224.016 604.109 222.774 602.489 222.774C600.869 222.774 599.969 223.98 599.969 226.212C599.969 228.39 600.869 229.614 602.489 229.614ZM609.098 228.138V222.9H607.802V221.406H609.098V219.192H611.024V221.406H613.094V222.9H611.024V228.03C611.024 229.128 611.33 229.65 612.68 229.65H613.058V231.054C612.842 231.162 612.392 231.234 611.852 231.234C609.98 231.234 609.098 230.208 609.098 228.138ZM619.892 224.538H617.966C618.272 222.414 619.73 221.154 622.124 221.154C624.734 221.154 626.03 222.684 626.03 224.916V228.66C626.03 229.812 626.138 230.478 626.354 231H624.338C624.194 230.64 624.14 230.136 624.122 229.596C623.312 230.73 622.07 231.234 620.918 231.234C618.974 231.234 617.642 230.316 617.642 228.48C617.642 227.166 618.362 226.194 619.802 225.708C621.08 225.276 622.376 225.168 624.104 225.15V224.934C624.104 223.53 623.456 222.774 621.98 222.774C620.738 222.774 620.072 223.458 619.892 224.538ZM619.586 228.408C619.586 229.218 620.252 229.722 621.278 229.722C622.88 229.722 624.104 228.444 624.104 226.896V226.464C620.414 226.5 619.586 227.31 619.586 228.408ZM636.563 224.754H634.637C634.403 223.386 633.521 222.774 632.405 222.774C630.803 222.774 629.939 223.998 629.939 226.212C629.939 228.39 630.839 229.632 632.459 229.632C633.611 229.632 634.421 229.002 634.709 227.778H636.617C636.203 230.172 634.547 231.234 632.423 231.234C629.651 231.234 627.977 229.326 627.977 226.212C627.977 222.954 629.687 221.154 632.405 221.154C634.547 221.154 636.239 222.36 636.563 224.754ZM638.664 228.138V222.9H637.368V221.406H638.664V219.192H640.59V221.406H642.66V222.9H640.59V228.03C640.59 229.128 640.896 229.65 642.246 229.65H642.624V231.054C642.408 231.162 641.958 231.234 641.418 231.234C639.546 231.234 638.664 230.208 638.664 228.138ZM644.108 220.218V218.04H646.034V220.218H644.108ZM644.108 231V221.406H646.034V231H644.108ZM652.375 231.234C649.585 231.234 647.893 229.344 647.893 226.212C647.893 222.954 649.639 221.154 652.375 221.154C655.165 221.154 656.857 223.08 656.857 226.212C656.857 229.452 655.111 231.234 652.375 231.234ZM652.375 229.614C654.013 229.614 654.895 228.426 654.895 226.212C654.895 224.016 653.995 222.774 652.375 222.774C650.755 222.774 649.855 223.98 649.855 226.212C649.855 228.39 650.755 229.614 652.375 229.614ZM658.733 231V221.406H660.659V222.684C661.307 221.658 662.314 221.154 663.557 221.154C665.555 221.154 666.797 222.324 666.797 224.592V231H664.889V224.988C664.889 223.602 664.277 222.756 662.963 222.756C661.523 222.756 660.659 224.034 660.659 225.366V231H658.733ZM670.957 224.538H669.031C669.337 222.414 670.795 221.154 673.189 221.154C675.799 221.154 677.095 222.684 677.095 224.916V228.66C677.095 229.812 677.203 230.478 677.419 231H675.403C675.259 230.64 675.205 230.136 675.187 229.596C674.377 230.73 673.135 231.234 671.983 231.234C670.039 231.234 668.707 230.316 668.707 228.48C668.707 227.166 669.427 226.194 670.867 225.708C672.145 225.276 673.441 225.168 675.169 225.15V224.934C675.169 223.53 674.521 222.774 673.045 222.774C671.803 222.774 671.137 223.458 670.957 224.538ZM670.651 228.408C670.651 229.218 671.317 229.722 672.343 229.722C673.945 229.722 675.169 228.444 675.169 226.896V226.464C671.479 226.5 670.651 227.31 670.651 228.408ZM681.436 231H679.51V218.04H681.436V222.522C682.048 221.64 682.948 221.154 684.046 221.154C686.566 221.154 688.096 223.044 688.096 226.176C688.096 229.434 686.53 231.234 684.046 231.234C682.948 231.234 682.048 230.784 681.436 229.92V231ZM683.794 222.774C682.246 222.774 681.436 223.98 681.436 226.176C681.436 228.372 682.282 229.614 683.794 229.614C685.306 229.614 686.134 228.408 686.134 226.176C686.134 223.998 685.288 222.774 683.794 222.774ZM689.969 231V218.04H691.895V231H689.969ZM702.737 227.868C702.215 230.1 700.559 231.234 698.309 231.234C695.483 231.234 693.755 229.344 693.755 226.212C693.755 222.954 695.483 221.154 698.219 221.154C700.991 221.154 702.665 223.026 702.665 226.104V226.572H695.717C695.825 228.534 696.743 229.632 698.309 229.632C699.533 229.632 700.397 229.056 700.721 227.868H702.737ZM698.219 222.756C696.833 222.756 696.005 223.638 695.771 225.258H700.667C700.433 223.638 699.587 222.756 698.219 222.756ZM708.127 220.218V218.04H710.053V220.218H708.127ZM708.127 231V221.406H710.053V231H708.127ZM712.381 231V221.406H714.307V222.684C714.955 221.658 715.963 221.154 717.205 221.154C719.203 221.154 720.445 222.324 720.445 224.592V231H718.537V224.988C718.537 223.602 717.925 222.756 716.611 222.756C715.171 222.756 714.307 224.034 714.307 225.366V231H712.381ZM724.317 223.926C724.317 226.374 730.455 224.322 730.455 228.228C730.455 230.046 728.817 231.234 726.495 231.234C724.173 231.234 722.535 230.154 722.175 227.868H724.101C724.299 229.074 725.199 229.74 726.549 229.74C727.845 229.74 728.529 229.164 728.529 228.354C728.529 225.96 722.481 227.976 722.481 224.034C722.481 222.54 723.651 221.154 726.081 221.154C728.223 221.154 729.807 222.144 730.113 224.538H728.187C727.971 223.188 727.215 222.684 725.991 222.684C724.929 222.684 724.317 223.206 724.317 223.926ZM732.209 220.218V218.04H734.135V220.218H732.209ZM732.209 231V221.406H734.135V231H732.209ZM739.919 231.054C737.471 231.054 735.995 229.182 735.995 226.122C735.995 222.918 737.507 221.154 739.919 221.154C741.143 221.154 742.061 221.586 742.673 222.414V221.406H744.599V231.306C744.599 233.934 742.853 235.212 740.549 235.212C738.245 235.212 736.589 234.132 736.247 231.9H738.173C738.353 233.052 739.271 233.664 740.531 233.664C741.809 233.664 742.673 232.998 742.673 231.342V229.722C742.025 230.604 741.089 231.054 739.919 231.054ZM740.315 229.434C741.845 229.434 742.673 228.264 742.673 226.104C742.673 223.998 741.809 222.774 740.315 222.774C738.785 222.774 737.957 223.944 737.957 226.122C737.957 228.228 738.803 229.434 740.315 229.434ZM746.94 231V218.04H748.866V222.684C749.514 221.658 750.522 221.154 751.764 221.154C753.762 221.154 755.004 222.324 755.004 224.592V231H753.096V224.988C753.096 223.602 752.484 222.756 751.17 222.756C749.73 222.756 748.866 224.034 748.866 225.366V231H746.94ZM757.598 228.138V222.9H756.302V221.406H757.598V219.192H759.524V221.406H761.594V222.9H759.524V228.03C759.524 229.128 759.83 229.65 761.18 229.65H761.558V231.054C761.342 231.162 760.892 231.234 760.352 231.234C758.48 231.234 757.598 230.208 757.598 228.138ZM764.571 223.926C764.571 226.374 770.709 224.322 770.709 228.228C770.709 230.046 769.071 231.234 766.749 231.234C764.427 231.234 762.789 230.154 762.429 227.868H764.355C764.553 229.074 765.453 229.74 766.803 229.74C768.099 229.74 768.783 229.164 768.783 228.354C768.783 225.96 762.735 227.976 762.735 224.034C762.735 222.54 763.905 221.154 766.335 221.154C768.477 221.154 770.061 222.144 770.367 224.538H768.441C768.225 223.188 767.469 222.684 766.245 222.684C765.183 222.684 764.571 223.206 764.571 223.926ZM772.301 231V228.786H774.533V231H772.301Z" fill="#470000"/>
</svg>
