<svg width="982" height="383" viewBox="0 0 982 383" fill="none" xmlns="http://www.w3.org/2000/svg">
<rect y="0.147217" width="302" height="382.706" rx="24" fill="#D0FFB1"/>
<path d="M67.96 60.1472V46.5472H72.96C75.84 46.5472 77.66 47.9672 77.66 50.2472C77.66 51.5072 77.02 52.4872 75.84 52.9872C77.52 53.4872 78.42 54.6672 78.42 56.2672C78.42 58.7272 76.64 60.1472 73.64 60.1472H67.96ZM72.9 48.3272H70.2V52.3272H72.86C74.46 52.3272 75.36 51.5272 75.36 50.3672C75.36 49.1072 74.44 48.3272 72.9 48.3272ZM73.36 54.0672H70.2V58.3672H73.58C75.16 58.3672 76.12 57.5072 76.12 56.2072C76.12 54.9072 75.1 54.0672 73.36 54.0672ZM80.6553 60.1472V46.5472H90.0353V48.3472H82.8953V52.2272H89.2753V54.0072H82.8953V58.3472H90.0353V60.1472H80.6553ZM92.335 60.1472V46.5472H101.715V48.3472H94.575V52.6272H100.955V54.4272H94.575V60.1472H92.335ZM109.645 60.4072C105.585 60.4072 103.105 57.7272 103.105 53.3672C103.105 49.0072 105.585 46.2872 109.645 46.2872C113.665 46.2872 116.165 49.0072 116.165 53.3672C116.165 57.7272 113.665 60.4072 109.645 60.4072ZM109.645 58.5272C112.305 58.5272 113.885 56.5672 113.885 53.3672C113.885 50.1472 112.305 48.1672 109.645 48.1672C106.985 48.1672 105.385 50.1472 105.385 53.3672C105.385 56.5672 106.985 58.5272 109.645 58.5272ZM118.605 60.1472V46.5472H123.705C126.645 46.5472 128.505 48.0672 128.505 50.4672C128.505 52.0072 127.805 53.0872 126.585 53.6872C127.385 54.1072 127.825 54.8472 128.125 56.0672L129.145 60.1472H126.785L125.965 56.5072C125.605 54.9472 125.005 54.6472 123.505 54.6472H120.845V60.1472H118.605ZM123.645 48.3472H120.845V52.8472H123.605C125.265 52.8472 126.205 51.9672 126.205 50.5872C126.205 49.2272 125.265 48.3472 123.645 48.3472ZM131.202 60.1472V46.5472H140.582V48.3472H133.442V52.2272H139.822V54.0072H133.442V58.3472H140.582V60.1472H131.202ZM150.077 60.1472V48.4272H145.537V46.5472H156.837V48.4272H152.317V60.1472H150.077ZM158.878 60.1472V46.5472H161.118V52.2472H167.718V46.5472H169.958V60.1472H167.718V54.0672H161.118V60.1472H158.878ZM172.882 60.1472V46.5472H182.262V48.3472H175.122V52.2272H181.502V54.0072H175.122V58.3472H182.262V60.1472H172.882ZM189.317 46.5472L193.177 56.6672L193.577 58.0272L193.977 56.6672L197.837 46.5472H200.057L194.817 60.1472H192.217L186.957 46.5472H189.317ZM201.866 60.1472V46.5472H204.106V60.1472H201.866ZM208.843 49.9072C208.843 53.4872 217.083 50.6672 217.083 56.2272C217.083 58.9072 214.903 60.4072 211.923 60.4072C208.903 60.4072 206.823 59.0272 206.263 56.1872H208.603C208.983 57.7272 210.123 58.5672 211.943 58.5672C213.803 58.5672 214.783 57.7472 214.783 56.5272C214.783 52.6872 206.543 55.5472 206.543 50.0872C206.543 48.0472 208.263 46.2872 211.363 46.2872C214.043 46.2872 216.243 47.5672 216.723 50.5472H214.343C213.963 48.8672 212.903 48.1272 211.303 48.1272C209.743 48.1272 208.843 48.8272 208.843 49.9072ZM219.249 60.1472V46.5472H221.489V60.1472H219.249ZM228.065 60.1472V48.4272H223.525V46.5472H234.825V48.4272H230.305V60.1472H228.065Z" fill="#004733"/>
<rect x="66.1472" y="174" width="120" height="120" rx="12" transform="rotate(-45 66.1472 174)" fill="#A1F667"/>
<path d="M56.6909 306.853V293.253H58.5309V306.853H56.6909ZM61.6318 297.933L61.3118 293.253H63.2318L62.8918 297.933H61.6318ZM65.8473 306.853V296.233H67.6073V297.593C68.2873 296.513 69.3473 295.973 70.6473 295.973C72.1073 295.973 73.1673 296.613 73.6673 297.853C74.3673 296.613 75.5273 295.973 76.9473 295.973C79.1073 295.973 80.4073 297.293 80.4073 299.753V306.853H78.6473V300.113C78.6473 298.513 78.0073 297.473 76.5673 297.473C74.9673 297.473 74.0073 299.053 74.0073 300.573V306.853H72.2473V300.113C72.2473 298.513 71.6073 297.473 70.1673 297.473C68.5673 297.473 67.6073 299.053 67.6073 300.573V306.853H65.8473ZM88.8345 299.693H87.0745C87.4145 297.353 88.9545 295.973 91.5545 295.973C94.3945 295.973 95.7745 297.633 95.7745 300.113V304.293C95.7745 305.513 95.8745 306.273 96.1545 306.853H94.2945C94.0945 306.433 94.0345 305.813 94.0145 305.173C93.1145 306.513 91.6745 307.093 90.3945 307.093C88.1945 307.093 86.7145 306.073 86.7145 304.053C86.7145 302.593 87.5145 301.533 89.0745 301.013C90.5145 300.533 91.9745 300.413 94.0145 300.393V300.153C94.0145 298.433 93.2145 297.493 91.3945 297.493C89.8745 297.493 89.0545 298.333 88.8345 299.693ZM88.5145 304.013C88.5145 304.993 89.3345 305.573 90.5745 305.573C92.5345 305.573 94.0145 304.033 94.0145 302.213V301.713C89.4945 301.753 88.5145 302.713 88.5145 304.013ZM98.6598 306.853V292.453H100.42V306.853H98.6598ZM103.211 306.853V296.233H104.971V297.873C105.691 296.573 106.831 295.973 108.111 295.973C108.531 295.973 108.911 296.073 109.111 296.233V297.813C108.811 297.713 108.431 297.673 108.011 297.673C105.891 297.673 104.971 298.993 104.971 300.913V306.853H103.211ZM119.656 303.393C119.076 305.873 117.296 307.093 114.876 307.093C111.796 307.093 109.936 305.013 109.936 301.553C109.936 297.953 111.796 295.973 114.776 295.973C117.776 295.973 119.576 298.033 119.576 301.413V301.853H111.736C111.836 304.233 112.956 305.573 114.876 305.573C116.376 305.573 117.436 304.853 117.816 303.393H119.656ZM114.776 297.493C113.076 297.493 112.056 298.553 111.796 300.533H117.736C117.496 298.573 116.436 297.493 114.776 297.493ZM123.541 299.693H121.781C122.121 297.353 123.661 295.973 126.261 295.973C129.101 295.973 130.481 297.633 130.481 300.113V304.293C130.481 305.513 130.581 306.273 130.861 306.853H129.001C128.801 306.433 128.741 305.813 128.721 305.173C127.821 306.513 126.381 307.093 125.101 307.093C122.901 307.093 121.421 306.073 121.421 304.053C121.421 302.593 122.221 301.533 123.781 301.013C125.221 300.533 126.681 300.413 128.721 300.393V300.153C128.721 298.433 127.921 297.493 126.101 297.493C124.581 297.493 123.761 298.333 123.541 299.693ZM123.221 304.013C123.221 304.993 124.041 305.573 125.281 305.573C127.241 305.573 128.721 304.033 128.721 302.213V301.713C124.201 301.753 123.221 302.713 123.221 304.013ZM137.347 307.093C134.527 307.093 132.827 305.013 132.827 301.553C132.827 297.953 134.567 295.973 137.347 295.973C138.607 295.973 139.627 296.493 140.327 297.473V292.453H142.087V306.853H140.327V305.513C139.627 306.513 138.607 307.093 137.347 307.093ZM137.467 305.573C139.327 305.573 140.327 304.153 140.327 301.553C140.327 298.973 139.287 297.493 137.467 297.493C135.627 297.493 134.627 298.933 134.627 301.553C134.627 304.113 135.667 305.573 137.467 305.573ZM145.37 311.493C144.97 311.493 144.55 311.393 144.33 311.333V309.973H144.87C146.17 309.973 146.53 309.713 147.57 307.333L147.93 306.513L143.59 296.233H145.49L148.37 303.253L148.85 304.673L149.33 303.253L152.13 296.233H153.93L148.97 308.253C147.91 310.813 147.21 311.493 145.37 311.493ZM161.201 306.853H159.441V292.453H161.201V297.553C161.901 296.553 162.921 295.973 164.181 295.973C167.001 295.973 168.701 298.053 168.701 301.513C168.701 305.113 166.961 307.093 164.181 307.093C162.921 307.093 161.901 306.573 161.201 305.593V306.853ZM164.061 297.493C162.201 297.493 161.201 298.913 161.201 301.513C161.201 304.093 162.241 305.573 164.061 305.573C165.901 305.573 166.901 304.133 166.901 301.513C166.901 298.953 165.861 297.493 164.061 297.493ZM180.144 303.393C179.564 305.873 177.784 307.093 175.364 307.093C172.284 307.093 170.424 305.013 170.424 301.553C170.424 297.953 172.284 295.973 175.264 295.973C178.264 295.973 180.064 298.033 180.064 301.413V301.853H172.224C172.324 304.233 173.444 305.573 175.364 305.573C176.864 305.573 177.924 304.853 178.304 303.393H180.144ZM175.264 297.493C173.564 297.493 172.544 298.553 172.284 300.533H178.224C177.984 298.573 176.924 297.493 175.264 297.493ZM182.41 306.853V292.453H184.17V297.673C184.89 296.553 186.05 295.973 187.45 295.973C189.71 295.973 191.05 297.293 191.05 299.753V306.853H189.29V300.113C189.29 298.513 188.57 297.473 186.97 297.473C185.21 297.473 184.17 299.053 184.17 300.573V306.853H182.41ZM193.855 294.813V292.453H195.615V294.813H193.855ZM193.855 306.853V296.233H195.615V306.853H193.855ZM198.406 306.853V296.233H200.166V297.673C200.886 296.553 202.046 295.973 203.446 295.973C205.706 295.973 207.046 297.293 207.046 299.753V306.853H205.286V300.113C205.286 298.513 204.566 297.473 202.966 297.473C201.206 297.473 200.166 299.053 200.166 300.573V306.853H198.406ZM213.831 307.093C211.011 307.093 209.311 305.013 209.311 301.553C209.311 297.953 211.051 295.973 213.831 295.973C215.091 295.973 216.111 296.493 216.811 297.473V292.453H218.571V306.853H216.811V305.513C216.111 306.513 215.091 307.093 213.831 307.093ZM213.951 305.573C215.811 305.573 216.811 304.153 216.811 301.553C216.811 298.973 215.771 297.493 213.951 297.493C212.111 297.493 211.111 298.933 211.111 301.553C211.111 304.113 212.151 305.573 213.951 305.573ZM229.699 307.093C226.659 307.093 224.839 305.013 224.839 301.553C224.839 297.953 226.719 295.973 229.699 295.973C232.739 295.973 234.559 298.093 234.559 301.553C234.559 305.133 232.679 307.093 229.699 307.093ZM229.699 305.573C231.679 305.573 232.759 304.153 232.759 301.553C232.759 298.973 231.659 297.493 229.699 297.493C227.719 297.493 226.639 298.933 226.639 301.553C226.639 304.113 227.739 305.573 229.699 305.573ZM236.824 306.853V296.233H238.584V297.673C239.304 296.553 240.464 295.973 241.864 295.973C244.124 295.973 245.464 297.293 245.464 299.753V306.853H243.704V300.113C243.704 298.513 242.984 297.473 241.384 297.473C239.624 297.473 238.584 299.053 238.584 300.573V306.853H236.824ZM124.802 332.853V322.233H126.562V323.673C127.282 322.553 128.442 321.973 129.842 321.973C132.102 321.973 133.442 323.293 133.442 325.753V332.853H131.682V326.113C131.682 324.513 130.962 323.473 129.362 323.473C127.602 323.473 126.562 325.053 126.562 326.573V332.853H124.802ZM140.568 333.093C137.528 333.093 135.708 331.013 135.708 327.553C135.708 323.953 137.588 321.973 140.568 321.973C143.608 321.973 145.428 324.093 145.428 327.553C145.428 331.133 143.548 333.093 140.568 333.093ZM140.568 331.573C142.548 331.573 143.628 330.153 143.628 327.553C143.628 324.973 142.528 323.493 140.568 323.493C138.588 323.493 137.508 324.933 137.508 327.553C137.508 330.113 138.608 331.573 140.568 331.573ZM147.933 329.793V323.633H146.453V322.233H147.933V319.793H149.693V322.233H152.033V323.633H149.693V329.793C149.693 331.073 150.073 331.673 151.633 331.673H151.993V332.933C151.793 333.033 151.353 333.093 150.853 333.093C148.873 333.093 147.933 332.033 147.933 329.793ZM162.889 329.393C162.309 331.873 160.529 333.093 158.109 333.093C155.029 333.093 153.169 331.013 153.169 327.553C153.169 323.953 155.029 321.973 158.009 321.973C161.009 321.973 162.809 324.033 162.809 327.413V327.853H154.969C155.069 330.233 156.189 331.573 158.109 331.573C159.609 331.573 160.669 330.853 161.049 329.393H162.889ZM158.009 323.493C156.309 323.493 155.289 324.553 155.029 326.533H160.969C160.729 324.573 159.669 323.493 158.009 323.493ZM166.454 324.953C166.454 327.913 173.354 325.473 173.354 329.853C173.354 331.833 171.594 333.093 169.094 333.093C166.574 333.093 164.814 331.893 164.414 329.393H166.174C166.414 330.873 167.514 331.693 169.154 331.693C170.754 331.693 171.594 330.973 171.594 329.973C171.594 327.073 164.774 329.473 164.774 325.073C164.774 323.453 166.034 321.973 168.634 321.973C170.934 321.973 172.634 323.053 172.974 325.693H171.214C170.954 324.033 170.034 323.413 168.534 323.413C167.214 323.413 166.454 324.073 166.454 324.953ZM175.247 332.853V330.693H177.407V332.853H175.247Z" fill="#004733"/>
<path d="M321.527 196.5L320.761 195.744L323.913 192.592H315.75V191.499H323.913L320.761 188.357L321.527 187.591L325.982 192.045L321.527 196.5Z" fill="black"/>
<rect x="339.752" width="302" height="383" rx="24" fill="#00A47C"/>
<path d="M408.212 60V46.4H412.872C417.132 46.4 419.772 48.96 419.772 53.22C419.772 57.48 417.132 60 412.872 60H408.212ZM412.872 58.18C415.772 58.18 417.492 56.34 417.492 53.22C417.492 50.06 415.772 48.22 412.872 48.22H410.452V58.18H412.872ZM433.176 54.82C433.176 58.2 431.056 60.26 427.636 60.26C424.216 60.26 422.096 58.2 422.096 54.82V46.4H424.336V54.82C424.336 57.1 425.576 58.46 427.636 58.46C429.716 58.46 430.936 57.08 430.936 54.82V46.4H433.176V54.82ZM435.927 60V46.4H441.027C443.967 46.4 445.827 47.92 445.827 50.32C445.827 51.86 445.127 52.94 443.907 53.54C444.707 53.96 445.147 54.7 445.447 55.92L446.467 60H444.107L443.287 56.36C442.927 54.8 442.327 54.5 440.827 54.5H438.167V60H435.927ZM440.967 48.2H438.167V52.7H440.927C442.587 52.7 443.527 51.82 443.527 50.44C443.527 49.08 442.587 48.2 440.967 48.2ZM448.525 60V46.4H450.765V60H448.525ZM453.681 60V46.4H456.021L461.721 55.28L462.581 56.88L462.521 46.4H464.761V60H462.421L456.741 51.16L455.861 49.5L455.921 60H453.681ZM479.145 60H477.525L477.345 58.08C476.505 59.56 475.045 60.26 473.305 60.26C469.585 60.26 467.205 57.6 467.205 53.22C467.205 48.86 469.585 46.14 473.505 46.14C476.205 46.14 478.525 47.62 479.165 50.44H476.825C476.345 48.88 475.065 48.02 473.445 48.02C470.965 48.02 469.485 50 469.485 53.22C469.485 56.44 470.985 58.38 473.505 58.38C475.365 58.38 476.865 57.26 477.005 54.66H473.785V52.92H479.145V60ZM489.001 60V48.28H484.461V46.4H495.761V48.28H491.241V60H489.001ZM497.802 60V46.4H500.042V52.1H506.642V46.4H508.882V60H506.642V53.92H500.042V60H497.802ZM511.806 60V46.4H521.186V48.2H514.046V52.08H520.426V53.86H514.046V58.2H521.186V60H511.806ZM528.241 46.4L532.101 56.52L532.501 57.88L532.901 56.52L536.761 46.4H538.981L533.741 60H531.141L525.881 46.4H528.241ZM540.79 60V46.4H543.03V60H540.79ZM547.767 49.76C547.767 53.34 556.007 50.52 556.007 56.08C556.007 58.76 553.827 60.26 550.847 60.26C547.827 60.26 545.747 58.88 545.187 56.04H547.527C547.907 57.58 549.047 58.42 550.867 58.42C552.727 58.42 553.707 57.6 553.707 56.38C553.707 52.54 545.467 55.4 545.467 49.94C545.467 47.9 547.187 46.14 550.287 46.14C552.967 46.14 555.167 47.42 555.647 50.4H553.267C552.887 48.72 551.827 47.98 550.227 47.98C548.667 47.98 547.767 48.68 547.767 49.76ZM558.173 60V46.4H560.413V60H558.173ZM566.99 60V48.28H562.45V46.4H573.75V48.28H569.23V60H566.99Z" fill="#D4FEB2"/>
<path d="M490.752 89L524.798 105.913L558.917 122.671L567.252 160.518L575.752 198.328L552.101 228.61L528.581 259L490.752 258.913L452.924 259L429.404 228.61L405.752 198.328L414.252 160.518L422.588 122.671L456.707 105.913L490.752 89Z" fill="#00D6A3"/>
<path d="M408.758 307V293.4H410.598V307H408.758ZM419.182 299.84H417.422C417.762 297.5 419.302 296.12 421.902 296.12C424.742 296.12 426.122 297.78 426.122 300.26V304.44C426.122 305.66 426.222 306.42 426.502 307H424.642C424.442 306.58 424.382 305.96 424.362 305.32C423.462 306.66 422.022 307.24 420.742 307.24C418.542 307.24 417.062 306.22 417.062 304.2C417.062 302.74 417.862 301.68 419.422 301.16C420.862 300.68 422.322 300.56 424.362 300.54V300.3C424.362 298.58 423.562 297.64 421.742 297.64C420.222 297.64 419.402 298.48 419.182 299.84ZM418.862 304.16C418.862 305.14 419.682 305.72 420.922 305.72C422.882 305.72 424.362 304.18 424.362 302.36V301.86C419.842 301.9 418.862 302.86 418.862 304.16ZM429.008 307V296.38H430.768V297.74C431.448 296.66 432.508 296.12 433.808 296.12C435.268 296.12 436.328 296.76 436.828 298C437.528 296.76 438.688 296.12 440.108 296.12C442.268 296.12 443.568 297.44 443.568 299.9V307H441.808V300.26C441.808 298.66 441.168 297.62 439.728 297.62C438.128 297.62 437.168 299.2 437.168 300.72V307H435.408V300.26C435.408 298.66 434.768 297.62 433.328 297.62C431.728 297.62 430.768 299.2 430.768 300.72V307H429.008ZM450.615 303.94V297.78H449.135V296.38H450.615V293.94H452.375V296.38H454.715V297.78H452.375V303.94C452.375 305.22 452.755 305.82 454.315 305.82H454.675V307.08C454.475 307.18 454.035 307.24 453.535 307.24C451.555 307.24 450.615 306.18 450.615 303.94ZM456.391 307V296.38H458.151V298.02C458.871 296.72 460.011 296.12 461.291 296.12C461.711 296.12 462.091 296.22 462.291 296.38V297.96C461.991 297.86 461.611 297.82 461.191 297.82C459.071 297.82 458.151 299.14 458.151 301.06V307H456.391ZM464.332 311.64C463.932 311.64 463.512 311.54 463.292 311.48V310.12H463.832C465.132 310.12 465.492 309.86 466.532 307.48L466.892 306.66L462.552 296.38H464.452L467.332 303.4L467.812 304.82L468.292 303.4L471.092 296.38H472.892L467.932 308.4C466.872 310.96 466.172 311.64 464.332 311.64ZM474.398 294.96V292.6H476.158V294.96H474.398ZM474.398 307V296.38H476.158V307H474.398ZM478.949 307V296.38H480.709V297.82C481.429 296.7 482.589 296.12 483.989 296.12C486.249 296.12 487.589 297.44 487.589 299.9V307H485.829V300.26C485.829 298.66 485.109 297.62 483.509 297.62C481.749 297.62 480.709 299.2 480.709 300.72V307H478.949ZM494.175 307.08C491.475 307.08 489.855 305.02 489.855 301.62C489.855 298.06 491.515 296.12 494.175 296.12C495.595 296.12 496.655 296.62 497.355 297.54V296.38H499.115V307.32C499.115 310.28 497.215 311.66 494.775 311.66C492.275 311.66 490.515 310.46 490.135 308.04H491.895C492.115 309.44 493.215 310.2 494.755 310.2C496.315 310.2 497.355 309.36 497.355 307.38V305.56C496.615 306.56 495.535 307.08 494.175 307.08ZM494.495 305.56C496.355 305.56 497.355 304.16 497.355 301.6C497.355 299.1 496.315 297.64 494.495 297.64C492.655 297.64 491.655 299.04 491.655 301.62C491.655 304.12 492.675 305.56 494.495 305.56ZM506.181 303.94V297.78H504.701V296.38H506.181V293.94H507.941V296.38H510.281V297.78H507.941V303.94C507.941 305.22 508.321 305.82 509.881 305.82H510.241V307.08C510.041 307.18 509.601 307.24 509.101 307.24C507.121 307.24 506.181 306.18 506.181 303.94ZM516.277 307.24C513.237 307.24 511.417 305.16 511.417 301.7C511.417 298.1 513.297 296.12 516.277 296.12C519.317 296.12 521.137 298.24 521.137 301.7C521.137 305.28 519.257 307.24 516.277 307.24ZM516.277 305.72C518.257 305.72 519.337 304.3 519.337 301.7C519.337 299.12 518.237 297.64 516.277 297.64C514.297 297.64 513.217 299.08 513.217 301.7C513.217 304.26 514.317 305.72 516.277 305.72ZM527.406 307V292.6H529.166V307H527.406ZM531.957 294.96V292.6H533.717V294.96H531.957ZM531.957 307V296.38H533.717V307H531.957ZM537.808 299.1C537.808 302.06 544.708 299.62 544.708 304C544.708 305.98 542.948 307.24 540.448 307.24C537.928 307.24 536.168 306.04 535.768 303.54H537.528C537.768 305.02 538.868 305.84 540.508 305.84C542.108 305.84 542.948 305.12 542.948 304.12C542.948 301.22 536.128 303.62 536.128 299.22C536.128 297.6 537.388 296.12 539.988 296.12C542.288 296.12 543.988 297.2 544.328 299.84H542.568C542.308 298.18 541.388 297.56 539.888 297.56C538.568 297.56 537.808 298.22 537.808 299.1ZM547.041 303.94V297.78H545.561V296.38H547.041V293.94H548.801V296.38H551.141V297.78H548.801V303.94C548.801 305.22 549.181 305.82 550.741 305.82H551.101V307.08C550.901 307.18 550.461 307.24 549.961 307.24C547.981 307.24 547.041 306.18 547.041 303.94ZM561.996 303.54C561.416 306.02 559.636 307.24 557.216 307.24C554.136 307.24 552.276 305.16 552.276 301.7C552.276 298.1 554.136 296.12 557.116 296.12C560.116 296.12 561.916 298.18 561.916 301.56V302H554.076C554.176 304.38 555.296 305.72 557.216 305.72C558.716 305.72 559.776 305 560.156 303.54H561.996ZM557.116 297.64C555.416 297.64 554.396 298.7 554.136 300.68H560.076C559.836 298.72 558.776 297.64 557.116 297.64ZM564.262 307V296.38H566.022V297.82C566.742 296.7 567.902 296.12 569.302 296.12C571.562 296.12 572.902 297.44 572.902 299.9V307H571.142V300.26C571.142 298.66 570.422 297.62 568.822 297.62C567.062 297.62 566.022 299.2 566.022 300.72V307H564.262ZM395.171 333L392.871 325.06L392.631 323.86L392.391 325.06L390.111 333H387.931L384.771 322.38H386.671L388.851 330.62L389.111 331.7L389.371 330.62L391.791 322.38H393.691L396.111 330.62L396.351 331.66L396.571 330.62L398.751 322.38H400.571L397.391 333H395.171ZM402.162 333V318.6H403.922V323.82C404.642 322.7 405.802 322.12 407.202 322.12C409.462 322.12 410.802 323.44 410.802 325.9V333H409.042V326.26C409.042 324.66 408.322 323.62 406.722 323.62C404.962 323.62 403.922 325.2 403.922 326.72V333H402.162ZM413.607 320.96V318.6H415.367V320.96H413.607ZM413.607 333V322.38H415.367V333H413.607ZM418.158 333V318.6H419.918V333H418.158ZM431.889 329.54C431.309 332.02 429.529 333.24 427.109 333.24C424.029 333.24 422.169 331.16 422.169 327.7C422.169 324.1 424.029 322.12 427.009 322.12C430.009 322.12 431.809 324.18 431.809 327.56V328H423.969C424.069 330.38 425.189 331.72 427.109 331.72C428.609 331.72 429.669 331 430.049 329.54H431.889ZM427.009 323.64C425.309 323.64 424.289 324.7 424.029 326.68H429.969C429.729 324.72 428.669 323.64 427.009 323.64ZM438.398 329.94V323.78H436.918V322.38H438.398V319.94H440.158V322.38H442.498V323.78H440.158V329.94C440.158 331.22 440.538 331.82 442.098 331.82H442.458V333.08C442.258 333.18 441.818 333.24 441.318 333.24C439.338 333.24 438.398 332.18 438.398 329.94ZM444.654 337.64C444.254 337.64 443.834 337.54 443.614 337.48V336.12H444.154C445.454 336.12 445.814 335.86 446.854 333.48L447.214 332.66L442.874 322.38H444.774L447.654 329.4L448.134 330.82L448.614 329.4L451.414 322.38H453.214L448.254 334.4C447.194 336.96 446.494 337.64 444.654 337.64ZM456.501 337.4H454.741V322.38H456.501V323.7C457.201 322.7 458.221 322.12 459.481 322.12C462.301 322.12 464.001 324.2 464.001 327.66C464.001 331.26 462.261 333.24 459.481 333.24C458.221 333.24 457.201 332.72 456.501 331.74V337.4ZM459.361 323.64C457.501 323.64 456.501 325.06 456.501 327.66C456.501 330.24 457.541 331.72 459.361 331.72C461.201 331.72 462.201 330.28 462.201 327.66C462.201 325.1 461.161 323.64 459.361 323.64ZM466.264 320.96V318.6H468.024V320.96H466.264ZM466.264 333V322.38H468.024V333H466.264ZM470.814 333V322.38H472.574V323.82C473.294 322.7 474.454 322.12 475.854 322.12C478.114 322.12 479.454 323.44 479.454 325.9V333H477.694V326.26C477.694 324.66 476.974 323.62 475.374 323.62C473.614 323.62 472.574 325.2 472.574 326.72V333H470.814ZM486.04 333.08C483.34 333.08 481.72 331.02 481.72 327.62C481.72 324.06 483.38 322.12 486.04 322.12C487.46 322.12 488.52 322.62 489.22 323.54V322.38H490.98V333.32C490.98 336.28 489.08 337.66 486.64 337.66C484.14 337.66 482.38 336.46 482 334.04H483.76C483.98 335.44 485.08 336.2 486.62 336.2C488.18 336.2 489.22 335.36 489.22 333.38V331.56C488.48 332.56 487.4 333.08 486.04 333.08ZM486.36 331.56C488.22 331.56 489.22 330.16 489.22 327.6C489.22 325.1 488.18 323.64 486.36 323.64C484.52 323.64 483.52 325.04 483.52 327.62C483.52 330.12 484.54 331.56 486.36 331.56ZM506.987 329.54C506.407 332.02 504.627 333.24 502.207 333.24C499.127 333.24 497.267 331.16 497.267 327.7C497.267 324.1 499.127 322.12 502.107 322.12C505.107 322.12 506.907 324.18 506.907 327.56V328H499.067C499.167 330.38 500.287 331.72 502.207 331.72C503.707 331.72 504.767 331 505.147 329.54H506.987ZM502.107 323.64C500.407 323.64 499.387 324.7 499.127 326.68H505.067C504.827 324.72 503.767 323.64 502.107 323.64ZM511.717 333L507.757 322.38H509.657L512.597 330.62L512.857 331.54L513.117 330.62L516.057 322.38H517.837L513.877 333H511.717ZM528.51 329.54C527.93 332.02 526.15 333.24 523.73 333.24C520.65 333.24 518.79 331.16 518.79 327.7C518.79 324.1 520.65 322.12 523.63 322.12C526.63 322.12 528.43 324.18 528.43 327.56V328H520.59C520.69 330.38 521.81 331.72 523.73 331.72C525.23 331.72 526.29 331 526.67 329.54H528.51ZM523.63 323.64C521.93 323.64 520.91 324.7 520.65 326.68H526.59C526.35 324.72 525.29 323.64 523.63 323.64ZM530.775 333V322.38H532.535V324.02C533.255 322.72 534.395 322.12 535.675 322.12C536.095 322.12 536.475 322.22 536.675 322.38V323.96C536.375 323.86 535.995 323.82 535.575 323.82C533.455 323.82 532.535 325.14 532.535 327.06V333H530.775ZM538.716 337.64C538.316 337.64 537.896 337.54 537.676 337.48V336.12H538.216C539.516 336.12 539.876 335.86 540.916 333.48L541.276 332.66L536.936 322.38H538.836L541.716 329.4L542.196 330.82L542.676 329.4L545.476 322.38H547.276L542.316 334.4C541.256 336.96 540.556 337.64 538.716 337.64ZM549.023 329.94V323.78H547.543V322.38H549.023V319.94H550.783V322.38H553.123V323.78H550.783V329.94C550.783 331.22 551.163 331.82 552.723 331.82H553.083V333.08C552.883 333.18 552.443 333.24 551.943 333.24C549.963 333.24 549.023 332.18 549.023 329.94ZM554.799 333V318.6H556.559V323.82C557.279 322.7 558.439 322.12 559.839 322.12C562.099 322.12 563.439 323.44 563.439 325.9V333H561.679V326.26C561.679 324.66 560.959 323.62 559.359 323.62C557.599 323.62 556.559 325.2 556.559 326.72V333H554.799ZM566.244 320.96V318.6H568.004V320.96H566.244ZM566.244 333V322.38H568.004V333H566.244ZM570.795 333V322.38H572.555V323.82C573.275 322.7 574.435 322.12 575.835 322.12C578.095 322.12 579.435 323.44 579.435 325.9V333H577.675V326.26C577.675 324.66 576.955 323.62 575.355 323.62C573.595 323.62 572.555 325.2 572.555 326.72V333H570.795ZM586.02 333.08C583.32 333.08 581.7 331.02 581.7 327.62C581.7 324.06 583.36 322.12 586.02 322.12C587.44 322.12 588.5 322.62 589.2 323.54V322.38H590.96V333.32C590.96 336.28 589.06 337.66 586.62 337.66C584.12 337.66 582.36 336.46 581.98 334.04H583.74C583.96 335.44 585.06 336.2 586.6 336.2C588.16 336.2 589.2 335.36 589.2 333.38V331.56C588.46 332.56 587.38 333.08 586.02 333.08ZM586.34 331.56C588.2 331.56 589.2 330.16 589.2 327.6C589.2 325.1 588.16 323.64 586.34 323.64C584.5 323.64 583.5 325.04 583.5 327.62C583.5 330.12 584.52 331.56 586.34 331.56ZM593.583 333V330.84H595.743V333H593.583Z" fill="#D4FEB2"/>
<path d="M661.279 196.5L660.514 195.744L663.666 192.592H655.502V191.499H663.666L660.514 188.357L661.279 187.591L665.734 192.045L661.279 196.5Z" fill="black"/>
<rect x="679.505" width="302" height="383" rx="24" fill="#0078A4"/>
<path d="M763.085 60L761.925 56.94H755.725L754.565 60H752.325L757.565 46.4H760.185L765.425 60H763.085ZM758.425 49.88L756.405 55.18H761.245L759.225 49.88L758.825 48.56L758.425 49.88ZM767.234 60V46.4H776.614V48.2H769.474V52.48H775.854V54.28H769.474V60H767.234ZM782.418 60V48.28H777.878V46.4H789.178V48.28H784.658V60H782.418ZM791.219 60V46.4H800.599V48.2H793.459V52.08H799.839V53.86H793.459V58.2H800.599V60H791.219ZM802.898 60V46.4H807.998C810.938 46.4 812.798 47.92 812.798 50.32C812.798 51.86 812.098 52.94 810.878 53.54C811.678 53.96 812.118 54.7 812.418 55.92L813.438 60H811.078L810.258 56.36C809.898 54.8 809.298 54.5 807.798 54.5H805.138V60H802.898ZM807.938 48.2H805.138V52.7H807.898C809.558 52.7 810.498 51.82 810.498 50.44C810.498 49.08 809.558 48.2 807.938 48.2ZM822.691 60V48.28H818.151V46.4H829.451V48.28H824.931V60H822.691ZM831.492 60V46.4H833.732V52.1H840.332V46.4H842.572V60H840.332V53.92H833.732V60H831.492ZM845.496 60V46.4H854.876V48.2H847.736V52.08H854.116V53.86H847.736V58.2H854.876V60H845.496ZM861.931 46.4L865.791 56.52L866.191 57.88L866.591 56.52L870.451 46.4H872.671L867.431 60H864.831L859.571 46.4H861.931ZM874.48 60V46.4H876.72V60H874.48ZM881.457 49.76C881.457 53.34 889.697 50.52 889.697 56.08C889.697 58.76 887.517 60.26 884.537 60.26C881.517 60.26 879.437 58.88 878.877 56.04H881.217C881.597 57.58 882.737 58.42 884.557 58.42C886.417 58.42 887.397 57.6 887.397 56.38C887.397 52.54 879.157 55.4 879.157 49.94C879.157 47.9 880.877 46.14 883.977 46.14C886.657 46.14 888.857 47.42 889.337 50.4H886.957C886.577 48.72 885.517 47.98 883.917 47.98C882.357 47.98 881.457 48.68 881.457 49.76ZM891.863 60V46.4H894.103V60H891.863ZM900.679 60V48.28H896.139V46.4H907.439V48.28H902.919V60H900.679Z" fill="#FEE5B2"/>
<circle cx="830.505" cy="174" r="85" fill="#FEE5B2"/>
<path d="M744.35 307V293.4H746.27L752.53 303L753.31 304.34V293.4H755.15V307H753.23L746.99 297.46L746.19 296.06V307H744.35ZM762.436 307.24C759.396 307.24 757.576 305.16 757.576 301.7C757.576 298.1 759.456 296.12 762.436 296.12C765.476 296.12 767.296 298.24 767.296 301.7C767.296 305.28 765.416 307.24 762.436 307.24ZM762.436 305.72C764.416 305.72 765.496 304.3 765.496 301.7C765.496 299.12 764.396 297.64 762.436 297.64C760.456 297.64 759.376 299.08 759.376 301.7C759.376 304.26 760.476 305.72 762.436 305.72ZM778.566 307L776.266 299.06L776.026 297.86L775.786 299.06L773.506 307H771.326L768.166 296.38H770.066L772.246 304.62L772.506 305.7L772.766 304.62L775.186 296.38H777.086L779.506 304.62L779.746 305.66L779.966 304.62L782.146 296.38H783.966L780.786 307H778.566ZM789.721 307V293.4H791.561V307H789.721ZM798.526 307V292.6H800.286V297.82C801.006 296.7 802.166 296.12 803.566 296.12C805.826 296.12 807.166 297.44 807.166 299.9V307H805.406V300.26C805.406 298.66 804.686 297.62 803.086 297.62C801.326 297.62 800.286 299.2 800.286 300.72V307H798.526ZM811.591 299.84H809.831C810.171 297.5 811.711 296.12 814.311 296.12C817.151 296.12 818.531 297.78 818.531 300.26V304.44C818.531 305.66 818.631 306.42 818.911 307H817.051C816.851 306.58 816.791 305.96 816.771 305.32C815.871 306.66 814.431 307.24 813.151 307.24C810.951 307.24 809.471 306.22 809.471 304.2C809.471 302.74 810.271 301.68 811.831 301.16C813.271 300.68 814.731 300.56 816.771 300.54V300.3C816.771 298.58 815.971 297.64 814.151 297.64C812.631 297.64 811.811 298.48 811.591 299.84ZM811.271 304.16C811.271 305.14 812.091 305.72 813.331 305.72C815.291 305.72 816.771 304.18 816.771 302.36V301.86C812.251 301.9 811.271 302.86 811.271 304.16ZM823.686 307L819.726 296.38H821.626L824.566 304.62L824.826 305.54L825.086 304.62L828.026 296.38H829.806L825.846 307H823.686ZM840.479 303.54C839.899 306.02 838.119 307.24 835.699 307.24C832.619 307.24 830.759 305.16 830.759 301.7C830.759 298.1 832.619 296.12 835.599 296.12C838.599 296.12 840.399 298.18 840.399 301.56V302H832.559C832.659 304.38 833.779 305.72 835.699 305.72C837.199 305.72 838.259 305 838.639 303.54H840.479ZM835.599 297.64C833.899 297.64 832.879 298.7 832.619 300.68H838.559C838.319 298.72 837.259 297.64 835.599 297.64ZM846.748 307V292.6H848.508V297.82C849.228 296.7 850.388 296.12 851.788 296.12C854.048 296.12 855.388 297.44 855.388 299.9V307H853.628V300.26C853.628 298.66 852.908 297.62 851.308 297.62C849.548 297.62 848.508 299.2 848.508 300.72V307H846.748ZM862.514 307.24C859.474 307.24 857.654 305.16 857.654 301.7C857.654 298.1 859.534 296.12 862.514 296.12C865.554 296.12 867.374 298.24 867.374 301.7C867.374 305.28 865.494 307.24 862.514 307.24ZM862.514 305.72C864.494 305.72 865.574 304.3 865.574 301.7C865.574 299.12 864.474 297.64 862.514 297.64C860.534 297.64 859.454 299.08 859.454 301.7C859.454 304.26 860.554 305.72 862.514 305.72ZM876.399 302.66V296.38H878.159V307H876.399V305.56C875.679 306.68 874.559 307.24 873.179 307.24C870.959 307.24 869.639 305.94 869.639 303.48V296.38H871.399V303.12C871.399 304.72 872.099 305.74 873.659 305.74C875.379 305.74 876.399 304.18 876.399 302.66ZM880.967 307V296.38H882.727V298.02C883.447 296.72 884.587 296.12 885.867 296.12C886.287 296.12 886.667 296.22 886.867 296.38V297.96C886.567 297.86 886.187 297.82 885.767 297.82C883.647 297.82 882.727 299.14 882.727 301.06V307H880.967ZM889.728 299.1C889.728 302.06 896.628 299.62 896.628 304C896.628 305.98 894.868 307.24 892.368 307.24C889.848 307.24 888.088 306.04 887.688 303.54H889.448C889.688 305.02 890.788 305.84 892.428 305.84C894.028 305.84 894.868 305.12 894.868 304.12C894.868 301.22 888.048 303.62 888.048 299.22C888.048 297.6 889.308 296.12 891.908 296.12C894.208 296.12 895.908 297.2 896.248 299.84H894.488C894.228 298.18 893.308 297.56 891.808 297.56C890.488 297.56 889.728 298.22 889.728 299.1ZM907.045 307.24C904.005 307.24 902.185 305.16 902.185 301.7C902.185 298.1 904.065 296.12 907.045 296.12C910.085 296.12 911.905 298.24 911.905 301.7C911.905 305.28 910.025 307.24 907.045 307.24ZM907.045 305.72C909.025 305.72 910.105 304.3 910.105 301.7C910.105 299.12 909.005 297.64 907.045 297.64C905.065 297.64 903.985 299.08 903.985 301.7C903.985 304.26 905.085 305.72 907.045 305.72ZM912.87 297.78V296.38H914.35V295.66C914.35 293.42 915.27 292.36 917.23 292.36C917.67 292.36 918.03 292.44 918.21 292.52V293.78H918.03C916.49 293.78 916.11 294.38 916.11 295.66V296.38H918.21V297.78H916.11V307H914.35V297.78H912.87ZM735.245 333L732.945 325.06L732.705 323.86L732.465 325.06L730.185 333H728.005L724.845 322.38H726.745L728.925 330.62L729.185 331.7L729.445 330.62L731.865 322.38H733.765L736.185 330.62L736.425 331.66L736.645 330.62L738.825 322.38H740.645L737.465 333H735.245ZM746.459 333.24C743.419 333.24 741.599 331.16 741.599 327.7C741.599 324.1 743.479 322.12 746.459 322.12C749.499 322.12 751.319 324.24 751.319 327.7C751.319 331.28 749.439 333.24 746.459 333.24ZM746.459 331.72C748.439 331.72 749.519 330.3 749.519 327.7C749.519 325.12 748.419 323.64 746.459 323.64C744.479 323.64 743.399 325.08 743.399 327.7C743.399 330.26 744.499 331.72 746.459 331.72ZM753.584 333V322.38H755.344V324.02C756.064 322.72 757.204 322.12 758.484 322.12C758.904 322.12 759.284 322.22 759.484 322.38V323.96C759.184 323.86 758.804 323.82 758.384 323.82C756.264 323.82 755.344 325.14 755.344 327.06V333H753.584ZM761.045 333V318.6H762.805V326.94L767.385 322.38H769.545L764.705 327.12L769.825 333H767.585L762.805 327.58V333H761.045ZM775.537 333V318.6H777.297V333H775.537ZM789.268 329.54C788.688 332.02 786.908 333.24 784.488 333.24C781.408 333.24 779.548 331.16 779.548 327.7C779.548 324.1 781.408 322.12 784.388 322.12C787.388 322.12 789.188 324.18 789.188 327.56V328H781.348C781.448 330.38 782.568 331.72 784.488 331.72C785.988 331.72 787.048 331 787.428 329.54H789.268ZM784.388 323.64C782.688 323.64 781.668 324.7 781.408 326.68H787.348C787.108 324.72 786.048 323.64 784.388 323.64ZM790.234 323.78V322.38H791.714V321.66C791.714 319.42 792.634 318.36 794.594 318.36C795.034 318.36 795.394 318.44 795.574 318.52V319.78H795.394C793.854 319.78 793.474 320.38 793.474 321.66V322.38H795.574V323.78H793.474V333H791.714V323.78H790.234ZM797.223 329.94V323.78H795.743V322.38H797.223V319.94H798.983V322.38H801.323V323.78H798.983V329.94C798.983 331.22 799.363 331.82 800.923 331.82H801.283V333.08C801.083 333.18 800.643 333.24 800.143 333.24C798.163 333.24 797.223 332.18 797.223 329.94ZM807.242 329.94V323.78H805.762V322.38H807.242V319.94H809.002V322.38H811.342V323.78H809.002V329.94C809.002 331.22 809.382 331.82 810.942 331.82H811.302V333.08C811.102 333.18 810.662 333.24 810.162 333.24C808.182 333.24 807.242 332.18 807.242 329.94ZM817.338 333.24C814.298 333.24 812.478 331.16 812.478 327.7C812.478 324.1 814.358 322.12 817.338 322.12C820.378 322.12 822.198 324.24 822.198 327.7C822.198 331.28 820.318 333.24 817.338 333.24ZM817.338 331.72C819.318 331.72 820.398 330.3 820.398 327.7C820.398 325.12 819.298 323.64 817.338 323.64C815.358 323.64 814.278 325.08 814.278 327.7C814.278 330.26 815.378 331.72 817.338 331.72ZM837.247 326.04H835.487C835.207 324.42 834.127 323.64 832.727 323.64C830.767 323.64 829.727 325.08 829.727 327.7C829.727 330.28 830.827 331.74 832.787 331.74C834.207 331.74 835.227 330.98 835.567 329.46H837.327C836.847 332.1 835.067 333.24 832.747 333.24C829.727 333.24 827.927 331.14 827.927 327.7C827.927 324.1 829.767 322.12 832.727 322.12C835.067 322.12 836.907 323.44 837.247 326.04ZM841.122 325.84H839.362C839.702 323.5 841.242 322.12 843.842 322.12C846.682 322.12 848.062 323.78 848.062 326.26V330.44C848.062 331.66 848.162 332.42 848.442 333H846.582C846.382 332.58 846.322 331.96 846.302 331.32C845.402 332.66 843.962 333.24 842.682 333.24C840.482 333.24 839.002 332.22 839.002 330.2C839.002 328.74 839.802 327.68 841.362 327.16C842.802 326.68 844.262 326.56 846.302 326.54V326.3C846.302 324.58 845.502 323.64 843.682 323.64C842.162 323.64 841.342 324.48 841.122 325.84ZM840.802 330.16C840.802 331.14 841.622 331.72 842.862 331.72C844.822 331.72 846.302 330.18 846.302 328.36V327.86C841.782 327.9 840.802 328.86 840.802 330.16ZM851.188 329.94V323.78H849.708V322.38H851.188V319.94H852.948V322.38H855.288V323.78H852.948V329.94C852.948 331.22 853.328 331.82 854.888 331.82H855.248V333.08C855.048 333.18 854.608 333.24 854.108 333.24C852.128 333.24 851.188 332.18 851.188 329.94ZM865.743 326.04H863.983C863.703 324.42 862.623 323.64 861.223 323.64C859.263 323.64 858.223 325.08 858.223 327.7C858.223 330.28 859.323 331.74 861.283 331.74C862.703 331.74 863.723 330.98 864.063 329.46H865.823C865.343 332.1 863.563 333.24 861.243 333.24C858.223 333.24 856.423 331.14 856.423 327.7C856.423 324.1 858.263 322.12 861.223 322.12C863.563 322.12 865.403 323.44 865.743 326.04ZM867.998 333V318.6H869.758V323.82C870.478 322.7 871.638 322.12 873.038 322.12C875.298 322.12 876.638 323.44 876.638 325.9V333H874.878V326.26C874.878 324.66 874.158 323.62 872.558 323.62C870.798 323.62 869.758 325.2 869.758 326.72V333H867.998ZM890.208 328.66V322.38H891.968V333H890.208V331.56C889.488 332.68 888.368 333.24 886.988 333.24C884.768 333.24 883.448 331.94 883.448 329.48V322.38H885.208V329.12C885.208 330.72 885.908 331.74 887.468 331.74C889.188 331.74 890.208 330.18 890.208 328.66ZM896.556 337.4H894.796V322.38H896.556V323.7C897.256 322.7 898.276 322.12 899.536 322.12C902.356 322.12 904.056 324.2 904.056 327.66C904.056 331.26 902.316 333.24 899.536 333.24C898.276 333.24 897.256 332.72 896.556 331.74V337.4ZM899.416 323.64C897.556 323.64 896.556 325.06 896.556 327.66C896.556 330.24 897.596 331.72 899.416 331.72C901.256 331.72 902.256 330.28 902.256 327.66C902.256 325.1 901.216 323.64 899.416 323.64ZM914.643 333.24C911.603 333.24 909.783 331.16 909.783 327.7C909.783 324.1 911.663 322.12 914.643 322.12C917.683 322.12 919.503 324.24 919.503 327.7C919.503 331.28 917.623 333.24 914.643 333.24ZM914.643 331.72C916.623 331.72 917.703 330.3 917.703 327.7C917.703 325.12 916.603 323.64 914.643 323.64C912.663 323.64 911.583 325.08 911.583 327.7C911.583 330.26 912.683 331.72 914.643 331.72ZM921.768 333V322.38H923.528V323.82C924.248 322.7 925.408 322.12 926.808 322.12C929.068 322.12 930.408 323.44 930.408 325.9V333H928.648V326.26C928.648 324.66 927.928 323.62 926.328 323.62C924.568 323.62 923.528 325.2 923.528 326.72V333H921.768ZM933.013 333V330.84H935.173V333H933.013Z" fill="#FEE5B2"/>
</svg>
