<svg width="316" height="250" viewBox="0 0 316 250" fill="none" xmlns="http://www.w3.org/2000/svg">
<g clip-path="url(#clip0_1_492)">
<rect x="0.666626" width="314.667" height="250" rx="18" fill="#DAECFF"/>
<mask id="path-3-inside-1_1_492" fill="white">
<path d="M0.666626 0H315.333V50H0.666626V0Z"/>
</mask>
<path d="M0.666626 0H315.333V50H0.666626V0Z" fill="#257BD7"/>
<path d="M315.333 50V48H0.666626V50V52H315.333V50Z" fill="#257BD7" fill-opacity="0.2" mask="url(#path-3-inside-1_1_492)"/>
<path d="M26.891 21.712L30.0948 30.1116L30.4268 31.2404L30.7588 30.1116L33.9626 21.712H35.8052L31.456 33H29.298L24.9322 21.712H26.891ZM40.1466 33.2158C37.5736 33.2158 36.0132 31.4728 36.0132 28.5844C36.0132 25.5798 37.6234 23.9198 40.1466 23.9198C42.7196 23.9198 44.28 25.696 44.28 28.5844C44.28 31.5724 42.6698 33.2158 40.1466 33.2158ZM40.1466 31.7218C41.6572 31.7218 42.4706 30.6262 42.4706 28.5844C42.4706 26.5592 41.6406 25.4138 40.1466 25.4138C38.6526 25.4138 37.8226 26.526 37.8226 28.5844C37.8226 30.593 38.6526 31.7218 40.1466 31.7218ZM46.0093 23.0566V21.048H47.7855V23.0566H46.0093ZM46.0093 33V24.1522H47.7855V33H46.0093ZM57.4189 27.2398H55.6427C55.4269 25.9782 54.6135 25.4138 53.5843 25.4138C52.1069 25.4138 51.3101 26.5426 51.3101 28.5844C51.3101 30.593 52.1401 31.7384 53.6341 31.7384C54.6965 31.7384 55.4435 31.1574 55.7091 30.0286H57.4687C57.0869 32.2364 55.5597 33.2158 53.6009 33.2158C51.0445 33.2158 49.5007 31.4562 49.5007 28.5844C49.5007 25.5798 51.0777 23.9198 53.5843 23.9198C55.5597 23.9198 57.1201 25.032 57.4189 27.2398ZM66.9757 30.1116C66.4943 32.17 64.9671 33.2158 62.8921 33.2158C60.2859 33.2158 58.6923 31.4728 58.6923 28.5844C58.6923 25.5798 60.2859 23.9198 62.8091 23.9198C65.3655 23.9198 66.9093 25.6462 66.9093 28.4848V28.9164H60.5017C60.6013 30.7258 61.4479 31.7384 62.8921 31.7384C64.0209 31.7384 64.8177 31.2072 65.1165 30.1116H66.9757ZM62.8091 25.3972C61.5309 25.3972 60.7673 26.2106 60.5515 27.7046H65.0667C64.8509 26.2106 64.0707 25.3972 62.8091 25.3972ZM72.0796 33V21.712H75.9474C79.4832 21.712 81.6744 23.8368 81.6744 27.3726C81.6744 30.9084 79.4832 33 75.9474 33H72.0796ZM75.9474 31.4894C78.3544 31.4894 79.782 29.9622 79.782 27.3726C79.782 24.7498 78.3544 23.2226 75.9474 23.2226H73.9388V31.4894H75.9474ZM83.5863 23.0566V21.048H85.3625V23.0566H83.5863ZM83.5863 33V24.1522H85.3625V33H83.5863ZM94.9959 27.2398H93.2197C93.0039 25.9782 92.1905 25.4138 91.1613 25.4138C89.6839 25.4138 88.8871 26.5426 88.8871 28.5844C88.8871 30.593 89.7171 31.7384 91.2111 31.7384C92.2735 31.7384 93.0205 31.1574 93.2861 30.0286H95.0457C94.6639 32.2364 93.1367 33.2158 91.1779 33.2158C88.6215 33.2158 87.0777 31.4562 87.0777 28.5844C87.0777 25.5798 88.6547 23.9198 91.1613 23.9198C93.1367 23.9198 94.6971 25.032 94.9959 27.2398ZM96.9333 30.3606V25.53H95.7381V24.1522H96.9333V22.1104H98.7095V24.1522H100.619V25.53H98.7095V30.261C98.7095 31.2736 98.9917 31.755 100.237 31.755H100.585V33.0498C100.386 33.1494 99.9711 33.2158 99.4731 33.2158C97.7467 33.2158 96.9333 32.2696 96.9333 30.3606ZM103.63 27.0406H101.854C102.136 25.0818 103.48 23.9198 105.688 23.9198C108.095 23.9198 109.29 25.3308 109.29 27.3892V30.842C109.29 31.9044 109.39 32.5186 109.589 33H107.73C107.597 32.668 107.547 32.2032 107.531 31.7052C106.784 32.751 105.638 33.2158 104.576 33.2158C102.783 33.2158 101.555 32.3692 101.555 30.676C101.555 29.4642 102.219 28.5678 103.547 28.1196C104.725 27.7212 105.921 27.6216 107.514 27.605V27.4058C107.514 26.111 106.917 25.4138 105.555 25.4138C104.41 25.4138 103.796 26.0446 103.63 27.0406ZM103.348 30.6096C103.348 31.3566 103.962 31.8214 104.908 31.8214C106.385 31.8214 107.514 30.6428 107.514 29.2152V28.8168C104.111 28.85 103.348 29.597 103.348 30.6096ZM111.75 30.3606V25.53H110.555V24.1522H111.75V22.1104H113.526V24.1522H115.435V25.53H113.526V30.261C113.526 31.2736 113.808 31.755 115.053 31.755H115.402V33.0498C115.203 33.1494 114.788 33.2158 114.29 33.2158C112.563 33.2158 111.75 32.2696 111.75 30.3606ZM116.77 23.0566V21.048H118.546V23.0566H116.77ZM116.77 33V24.1522H118.546V33H116.77ZM124.395 33.2158C121.822 33.2158 120.261 31.4728 120.261 28.5844C120.261 25.5798 121.872 23.9198 124.395 23.9198C126.968 23.9198 128.528 25.696 128.528 28.5844C128.528 31.5724 126.918 33.2158 124.395 33.2158ZM124.395 31.7218C125.905 31.7218 126.719 30.6262 126.719 28.5844C126.719 26.5592 125.889 25.4138 124.395 25.4138C122.901 25.4138 122.071 26.526 122.071 28.5844C122.071 30.593 122.901 31.7218 124.395 31.7218ZM130.258 33V24.1522H132.034V25.3308C132.631 24.3846 133.561 23.9198 134.706 23.9198C136.549 23.9198 137.694 24.9988 137.694 27.0904V33H135.935V27.4556C135.935 26.1774 135.37 25.3972 134.159 25.3972C132.831 25.3972 132.034 26.5758 132.034 27.8042V33H130.258ZM145.959 33V23.2724H142.191V21.712H151.57V23.2724H147.818V33H145.959ZM155.406 33.2158C152.833 33.2158 151.273 31.4728 151.273 28.5844C151.273 25.5798 152.883 23.9198 155.406 23.9198C157.979 23.9198 159.54 25.696 159.54 28.5844C159.54 31.5724 157.93 33.2158 155.406 33.2158ZM155.406 31.7218C156.917 31.7218 157.73 30.6262 157.73 28.5844C157.73 26.5592 156.9 25.4138 155.406 25.4138C153.912 25.4138 153.082 26.526 153.082 28.5844C153.082 30.593 153.912 31.7218 155.406 31.7218ZM164.971 33.2158C162.398 33.2158 160.837 31.4728 160.837 28.5844C160.837 25.5798 162.448 23.9198 164.971 23.9198C167.544 23.9198 169.104 25.696 169.104 28.5844C169.104 31.5724 167.494 33.2158 164.971 33.2158ZM164.971 31.7218C166.481 31.7218 167.295 30.6262 167.295 28.5844C167.295 26.5592 166.465 25.4138 164.971 25.4138C163.477 25.4138 162.647 26.526 162.647 28.5844C162.647 30.593 163.477 31.7218 164.971 31.7218ZM170.834 33V21.048H172.61V33H170.834ZM176.168 26.4762C176.168 28.7338 181.828 26.8414 181.828 30.4436C181.828 32.1202 180.318 33.2158 178.176 33.2158C176.035 33.2158 174.524 32.2198 174.192 30.1116H175.968C176.151 31.2238 176.981 31.838 178.226 31.838C179.421 31.838 180.052 31.3068 180.052 30.5598C180.052 28.352 174.474 30.2112 174.474 26.5758C174.474 25.198 175.553 23.9198 177.794 23.9198C179.77 23.9198 181.231 24.8328 181.513 27.0406H179.737C179.537 25.7956 178.84 25.3308 177.711 25.3308C176.732 25.3308 176.168 25.8122 176.168 26.4762Z" fill="white"/>
<path fill-rule="evenodd" clip-rule="evenodd" d="M36.6666 90.0625C32.2139 90.0625 28.6041 86.4528 28.6041 82C28.6041 77.5473 32.2139 73.9375 36.6666 73.9375C41.1194 73.9375 44.7291 77.5473 44.7291 82C44.7291 86.4528 41.1194 90.0625 36.6666 90.0625ZM40.0266 80.0335C40.3904 79.8347 40.5239 79.3788 40.3251 79.015C40.1264 78.652 39.6704 78.5185 39.3066 78.7172C37.9356 79.4672 36.8016 80.9148 36.0389 82.0825C35.7569 82.5138 35.5161 82.9225 35.3234 83.2683C35.1441 83.0943 34.9664 82.9428 34.8066 82.8168C34.5989 82.6525 34.4114 82.5228 34.2749 82.4328L34.0386 82.2865C33.6786 82.081 33.2204 82.2062 33.0156 82.5662C32.8101 82.9255 32.9354 83.3837 33.2946 83.5892L33.4529 83.6875C33.5601 83.758 33.7101 83.8615 33.8766 83.9935C34.2201 84.265 34.5899 84.6205 34.8231 85.0105C34.9664 85.249 35.2296 85.3893 35.5079 85.3743C35.7861 85.3585 36.0329 85.1905 36.1491 84.937L36.2226 84.7832C36.2736 84.679 36.3494 84.5275 36.4484 84.34C36.6464 83.9658 36.9351 83.4527 37.2944 82.9022C38.0324 81.7735 38.9984 80.596 40.0266 80.0335Z" fill="#005ABB"/>
<path d="M53.8756 88V77.46H55.3016V81.986H60.8196V77.46H62.2456V88H60.8196V83.1485H55.3016V88H53.8756ZM64.5441 78.669V76.84H65.9081V78.669H64.5441ZM64.5441 88V79.7695H65.9081V88H64.5441ZM71.0005 88.062C68.908 88.062 67.6525 86.4655 67.6525 83.8305C67.6525 81.0715 68.939 79.568 71.0005 79.568C72.101 79.568 72.9225 79.9555 73.465 80.6685V79.7695H74.829V88.248C74.829 90.542 73.3565 91.6115 71.4655 91.6115C69.528 91.6115 68.164 90.6815 67.8695 88.806H69.2335C69.404 89.891 70.2565 90.48 71.45 90.48C72.659 90.48 73.465 89.829 73.465 88.2945V86.884C72.8915 87.659 72.0545 88.062 71.0005 88.062ZM71.2485 86.884C72.69 86.884 73.465 85.799 73.465 83.815C73.465 81.8775 72.659 80.746 71.2485 80.746C69.8225 80.746 69.0475 81.831 69.0475 83.8305C69.0475 85.768 69.838 86.884 71.2485 86.884ZM77.0168 88V76.84H78.3808V80.8855C78.9388 80.0175 79.8378 79.568 80.9228 79.568C82.6743 79.568 83.7128 80.591 83.7128 82.4975V88H82.3488V82.7765C82.3488 81.5365 81.7908 80.7305 80.5508 80.7305C79.1868 80.7305 78.3808 81.955 78.3808 83.133V88H77.0168ZM96.1044 85.3185C95.6549 87.2405 94.2754 88.186 92.3999 88.186C90.0129 88.186 88.5714 86.574 88.5714 83.8925C88.5714 81.1025 90.0129 79.568 92.3224 79.568C94.6474 79.568 96.0424 81.1645 96.0424 83.784V84.125H89.9664C90.0439 85.9695 90.9119 87.008 92.3999 87.008C93.5624 87.008 94.3839 86.45 94.6784 85.3185H96.1044ZM92.3224 80.746C91.0049 80.746 90.2144 81.5675 90.0129 83.102H94.6164C94.4304 81.583 93.6089 80.746 92.3224 80.746ZM97.86 88V79.7695H99.224V81.0405C99.782 80.033 100.666 79.568 101.658 79.568C101.983 79.568 102.278 79.6455 102.433 79.7695V80.994C102.2 80.9165 101.906 80.8855 101.58 80.8855C99.937 80.8855 99.224 81.9085 99.224 83.3965V88H97.86ZM103.642 88V79.7695H105.006V81.0405C105.564 80.033 106.448 79.568 107.44 79.568C107.765 79.568 108.06 79.6455 108.215 79.7695V80.994C107.982 80.9165 107.688 80.8855 107.362 80.8855C105.719 80.8855 105.006 81.9085 105.006 83.3965V88H103.642ZM112.621 88.186C110.265 88.186 108.855 86.574 108.855 83.8925C108.855 81.1025 110.312 79.568 112.621 79.568C114.977 79.568 116.388 81.211 116.388 83.8925C116.388 86.667 114.931 88.186 112.621 88.186ZM112.621 87.008C114.156 87.008 114.993 85.9075 114.993 83.8925C114.993 81.893 114.14 80.746 112.621 80.746C111.087 80.746 110.25 81.862 110.25 83.8925C110.25 85.8765 111.102 87.008 112.621 87.008ZM118.143 88V79.7695H119.507V81.0405C120.065 80.033 120.949 79.568 121.941 79.568C122.266 79.568 122.561 79.6455 122.716 79.7695V80.994C122.483 80.9165 122.189 80.8855 121.863 80.8855C120.22 80.8855 119.507 81.9085 119.507 83.3965V88H118.143ZM127.028 88V79.7695H128.392V81.0405C128.95 80.033 129.834 79.568 130.826 79.568C131.151 79.568 131.446 79.6455 131.601 79.7695V80.994C131.368 80.9165 131.074 80.8855 130.748 80.8855C129.105 80.8855 128.392 81.9085 128.392 83.3965V88H127.028ZM133.915 82.451H132.551C132.814 80.6375 134.008 79.568 136.023 79.568C138.224 79.568 139.293 80.8545 139.293 82.7765V86.016C139.293 86.9615 139.371 87.5505 139.588 88H138.146C137.991 87.6745 137.945 87.194 137.929 86.698C137.232 87.7365 136.116 88.186 135.124 88.186C133.419 88.186 132.272 87.3955 132.272 85.83C132.272 84.6985 132.892 83.877 134.101 83.474C135.217 83.102 136.348 83.009 137.929 82.9935V82.8075C137.929 81.4745 137.309 80.746 135.899 80.746C134.721 80.746 134.085 81.397 133.915 82.451ZM133.667 85.799C133.667 86.5585 134.302 87.008 135.263 87.008C136.782 87.008 137.929 85.8145 137.929 84.404V84.0165C134.426 84.0475 133.667 84.7915 133.667 85.799ZM141.715 85.6285V80.8545H140.568V79.7695H141.715V77.8785H143.079V79.7695H144.893V80.8545H143.079V85.6285C143.079 86.6205 143.374 87.0855 144.583 87.0855H144.862V88.062C144.707 88.1395 144.366 88.186 143.978 88.186C142.444 88.186 141.715 87.3645 141.715 85.6285ZM153.306 85.3185C152.857 87.2405 151.477 88.186 149.602 88.186C147.215 88.186 145.773 86.574 145.773 83.8925C145.773 81.1025 147.215 79.568 149.524 79.568C151.849 79.568 153.244 81.1645 153.244 83.784V84.125H147.168C147.246 85.9695 148.114 87.008 149.602 87.008C150.764 87.008 151.586 86.45 151.88 85.3185H153.306ZM149.524 80.746C148.207 80.746 147.416 81.5675 147.215 83.102H151.818C151.632 81.583 150.811 80.746 149.524 80.746ZM165.295 88L163.512 81.8465L163.326 80.9165L163.14 81.8465L161.373 88H159.684L157.235 79.7695H158.707L160.397 86.1555L160.598 86.9925L160.8 86.1555L162.675 79.7695H164.148L166.023 86.1555L166.209 86.9615L166.38 86.1555L168.069 79.7695H169.48L167.015 88H165.295ZM170.713 78.669V76.84H172.077V78.669H170.713ZM170.713 88V79.7695H172.077V88H170.713ZM174.426 85.6285V80.8545H173.279V79.7695H174.426V77.8785H175.79V79.7695H177.603V80.8545H175.79V85.6285C175.79 86.6205 176.084 87.0855 177.293 87.0855H177.572V88.062C177.417 88.1395 177.076 88.186 176.689 88.186C175.154 88.186 174.426 87.3645 174.426 85.6285ZM178.902 88V76.84H180.266V80.8855C180.824 80.0175 181.723 79.568 182.808 79.568C184.56 79.568 185.598 80.591 185.598 82.4975V88H184.234V82.7765C184.234 81.5365 183.676 80.7305 182.436 80.7305C181.072 80.7305 180.266 81.955 180.266 83.133V88H178.902ZM191.12 88.186C188.764 88.186 187.354 86.574 187.354 83.8925C187.354 81.1025 188.811 79.568 191.12 79.568C193.476 79.568 194.887 81.211 194.887 83.8925C194.887 86.667 193.43 88.186 191.12 88.186ZM191.12 87.008C192.655 87.008 193.492 85.9075 193.492 83.8925C193.492 81.893 192.639 80.746 191.12 80.746C189.586 80.746 188.749 81.862 188.749 83.8925C188.749 85.8765 189.601 87.008 191.12 87.008ZM201.881 84.6365V79.7695H203.245V88H201.881V86.884C201.323 87.752 200.455 88.186 199.386 88.186C197.665 88.186 196.642 87.1785 196.642 85.272V79.7695H198.006V84.993C198.006 86.233 198.549 87.0235 199.758 87.0235C201.091 87.0235 201.881 85.8145 201.881 84.6365ZM205.608 85.6285V80.8545H204.461V79.7695H205.608V77.8785H206.972V79.7695H208.785V80.8545H206.972V85.6285C206.972 86.6205 207.266 87.0855 208.475 87.0855H208.754V88.062C208.599 88.1395 208.258 88.186 207.871 88.186C206.336 88.186 205.608 87.3645 205.608 85.6285ZM213.187 88V79.7695H214.551V80.8235C215.078 79.9865 215.899 79.568 216.907 79.568C218.038 79.568 218.86 80.064 219.247 81.025C219.79 80.064 220.689 79.568 221.789 79.568C223.463 79.568 224.471 80.591 224.471 82.4975V88H223.107V82.7765C223.107 81.5365 222.611 80.7305 221.495 80.7305C220.255 80.7305 219.511 81.955 219.511 83.133V88H218.147V82.7765C218.147 81.5365 217.651 80.7305 216.535 80.7305C215.295 80.7305 214.551 81.955 214.551 83.133V88H213.187ZM233.758 85.3185C233.308 87.2405 231.929 88.186 230.053 88.186C227.666 88.186 226.225 86.574 226.225 83.8925C226.225 81.1025 227.666 79.568 229.976 79.568C232.301 79.568 233.696 81.1645 233.696 83.784V84.125H227.62C227.697 85.9695 228.565 87.008 230.053 87.008C231.216 87.008 232.037 86.45 232.332 85.3185H233.758ZM229.976 80.746C228.658 80.746 227.868 81.5675 227.666 83.102H232.27C232.084 81.583 231.262 80.746 229.976 80.746ZM238.598 88.186C236.412 88.186 235.095 86.574 235.095 83.8925C235.095 81.1025 236.443 79.568 238.598 79.568C239.574 79.568 240.365 79.971 240.907 80.7305V76.84H242.271V88H240.907V86.9615C240.365 87.7365 239.574 88.186 238.598 88.186ZM238.691 87.008C240.132 87.008 240.907 85.9075 240.907 83.8925C240.907 81.893 240.101 80.746 238.691 80.746C237.265 80.746 236.49 81.862 236.49 83.8925C236.49 85.8765 237.296 87.008 238.691 87.008ZM244.444 78.669V76.84H245.808V78.669H244.444ZM244.444 88V79.7695H245.808V88H244.444ZM254.775 82.606H253.411C253.194 81.3505 252.357 80.746 251.272 80.746C249.753 80.746 248.947 81.862 248.947 83.8925C248.947 85.892 249.8 87.0235 251.319 87.0235C252.419 87.0235 253.21 86.4345 253.473 85.2565H254.837C254.465 87.3025 253.086 88.186 251.288 88.186C248.947 88.186 247.552 86.5585 247.552 83.8925C247.552 81.1025 248.978 79.568 251.272 79.568C253.086 79.568 254.512 80.591 254.775 82.606ZM257.779 82.451H256.415C256.678 80.6375 257.872 79.568 259.887 79.568C262.088 79.568 263.157 80.8545 263.157 82.7765V86.016C263.157 86.9615 263.235 87.5505 263.452 88H262.01C261.855 87.6745 261.809 87.194 261.793 86.698C261.096 87.7365 259.98 88.186 258.988 88.186C257.283 88.186 256.136 87.3955 256.136 85.83C256.136 84.6985 256.756 83.877 257.965 83.474C259.081 83.102 260.212 83.009 261.793 82.9935V82.8075C261.793 81.4745 261.173 80.746 259.763 80.746C258.585 80.746 257.949 81.397 257.779 82.451ZM257.531 85.799C257.531 86.5585 258.166 87.008 259.127 87.008C260.646 87.008 261.793 85.8145 261.793 84.404V84.0165C258.29 84.0475 257.531 84.7915 257.531 85.799ZM265.393 88V76.84H266.757V88H265.393ZM55.8131 112L52.7441 103.769H54.2166L56.4951 110.155L56.6966 110.868L56.8981 110.155L59.1766 103.769H60.5561L57.4871 112H55.8131ZM65.0615 112.186C62.7055 112.186 61.295 110.574 61.295 107.892C61.295 105.102 62.752 103.568 65.0615 103.568C67.4175 103.568 68.828 105.211 68.828 107.892C68.828 110.667 67.371 112.186 65.0615 112.186ZM65.0615 111.008C66.596 111.008 67.433 109.907 67.433 107.892C67.433 105.893 66.5805 104.746 65.0615 104.746C63.527 104.746 62.69 105.862 62.69 107.892C62.69 109.876 63.5425 111.008 65.0615 111.008ZM77.3882 106.606H76.0242C75.8072 105.35 74.9702 104.746 73.8852 104.746C72.3662 104.746 71.5602 105.862 71.5602 107.892C71.5602 109.892 72.4127 111.023 73.9317 111.023C75.0322 111.023 75.8227 110.434 76.0862 109.256H77.4502C77.0782 111.302 75.6987 112.186 73.9007 112.186C71.5602 112.186 70.1652 110.558 70.1652 107.892C70.1652 105.102 71.5912 103.568 73.8852 103.568C75.6987 103.568 77.1247 104.591 77.3882 106.606ZM80.3914 106.451H79.0274C79.2909 104.637 80.4844 103.568 82.4994 103.568C84.7004 103.568 85.7699 104.854 85.7699 106.776V110.016C85.7699 110.961 85.8474 111.55 86.0644 112H84.6229C84.4679 111.674 84.4214 111.194 84.4059 110.698C83.7084 111.736 82.5924 112.186 81.6004 112.186C79.8954 112.186 78.7484 111.395 78.7484 109.83C78.7484 108.698 79.3684 107.877 80.5774 107.474C81.6934 107.102 82.8249 107.009 84.4059 106.993V106.807C84.4059 105.474 83.7859 104.746 82.3754 104.746C81.1974 104.746 80.5619 105.397 80.3914 106.451ZM80.1434 109.799C80.1434 110.558 80.7789 111.008 81.7399 111.008C83.2589 111.008 84.4059 109.814 84.4059 108.404V108.017C80.9029 108.047 80.1434 108.791 80.1434 109.799ZM89.37 112H88.006V100.84H89.37V104.792C89.9125 104.017 90.703 103.568 91.6795 103.568C93.865 103.568 95.1825 105.18 95.1825 107.861C95.1825 110.651 93.834 112.186 91.6795 112.186C90.703 112.186 89.9125 111.783 89.37 111.023V112ZM91.5865 104.746C90.145 104.746 89.37 105.846 89.37 107.861C89.37 109.861 90.176 111.008 91.5865 111.008C93.0125 111.008 93.7875 109.892 93.7875 107.861C93.7875 105.877 92.9815 104.746 91.5865 104.746ZM102.176 108.636V103.769H103.54V112H102.176V110.884C101.618 111.752 100.75 112.186 99.6802 112.186C97.9597 112.186 96.9367 111.178 96.9367 109.272V103.769H98.3007V108.993C98.3007 110.233 98.8432 111.023 100.052 111.023C101.385 111.023 102.176 109.814 102.176 108.636ZM105.716 112V100.84H107.08V112H105.716ZM110.498 106.451H109.134C109.398 104.637 110.591 103.568 112.606 103.568C114.807 103.568 115.877 104.854 115.877 106.776V110.016C115.877 110.961 115.954 111.55 116.171 112H114.73C114.575 111.674 114.528 111.194 114.513 110.698C113.815 111.736 112.699 112.186 111.707 112.186C110.002 112.186 108.855 111.395 108.855 109.83C108.855 108.698 109.475 107.877 110.684 107.474C111.8 107.102 112.932 107.009 114.513 106.993V106.807C114.513 105.474 113.893 104.746 112.482 104.746C111.304 104.746 110.669 105.397 110.498 106.451ZM110.25 109.799C110.25 110.558 110.886 111.008 111.847 111.008C113.366 111.008 114.513 109.814 114.513 108.404V108.017C111.01 108.047 110.25 108.791 110.25 109.799ZM118.113 112V103.769H119.477V105.04C120.035 104.033 120.918 103.568 121.91 103.568C122.236 103.568 122.53 103.645 122.685 103.769V104.994C122.453 104.916 122.158 104.885 121.833 104.885C120.19 104.885 119.477 105.908 119.477 107.396V112H118.113ZM124.267 115.596C123.957 115.596 123.632 115.519 123.461 115.472V114.418H123.88C124.887 114.418 125.166 114.217 125.972 112.372L126.251 111.736L122.888 103.769H124.36L126.592 109.21L126.964 110.31L127.336 109.21L129.506 103.769H130.901L127.057 113.085C126.236 115.069 125.693 115.596 124.267 115.596ZM135.358 109.628V104.854H134.211V103.769H135.358V101.878H136.722V103.769H138.536V104.854H136.722V109.628C136.722 110.62 137.017 111.085 138.226 111.085H138.505V112.062C138.35 112.14 138.009 112.186 137.621 112.186C136.087 112.186 135.358 111.364 135.358 109.628ZM145.073 108.636V103.769H146.437V112H145.073V110.884C144.515 111.752 143.647 112.186 142.578 112.186C140.857 112.186 139.834 111.178 139.834 109.272V103.769H141.198V108.993C141.198 110.233 141.741 111.023 142.95 111.023C144.283 111.023 145.073 109.814 145.073 108.636ZM148.613 112V103.769H149.977V104.885C150.535 104.017 151.434 103.568 152.519 103.568C154.271 103.568 155.309 104.591 155.309 106.497V112H153.945V106.776C153.945 105.536 153.387 104.73 152.147 104.73C150.783 104.73 149.977 105.955 149.977 107.133V112H148.613ZM157.484 102.669V100.84H158.848V102.669H157.484ZM157.484 112V103.769H158.848V112H157.484ZM161.01 112V103.769H162.374V104.885C162.932 104.017 163.831 103.568 164.916 103.568C166.668 103.568 167.706 104.591 167.706 106.497V112H166.342V106.776C166.342 105.536 165.784 104.73 164.544 104.73C163.18 104.73 162.374 105.955 162.374 107.133V112H161.01ZM172.81 112.062C170.718 112.062 169.462 110.465 169.462 107.83C169.462 105.071 170.749 103.568 172.81 103.568C173.911 103.568 174.732 103.955 175.275 104.668V103.769H176.639V112.248C176.639 114.542 175.166 115.612 173.275 115.612C171.338 115.612 169.974 114.682 169.679 112.806H171.043C171.214 113.891 172.066 114.48 173.26 114.48C174.469 114.48 175.275 113.829 175.275 112.295V110.884C174.701 111.659 173.864 112.062 172.81 112.062ZM173.058 110.884C174.5 110.884 175.275 109.799 175.275 107.815C175.275 105.877 174.469 104.746 173.058 104.746C171.632 104.746 170.857 105.831 170.857 107.83C170.857 109.768 171.648 110.884 173.058 110.884Z" fill="#005ABB"/>
<path fill-rule="evenodd" clip-rule="evenodd" d="M36.6666 146.062C32.2139 146.062 28.6041 142.453 28.6041 138C28.6041 133.547 32.2139 129.938 36.6666 129.938C41.1194 129.938 44.7291 133.547 44.7291 138C44.7291 142.453 41.1194 146.062 36.6666 146.062ZM40.0266 136.033C40.3904 135.835 40.5239 135.379 40.3251 135.015C40.1264 134.652 39.6704 134.518 39.3066 134.717C37.9356 135.467 36.8016 136.915 36.0389 138.083C35.7569 138.514 35.5161 138.923 35.3234 139.268C35.1441 139.094 34.9664 138.943 34.8066 138.817C34.5989 138.653 34.4114 138.523 34.2749 138.433L34.0386 138.286C33.6786 138.081 33.2204 138.206 33.0156 138.566C32.8101 138.925 32.9354 139.384 33.2946 139.589L33.4529 139.688C33.5601 139.758 33.7101 139.862 33.8766 139.994C34.2201 140.265 34.5899 140.621 34.8231 141.011C34.9664 141.249 35.2296 141.389 35.5079 141.374C35.7861 141.359 36.0329 141.191 36.1491 140.937L36.2226 140.783C36.2736 140.679 36.3494 140.528 36.4484 140.34C36.6464 139.966 36.9351 139.453 37.2944 138.902C38.0324 137.773 38.9984 136.596 40.0266 136.033Z" fill="#005ABB"/>
<path d="M53.8756 144V133.46H57.6731C59.8896 133.46 61.3001 134.607 61.3001 136.436C61.3001 137.645 60.7111 138.497 59.7191 138.947C60.4011 139.257 60.7576 139.83 61.0211 140.869L61.8116 144H60.3081L59.6416 141.148C59.3316 139.83 58.8046 139.582 57.5336 139.582H55.3016V144H53.8756ZM57.6421 134.622H55.3016V138.42H57.6111C59.0061 138.42 59.8276 137.676 59.8276 136.513C59.8276 135.351 59.0061 134.622 57.6421 134.622ZM70.5082 141.318C70.0587 143.24 68.6792 144.186 66.8037 144.186C64.4167 144.186 62.9752 142.574 62.9752 139.892C62.9752 137.102 64.4167 135.568 66.7262 135.568C69.0512 135.568 70.4462 137.164 70.4462 139.784V140.125H64.3702C64.4477 141.969 65.3157 143.008 66.8037 143.008C67.9662 143.008 68.7877 142.45 69.0822 141.318H70.5082ZM66.7262 136.746C65.4087 136.746 64.6182 137.567 64.4167 139.102H69.0202C68.8342 137.583 68.0127 136.746 66.7262 136.746ZM75.3483 144.186C73.1628 144.186 71.8453 142.574 71.8453 139.892C71.8453 137.102 73.1938 135.568 75.3483 135.568C76.3248 135.568 77.1153 135.971 77.6578 136.73V135.769H79.0218V147.41H77.6578V142.961C77.1153 143.736 76.3248 144.186 75.3483 144.186ZM75.4413 143.008C76.8828 143.008 77.6578 141.907 77.6578 139.892C77.6578 137.893 76.8518 136.746 75.4413 136.746C74.0153 136.746 73.2403 137.862 73.2403 139.892C73.2403 141.876 74.0463 143.008 75.4413 143.008ZM86.4486 140.636V135.769H87.8126V144H86.4486V142.884C85.8906 143.752 85.0226 144.186 83.9531 144.186C82.2326 144.186 81.2096 143.178 81.2096 141.272V135.769H82.5736V140.993C82.5736 142.233 83.1161 143.023 84.3251 143.023C85.6581 143.023 86.4486 141.814 86.4486 140.636ZM89.9889 134.669V132.84H91.3529V134.669H89.9889ZM89.9889 144V135.769H91.3529V144H89.9889ZM93.5158 144V135.769H94.8798V137.04C95.4378 136.033 96.3213 135.568 97.3133 135.568C97.6388 135.568 97.9333 135.645 98.0883 135.769V136.994C97.8558 136.916 97.5613 136.885 97.2358 136.885C95.5928 136.885 94.8798 137.908 94.8798 139.396V144H93.5158ZM106.261 141.318C105.812 143.24 104.432 144.186 102.557 144.186C100.17 144.186 98.7281 142.574 98.7281 139.892C98.7281 137.102 100.17 135.568 102.479 135.568C104.804 135.568 106.199 137.164 106.199 139.784V140.125H100.123C100.201 141.969 101.069 143.008 102.557 143.008C103.719 143.008 104.541 142.45 104.835 141.318H106.261ZM102.479 136.746C101.162 136.746 100.371 137.567 100.17 139.102H104.773C104.587 137.583 103.766 136.746 102.479 136.746ZM111.101 144.186C108.916 144.186 107.598 142.574 107.598 139.892C107.598 137.102 108.947 135.568 111.101 135.568C112.078 135.568 112.868 135.971 113.411 136.73V132.84H114.775V144H113.411V142.961C112.868 143.736 112.078 144.186 111.101 144.186ZM111.194 143.008C112.636 143.008 113.411 141.907 113.411 139.892C113.411 137.893 112.605 136.746 111.194 136.746C109.768 136.746 108.993 137.862 108.993 139.892C108.993 141.876 109.799 143.008 111.194 143.008ZM121.058 137.877C121.058 140.171 126.405 138.28 126.405 141.675C126.405 143.209 125.041 144.186 123.104 144.186C121.151 144.186 119.787 143.256 119.477 141.318H120.841C121.027 142.465 121.879 143.101 123.15 143.101C124.39 143.101 125.041 142.543 125.041 141.768C125.041 139.52 119.756 141.38 119.756 137.97C119.756 136.715 120.732 135.568 122.747 135.568C124.53 135.568 125.847 136.405 126.111 138.451H124.747C124.545 137.164 123.832 136.684 122.67 136.684C121.647 136.684 121.058 137.195 121.058 137.877ZM128.214 141.628V136.854H127.067V135.769H128.214V133.878H129.578V135.769H131.391V136.854H129.578V141.628C129.578 142.62 129.872 143.085 131.081 143.085H131.36V144.062C131.205 144.14 130.864 144.186 130.477 144.186C128.942 144.186 128.214 143.364 128.214 141.628ZM132.69 144V135.769H134.054V137.04C134.612 136.033 135.495 135.568 136.487 135.568C136.813 135.568 137.107 135.645 137.262 135.769V136.994C137.03 136.916 136.735 136.885 136.41 136.885C134.767 136.885 134.054 137.908 134.054 139.396V144H132.69ZM143.711 140.636V135.769H145.075V144H143.711V142.884C143.153 143.752 142.285 144.186 141.215 144.186C139.495 144.186 138.472 143.178 138.472 141.272V135.769H139.836V140.993C139.836 142.233 140.378 143.023 141.587 143.023C142.92 143.023 143.711 141.814 143.711 140.636ZM154.056 138.606H152.692C152.475 137.35 151.638 136.746 150.553 136.746C149.034 136.746 148.228 137.862 148.228 139.892C148.228 141.892 149.08 143.023 150.599 143.023C151.7 143.023 152.49 142.434 152.754 141.256H154.118C153.746 143.302 152.366 144.186 150.568 144.186C148.228 144.186 146.833 142.558 146.833 139.892C146.833 137.102 148.259 135.568 150.553 135.568C152.366 135.568 153.792 136.591 154.056 138.606ZM155.989 141.628V136.854H154.842V135.769H155.989V133.878H157.353V135.769H159.167V136.854H157.353V141.628C157.353 142.62 157.648 143.085 158.857 143.085H159.136V144.062C158.981 144.14 158.64 144.186 158.252 144.186C156.718 144.186 155.989 143.364 155.989 141.628ZM165.704 140.636V135.769H167.068V144H165.704V142.884C165.146 143.752 164.278 144.186 163.209 144.186C161.488 144.186 160.465 143.178 160.465 141.272V135.769H161.829V140.993C161.829 142.233 162.372 143.023 163.581 143.023C164.914 143.023 165.704 141.814 165.704 140.636ZM169.245 144V135.769H170.609V137.04C171.167 136.033 172.05 135.568 173.042 135.568C173.368 135.568 173.662 135.645 173.817 135.769V136.994C173.585 136.916 173.29 136.885 172.965 136.885C171.322 136.885 170.609 137.908 170.609 139.396V144H169.245ZM181.99 141.318C181.541 143.24 180.161 144.186 178.286 144.186C175.899 144.186 174.457 142.574 174.457 139.892C174.457 137.102 175.899 135.568 178.208 135.568C180.533 135.568 181.928 137.164 181.928 139.784V140.125H175.852C175.93 141.969 176.798 143.008 178.286 143.008C179.448 143.008 180.27 142.45 180.564 141.318H181.99ZM178.208 136.746C176.891 136.746 176.1 137.567 175.899 139.102H180.502C180.316 137.583 179.495 136.746 178.208 136.746ZM186.83 144.186C184.645 144.186 183.327 142.574 183.327 139.892C183.327 137.102 184.676 135.568 186.83 135.568C187.807 135.568 188.597 135.971 189.14 136.73V132.84H190.504V144H189.14V142.961C188.597 143.736 187.807 144.186 186.83 144.186ZM186.923 143.008C188.365 143.008 189.14 141.907 189.14 139.892C189.14 137.893 188.334 136.746 186.923 136.746C185.497 136.746 184.722 137.862 184.722 139.892C184.722 141.876 185.528 143.008 186.923 143.008ZM197.159 147.41H195.795V135.769H197.159V136.792C197.701 136.017 198.492 135.568 199.468 135.568C201.654 135.568 202.971 137.18 202.971 139.861C202.971 142.651 201.623 144.186 199.468 144.186C198.492 144.186 197.701 143.783 197.159 143.023V147.41ZM199.375 136.746C197.934 136.746 197.159 137.846 197.159 139.861C197.159 141.861 197.965 143.008 199.375 143.008C200.801 143.008 201.576 141.892 201.576 139.861C201.576 137.877 200.77 136.746 199.375 136.746ZM204.725 144V135.769H206.089V137.04C206.647 136.033 207.531 135.568 208.523 135.568C208.848 135.568 209.143 135.645 209.298 135.769V136.994C209.065 136.916 208.771 136.885 208.445 136.885C206.802 136.885 206.089 137.908 206.089 139.396V144H204.725ZM213.704 144.186C211.348 144.186 209.938 142.574 209.938 139.892C209.938 137.102 211.395 135.568 213.704 135.568C216.06 135.568 217.471 137.211 217.471 139.892C217.471 142.667 216.014 144.186 213.704 144.186ZM213.704 143.008C215.239 143.008 216.076 141.907 216.076 139.892C216.076 137.893 215.223 136.746 213.704 136.746C212.17 136.746 211.333 137.862 211.333 139.892C211.333 141.876 212.185 143.008 213.704 143.008ZM219.226 144V135.769H220.59V136.823C221.117 135.986 221.939 135.568 222.946 135.568C224.078 135.568 224.899 136.064 225.287 137.025C225.829 136.064 226.728 135.568 227.829 135.568C229.503 135.568 230.51 136.591 230.51 138.497V144H229.146V138.776C229.146 137.536 228.65 136.73 227.534 136.73C226.294 136.73 225.55 137.955 225.55 139.133V144H224.186V138.776C224.186 137.536 223.69 136.73 222.574 136.73C221.334 136.73 220.59 137.955 220.59 139.133V144H219.226ZM234.062 147.41H232.698V135.769H234.062V136.792C234.605 136.017 235.395 135.568 236.372 135.568C238.557 135.568 239.875 137.18 239.875 139.861C239.875 142.651 238.526 144.186 236.372 144.186C235.395 144.186 234.605 143.783 234.062 143.023V147.41ZM236.279 136.746C234.837 136.746 234.062 137.846 234.062 139.861C234.062 141.861 234.868 143.008 236.279 143.008C237.705 143.008 238.48 141.892 238.48 139.861C238.48 137.877 237.674 136.746 236.279 136.746ZM241.815 141.628V136.854H240.668V135.769H241.815V133.878H243.179V135.769H244.992V136.854H243.179V141.628C243.179 142.62 243.473 143.085 244.682 143.085H244.961V144.062C244.806 144.14 244.465 144.186 244.078 144.186C242.543 144.186 241.815 143.364 241.815 141.628ZM247.298 137.877C247.298 140.171 252.646 138.28 252.646 141.675C252.646 143.209 251.282 144.186 249.344 144.186C247.391 144.186 246.027 143.256 245.717 141.318H247.081C247.267 142.465 248.12 143.101 249.391 143.101C250.631 143.101 251.282 142.543 251.282 141.768C251.282 139.52 245.996 141.38 245.996 137.97C245.996 136.715 246.973 135.568 248.988 135.568C250.77 135.568 252.088 136.405 252.351 138.451H250.987C250.786 137.164 250.073 136.684 248.91 136.684C247.887 136.684 247.298 137.195 247.298 137.877ZM260.719 144.186C258.363 144.186 256.952 142.574 256.952 139.892C256.952 137.102 258.409 135.568 260.719 135.568C263.075 135.568 264.485 137.211 264.485 139.892C264.485 142.667 263.028 144.186 260.719 144.186ZM260.719 143.008C262.253 143.008 263.09 141.907 263.09 139.892C263.09 137.893 262.238 136.746 260.719 136.746C259.184 136.746 258.347 137.862 258.347 139.892C258.347 141.876 259.2 143.008 260.719 143.008ZM266.241 144V135.769H267.605V137.04C268.163 136.033 269.046 135.568 270.038 135.568C270.364 135.568 270.658 135.645 270.813 135.769V136.994C270.581 136.916 270.286 136.885 269.961 136.885C268.318 136.885 267.605 137.908 267.605 139.396V144H266.241ZM53.7516 168V159.769H55.1156V161.04C55.6736 160.033 56.5571 159.568 57.5491 159.568C57.8746 159.568 58.1691 159.645 58.3241 159.769V160.994C58.0916 160.916 57.7971 160.885 57.4716 160.885C55.8286 160.885 55.1156 161.908 55.1156 163.396V168H53.7516ZM66.497 165.318C66.0475 167.24 64.668 168.186 62.7925 168.186C60.4055 168.186 58.964 166.574 58.964 163.892C58.964 161.102 60.4055 159.568 62.715 159.568C65.04 159.568 66.435 161.164 66.435 163.784V164.125H60.359C60.4365 165.969 61.3045 167.008 62.7925 167.008C63.955 167.008 64.7765 166.45 65.071 165.318H66.497ZM62.715 160.746C61.3975 160.746 60.607 161.567 60.4055 163.102H65.009C64.823 161.583 64.0015 160.746 62.715 160.746ZM75.2312 168L73.4487 161.846L73.2627 160.916L73.0767 161.846L71.3097 168H69.6202L67.1712 159.769H68.6437L70.3332 166.155L70.5347 166.992L70.7362 166.155L72.6117 159.769H74.0842L75.9597 166.155L76.1457 166.961L76.3162 166.155L78.0057 159.769H79.4162L76.9517 168H75.2312ZM83.9219 168.186C81.5659 168.186 80.1554 166.574 80.1554 163.892C80.1554 161.102 81.6124 159.568 83.9219 159.568C86.2779 159.568 87.6884 161.211 87.6884 163.892C87.6884 166.667 86.2314 168.186 83.9219 168.186ZM83.9219 167.008C85.4564 167.008 86.2934 165.907 86.2934 163.892C86.2934 161.893 85.4409 160.746 83.9219 160.746C82.3874 160.746 81.5504 161.862 81.5504 163.892C81.5504 165.876 82.4029 167.008 83.9219 167.008ZM89.444 168V159.769H90.808V161.04C91.366 160.033 92.2495 159.568 93.2415 159.568C93.567 159.568 93.8615 159.645 94.0165 159.769V160.994C93.784 160.916 93.4895 160.885 93.164 160.885C91.521 160.885 90.808 161.908 90.808 163.396V168H89.444ZM95.2262 168V156.84H96.5902V163.303L100.14 159.769H101.814L98.0627 163.443L102.031 168H100.295L96.5902 163.799V168H95.2262ZM103.2 168V166.326H104.874V168H103.2Z" fill="#005ABB"/>
<path fill-rule="evenodd" clip-rule="evenodd" d="M36.6666 202.062C32.2139 202.062 28.6041 198.453 28.6041 194C28.6041 189.547 32.2139 185.938 36.6666 185.938C41.1194 185.938 44.7291 189.547 44.7291 194C44.7291 198.453 41.1194 202.062 36.6666 202.062ZM40.0266 192.033C40.3904 191.835 40.5239 191.379 40.3251 191.015C40.1264 190.652 39.6704 190.518 39.3066 190.717C37.9356 191.467 36.8016 192.915 36.0389 194.083C35.7569 194.514 35.5161 194.923 35.3234 195.268C35.1441 195.094 34.9664 194.943 34.8066 194.817C34.5989 194.653 34.4114 194.523 34.2749 194.433L34.0386 194.286C33.6786 194.081 33.2204 194.206 33.0156 194.566C32.8101 194.925 32.9354 195.384 33.2946 195.589L33.4529 195.688C33.5601 195.758 33.7101 195.862 33.8766 195.994C34.2201 196.265 34.5899 196.621 34.8231 197.011C34.9664 197.249 35.2296 197.389 35.5079 197.374C35.7861 197.359 36.0329 197.191 36.1491 196.937L36.2226 196.783C36.2736 196.679 36.3494 196.528 36.4484 196.34C36.6464 195.966 36.9351 195.453 37.2944 194.902C38.0324 193.773 38.9984 192.596 40.0266 192.033Z" fill="#005ABB"/>
<path d="M53.8756 200V189.46H55.3636L60.2151 196.9L60.8196 197.938V189.46H62.2456V200H60.7576L55.9216 192.606L55.3016 191.521V200H53.8756ZM67.8921 200.186C65.5361 200.186 64.1256 198.574 64.1256 195.892C64.1256 193.102 65.5826 191.568 67.8921 191.568C70.2481 191.568 71.6586 193.211 71.6586 195.892C71.6586 198.667 70.2016 200.186 67.8921 200.186ZM67.8921 199.008C69.4266 199.008 70.2636 197.907 70.2636 195.892C70.2636 193.893 69.4111 192.746 67.8921 192.746C66.3576 192.746 65.5206 193.862 65.5206 195.892C65.5206 197.876 66.3731 199.008 67.8921 199.008ZM76.5173 190.669V188.84H77.8813V190.669H76.5173ZM76.5173 200V191.769H77.8813V200H76.5173ZM80.0441 200V191.769H81.4081V192.885C81.9661 192.017 82.8651 191.568 83.9501 191.568C85.7016 191.568 86.7401 192.591 86.7401 194.497V200H85.3761V194.776C85.3761 193.536 84.8181 192.73 83.5781 192.73C82.2141 192.73 81.4081 193.955 81.4081 195.133V200H80.0441ZM89.1002 197.628V192.854H87.9532V191.769H89.1002V189.878H90.4642V191.769H92.2777V192.854H90.4642V197.628C90.4642 198.62 90.7587 199.085 91.9677 199.085H92.2467V200.062C92.0917 200.14 91.7507 200.186 91.3632 200.186C89.8287 200.186 89.1002 199.364 89.1002 197.628ZM100.691 197.318C100.241 199.24 98.8618 200.186 96.9863 200.186C94.5993 200.186 93.1578 198.574 93.1578 195.892C93.1578 193.102 94.5993 191.568 96.9088 191.568C99.2338 191.568 100.629 193.164 100.629 195.784V196.125H94.5528C94.6303 197.969 95.4983 199.008 96.9863 199.008C98.1488 199.008 98.9703 198.45 99.2648 197.318H100.691ZM96.9088 192.746C95.5913 192.746 94.8008 193.567 94.5993 195.102H99.2028C99.0168 193.583 98.1953 192.746 96.9088 192.746ZM105.376 200.062C103.283 200.062 102.028 198.465 102.028 195.83C102.028 193.071 103.314 191.568 105.376 191.568C106.476 191.568 107.298 191.955 107.84 192.668V191.769H109.204V200.248C109.204 202.542 107.732 203.612 105.841 203.612C103.903 203.612 102.539 202.682 102.245 200.806H103.609C103.779 201.891 104.632 202.48 105.825 202.48C107.034 202.48 107.84 201.829 107.84 200.295V198.884C107.267 199.659 106.43 200.062 105.376 200.062ZM105.624 198.884C107.065 198.884 107.84 197.799 107.84 195.815C107.84 193.877 107.034 192.746 105.624 192.746C104.198 192.746 103.423 193.831 103.423 195.83C103.423 197.768 104.213 198.884 105.624 198.884ZM111.392 200V191.769H112.756V193.04C113.314 192.033 114.198 191.568 115.19 191.568C115.515 191.568 115.81 191.645 115.965 191.769V192.994C115.732 192.916 115.438 192.885 115.112 192.885C113.469 192.885 112.756 193.908 112.756 195.396V200H111.392ZM118.279 194.451H116.915C117.178 192.637 118.372 191.568 120.387 191.568C122.588 191.568 123.657 192.854 123.657 194.776V198.016C123.657 198.961 123.735 199.55 123.952 200H122.51C122.355 199.674 122.309 199.194 122.293 198.698C121.596 199.736 120.48 200.186 119.488 200.186C117.783 200.186 116.636 199.395 116.636 197.83C116.636 196.698 117.256 195.877 118.465 195.474C119.581 195.102 120.712 195.009 122.293 194.993V194.807C122.293 193.474 121.673 192.746 120.263 192.746C119.085 192.746 118.449 193.397 118.279 194.451ZM118.031 197.799C118.031 198.558 118.666 199.008 119.627 199.008C121.146 199.008 122.293 197.814 122.293 196.404V196.017C118.79 196.047 118.031 196.791 118.031 197.799ZM126.079 197.628V192.854H124.932V191.769H126.079V189.878H127.443V191.769H129.257V192.854H127.443V197.628C127.443 198.62 127.738 199.085 128.947 199.085H129.226V200.062C129.071 200.14 128.73 200.186 128.342 200.186C126.808 200.186 126.079 199.364 126.079 197.628ZM130.555 190.669V188.84H131.919V190.669H130.555ZM130.555 200V191.769H131.919V200H130.555ZM137.43 200.186C135.074 200.186 133.664 198.574 133.664 195.892C133.664 193.102 135.121 191.568 137.43 191.568C139.786 191.568 141.197 193.211 141.197 195.892C141.197 198.667 139.74 200.186 137.43 200.186ZM137.43 199.008C138.965 199.008 139.802 197.907 139.802 195.892C139.802 193.893 138.949 192.746 137.43 192.746C135.896 192.746 135.059 193.862 135.059 195.892C135.059 197.876 135.911 199.008 137.43 199.008ZM142.952 200V191.769H144.316V192.885C144.874 192.017 145.773 191.568 146.858 191.568C148.61 191.568 149.648 192.591 149.648 194.497V200H148.284V194.776C148.284 193.536 147.726 192.73 146.486 192.73C145.122 192.73 144.316 193.955 144.316 195.133V200H142.952ZM162.055 200L160.273 193.846L160.087 192.916L159.901 193.846L158.134 200H156.444L153.995 191.769H155.468L157.157 198.155L157.359 198.992L157.56 198.155L159.436 191.769H160.908L162.784 198.155L162.97 198.961L163.14 198.155L164.83 191.769H166.24L163.776 200H162.055ZM167.474 190.669V188.84H168.838V190.669H167.474ZM167.474 200V191.769H168.838V200H167.474ZM171.187 197.628V192.854H170.04V191.769H171.187V189.878H172.551V191.769H174.364V192.854H172.551V197.628C172.551 198.62 172.845 199.085 174.054 199.085H174.333V200.062C174.178 200.14 173.837 200.186 173.45 200.186C171.915 200.186 171.187 199.364 171.187 197.628ZM175.663 200V188.84H177.027V192.885C177.585 192.017 178.484 191.568 179.569 191.568C181.32 191.568 182.359 192.591 182.359 194.497V200H180.995V194.776C180.995 193.536 180.437 192.73 179.197 192.73C177.833 192.73 177.027 193.955 177.027 195.133V200H175.663ZM187.636 200V191.769H189V193.04C189.558 192.033 190.441 191.568 191.433 191.568C191.759 191.568 192.053 191.645 192.208 191.769V192.994C191.976 192.916 191.681 192.885 191.356 192.885C189.713 192.885 189 193.908 189 195.396V200H187.636ZM200.381 197.318C199.932 199.24 198.552 200.186 196.677 200.186C194.29 200.186 192.848 198.574 192.848 195.892C192.848 193.102 194.29 191.568 196.599 191.568C198.924 191.568 200.319 193.164 200.319 195.784V196.125H194.243C194.321 197.969 195.189 199.008 196.677 199.008C197.839 199.008 198.661 198.45 198.955 197.318H200.381ZM196.599 192.746C195.282 192.746 194.491 193.567 194.29 195.102H198.893C198.707 193.583 197.886 192.746 196.599 192.746ZM203.392 194.451H202.028C202.292 192.637 203.485 191.568 205.5 191.568C207.701 191.568 208.771 192.854 208.771 194.776V198.016C208.771 198.961 208.848 199.55 209.065 200H207.624C207.469 199.674 207.422 199.194 207.407 198.698C206.709 199.736 205.593 200.186 204.601 200.186C202.896 200.186 201.749 199.395 201.749 197.83C201.749 196.698 202.369 195.877 203.578 195.474C204.694 195.102 205.826 195.009 207.407 194.993V194.807C207.407 193.474 206.787 192.746 205.376 192.746C204.198 192.746 203.563 193.397 203.392 194.451ZM203.144 197.799C203.144 198.558 203.78 199.008 204.741 199.008C206.26 199.008 207.407 197.814 207.407 196.404V196.017C203.904 196.047 203.144 196.791 203.144 197.799ZM211.007 200V188.84H212.371V200H211.007ZM214.503 196.357V195.195H218.626V196.357H214.503ZM220.971 197.628V192.854H219.824V191.769H220.971V189.878H222.335V191.769H224.149V192.854H222.335V197.628C222.335 198.62 222.63 199.085 223.839 199.085H224.118V200.062C223.963 200.14 223.622 200.186 223.234 200.186C221.7 200.186 220.971 199.364 220.971 197.628ZM225.447 190.669V188.84H226.811V190.669H225.447ZM225.447 200V191.769H226.811V200H225.447ZM228.974 200V191.769H230.338V192.823C230.865 191.986 231.687 191.568 232.694 191.568C233.826 191.568 234.647 192.064 235.035 193.025C235.577 192.064 236.476 191.568 237.577 191.568C239.251 191.568 240.258 192.591 240.258 194.497V200H238.894V194.776C238.894 193.536 238.398 192.73 237.282 192.73C236.042 192.73 235.298 193.955 235.298 195.133V200H233.934V194.776C233.934 193.536 233.438 192.73 232.322 192.73C231.082 192.73 230.338 193.955 230.338 195.133V200H228.974ZM249.545 197.318C249.096 199.24 247.716 200.186 245.841 200.186C243.454 200.186 242.012 198.574 242.012 195.892C242.012 193.102 243.454 191.568 245.763 191.568C248.088 191.568 249.483 193.164 249.483 195.784V196.125H243.407C243.485 197.969 244.353 199.008 245.841 199.008C247.003 199.008 247.825 198.45 248.119 197.318H249.545ZM245.763 192.746C244.446 192.746 243.655 193.567 243.454 195.102H248.057C247.871 193.583 247.05 192.746 245.763 192.746ZM54.7591 217.877C54.7591 220.171 60.1066 218.28 60.1066 221.675C60.1066 223.209 58.7426 224.186 56.8051 224.186C54.8521 224.186 53.4881 223.256 53.1781 221.318H54.5421C54.7281 222.465 55.5806 223.101 56.8516 223.101C58.0916 223.101 58.7426 222.543 58.7426 221.768C58.7426 219.52 53.4571 221.38 53.4571 217.97C53.4571 216.715 54.4336 215.568 56.4486 215.568C58.2311 215.568 59.5486 216.405 59.8121 218.451H58.4481C58.2466 217.164 57.5336 216.684 56.3711 216.684C55.3481 216.684 54.7591 217.195 54.7591 217.877ZM66.9677 220.636V215.769H68.3317V224H66.9677V222.884C66.4097 223.752 65.5417 224.186 64.4722 224.186C62.7517 224.186 61.7287 223.178 61.7287 221.272V215.769H63.0927V220.993C63.0927 222.233 63.6352 223.023 64.8442 223.023C66.1772 223.023 66.9677 221.814 66.9677 220.636ZM73.4375 224.062C71.345 224.062 70.0895 222.465 70.0895 219.83C70.0895 217.071 71.376 215.568 73.4375 215.568C74.538 215.568 75.3595 215.955 75.902 216.668V215.769H77.266V224.248C77.266 226.542 75.7935 227.612 73.9025 227.612C71.965 227.612 70.601 226.682 70.3065 224.806H71.6705C71.841 225.891 72.6935 226.48 73.887 226.48C75.096 226.48 75.902 225.829 75.902 224.295V222.884C75.3285 223.659 74.4915 224.062 73.4375 224.062ZM73.6855 222.884C75.127 222.884 75.902 221.799 75.902 219.815C75.902 217.877 75.096 216.746 73.6855 216.746C72.2595 216.746 71.4845 217.831 71.4845 219.83C71.4845 221.768 72.275 222.884 73.6855 222.884ZM82.3833 224.062C80.2908 224.062 79.0353 222.465 79.0353 219.83C79.0353 217.071 80.3218 215.568 82.3833 215.568C83.4838 215.568 84.3053 215.955 84.8478 216.668V215.769H86.2118V224.248C86.2118 226.542 84.7393 227.612 82.8483 227.612C80.9108 227.612 79.5468 226.682 79.2523 224.806H80.6163C80.7868 225.891 81.6393 226.48 82.8328 226.48C84.0418 226.48 84.8478 225.829 84.8478 224.295V222.884C84.2743 223.659 83.4373 224.062 82.3833 224.062ZM82.6313 222.884C84.0728 222.884 84.8478 221.799 84.8478 219.815C84.8478 217.877 84.0418 216.746 82.6313 216.746C81.2053 216.746 80.4303 217.831 80.4303 219.83C80.4303 221.768 81.2208 222.884 82.6313 222.884ZM95.5141 221.318C95.0646 223.24 93.6851 224.186 91.8096 224.186C89.4226 224.186 87.9811 222.574 87.9811 219.892C87.9811 217.102 89.4226 215.568 91.7321 215.568C94.0571 215.568 95.4521 217.164 95.4521 219.784V220.125H89.3761C89.4536 221.969 90.3216 223.008 91.8096 223.008C92.9721 223.008 93.7936 222.45 94.0881 221.318H95.5141ZM91.7321 216.746C90.4146 216.746 89.6241 217.567 89.4226 219.102H94.0261C93.8401 217.583 93.0186 216.746 91.7321 216.746ZM98.2772 217.877C98.2772 220.171 103.625 218.28 103.625 221.675C103.625 223.209 102.261 224.186 100.323 224.186C98.3702 224.186 97.0062 223.256 96.6962 221.318H98.0602C98.2462 222.465 99.0987 223.101 100.37 223.101C101.61 223.101 102.261 222.543 102.261 221.768C102.261 219.52 96.9752 221.38 96.9752 217.97C96.9752 216.715 97.9517 215.568 99.9667 215.568C101.749 215.568 103.067 216.405 103.33 218.451H101.966C101.765 217.164 101.052 216.684 99.8892 216.684C98.8662 216.684 98.2772 217.195 98.2772 217.877ZM105.433 221.628V216.854H104.286V215.769H105.433V213.878H106.797V215.769H108.61V216.854H106.797V221.628C106.797 222.62 107.091 223.085 108.3 223.085H108.579V224.062C108.424 224.14 108.083 224.186 107.696 224.186C106.161 224.186 105.433 223.364 105.433 221.628ZM109.909 214.669V212.84H111.273V214.669H109.909ZM109.909 224V215.769H111.273V224H109.909ZM116.784 224.186C114.428 224.186 113.017 222.574 113.017 219.892C113.017 217.102 114.474 215.568 116.784 215.568C119.14 215.568 120.55 217.211 120.55 219.892C120.55 222.667 119.093 224.186 116.784 224.186ZM116.784 223.008C118.318 223.008 119.155 221.907 119.155 219.892C119.155 217.893 118.303 216.746 116.784 216.746C115.249 216.746 114.412 217.862 114.412 219.892C114.412 221.876 115.265 223.008 116.784 223.008ZM122.306 224V215.769H123.67V216.885C124.228 216.017 125.127 215.568 126.212 215.568C127.963 215.568 129.002 216.591 129.002 218.497V224H127.638V218.776C127.638 217.536 127.08 216.73 125.84 216.73C124.476 216.73 123.67 217.955 123.67 219.133V224H122.306ZM132.183 217.877C132.183 220.171 137.531 218.28 137.531 221.675C137.531 223.209 136.167 224.186 134.229 224.186C132.276 224.186 130.912 223.256 130.602 221.318H131.966C132.152 222.465 133.005 223.101 134.276 223.101C135.516 223.101 136.167 222.543 136.167 221.768C136.167 219.52 130.881 221.38 130.881 217.97C130.881 216.715 131.858 215.568 133.873 215.568C135.655 215.568 136.973 216.405 137.236 218.451H135.872C135.671 217.164 134.958 216.684 133.795 216.684C132.772 216.684 132.183 217.195 132.183 217.877Z" fill="#005ABB"/>
</g>
<rect x="1.66663" y="1" width="312.667" height="248" rx="17" stroke="#257BD7" stroke-opacity="0.2" stroke-width="2"/>
<defs>
<clipPath id="clip0_1_492">
<rect x="0.666626" width="314.667" height="250" rx="18" fill="white"/>
</clipPath>
</defs>
</svg>
