<svg width="960" height="223" viewBox="0 0 960 223" fill="none" xmlns="http://www.w3.org/2000/svg">
<rect y="0.589844" width="304" height="222" rx="24" fill="#196D60"/>
<path d="M107.757 45.5898V31.9898H112.857C115.797 31.9898 117.657 33.5098 117.657 35.9098C117.657 37.4498 116.957 38.5298 115.737 39.1298C116.537 39.5498 116.977 40.2898 117.277 41.5098L118.297 45.5898H115.937L115.117 41.9498C114.757 40.3898 114.157 40.0898 112.657 40.0898H109.997V45.5898H107.757ZM112.797 33.7898H109.997V38.2898H112.757C114.417 38.2898 115.357 37.4098 115.357 36.0298C115.357 34.6698 114.417 33.7898 112.797 33.7898ZM120.355 45.5898V31.9898H129.735V33.7898H122.595V37.6698H128.975V39.4498H122.595V43.7898H129.735V45.5898H120.355ZM132.034 45.5898V31.9898H136.694C140.954 31.9898 143.594 34.5498 143.594 38.8098C143.594 43.0698 140.954 45.5898 136.694 45.5898H132.034ZM136.694 43.7698C139.594 43.7698 141.314 41.9298 141.314 38.8098C141.314 35.6498 139.594 33.8098 136.694 33.8098H134.274V43.7698H136.694ZM156.998 40.4098C156.998 43.7898 154.878 45.8498 151.458 45.8498C148.038 45.8498 145.918 43.7898 145.918 40.4098V31.9898H148.158V40.4098C148.158 42.6898 149.398 44.0498 151.458 44.0498C153.538 44.0498 154.758 42.6698 154.758 40.4098V31.9898H156.998V40.4098ZM171.229 36.0298H168.889C168.429 34.4698 167.129 33.6098 165.509 33.6098C163.029 33.6098 161.549 35.5898 161.549 38.8098C161.549 42.0298 163.009 43.9698 165.509 43.9698C167.069 43.9698 168.329 43.1698 168.849 41.6298H171.209C170.469 44.3298 168.189 45.8498 165.509 45.8498C161.629 45.8498 159.269 43.1898 159.269 38.8098C159.269 34.4498 161.649 31.7298 165.569 31.7298C168.269 31.7298 170.589 33.2098 171.229 36.0298ZM173.46 45.5898V31.9898H182.84V33.7898H175.7V37.6698H182.08V39.4498H175.7V43.7898H182.84V45.5898H173.46ZM185.14 45.5898V31.9898H189.8C194.06 31.9898 196.7 34.5498 196.7 38.8098C196.7 43.0698 194.06 45.5898 189.8 45.5898H185.14ZM189.8 43.7698C192.7 43.7698 194.42 41.9298 194.42 38.8098C194.42 35.6498 192.7 33.8098 189.8 33.8098H187.38V43.7698H189.8ZM68.958 73.5898V59.9898H73.618C77.878 59.9898 80.518 62.5498 80.518 66.8098C80.518 71.0698 77.878 73.5898 73.618 73.5898H68.958ZM73.618 71.7698C76.518 71.7698 78.238 69.9298 78.238 66.8098C78.238 63.6498 76.518 61.8098 73.618 61.8098H71.198V71.7698H73.618ZM89.0415 73.8498C84.9815 73.8498 82.5015 71.1698 82.5015 66.8098C82.5015 62.4498 84.9815 59.7298 89.0415 59.7298C93.0615 59.7298 95.5615 62.4498 95.5615 66.8098C95.5615 71.1698 93.0615 73.8498 89.0415 73.8498ZM89.0415 71.9698C91.7015 71.9698 93.2815 70.0098 93.2815 66.8098C93.2815 63.5898 91.7015 61.6098 89.0415 61.6098C86.3815 61.6098 84.7815 63.5898 84.7815 66.8098C84.7815 70.0098 86.3815 71.9698 89.0415 71.9698ZM109.481 64.0298H107.141C106.681 62.4698 105.381 61.6098 103.761 61.6098C101.281 61.6098 99.801 63.5898 99.801 66.8098C99.801 70.0298 101.261 71.9698 103.761 71.9698C105.321 71.9698 106.581 71.1698 107.101 69.6298H109.461C108.721 72.3298 106.441 73.8498 103.761 73.8498C99.881 73.8498 97.521 71.1898 97.521 66.8098C97.521 62.4498 99.901 59.7298 103.821 59.7298C106.521 59.7298 108.841 61.2098 109.481 64.0298ZM122.652 68.4098C122.652 71.7898 120.532 73.8498 117.112 73.8498C113.692 73.8498 111.572 71.7898 111.572 68.4098V59.9898H113.812V68.4098C113.812 70.6898 115.052 72.0498 117.112 72.0498C119.192 72.0498 120.412 70.6698 120.412 68.4098V59.9898H122.652V68.4098ZM125.403 73.5898V59.9898H128.423L132.263 69.4098L132.723 70.8498L133.183 69.4098L136.983 59.9898H139.923V73.5898H137.683L137.743 62.5698L136.763 65.4898L133.463 73.5898H131.863L128.543 65.4698L127.583 62.6298L127.643 73.5898H125.403ZM142.845 73.5898V59.9898H152.225V61.7898H145.085V65.6698H151.465V67.4498H145.085V71.7898H152.225V73.5898H142.845ZM154.524 73.5898V59.9898H156.864L162.564 68.8698L163.424 70.4698L163.364 59.9898H165.604V73.5898H163.264L157.584 64.7498L156.704 63.0898L156.764 73.5898H154.524ZM172.188 73.5898V61.8698H167.648V59.9898H178.948V61.8698H174.428V73.5898H172.188ZM188.891 73.5898L187.731 70.5298H181.531L180.371 73.5898H178.131L183.371 59.9898H185.991L191.231 73.5898H188.891ZM184.231 63.4698L182.211 68.7698H187.051L185.031 63.4698L184.631 62.1498L184.231 63.4698ZM194.981 73.5898V61.8698H190.441V59.9898H201.741V61.8698H197.221V73.5898H194.981ZM203.782 73.5898V59.9898H206.022V73.5898H203.782ZM214.999 73.8498C210.939 73.8498 208.459 71.1698 208.459 66.8098C208.459 62.4498 210.939 59.7298 214.999 59.7298C219.019 59.7298 221.519 62.4498 221.519 66.8098C221.519 71.1698 219.019 73.8498 214.999 73.8498ZM214.999 71.9698C217.659 71.9698 219.239 70.0098 219.239 66.8098C219.239 63.5898 217.659 61.6098 214.999 61.6098C212.339 61.6098 210.739 63.5898 210.739 66.8098C210.739 70.0098 212.339 71.9698 214.999 71.9698ZM223.958 73.5898V59.9898H226.298L231.998 68.8698L232.858 70.4698L232.798 59.9898H235.038V73.5898H232.698L227.018 64.7498L226.138 63.0898L226.198 73.5898H223.958ZM114.114 101.59V87.9898H119.114C121.994 87.9898 123.814 89.4098 123.814 91.6898C123.814 92.9498 123.174 93.9298 121.994 94.4298C123.674 94.9298 124.574 96.1098 124.574 97.7098C124.574 100.17 122.794 101.59 119.794 101.59H114.114ZM119.054 89.7698H116.354V93.7698H119.014C120.614 93.7698 121.514 92.9698 121.514 91.8098C121.514 90.5498 120.594 89.7698 119.054 89.7698ZM119.514 95.5098H116.354V99.8098H119.734C121.314 99.8098 122.274 98.9498 122.274 97.6498C122.274 96.3498 121.254 95.5098 119.514 95.5098ZM137.75 96.4098C137.75 99.7898 135.63 101.85 132.21 101.85C128.79 101.85 126.67 99.7898 126.67 96.4098V87.9898H128.91V96.4098C128.91 98.6898 130.15 100.05 132.21 100.05C134.29 100.05 135.51 98.6698 135.51 96.4098V87.9898H137.75V96.4098ZM140.501 101.59V87.9898H145.601C148.541 87.9898 150.401 89.5098 150.401 91.9098C150.401 93.4498 149.701 94.5298 148.481 95.1298C149.281 95.5498 149.721 96.2898 150.021 97.5098L151.041 101.59H148.681L147.861 97.9498C147.501 96.3898 146.901 96.0898 145.401 96.0898H142.741V101.59H140.501ZM145.541 89.7898H142.741V94.2898H145.501C147.161 94.2898 148.101 93.4098 148.101 92.0298C148.101 90.6698 147.161 89.7898 145.541 89.7898ZM153.099 101.59V87.9898H157.759C162.019 87.9898 164.659 90.5498 164.659 94.8098C164.659 99.0698 162.019 101.59 157.759 101.59H153.099ZM157.759 99.7698C160.659 99.7698 162.379 97.9298 162.379 94.8098C162.379 91.6498 160.659 89.8098 157.759 89.8098H155.339V99.7698H157.759ZM167.122 101.59V87.9898H176.502V89.7898H169.362V93.6698H175.742V95.4498H169.362V99.7898H176.502V101.59H167.122ZM178.802 101.59V87.9898H181.142L186.842 96.8698L187.702 98.4698L187.642 87.9898H189.882V101.59H187.542L181.862 92.7498L180.982 91.0898L181.042 101.59H178.802Z" fill="#E6FFFB"/>
<path d="M79.9455 130.91H78.0255C77.5255 129.25 76.1055 128.33 74.3655 128.33C71.7055 128.33 70.1255 130.41 70.1255 133.81C70.1255 137.21 71.6855 139.25 74.3655 139.25C76.0455 139.25 77.4055 138.39 77.9855 136.75H79.9255C79.1655 139.33 76.9455 140.83 74.3455 140.83C70.5455 140.83 68.2455 138.17 68.2455 133.81C68.2455 129.47 70.5855 126.75 74.4255 126.75C77.0455 126.75 79.2855 128.19 79.9455 130.91ZM82.1988 140.59V126.19H83.9588V140.59H82.1988ZM86.7496 128.55V126.19H88.5096V128.55H86.7496ZM86.7496 140.59V129.97H88.5096V140.59H86.7496ZM91.3004 140.59V129.97H93.0604V131.41C93.7804 130.29 94.9404 129.71 96.3404 129.71C98.6004 129.71 99.9404 131.03 99.9404 133.49V140.59H98.1804V133.85C98.1804 132.25 97.4604 131.21 95.8604 131.21C94.1004 131.21 93.0604 132.79 93.0604 134.31V140.59H91.3004ZM102.746 128.55V126.19H104.506V128.55H102.746ZM102.746 140.59V129.97H104.506V140.59H102.746ZM116.076 133.63H114.316C114.036 132.01 112.956 131.23 111.556 131.23C109.596 131.23 108.556 132.67 108.556 135.29C108.556 137.87 109.656 139.33 111.616 139.33C113.036 139.33 114.056 138.57 114.396 137.05H116.156C115.676 139.69 113.896 140.83 111.576 140.83C108.556 140.83 106.756 138.73 106.756 135.29C106.756 131.69 108.596 129.71 111.556 129.71C113.896 129.71 115.736 131.03 116.076 133.63ZM118.332 128.55V126.19H120.092V128.55H118.332ZM118.332 140.59V129.97H120.092V140.59H118.332ZM124.502 133.43H122.742C123.082 131.09 124.622 129.71 127.222 129.71C130.062 129.71 131.442 131.37 131.442 133.85V138.03C131.442 139.25 131.542 140.01 131.822 140.59H129.962C129.762 140.17 129.702 139.55 129.682 138.91C128.782 140.25 127.342 140.83 126.062 140.83C123.862 140.83 122.382 139.81 122.382 137.79C122.382 136.33 123.182 135.27 124.742 134.75C126.182 134.27 127.642 134.15 129.682 134.13V133.89C129.682 132.17 128.882 131.23 127.062 131.23C125.542 131.23 124.722 132.07 124.502 133.43ZM124.182 137.75C124.182 138.73 125.002 139.31 126.242 139.31C128.202 139.31 129.682 137.77 129.682 135.95V135.45C125.162 135.49 124.182 136.45 124.182 137.75ZM134.328 140.59V129.97H136.088V131.41C136.808 130.29 137.968 129.71 139.368 129.71C141.628 129.71 142.968 131.03 142.968 133.49V140.59H141.208V133.85C141.208 132.25 140.488 131.21 138.888 131.21C137.128 131.21 136.088 132.79 136.088 134.31V140.59H134.328ZM147.073 132.69C147.073 135.65 153.973 133.21 153.973 137.59C153.973 139.57 152.213 140.83 149.713 140.83C147.193 140.83 145.433 139.63 145.033 137.13H146.793C147.033 138.61 148.133 139.43 149.773 139.43C151.373 139.43 152.213 138.71 152.213 137.71C152.213 134.81 145.393 137.21 145.393 132.81C145.393 131.19 146.653 129.71 149.253 129.71C151.553 129.71 153.253 130.79 153.593 133.43H151.833C151.573 131.77 150.653 131.15 149.153 131.15C147.833 131.15 147.073 131.81 147.073 132.69ZM160.07 140.59V129.97H161.83V131.61C162.55 130.31 163.69 129.71 164.97 129.71C165.39 129.71 165.77 129.81 165.97 129.97V131.55C165.67 131.45 165.29 131.41 164.87 131.41C162.75 131.41 161.83 132.73 161.83 134.65V140.59H160.07ZM176.516 137.13C175.936 139.61 174.156 140.83 171.736 140.83C168.656 140.83 166.796 138.75 166.796 135.29C166.796 131.69 168.656 129.71 171.636 129.71C174.636 129.71 176.436 131.77 176.436 135.15V135.59H168.596C168.696 137.97 169.816 139.31 171.736 139.31C173.236 139.31 174.296 138.59 174.676 137.13H176.516ZM171.636 131.23C169.936 131.23 168.916 132.29 168.656 134.27H174.596C174.356 132.31 173.296 131.23 171.636 131.23ZM180.561 144.99H178.801V129.97H180.561V131.29C181.261 130.29 182.281 129.71 183.541 129.71C186.361 129.71 188.061 131.79 188.061 135.25C188.061 138.85 186.321 140.83 183.541 140.83C182.281 140.83 181.261 140.31 180.561 139.33V144.99ZM183.421 131.23C181.561 131.23 180.561 132.65 180.561 135.25C180.561 137.83 181.601 139.31 183.421 139.31C185.261 139.31 186.261 137.87 186.261 135.25C186.261 132.69 185.221 131.23 183.421 131.23ZM194.644 140.83C191.604 140.83 189.784 138.75 189.784 135.29C189.784 131.69 191.664 129.71 194.644 129.71C197.684 129.71 199.504 131.83 199.504 135.29C199.504 138.87 197.624 140.83 194.644 140.83ZM194.644 139.31C196.624 139.31 197.704 137.89 197.704 135.29C197.704 132.71 196.604 131.23 194.644 131.23C192.664 131.23 191.584 132.67 191.584 135.29C191.584 137.85 192.684 139.31 194.644 139.31ZM201.769 140.59V129.97H203.529V131.61C204.249 130.31 205.389 129.71 206.669 129.71C207.089 129.71 207.469 129.81 207.669 129.97V131.55C207.369 131.45 206.989 131.41 206.569 131.41C204.449 131.41 203.529 132.73 203.529 134.65V140.59H201.769ZM209.47 137.53V131.37H207.99V129.97H209.47V127.53H211.23V129.97H213.57V131.37H211.23V137.53C211.23 138.81 211.61 139.41 213.17 139.41H213.53V140.67C213.33 140.77 212.89 140.83 212.39 140.83C210.41 140.83 209.47 139.77 209.47 137.53ZM224.426 137.13C223.846 139.61 222.066 140.83 219.646 140.83C216.566 140.83 214.706 138.75 214.706 135.29C214.706 131.69 216.566 129.71 219.546 129.71C222.546 129.71 224.346 131.77 224.346 135.15V135.59H216.506C216.606 137.97 217.726 139.31 219.646 139.31C221.146 139.31 222.206 138.59 222.586 137.13H224.426ZM219.546 131.23C217.846 131.23 216.826 132.29 216.566 134.27H222.506C222.266 132.31 221.206 131.23 219.546 131.23ZM230.671 140.83C227.851 140.83 226.151 138.75 226.151 135.29C226.151 131.69 227.891 129.71 230.671 129.71C231.931 129.71 232.951 130.23 233.651 131.21V126.19H235.411V140.59H233.651V139.25C232.951 140.25 231.931 140.83 230.671 140.83ZM230.791 139.31C232.651 139.31 233.651 137.89 233.651 135.29C233.651 132.71 232.611 131.23 230.791 131.23C228.951 131.23 227.951 132.67 227.951 135.29C227.951 137.85 228.991 139.31 230.791 139.31ZM70.823 158.69C70.823 161.65 77.723 159.21 77.723 163.59C77.723 165.57 75.963 166.83 73.463 166.83C70.943 166.83 69.183 165.63 68.783 163.13H70.543C70.783 164.61 71.883 165.43 73.523 165.43C75.123 165.43 75.963 164.71 75.963 163.71C75.963 160.81 69.143 163.21 69.143 158.81C69.143 157.19 70.403 155.71 73.003 155.71C75.303 155.71 77.003 156.79 77.343 159.43H75.583C75.323 157.77 74.403 157.15 72.903 157.15C71.583 157.15 70.823 157.81 70.823 158.69ZM81.596 170.99H79.836V155.97H81.596V157.29C82.296 156.29 83.316 155.71 84.576 155.71C87.396 155.71 89.096 157.79 89.096 161.25C89.096 164.85 87.356 166.83 84.576 166.83C83.316 166.83 82.296 166.31 81.596 165.33V170.99ZM84.456 157.23C82.596 157.23 81.596 158.65 81.596 161.25C81.596 163.83 82.636 165.31 84.456 165.31C86.296 165.31 87.296 163.87 87.296 161.25C87.296 158.69 86.256 157.23 84.456 157.23ZM100.539 163.13C99.959 165.61 98.179 166.83 95.759 166.83C92.679 166.83 90.819 164.75 90.819 161.29C90.819 157.69 92.679 155.71 95.659 155.71C98.659 155.71 100.459 157.77 100.459 161.15V161.59H92.619C92.719 163.97 93.839 165.31 95.759 165.31C97.259 165.31 98.319 164.59 98.699 163.13H100.539ZM95.659 157.23C93.959 157.23 92.939 158.29 92.679 160.27H98.619C98.379 158.31 97.319 157.23 95.659 157.23ZM102.804 166.59V155.97H104.564V157.41C105.284 156.29 106.444 155.71 107.844 155.71C110.104 155.71 111.444 157.03 111.444 159.49V166.59H109.684V159.85C109.684 158.25 108.964 157.21 107.364 157.21C105.604 157.21 104.564 158.79 104.564 160.31V166.59H102.804ZM118.23 166.83C115.41 166.83 113.71 164.75 113.71 161.29C113.71 157.69 115.45 155.71 118.23 155.71C119.49 155.71 120.51 156.23 121.21 157.21V152.19H122.97V166.59H121.21V165.25C120.51 166.25 119.49 166.83 118.23 166.83ZM118.35 165.31C120.21 165.31 121.21 163.89 121.21 161.29C121.21 158.71 120.17 157.23 118.35 157.23C116.51 157.23 115.51 158.67 115.51 161.29C115.51 163.85 116.55 165.31 118.35 165.31ZM125.773 154.55V152.19H127.533V154.55H125.773ZM125.773 166.59V155.97H127.533V166.59H125.773ZM130.324 166.59V155.97H132.084V157.41C132.804 156.29 133.964 155.71 135.364 155.71C137.624 155.71 138.964 157.03 138.964 159.49V166.59H137.204V159.85C137.204 158.25 136.484 157.21 134.884 157.21C133.124 157.21 132.084 158.79 132.084 160.31V166.59H130.324ZM145.549 166.67C142.849 166.67 141.229 164.61 141.229 161.21C141.229 157.65 142.889 155.71 145.549 155.71C146.969 155.71 148.029 156.21 148.729 157.13V155.97H150.489V166.91C150.489 169.87 148.589 171.25 146.149 171.25C143.649 171.25 141.889 170.05 141.509 167.63H143.269C143.489 169.03 144.589 169.79 146.129 169.79C147.689 169.79 148.729 168.95 148.729 166.97V165.15C147.989 166.15 146.909 166.67 145.549 166.67ZM145.869 165.15C147.729 165.15 148.729 163.75 148.729 161.19C148.729 158.69 147.689 157.23 145.869 157.23C144.029 157.23 143.029 158.63 143.029 161.21C143.029 163.71 144.049 165.15 145.869 165.15ZM157.316 166.59V152.19H159.076V166.59H157.316ZM171.047 163.13C170.467 165.61 168.687 166.83 166.267 166.83C163.187 166.83 161.327 164.75 161.327 161.29C161.327 157.69 163.187 155.71 166.167 155.71C169.167 155.71 170.967 157.77 170.967 161.15V161.59H163.127C163.227 163.97 164.347 165.31 166.267 165.31C167.767 165.31 168.827 164.59 169.207 163.13H171.047ZM166.167 157.23C164.467 157.23 163.447 158.29 163.187 160.27H169.127C168.887 158.31 167.827 157.23 166.167 157.23ZM174.612 158.69C174.612 161.65 181.512 159.21 181.512 163.59C181.512 165.57 179.752 166.83 177.252 166.83C174.732 166.83 172.972 165.63 172.572 163.13H174.332C174.572 164.61 175.672 165.43 177.312 165.43C178.912 165.43 179.752 164.71 179.752 163.71C179.752 160.81 172.932 163.21 172.932 158.81C172.932 157.19 174.192 155.71 176.792 155.71C179.092 155.71 180.792 156.79 181.132 159.43H179.372C179.112 157.77 178.192 157.15 176.692 157.15C175.372 157.15 174.612 157.81 174.612 158.69ZM184.905 158.69C184.905 161.65 191.805 159.21 191.805 163.59C191.805 165.57 190.045 166.83 187.545 166.83C185.025 166.83 183.265 165.63 182.865 163.13H184.625C184.865 164.61 185.965 165.43 187.605 165.43C189.205 165.43 190.045 164.71 190.045 163.71C190.045 160.81 183.225 163.21 183.225 158.81C183.225 157.19 184.485 155.71 187.085 155.71C189.385 155.71 191.085 156.79 191.425 159.43H189.665C189.405 157.77 188.485 157.15 186.985 157.15C185.665 157.15 184.905 157.81 184.905 158.69ZM198.142 163.53V157.37H196.662V155.97H198.142V153.53H199.902V155.97H202.242V157.37H199.902V163.53C199.902 164.81 200.282 165.41 201.842 165.41H202.202V166.67C202.002 166.77 201.562 166.83 201.062 166.83C199.082 166.83 198.142 165.77 198.142 163.53ZM203.918 154.55V152.19H205.678V154.55H203.918ZM203.918 166.59V155.97H205.678V166.59H203.918ZM208.468 166.59V155.97H210.228V157.33C210.908 156.25 211.968 155.71 213.268 155.71C214.728 155.71 215.788 156.35 216.288 157.59C216.988 156.35 218.148 155.71 219.568 155.71C221.728 155.71 223.028 157.03 223.028 159.49V166.59H221.268V159.85C221.268 158.25 220.628 157.21 219.188 157.21C217.588 157.21 216.628 158.79 216.628 160.31V166.59H214.868V159.85C214.868 158.25 214.228 157.21 212.788 157.21C211.188 157.21 210.228 158.79 210.228 160.31V166.59H208.468ZM235.012 163.13C234.432 165.61 232.652 166.83 230.232 166.83C227.152 166.83 225.292 164.75 225.292 161.29C225.292 157.69 227.152 155.71 230.132 155.71C233.132 155.71 234.932 157.77 234.932 161.15V161.59H227.092C227.192 163.97 228.312 165.31 230.232 165.31C231.732 165.31 232.792 164.59 233.172 163.13H235.012ZM230.132 157.23C228.432 157.23 227.412 158.29 227.152 160.27H233.092C232.852 158.31 231.792 157.23 230.132 157.23ZM39.6195 183.37V181.97H41.0995V181.25C41.0995 179.01 42.0195 177.95 43.9795 177.95C44.4195 177.95 44.7795 178.03 44.9595 178.11V179.37H44.7795C43.2395 179.37 42.8595 179.97 42.8595 181.25V181.97H44.9595V183.37H42.8595V192.59H41.0995V183.37H39.6195ZM46.3595 180.55V178.19H48.1195V180.55H46.3595ZM46.3595 192.59V181.97H48.1195V192.59H46.3595ZM50.9195 192.59V181.97H52.6795V183.41C53.3995 182.29 54.5595 181.71 55.9595 181.71C58.2195 181.71 59.5595 183.03 59.5595 185.49V192.59H57.7995V185.85C57.7995 184.25 57.0795 183.21 55.4795 183.21C53.7195 183.21 52.6795 184.79 52.6795 186.31V192.59H50.9195ZM63.9848 185.43H62.2248C62.5648 183.09 64.1048 181.71 66.7048 181.71C69.5448 181.71 70.9248 183.37 70.9248 185.85V190.03C70.9248 191.25 71.0248 192.01 71.3048 192.59H69.4448C69.2448 192.17 69.1848 191.55 69.1648 190.91C68.2648 192.25 66.8248 192.83 65.5448 192.83C63.3448 192.83 61.8648 191.81 61.8648 189.79C61.8648 188.33 62.6648 187.27 64.2248 186.75C65.6648 186.27 67.1248 186.15 69.1648 186.13V185.89C69.1648 184.17 68.3648 183.23 66.5448 183.23C65.0248 183.23 64.2048 184.07 63.9848 185.43ZM63.6648 189.75C63.6648 190.73 64.4848 191.31 65.7248 191.31C67.6848 191.31 69.1648 189.77 69.1648 187.95V187.45C64.6448 187.49 63.6648 188.45 63.6648 189.75ZM73.8102 192.59V178.19H75.5702V192.59H73.8102ZM78.3609 180.55V178.19H80.1209V180.55H78.3609ZM78.3609 192.59V181.97H80.1209V192.59H78.3609ZM82.1117 192.59V191.21L88.4117 183.37H82.3517V181.97H90.5117V183.37L84.2117 191.21H90.8717V192.59H82.1117ZM92.8727 180.55V178.19H94.6327V180.55H92.8727ZM92.8727 192.59V181.97H94.6327V192.59H92.8727ZM97.4234 192.59V181.97H99.1834V183.41C99.9034 182.29 101.063 181.71 102.463 181.71C104.723 181.71 106.063 183.03 106.063 185.49V192.59H104.303V185.85C104.303 184.25 103.583 183.21 101.983 183.21C100.223 183.21 99.1834 184.79 99.1834 186.31V192.59H97.4234ZM112.649 192.67C109.949 192.67 108.329 190.61 108.329 187.21C108.329 183.65 109.989 181.71 112.649 181.71C114.069 181.71 115.129 182.21 115.829 183.13V181.97H117.589V192.91C117.589 195.87 115.689 197.25 113.249 197.25C110.749 197.25 108.989 196.05 108.609 193.63H110.369C110.589 195.03 111.689 195.79 113.229 195.79C114.789 195.79 115.829 194.95 115.829 192.97V191.15C115.089 192.15 114.009 192.67 112.649 192.67ZM112.969 191.15C114.829 191.15 115.829 189.75 115.829 187.19C115.829 184.69 114.789 183.23 112.969 183.23C111.129 183.23 110.129 184.63 110.129 187.21C110.129 189.71 111.149 191.15 112.969 191.15ZM124.416 192.59V181.97H126.176V183.41C126.896 182.29 128.056 181.71 129.456 181.71C131.716 181.71 133.056 183.03 133.056 185.49V192.59H131.296V185.85C131.296 184.25 130.576 183.21 128.976 183.21C127.216 183.21 126.176 184.79 126.176 186.31V192.59H124.416ZM140.181 192.83C137.141 192.83 135.321 190.75 135.321 187.29C135.321 183.69 137.201 181.71 140.181 181.71C143.221 181.71 145.041 183.83 145.041 187.29C145.041 190.87 143.161 192.83 140.181 192.83ZM140.181 191.31C142.161 191.31 143.241 189.89 143.241 187.29C143.241 184.71 142.141 183.23 140.181 183.23C138.201 183.23 137.121 184.67 137.121 187.29C137.121 189.85 138.221 191.31 140.181 191.31ZM147.546 189.53V183.37H146.066V181.97H147.546V179.53H149.306V181.97H151.646V183.37H149.306V189.53C149.306 190.81 149.686 191.41 151.246 191.41H151.606V192.67C151.406 192.77 150.966 192.83 150.466 192.83C148.486 192.83 147.546 191.77 147.546 189.53ZM162.502 189.13C161.922 191.61 160.142 192.83 157.722 192.83C154.642 192.83 152.782 190.75 152.782 187.29C152.782 183.69 154.642 181.71 157.622 181.71C160.622 181.71 162.422 183.77 162.422 187.15V187.59H154.582C154.682 189.97 155.802 191.31 157.722 191.31C159.222 191.31 160.282 190.59 160.662 189.13H162.502ZM157.622 183.23C155.922 183.23 154.902 184.29 154.642 186.27H160.582C160.342 184.31 159.282 183.23 157.622 183.23ZM166.067 184.69C166.067 187.65 172.967 185.21 172.967 189.59C172.967 191.57 171.207 192.83 168.707 192.83C166.187 192.83 164.427 191.63 164.027 189.13H165.787C166.027 190.61 167.127 191.43 168.767 191.43C170.367 191.43 171.207 190.71 171.207 189.71C171.207 186.81 164.387 189.21 164.387 184.81C164.387 183.19 165.647 181.71 168.247 181.71C170.547 181.71 172.247 182.79 172.587 185.43H170.827C170.567 183.77 169.647 183.15 168.147 183.15C166.827 183.15 166.067 183.81 166.067 184.69ZM180.844 196.99H179.084V181.97H180.844V183.29C181.544 182.29 182.564 181.71 183.824 181.71C186.644 181.71 188.344 183.79 188.344 187.25C188.344 190.85 186.604 192.83 183.824 192.83C182.564 192.83 181.544 192.31 180.844 191.33V196.99ZM183.704 183.23C181.844 183.23 180.844 184.65 180.844 187.25C180.844 189.83 181.884 191.31 183.704 191.31C185.544 191.31 186.544 189.87 186.544 187.25C186.544 184.69 185.504 183.23 183.704 183.23ZM194.927 192.83C191.887 192.83 190.067 190.75 190.067 187.29C190.067 183.69 191.947 181.71 194.927 181.71C197.967 181.71 199.787 183.83 199.787 187.29C199.787 190.87 197.907 192.83 194.927 192.83ZM194.927 191.31C196.907 191.31 197.987 189.89 197.987 187.29C197.987 184.71 196.887 183.23 194.927 183.23C192.947 183.23 191.867 184.67 191.867 187.29C191.867 189.85 192.967 191.31 194.927 191.31ZM203.352 184.69C203.352 187.65 210.252 185.21 210.252 189.59C210.252 191.57 208.492 192.83 205.992 192.83C203.472 192.83 201.712 191.63 201.312 189.13H203.072C203.312 190.61 204.412 191.43 206.052 191.43C207.652 191.43 208.492 190.71 208.492 189.71C208.492 186.81 201.672 189.21 201.672 184.81C201.672 183.19 202.932 181.71 205.532 181.71C207.832 181.71 209.532 182.79 209.872 185.43H208.112C207.852 183.77 206.932 183.15 205.432 183.15C204.112 183.15 203.352 183.81 203.352 184.69ZM212.585 189.53V183.37H211.105V181.97H212.585V179.53H214.345V181.97H216.685V183.37H214.345V189.53C214.345 190.81 214.725 191.41 216.285 191.41H216.645V192.67C216.445 192.77 216.005 192.83 215.505 192.83C213.525 192.83 212.585 191.77 212.585 189.53ZM217.93 187.89V186.39H223.25V187.89H217.93ZM228.306 192.59L224.346 181.97H226.246L229.186 190.21L229.446 191.13L229.706 190.21L232.646 181.97H234.426L230.466 192.59H228.306ZM235.92 180.55V178.19H237.68V180.55H235.92ZM235.92 192.59V181.97H237.68V192.59H235.92ZM241.77 184.69C241.77 187.65 248.67 185.21 248.67 189.59C248.67 191.57 246.91 192.83 244.41 192.83C241.89 192.83 240.13 191.63 239.73 189.13H241.49C241.73 190.61 242.83 191.43 244.47 191.43C246.07 191.43 246.91 190.71 246.91 189.71C246.91 186.81 240.09 189.21 240.09 184.81C240.09 183.19 241.35 181.71 243.95 181.71C246.25 181.71 247.95 182.79 248.29 185.43H246.53C246.27 183.77 245.35 183.15 243.85 183.15C242.53 183.15 241.77 183.81 241.77 184.69ZM250.763 180.55V178.19H252.523V180.55H250.763ZM250.763 192.59V181.97H252.523V192.59H250.763ZM255.554 189.53V183.37H254.074V181.97H255.554V179.53H257.314V181.97H259.654V183.37H257.314V189.53C257.314 190.81 257.694 191.41 259.254 191.41H259.614V192.67C259.414 192.77 258.974 192.83 258.474 192.83C256.494 192.83 255.554 191.77 255.554 189.53ZM261.13 192.59V190.43H263.29V192.59H261.13Z" fill="#E6FFFB"/>
<rect x="328" y="0.589844" width="304" height="222" rx="24" fill="#196D60"/>
<path d="M385.991 59.5898V45.9898H388.231V59.5898H385.991ZM391.148 59.5898V45.9898H393.488L399.188 54.8698L400.048 56.4698L399.988 45.9898H402.228V59.5898H399.888L394.208 50.7498L393.328 49.0898L393.388 59.5898H391.148ZM416.631 50.0298H414.291C413.831 48.4698 412.531 47.6098 410.911 47.6098C408.431 47.6098 406.951 49.5898 406.951 52.8098C406.951 56.0298 408.411 57.9698 410.911 57.9698C412.471 57.9698 413.731 57.1698 414.251 55.6298H416.611C415.871 58.3298 413.591 59.8498 410.911 59.8498C407.031 59.8498 404.671 57.1898 404.671 52.8098C404.671 48.4498 407.051 45.7298 410.971 45.7298C413.671 45.7298 415.991 47.2098 416.631 50.0298ZM418.862 59.5898V45.9898H423.962C426.902 45.9898 428.762 47.5098 428.762 49.9098C428.762 51.4498 428.062 52.5298 426.842 53.1298C427.642 53.5498 428.082 54.2898 428.382 55.5098L429.402 59.5898H427.042L426.222 55.9498C425.862 54.3898 425.262 54.0898 423.762 54.0898H421.102V59.5898H418.862ZM423.902 47.7898H421.102V52.2898H423.862C425.522 52.2898 426.462 51.4098 426.462 50.0298C426.462 48.6698 425.522 47.7898 423.902 47.7898ZM431.46 59.5898V45.9898H440.84V47.7898H433.7V51.6698H440.08V53.4498H433.7V57.7898H440.84V59.5898H431.46ZM452.76 59.5898L451.6 56.5298H445.4L444.24 59.5898H442L447.24 45.9898H449.86L455.1 59.5898H452.76ZM448.1 49.4698L446.08 54.7698H450.92L448.9 49.4698L448.5 48.1498L448.1 49.4698ZM458.456 49.3498C458.456 52.9298 466.696 50.1098 466.696 55.6698C466.696 58.3498 464.516 59.8498 461.536 59.8498C458.516 59.8498 456.436 58.4698 455.876 55.6298H458.216C458.596 57.1698 459.736 58.0098 461.556 58.0098C463.416 58.0098 464.396 57.1898 464.396 55.9698C464.396 52.1298 456.156 54.9898 456.156 49.5298C456.156 47.4898 457.876 45.7298 460.976 45.7298C463.656 45.7298 465.856 47.0098 466.336 49.9898H463.956C463.576 48.3098 462.516 47.5698 460.916 47.5698C459.356 47.5698 458.456 48.2698 458.456 49.3498ZM468.862 59.5898V45.9898H478.242V47.7898H471.102V51.6698H477.482V53.4498H471.102V57.7898H478.242V59.5898H468.862ZM480.542 59.5898V45.9898H485.202C489.462 45.9898 492.102 48.5498 492.102 52.8098C492.102 57.0698 489.462 59.5898 485.202 59.5898H480.542ZM485.202 57.7698C488.102 57.7698 489.822 55.9298 489.822 52.8098C489.822 49.6498 488.102 47.8098 485.202 47.8098H482.782V57.7698H485.202ZM498.491 59.5898V45.9898H503.331C506.511 45.9898 508.471 47.6498 508.471 50.3698C508.471 53.1498 506.471 54.7698 503.371 54.7698H500.731V59.5898H498.491ZM503.311 47.7898H500.731V52.9698H503.251C505.131 52.9698 506.171 51.9698 506.171 50.3898C506.171 48.8098 505.111 47.7898 503.311 47.7898ZM519.127 59.5898L517.967 56.5298H511.767L510.607 59.5898H508.367L513.607 45.9898H516.227L521.467 59.5898H519.127ZM514.467 49.4698L512.447 54.7698H517.287L515.267 49.4698L514.867 48.1498L514.467 49.4698ZM525.218 59.5898V47.8698H520.678V45.9898H531.978V47.8698H527.458V59.5898H525.218ZM534.019 59.5898V45.9898H536.259V59.5898H534.019ZM539.175 59.5898V45.9898H548.555V47.7898H541.415V51.6698H547.795V53.4498H541.415V57.7898H548.555V59.5898H539.175ZM550.855 59.5898V45.9898H553.195L558.895 54.8698L559.755 56.4698L559.695 45.9898H561.935V59.5898H559.595L553.915 50.7498L553.035 49.0898L553.095 59.5898H550.855ZM568.518 59.5898V47.8698H563.978V45.9898H575.278V47.8698H570.758V59.5898H568.518ZM448.511 87.5898V73.9898H457.891V75.7898H450.751V80.0698H457.131V81.8698H450.751V87.5898H448.511ZM465.821 87.8498C461.761 87.8498 459.281 85.1698 459.281 80.8098C459.281 76.4498 461.761 73.7298 465.821 73.7298C469.841 73.7298 472.341 76.4498 472.341 80.8098C472.341 85.1698 469.841 87.8498 465.821 87.8498ZM465.821 85.9698C468.481 85.9698 470.061 84.0098 470.061 80.8098C470.061 77.5898 468.481 75.6098 465.821 75.6098C463.161 75.6098 461.561 77.5898 461.561 80.8098C461.561 84.0098 463.161 85.9698 465.821 85.9698ZM486.26 78.0298H483.92C483.46 76.4698 482.16 75.6098 480.54 75.6098C478.06 75.6098 476.58 77.5898 476.58 80.8098C476.58 84.0298 478.04 85.9698 480.54 85.9698C482.1 85.9698 483.36 85.1698 483.88 83.6298H486.24C485.5 86.3298 483.22 87.8498 480.54 87.8498C476.66 87.8498 474.3 85.1898 474.3 80.8098C474.3 76.4498 476.68 73.7298 480.6 73.7298C483.3 73.7298 485.62 75.2098 486.26 78.0298ZM499.431 82.4098C499.431 85.7898 497.311 87.8498 493.891 87.8498C490.471 87.8498 488.351 85.7898 488.351 82.4098V73.9898H490.591V82.4098C490.591 84.6898 491.831 86.0498 493.891 86.0498C495.971 86.0498 497.191 84.6698 497.191 82.4098V73.9898H499.431V82.4098ZM504.003 77.3498C504.003 80.9298 512.243 78.1098 512.243 83.6698C512.243 86.3498 510.063 87.8498 507.083 87.8498C504.063 87.8498 501.983 86.4698 501.423 83.6298H503.763C504.143 85.1698 505.283 86.0098 507.103 86.0098C508.963 86.0098 509.943 85.1898 509.943 83.9698C509.943 80.1298 501.703 82.9898 501.703 77.5298C501.703 75.4898 503.423 73.7298 506.523 73.7298C509.203 73.7298 511.403 75.0098 511.883 77.9898H509.503C509.123 76.3098 508.063 75.5698 506.463 75.5698C504.903 75.5698 504.003 76.2698 504.003 77.3498Z" fill="#E6FFFB"/>
<path d="M375.968 126.59L374.688 123.33H368.168L366.888 126.59H365.068L370.408 112.99H372.528L377.888 126.59H375.968ZM371.028 115.97L368.728 121.85H374.128L371.828 115.97L371.428 114.77L371.028 115.97ZM379.681 126.59V115.97H381.441V117.33C382.121 116.25 383.181 115.71 384.481 115.71C385.941 115.71 387.001 116.35 387.501 117.59C388.201 116.35 389.361 115.71 390.781 115.71C392.941 115.71 394.241 117.03 394.241 119.49V126.59H392.481V119.85C392.481 118.25 391.841 117.21 390.401 117.21C388.801 117.21 387.841 118.79 387.841 120.31V126.59H386.081V119.85C386.081 118.25 385.441 117.21 384.001 117.21C382.401 117.21 381.441 118.79 381.441 120.31V126.59H379.681ZM398.805 126.59H397.045V112.19H398.805V117.29C399.505 116.29 400.525 115.71 401.785 115.71C404.605 115.71 406.305 117.79 406.305 121.25C406.305 124.85 404.565 126.83 401.785 126.83C400.525 126.83 399.505 126.31 398.805 125.33V126.59ZM401.665 117.23C399.805 117.23 398.805 118.65 398.805 121.25C398.805 123.83 399.845 125.31 401.665 125.31C403.505 125.31 404.505 123.87 404.505 121.25C404.505 118.69 403.465 117.23 401.665 117.23ZM408.568 114.55V112.19H410.328V114.55H408.568ZM408.568 126.59V115.97H410.328V126.59H408.568ZM422.299 123.13C421.719 125.61 419.939 126.83 417.519 126.83C414.439 126.83 412.579 124.75 412.579 121.29C412.579 117.69 414.439 115.71 417.419 115.71C420.419 115.71 422.219 117.77 422.219 121.15V121.59H414.379C414.479 123.97 415.599 125.31 417.519 125.31C419.019 125.31 420.079 124.59 420.459 123.13H422.299ZM417.419 117.23C415.719 117.23 414.699 118.29 414.439 120.27H420.379C420.139 118.31 419.079 117.23 417.419 117.23ZM424.564 126.59V115.97H426.324V117.41C427.044 116.29 428.204 115.71 429.604 115.71C431.864 115.71 433.204 117.03 433.204 119.49V126.59H431.444V119.85C431.444 118.25 430.724 117.21 429.124 117.21C427.364 117.21 426.324 118.79 426.324 120.31V126.59H424.564ZM436.249 123.53V117.37H434.769V115.97H436.249V113.53H438.009V115.97H440.349V117.37H438.009V123.53C438.009 124.81 438.389 125.41 439.949 125.41H440.309V126.67C440.109 126.77 439.669 126.83 439.169 126.83C437.189 126.83 436.249 125.77 436.249 123.53ZM446.029 126.59V112.19H447.789V126.59H446.029ZM450.58 114.55V112.19H452.34V114.55H450.58ZM450.58 126.59V115.97H452.34V126.59H450.58ZM456.43 118.69C456.43 121.65 463.33 119.21 463.33 123.59C463.33 125.57 461.57 126.83 459.07 126.83C456.55 126.83 454.79 125.63 454.39 123.13H456.15C456.39 124.61 457.49 125.43 459.13 125.43C460.73 125.43 461.57 124.71 461.57 123.71C461.57 120.81 454.75 123.21 454.75 118.81C454.75 117.19 456.01 115.71 458.61 115.71C460.91 115.71 462.61 116.79 462.95 119.43H461.19C460.93 117.77 460.01 117.15 458.51 117.15C457.19 117.15 456.43 117.81 456.43 118.69ZM465.663 123.53V117.37H464.183V115.97H465.663V113.53H467.423V115.97H469.763V117.37H467.423V123.53C467.423 124.81 467.803 125.41 469.363 125.41H469.723V126.67C469.523 126.77 469.083 126.83 468.583 126.83C466.603 126.83 465.663 125.77 465.663 123.53ZM480.619 123.13C480.039 125.61 478.259 126.83 475.839 126.83C472.759 126.83 470.899 124.75 470.899 121.29C470.899 117.69 472.759 115.71 475.739 115.71C478.739 115.71 480.539 117.77 480.539 121.15V121.59H472.699C472.799 123.97 473.919 125.31 475.839 125.31C477.339 125.31 478.399 124.59 478.779 123.13H480.619ZM475.739 117.23C474.039 117.23 473.019 118.29 472.759 120.27H478.699C478.459 118.31 477.399 117.23 475.739 117.23ZM482.884 126.59V115.97H484.644V117.41C485.364 116.29 486.524 115.71 487.924 115.71C490.184 115.71 491.524 117.03 491.524 119.49V126.59H489.764V119.85C489.764 118.25 489.044 117.21 487.444 117.21C485.684 117.21 484.644 118.79 484.644 120.31V126.59H482.884ZM494.33 114.55V112.19H496.09V114.55H494.33ZM494.33 126.59V115.97H496.09V126.59H494.33ZM498.88 126.59V115.97H500.64V117.41C501.36 116.29 502.52 115.71 503.92 115.71C506.18 115.71 507.52 117.03 507.52 119.49V126.59H505.76V119.85C505.76 118.25 505.04 117.21 503.44 117.21C501.68 117.21 500.64 118.79 500.64 120.31V126.59H498.88ZM514.106 126.67C511.406 126.67 509.786 124.61 509.786 121.21C509.786 117.65 511.446 115.71 514.106 115.71C515.526 115.71 516.586 116.21 517.286 117.13V115.97H519.046V126.91C519.046 129.87 517.146 131.25 514.706 131.25C512.206 131.25 510.446 130.05 510.066 127.63H511.826C512.046 129.03 513.146 129.79 514.686 129.79C516.246 129.79 517.286 128.95 517.286 126.97V125.15C516.546 126.15 515.466 126.67 514.106 126.67ZM514.426 125.15C516.286 125.15 517.286 123.75 517.286 121.19C517.286 118.69 516.246 117.23 514.426 117.23C512.586 117.23 511.586 118.63 511.586 121.21C511.586 123.71 512.606 125.15 514.426 125.15ZM527.493 119.43H525.733C526.073 117.09 527.613 115.71 530.213 115.71C533.053 115.71 534.433 117.37 534.433 119.85V124.03C534.433 125.25 534.533 126.01 534.813 126.59H532.953C532.753 126.17 532.693 125.55 532.673 124.91C531.773 126.25 530.333 126.83 529.053 126.83C526.853 126.83 525.373 125.81 525.373 123.79C525.373 122.33 526.173 121.27 527.733 120.75C529.173 120.27 530.633 120.15 532.673 120.13V119.89C532.673 118.17 531.873 117.23 530.053 117.23C528.533 117.23 527.713 118.07 527.493 119.43ZM527.173 123.75C527.173 124.73 527.993 125.31 529.233 125.31C531.193 125.31 532.673 123.77 532.673 121.95V121.45C528.153 121.49 527.173 122.45 527.173 123.75ZM537.318 126.59V112.19H539.078V126.59H537.318ZM541.869 126.59V112.19H543.629V126.59H541.869ZM550.74 126.83C547.7 126.83 545.88 124.75 545.88 121.29C545.88 117.69 547.76 115.71 550.74 115.71C553.78 115.71 555.6 117.83 555.6 121.29C555.6 124.87 553.72 126.83 550.74 126.83ZM550.74 125.31C552.72 125.31 553.8 123.89 553.8 121.29C553.8 118.71 552.7 117.23 550.74 117.23C548.76 117.23 547.68 118.67 547.68 121.29C547.68 123.85 548.78 125.31 550.74 125.31ZM566.87 126.59L564.57 118.65L564.33 117.45L564.09 118.65L561.81 126.59H559.63L556.47 115.97H558.37L560.55 124.21L560.81 125.29L561.07 124.21L563.49 115.97H565.39L567.81 124.21L568.05 125.25L568.27 124.21L570.45 115.97H572.27L569.09 126.59H566.87ZM582.943 123.13C582.363 125.61 580.583 126.83 578.163 126.83C575.083 126.83 573.223 124.75 573.223 121.29C573.223 117.69 575.083 115.71 578.063 115.71C581.063 115.71 582.863 117.77 582.863 121.15V121.59H575.023C575.123 123.97 576.243 125.31 578.163 125.31C579.663 125.31 580.723 124.59 581.103 123.13H582.943ZM578.063 117.23C576.363 117.23 575.343 118.29 575.083 120.27H581.023C580.783 118.31 579.723 117.23 578.063 117.23ZM589.189 126.83C586.369 126.83 584.669 124.75 584.669 121.29C584.669 117.69 586.409 115.71 589.189 115.71C590.449 115.71 591.469 116.23 592.169 117.21V112.19H593.929V126.59H592.169V125.25C591.469 126.25 590.449 126.83 589.189 126.83ZM589.309 125.31C591.169 125.31 592.169 123.89 592.169 121.29C592.169 118.71 591.129 117.23 589.309 117.23C587.469 117.23 586.469 118.67 586.469 121.29C586.469 123.85 587.509 125.31 589.309 125.31ZM369.987 156.99H368.227V141.97H369.987V143.29C370.687 142.29 371.707 141.71 372.967 141.71C375.787 141.71 377.487 143.79 377.487 147.25C377.487 150.85 375.747 152.83 372.967 152.83C371.707 152.83 370.687 152.31 369.987 151.33V156.99ZM372.847 143.23C370.987 143.23 369.987 144.65 369.987 147.25C369.987 149.83 371.027 151.31 372.847 151.31C374.687 151.31 375.687 149.87 375.687 147.25C375.687 144.69 374.647 143.23 372.847 143.23ZM379.75 152.59V141.97H381.51V143.61C382.23 142.31 383.37 141.71 384.65 141.71C385.07 141.71 385.45 141.81 385.65 141.97V143.55C385.35 143.45 384.97 143.41 384.55 143.41C382.43 143.41 381.51 144.73 381.51 146.65V152.59H379.75ZM391.335 152.83C388.295 152.83 386.475 150.75 386.475 147.29C386.475 143.69 388.355 141.71 391.335 141.71C394.375 141.71 396.195 143.83 396.195 147.29C396.195 150.87 394.315 152.83 391.335 152.83ZM391.335 151.31C393.315 151.31 394.395 149.89 394.395 147.29C394.395 144.71 393.295 143.23 391.335 143.23C389.355 143.23 388.275 144.67 388.275 147.29C388.275 149.85 389.375 151.31 391.335 151.31ZM400.925 152.59L396.965 141.97H398.865L401.805 150.21L402.065 151.13L402.325 150.21L405.265 141.97H407.045L403.085 152.59H400.925ZM408.539 140.55V138.19H410.299V140.55H408.539ZM408.539 152.59V141.97H410.299V152.59H408.539ZM417.069 152.83C414.249 152.83 412.549 150.75 412.549 147.29C412.549 143.69 414.289 141.71 417.069 141.71C418.329 141.71 419.349 142.23 420.049 143.21V138.19H421.809V152.59H420.049V151.25C419.349 152.25 418.329 152.83 417.069 152.83ZM417.189 151.31C419.049 151.31 420.049 149.89 420.049 147.29C420.049 144.71 419.009 143.23 417.189 143.23C415.349 143.23 414.349 144.67 414.349 147.29C414.349 149.85 415.389 151.31 417.189 151.31ZM433.793 149.13C433.213 151.61 431.433 152.83 429.013 152.83C425.933 152.83 424.073 150.75 424.073 147.29C424.073 143.69 425.933 141.71 428.913 141.71C431.913 141.71 433.713 143.77 433.713 147.15V147.59H425.873C425.973 149.97 427.093 151.31 429.013 151.31C430.513 151.31 431.573 150.59 431.953 149.13H433.793ZM428.913 143.23C427.213 143.23 426.193 144.29 425.933 146.27H431.873C431.633 144.31 430.573 143.23 428.913 143.23ZM436.058 152.59V141.97H437.818V143.61C438.538 142.31 439.678 141.71 440.958 141.71C441.378 141.71 441.758 141.81 441.958 141.97V143.55C441.658 143.45 441.278 143.41 440.858 143.41C438.738 143.41 437.818 144.73 437.818 146.65V152.59H436.058ZM444.819 144.69C444.819 147.65 451.719 145.21 451.719 149.59C451.719 151.57 449.959 152.83 447.459 152.83C444.939 152.83 443.179 151.63 442.779 149.13H444.539C444.779 150.61 445.879 151.43 447.519 151.43C449.119 151.43 449.959 150.71 449.959 149.71C449.959 146.81 443.139 149.21 443.139 144.81C443.139 143.19 444.399 141.71 446.999 141.71C449.299 141.71 450.999 142.79 451.339 145.43H449.579C449.319 143.77 448.399 143.15 446.899 143.15C445.579 143.15 444.819 143.81 444.819 144.69ZM458.056 149.53V143.37H456.576V141.97H458.056V139.53H459.816V141.97H462.156V143.37H459.816V149.53C459.816 150.81 460.196 151.41 461.756 151.41H462.116V152.67C461.916 152.77 461.476 152.83 460.976 152.83C458.996 152.83 458.056 151.77 458.056 149.53ZM468.152 152.83C465.112 152.83 463.292 150.75 463.292 147.29C463.292 143.69 465.172 141.71 468.152 141.71C471.192 141.71 473.012 143.83 473.012 147.29C473.012 150.87 471.132 152.83 468.152 152.83ZM468.152 151.31C470.132 151.31 471.212 149.89 471.212 147.29C471.212 144.71 470.112 143.23 468.152 143.23C466.172 143.23 465.092 144.67 465.092 147.29C465.092 149.85 466.192 151.31 468.152 151.31ZM479.281 152.59V141.97H481.041V143.33C481.721 142.25 482.781 141.71 484.081 141.71C485.541 141.71 486.601 142.35 487.101 143.59C487.801 142.35 488.961 141.71 490.381 141.71C492.541 141.71 493.841 143.03 493.841 145.49V152.59H492.081V145.85C492.081 144.25 491.441 143.21 490.001 143.21C488.401 143.21 487.441 144.79 487.441 146.31V152.59H485.681V145.85C485.681 144.25 485.041 143.21 483.601 143.21C482.001 143.21 481.041 144.79 481.041 146.31V152.59H479.281ZM498.264 145.43H496.504C496.844 143.09 498.384 141.71 500.984 141.71C503.824 141.71 505.204 143.37 505.204 145.85V150.03C505.204 151.25 505.304 152.01 505.584 152.59H503.724C503.524 152.17 503.464 151.55 503.444 150.91C502.544 152.25 501.104 152.83 499.824 152.83C497.624 152.83 496.144 151.81 496.144 149.79C496.144 148.33 496.944 147.27 498.504 146.75C499.944 146.27 501.404 146.15 503.444 146.13V145.89C503.444 144.17 502.644 143.23 500.824 143.23C499.304 143.23 498.484 144.07 498.264 145.43ZM497.944 149.75C497.944 150.73 498.764 151.31 500.004 151.31C501.964 151.31 503.444 149.77 503.444 147.95V147.45C498.924 147.49 497.944 148.45 497.944 149.75ZM508.089 140.55V138.19H509.849V140.55H508.089ZM508.089 152.59V141.97H509.849V152.59H508.089ZM512.64 152.59V141.97H514.4V143.41C515.12 142.29 516.28 141.71 517.68 141.71C519.94 141.71 521.28 143.03 521.28 145.49V152.59H519.52V145.85C519.52 144.25 518.8 143.21 517.2 143.21C515.44 143.21 514.4 144.79 514.4 146.31V152.59H512.64ZM524.326 149.53V143.37H522.846V141.97H524.326V139.53H526.086V141.97H528.426V143.37H526.086V149.53C526.086 150.81 526.466 151.41 528.026 151.41H528.386V152.67C528.186 152.77 527.746 152.83 527.246 152.83C525.266 152.83 524.326 151.77 524.326 149.53ZM531.721 145.43H529.961C530.301 143.09 531.841 141.71 534.441 141.71C537.281 141.71 538.661 143.37 538.661 145.85V150.03C538.661 151.25 538.761 152.01 539.041 152.59H537.181C536.981 152.17 536.921 151.55 536.901 150.91C536.001 152.25 534.561 152.83 533.281 152.83C531.081 152.83 529.601 151.81 529.601 149.79C529.601 148.33 530.401 147.27 531.961 146.75C533.401 146.27 534.861 146.15 536.901 146.13V145.89C536.901 144.17 536.101 143.23 534.281 143.23C532.761 143.23 531.941 144.07 531.721 145.43ZM531.401 149.75C531.401 150.73 532.221 151.31 533.461 151.31C535.421 151.31 536.901 149.77 536.901 147.95V147.45C532.381 147.49 531.401 148.45 531.401 149.75ZM541.546 140.55V138.19H543.306V140.55H541.546ZM541.546 152.59V141.97H543.306V152.59H541.546ZM546.097 152.59V141.97H547.857V143.41C548.577 142.29 549.737 141.71 551.137 141.71C553.397 141.71 554.737 143.03 554.737 145.49V152.59H552.977V145.85C552.977 144.25 552.257 143.21 550.657 143.21C548.897 143.21 547.857 144.79 547.857 146.31V152.59H546.097ZM570.726 149.13C570.146 151.61 568.366 152.83 565.946 152.83C562.866 152.83 561.006 150.75 561.006 147.29C561.006 143.69 562.866 141.71 565.846 141.71C568.846 141.71 570.646 143.77 570.646 147.15V147.59H562.806C562.906 149.97 564.026 151.31 565.946 151.31C567.446 151.31 568.506 150.59 568.886 149.13H570.726ZM565.846 143.23C564.146 143.23 563.126 144.29 562.866 146.27H568.806C568.566 144.31 567.506 143.23 565.846 143.23ZM573.179 157.23C572.779 157.23 572.359 157.13 572.139 157.07V155.71H572.679C573.979 155.71 574.339 155.45 575.379 153.07L575.739 152.25L571.399 141.97H573.299L576.179 148.99L576.659 150.41L577.139 148.99L579.939 141.97H581.739L576.779 153.99C575.719 156.55 575.019 157.23 573.179 157.23ZM592.328 149.13C591.748 151.61 589.968 152.83 587.548 152.83C584.468 152.83 582.608 150.75 582.608 147.29C582.608 143.69 584.468 141.71 587.448 141.71C590.448 141.71 592.248 143.77 592.248 147.15V147.59H584.408C584.508 149.97 585.628 151.31 587.548 151.31C589.048 151.31 590.108 150.59 590.488 149.13H592.328ZM587.448 143.23C585.748 143.23 584.728 144.29 584.468 146.27H590.408C590.168 144.31 589.108 143.23 587.448 143.23ZM399.116 171.63H397.356C397.076 170.01 395.996 169.23 394.596 169.23C392.636 169.23 391.596 170.67 391.596 173.29C391.596 175.87 392.696 177.33 394.656 177.33C396.076 177.33 397.096 176.57 397.436 175.05H399.196C398.716 177.69 396.936 178.83 394.616 178.83C391.596 178.83 389.796 176.73 389.796 173.29C389.796 169.69 391.636 167.71 394.596 167.71C396.936 167.71 398.776 169.03 399.116 171.63ZM405.691 178.83C402.651 178.83 400.831 176.75 400.831 173.29C400.831 169.69 402.711 167.71 405.691 167.71C408.731 167.71 410.551 169.83 410.551 173.29C410.551 176.87 408.671 178.83 405.691 178.83ZM405.691 177.31C407.671 177.31 408.751 175.89 408.751 173.29C408.751 170.71 407.651 169.23 405.691 169.23C403.711 169.23 402.631 170.67 402.631 173.29C402.631 175.85 403.731 177.31 405.691 177.31ZM412.816 178.59V167.97H414.576V169.41C415.296 168.29 416.456 167.71 417.856 167.71C420.116 167.71 421.456 169.03 421.456 171.49V178.59H419.696V171.85C419.696 170.25 418.976 169.21 417.376 169.21C415.616 169.21 414.576 170.79 414.576 172.31V178.59H412.816ZM424.501 175.53V169.37H423.021V167.97H424.501V165.53H426.261V167.97H428.601V169.37H426.261V175.53C426.261 176.81 426.641 177.41 428.201 177.41H428.561V178.67C428.361 178.77 427.921 178.83 427.421 178.83C425.441 178.83 424.501 177.77 424.501 175.53ZM431.897 171.43H430.137C430.477 169.09 432.017 167.71 434.617 167.71C437.457 167.71 438.837 169.37 438.837 171.85V176.03C438.837 177.25 438.937 178.01 439.217 178.59H437.357C437.157 178.17 437.097 177.55 437.077 176.91C436.177 178.25 434.737 178.83 433.457 178.83C431.257 178.83 429.777 177.81 429.777 175.79C429.777 174.33 430.577 173.27 432.137 172.75C433.577 172.27 435.037 172.15 437.077 172.13V171.89C437.077 170.17 436.277 169.23 434.457 169.23C432.937 169.23 432.117 170.07 431.897 171.43ZM431.577 175.75C431.577 176.73 432.397 177.31 433.637 177.31C435.597 177.31 437.077 175.77 437.077 173.95V173.45C432.557 173.49 431.577 174.45 431.577 175.75ZM450.502 171.63H448.742C448.462 170.01 447.382 169.23 445.982 169.23C444.022 169.23 442.982 170.67 442.982 173.29C442.982 175.87 444.082 177.33 446.042 177.33C447.462 177.33 448.482 176.57 448.822 175.05H450.582C450.102 177.69 448.322 178.83 446.002 178.83C442.982 178.83 441.182 176.73 441.182 173.29C441.182 169.69 443.022 167.71 445.982 167.71C448.322 167.71 450.162 169.03 450.502 171.63ZM452.997 175.53V169.37H451.517V167.97H452.997V165.53H454.757V167.97H457.097V169.37H454.757V175.53C454.757 176.81 455.137 177.41 456.697 177.41H457.057V178.67C456.857 178.77 456.417 178.83 455.917 178.83C453.937 178.83 452.997 177.77 452.997 175.53ZM464.397 171.43H462.637C462.977 169.09 464.517 167.71 467.117 167.71C469.957 167.71 471.337 169.37 471.337 171.85V176.03C471.337 177.25 471.437 178.01 471.717 178.59H469.857C469.657 178.17 469.597 177.55 469.577 176.91C468.677 178.25 467.237 178.83 465.957 178.83C463.757 178.83 462.277 177.81 462.277 175.79C462.277 174.33 463.077 173.27 464.637 172.75C466.077 172.27 467.537 172.15 469.577 172.13V171.89C469.577 170.17 468.777 169.23 466.957 169.23C465.437 169.23 464.617 170.07 464.397 171.43ZM464.077 175.75C464.077 176.73 464.897 177.31 466.137 177.31C468.097 177.31 469.577 175.77 469.577 173.95V173.45C465.057 173.49 464.077 174.45 464.077 175.75ZM474.222 178.59V167.97H475.982V169.41C476.702 168.29 477.862 167.71 479.262 167.71C481.522 167.71 482.862 169.03 482.862 171.49V178.59H481.102V171.85C481.102 170.25 480.382 169.21 478.782 169.21C477.022 169.21 475.982 170.79 475.982 172.31V178.59H474.222ZM489.648 178.83C486.828 178.83 485.128 176.75 485.128 173.29C485.128 169.69 486.868 167.71 489.648 167.71C490.908 167.71 491.928 168.23 492.628 169.21V164.19H494.388V178.59H492.628V177.25C491.928 178.25 490.908 178.83 489.648 178.83ZM489.768 177.31C491.628 177.31 492.628 175.89 492.628 173.29C492.628 170.71 491.588 169.23 489.768 169.23C487.928 169.23 486.928 170.67 486.928 173.29C486.928 175.85 487.968 177.31 489.768 177.31ZM501.195 178.59V167.97H502.955V169.61C503.675 168.31 504.815 167.71 506.095 167.71C506.515 167.71 506.895 167.81 507.095 167.97V169.55C506.795 169.45 506.415 169.41 505.995 169.41C503.875 169.41 502.955 170.73 502.955 172.65V178.59H501.195ZM510.081 171.43H508.321C508.661 169.09 510.201 167.71 512.801 167.71C515.641 167.71 517.021 169.37 517.021 171.85V176.03C517.021 177.25 517.121 178.01 517.401 178.59H515.541C515.341 178.17 515.281 177.55 515.261 176.91C514.361 178.25 512.921 178.83 511.641 178.83C509.441 178.83 507.961 177.81 507.961 175.79C507.961 174.33 508.761 173.27 510.321 172.75C511.761 172.27 513.221 172.15 515.261 172.13V171.89C515.261 170.17 514.461 169.23 512.641 169.23C511.121 169.23 510.301 170.07 510.081 171.43ZM509.761 175.75C509.761 176.73 510.581 177.31 511.821 177.31C513.781 177.31 515.261 175.77 515.261 173.95V173.45C510.741 173.49 509.761 174.45 509.761 175.75ZM521.686 182.99H519.926V167.97H521.686V169.29C522.386 168.29 523.406 167.71 524.666 167.71C527.486 167.71 529.186 169.79 529.186 173.25C529.186 176.85 527.446 178.83 524.666 178.83C523.406 178.83 522.386 178.31 521.686 177.33V182.99ZM524.546 169.23C522.686 169.23 521.686 170.65 521.686 173.25C521.686 175.83 522.726 177.31 524.546 177.31C526.386 177.31 527.386 175.87 527.386 173.25C527.386 170.69 526.346 169.23 524.546 169.23ZM533.229 182.99H531.469V167.97H533.229V169.29C533.929 168.29 534.949 167.71 536.209 167.71C539.029 167.71 540.729 169.79 540.729 173.25C540.729 176.85 538.989 178.83 536.209 178.83C534.949 178.83 533.929 178.31 533.229 177.33V182.99ZM536.089 169.23C534.229 169.23 533.229 170.65 533.229 173.25C533.229 175.83 534.269 177.31 536.089 177.31C537.929 177.31 538.929 175.87 538.929 173.25C538.929 170.69 537.889 169.23 536.089 169.23ZM547.312 178.83C544.272 178.83 542.452 176.75 542.452 173.29C542.452 169.69 544.332 167.71 547.312 167.71C550.352 167.71 552.172 169.83 552.172 173.29C552.172 176.87 550.292 178.83 547.312 178.83ZM547.312 177.31C549.292 177.31 550.372 175.89 550.372 173.29C550.372 170.71 549.272 169.23 547.312 169.23C545.332 169.23 544.252 170.67 544.252 173.29C544.252 175.85 545.352 177.31 547.312 177.31ZM554.437 178.59V167.97H556.197V169.61C556.917 168.31 558.057 167.71 559.337 167.71C559.757 167.71 560.137 167.81 560.337 167.97V169.55C560.037 169.45 559.657 169.41 559.237 169.41C557.117 169.41 556.197 170.73 556.197 172.65V178.59H554.437ZM562.138 175.53V169.37H560.658V167.97H562.138V165.53H563.898V167.97H566.238V169.37H563.898V175.53C563.898 176.81 564.278 177.41 565.838 177.41H566.198V178.67C565.998 178.77 565.558 178.83 565.058 178.83C563.078 178.83 562.138 177.77 562.138 175.53ZM567.714 178.59V176.43H569.874V178.59H567.714Z" fill="#E6FFFB"/>
<rect x="656" y="0.589844" width="304" height="222" rx="24" fill="#196D60"/>
<path d="M737.497 59.5898V45.9898H739.737V51.6898H746.337V45.9898H748.577V59.5898H746.337V53.5098H739.737V59.5898H737.497ZM751.501 59.5898V45.9898H753.741V59.5898H751.501ZM768.117 59.5898H766.497L766.317 57.6698C765.477 59.1498 764.017 59.8498 762.277 59.8498C758.557 59.8498 756.177 57.1898 756.177 52.8098C756.177 48.4498 758.557 45.7298 762.477 45.7298C765.177 45.7298 767.497 47.2098 768.137 50.0298H765.797C765.317 48.4698 764.037 47.6098 762.417 47.6098C759.937 47.6098 758.457 49.5898 758.457 52.8098C758.457 56.0298 759.957 57.9698 762.477 57.9698C764.337 57.9698 765.837 56.8498 765.977 54.2498H762.757V52.5098H768.117V59.5898ZM770.778 59.5898V45.9898H773.018V51.6898H779.618V45.9898H781.858V59.5898H779.618V53.5098H773.018V59.5898H770.778ZM800.188 50.0298H797.848C797.388 48.4698 796.088 47.6098 794.468 47.6098C791.988 47.6098 790.508 49.5898 790.508 52.8098C790.508 56.0298 791.968 57.9698 794.468 57.9698C796.028 57.9698 797.288 57.1698 797.808 55.6298H800.168C799.428 58.3298 797.148 59.8498 794.468 59.8498C790.588 59.8498 788.228 57.1898 788.228 52.8098C788.228 48.4498 790.608 45.7298 794.528 45.7298C797.228 45.7298 799.548 47.2098 800.188 50.0298ZM808.479 59.8498C804.419 59.8498 801.939 57.1698 801.939 52.8098C801.939 48.4498 804.419 45.7298 808.479 45.7298C812.499 45.7298 814.999 48.4498 814.999 52.8098C814.999 57.1698 812.499 59.8498 808.479 59.8498ZM808.479 57.9698C811.139 57.9698 812.719 56.0098 812.719 52.8098C812.719 49.5898 811.139 47.6098 808.479 47.6098C805.819 47.6098 804.219 49.5898 804.219 52.8098C804.219 56.0098 805.819 57.9698 808.479 57.9698ZM817.439 59.5898V45.9898H819.779L825.479 54.8698L826.339 56.4698L826.279 45.9898H828.519V59.5898H826.179L820.499 50.7498L819.619 49.0898L819.679 59.5898H817.439ZM833.262 49.3498C833.262 52.9298 841.502 50.1098 841.502 55.6698C841.502 58.3498 839.322 59.8498 836.342 59.8498C833.322 59.8498 831.242 58.4698 830.682 55.6298H833.022C833.402 57.1698 834.542 58.0098 836.362 58.0098C838.222 58.0098 839.202 57.1898 839.202 55.9698C839.202 52.1298 830.962 54.9898 830.962 49.5298C830.962 47.4898 832.682 45.7298 835.782 45.7298C838.462 45.7298 840.662 47.0098 841.142 49.9898H838.762C838.382 48.3098 837.322 47.5698 835.722 47.5698C834.162 47.5698 833.262 48.2698 833.262 49.3498ZM843.669 59.5898V45.9898H853.049V47.7898H845.909V51.6698H852.289V53.4498H845.909V57.7898H853.049V59.5898H843.669ZM855.349 59.5898V45.9898H857.689L863.389 54.8698L864.249 56.4698L864.189 45.9898H866.429V59.5898H864.089L858.409 50.7498L857.529 49.0898L857.589 59.5898H855.349ZM873.013 59.5898V47.8698H868.473V45.9898H879.773V47.8698H875.253V59.5898H873.013ZM757.151 78.0298H754.811C754.351 76.4698 753.051 75.6098 751.431 75.6098C748.951 75.6098 747.471 77.5898 747.471 80.8098C747.471 84.0298 748.931 85.9698 751.431 85.9698C752.991 85.9698 754.251 85.1698 754.771 83.6298H757.131C756.391 86.3298 754.111 87.8498 751.431 87.8498C747.551 87.8498 745.191 85.1898 745.191 80.8098C745.191 76.4498 747.571 73.7298 751.491 73.7298C754.191 73.7298 756.511 75.2098 757.151 78.0298ZM765.442 87.8498C761.382 87.8498 758.902 85.1698 758.902 80.8098C758.902 76.4498 761.382 73.7298 765.442 73.7298C769.462 73.7298 771.962 76.4498 771.962 80.8098C771.962 85.1698 769.462 87.8498 765.442 87.8498ZM765.442 85.9698C768.102 85.9698 769.682 84.0098 769.682 80.8098C769.682 77.5898 768.102 75.6098 765.442 75.6098C762.782 75.6098 761.182 77.5898 761.182 80.8098C761.182 84.0098 762.782 85.9698 765.442 85.9698ZM774.401 87.5898V73.9898H777.421L781.261 83.4098L781.721 84.8498L782.181 83.4098L785.981 73.9898H788.921V87.5898H786.681L786.741 76.5698L785.761 79.4898L782.461 87.5898H780.861L777.541 79.4698L776.581 76.6298L776.641 87.5898H774.401ZM791.843 87.5898V73.9898H796.683C799.863 73.9898 801.823 75.6498 801.823 78.3698C801.823 81.1498 799.823 82.7698 796.723 82.7698H794.083V87.5898H791.843ZM796.663 75.7898H794.083V80.9698H796.603C798.483 80.9698 799.523 79.9698 799.523 78.3898C799.523 76.8098 798.463 75.7898 796.663 75.7898ZM804.05 87.5898V73.9898H806.29V85.7698H812.87V87.5898H804.05ZM814.929 87.5898V73.9898H817.169V87.5898H814.929ZM829.705 87.5898L828.545 84.5298H822.345L821.185 87.5898H818.945L824.185 73.9898H826.805L832.045 87.5898H829.705ZM825.045 77.4698L823.025 82.7698H827.865L825.845 77.4698L825.445 76.1498L825.045 77.4698ZM833.855 87.5898V73.9898H836.195L841.895 82.8698L842.755 84.4698L842.695 73.9898H844.935V87.5898H842.595L836.915 78.7498L836.035 77.0898L836.095 87.5898H833.855ZM859.338 78.0298H856.998C856.538 76.4698 855.238 75.6098 853.618 75.6098C851.138 75.6098 849.658 77.5898 849.658 80.8098C849.658 84.0298 851.118 85.9698 853.618 85.9698C855.178 85.9698 856.438 85.1698 856.958 83.6298H859.318C858.578 86.3298 856.298 87.8498 853.618 87.8498C849.738 87.8498 847.378 85.1898 847.378 80.8098C847.378 76.4498 849.758 73.7298 853.678 73.7298C856.378 73.7298 858.698 75.2098 859.338 78.0298ZM861.569 87.5898V73.9898H870.949V75.7898H863.809V79.6698H870.189V81.4498H863.809V85.7898H870.949V87.5898H861.569Z" fill="#E6FFFB"/>
<path d="M728.944 116.91H727.024C726.524 115.25 725.104 114.33 723.364 114.33C720.704 114.33 719.124 116.41 719.124 119.81C719.124 123.21 720.684 125.25 723.364 125.25C725.044 125.25 726.404 124.39 726.984 122.75H728.924C728.164 125.33 725.944 126.83 723.344 126.83C719.544 126.83 717.244 124.17 717.244 119.81C717.244 115.47 719.584 112.75 723.424 112.75C726.044 112.75 728.284 114.19 728.944 116.91ZM735.517 126.83C732.477 126.83 730.657 124.75 730.657 121.29C730.657 117.69 732.537 115.71 735.517 115.71C738.557 115.71 740.377 117.83 740.377 121.29C740.377 124.87 738.497 126.83 735.517 126.83ZM735.517 125.31C737.497 125.31 738.577 123.89 738.577 121.29C738.577 118.71 737.477 117.23 735.517 117.23C733.537 117.23 732.457 118.67 732.457 121.29C732.457 123.85 733.557 125.31 735.517 125.31ZM742.642 126.59V115.97H744.402V117.41C745.122 116.29 746.282 115.71 747.682 115.71C749.942 115.71 751.282 117.03 751.282 119.49V126.59H749.522V119.85C749.522 118.25 748.802 117.21 747.202 117.21C745.442 117.21 744.402 118.79 744.402 120.31V126.59H742.642ZM755.388 118.69C755.388 121.65 762.288 119.21 762.288 123.59C762.288 125.57 760.528 126.83 758.028 126.83C755.508 126.83 753.748 125.63 753.347 123.13H755.108C755.348 124.61 756.448 125.43 758.088 125.43C759.688 125.43 760.528 124.71 760.528 123.71C760.528 120.81 753.708 123.21 753.708 118.81C753.708 117.19 754.968 115.71 757.568 115.71C759.868 115.71 761.568 116.79 761.908 119.43H760.148C759.888 117.77 758.968 117.15 757.468 117.15C756.148 117.15 755.388 117.81 755.388 118.69ZM773.56 123.13C772.98 125.61 771.2 126.83 768.78 126.83C765.7 126.83 763.84 124.75 763.84 121.29C763.84 117.69 765.7 115.71 768.68 115.71C771.68 115.71 773.48 117.77 773.48 121.15V121.59H765.64C765.74 123.97 766.86 125.31 768.78 125.31C770.28 125.31 771.34 124.59 771.72 123.13H773.56ZM768.68 117.23C766.98 117.23 765.96 118.29 765.7 120.27H771.64C771.4 118.31 770.34 117.23 768.68 117.23ZM775.826 126.59V115.97H777.586V117.41C778.306 116.29 779.466 115.71 780.866 115.71C783.126 115.71 784.466 117.03 784.466 119.49V126.59H782.706V119.85C782.706 118.25 781.986 117.21 780.386 117.21C778.626 117.21 777.586 118.79 777.586 120.31V126.59H775.826ZM787.511 123.53V117.37H786.031V115.97H787.511V113.53H789.271V115.97H791.611V117.37H789.271V123.53C789.271 124.81 789.651 125.41 791.211 125.41H791.571V126.67C791.371 126.77 790.931 126.83 790.431 126.83C788.451 126.83 787.511 125.77 787.511 123.53ZM808.151 121.41C808.151 124.77 806.071 126.83 802.731 126.83C799.371 126.83 797.291 124.77 797.291 121.41V112.99H799.151V121.41C799.151 123.87 800.491 125.35 802.731 125.35C804.971 125.35 806.311 123.85 806.311 121.41V112.99H808.151V121.41ZM819.863 126.59L816.463 121.87L815.903 121.01L815.343 121.87L811.963 126.59H809.983L814.943 119.57L810.343 112.99H812.483L815.483 117.11L816.103 118.09L816.723 117.11L819.663 112.99H821.643L817.063 119.53L822.003 126.59H819.863ZM837.018 123.13C836.438 125.61 834.658 126.83 832.238 126.83C829.158 126.83 827.298 124.75 827.298 121.29C827.298 117.69 829.158 115.71 832.138 115.71C835.138 115.71 836.938 117.77 836.938 121.15V121.59H829.098C829.198 123.97 830.318 125.31 832.238 125.31C833.738 125.31 834.798 124.59 835.178 123.13H837.018ZM832.138 117.23C830.438 117.23 829.418 118.29 829.158 120.27H835.098C834.858 118.31 833.798 117.23 832.138 117.23ZM839.283 126.59V115.97H841.043V117.41C841.763 116.29 842.923 115.71 844.323 115.71C846.583 115.71 847.923 117.03 847.923 119.49V126.59H846.163V119.85C846.163 118.25 845.443 117.21 843.843 117.21C842.083 117.21 841.043 118.79 841.043 120.31V126.59H839.283ZM852.348 119.43H850.588C850.928 117.09 852.468 115.71 855.068 115.71C857.908 115.71 859.288 117.37 859.288 119.85V124.03C859.288 125.25 859.388 126.01 859.668 126.59H857.808C857.608 126.17 857.548 125.55 857.528 124.91C856.628 126.25 855.188 126.83 853.908 126.83C851.708 126.83 850.228 125.81 850.228 123.79C850.228 122.33 851.028 121.27 852.588 120.75C854.028 120.27 855.488 120.15 857.528 120.13V119.89C857.528 118.17 856.728 117.23 854.908 117.23C853.388 117.23 852.568 118.07 852.348 119.43ZM852.028 123.75C852.028 124.73 852.848 125.31 854.088 125.31C856.048 125.31 857.528 123.77 857.528 121.95V121.45C853.008 121.49 852.028 122.45 852.028 123.75ZM863.933 126.59H862.173V112.19H863.933V117.29C864.633 116.29 865.653 115.71 866.913 115.71C869.733 115.71 871.433 117.79 871.433 121.25C871.433 124.85 869.693 126.83 866.913 126.83C865.653 126.83 864.633 126.31 863.933 125.33V126.59ZM866.793 117.23C864.933 117.23 863.933 118.65 863.933 121.25C863.933 123.83 864.973 125.31 866.793 125.31C868.633 125.31 869.633 123.87 869.633 121.25C869.633 118.69 868.593 117.23 866.793 117.23ZM873.697 126.59V112.19H875.457V126.59H873.697ZM887.428 123.13C886.848 125.61 885.068 126.83 882.648 126.83C879.568 126.83 877.708 124.75 877.708 121.29C877.708 117.69 879.568 115.71 882.548 115.71C885.548 115.71 887.348 117.77 887.348 121.15V121.59H879.508C879.608 123.97 880.728 125.31 882.648 125.31C884.148 125.31 885.208 124.59 885.588 123.13H887.428ZM882.548 117.23C880.848 117.23 879.828 118.29 879.568 120.27H885.508C885.268 118.31 884.208 117.23 882.548 117.23ZM893.673 126.83C890.853 126.83 889.153 124.75 889.153 121.29C889.153 117.69 890.893 115.71 893.673 115.71C894.933 115.71 895.953 116.23 896.653 117.21V112.19H898.413V126.59H896.653V125.25C895.953 126.25 894.933 126.83 893.673 126.83ZM893.793 125.31C895.653 125.31 896.653 123.89 896.653 121.29C896.653 118.71 895.613 117.23 893.793 117.23C891.953 117.23 890.953 118.67 890.953 121.29C890.953 123.85 891.993 125.31 893.793 125.31ZM702.614 144.69C702.614 147.65 709.514 145.21 709.514 149.59C709.514 151.57 707.754 152.83 705.254 152.83C702.734 152.83 700.974 151.63 700.574 149.13H702.334C702.574 150.61 703.674 151.43 705.314 151.43C706.914 151.43 707.754 150.71 707.754 149.71C707.754 146.81 700.934 149.21 700.934 144.81C700.934 143.19 702.194 141.71 704.794 141.71C707.094 141.71 708.794 142.79 709.134 145.43H707.374C707.114 143.77 706.194 143.15 704.694 143.15C703.374 143.15 702.614 143.81 702.614 144.69ZM720.787 149.13C720.207 151.61 718.427 152.83 716.007 152.83C712.927 152.83 711.067 150.75 711.067 147.29C711.067 143.69 712.927 141.71 715.907 141.71C718.907 141.71 720.707 143.77 720.707 147.15V147.59H712.867C712.967 149.97 714.087 151.31 716.007 151.31C717.507 151.31 718.567 150.59 718.947 149.13H720.787ZM715.907 143.23C714.207 143.23 713.187 144.29 712.927 146.27H718.867C718.627 144.31 717.567 143.23 715.907 143.23ZM724.672 145.43H722.912C723.252 143.09 724.792 141.71 727.392 141.71C730.232 141.71 731.612 143.37 731.612 145.85V150.03C731.612 151.25 731.712 152.01 731.992 152.59H730.132C729.932 152.17 729.872 151.55 729.852 150.91C728.952 152.25 727.512 152.83 726.232 152.83C724.032 152.83 722.552 151.81 722.552 149.79C722.552 148.33 723.352 147.27 724.912 146.75C726.352 146.27 727.812 146.15 729.852 146.13V145.89C729.852 144.17 729.052 143.23 727.232 143.23C725.712 143.23 724.892 144.07 724.672 145.43ZM724.352 149.75C724.352 150.73 725.172 151.31 726.412 151.31C728.372 151.31 729.852 149.77 729.852 147.95V147.45C725.332 147.49 724.352 148.45 724.352 149.75ZM734.498 152.59V141.97H736.258V143.33C736.938 142.25 737.998 141.71 739.298 141.71C740.758 141.71 741.818 142.35 742.318 143.59C743.018 142.35 744.178 141.71 745.598 141.71C747.758 141.71 749.058 143.03 749.058 145.49V152.59H747.298V145.85C747.298 144.25 746.658 143.21 745.218 143.21C743.618 143.21 742.658 144.79 742.658 146.31V152.59H740.898V145.85C740.898 144.25 740.258 143.21 738.818 143.21C737.218 143.21 736.258 144.79 736.258 146.31V152.59H734.498ZM751.861 152.59V138.19H753.621V152.59H751.861ZM765.592 149.13C765.012 151.61 763.232 152.83 760.812 152.83C757.732 152.83 755.872 150.75 755.872 147.29C755.872 143.69 757.732 141.71 760.712 141.71C763.712 141.71 765.512 143.77 765.512 147.15V147.59H757.672C757.772 149.97 758.892 151.31 760.812 151.31C762.312 151.31 763.372 150.59 763.752 149.13H765.592ZM760.712 143.23C759.012 143.23 757.992 144.29 757.732 146.27H763.672C763.432 144.31 762.372 143.23 760.712 143.23ZM769.157 144.69C769.157 147.65 776.057 145.21 776.057 149.59C776.057 151.57 774.297 152.83 771.797 152.83C769.277 152.83 767.517 151.63 767.117 149.13H768.877C769.117 150.61 770.217 151.43 771.857 151.43C773.457 151.43 774.297 150.71 774.297 149.71C774.297 146.81 767.477 149.21 767.477 144.81C767.477 143.19 768.737 141.71 771.337 141.71C773.637 141.71 775.337 142.79 775.677 145.43H773.917C773.657 143.77 772.737 143.15 771.237 143.15C769.917 143.15 769.157 143.81 769.157 144.69ZM779.45 144.69C779.45 147.65 786.35 145.21 786.35 149.59C786.35 151.57 784.59 152.83 782.09 152.83C779.57 152.83 777.81 151.63 777.41 149.13H779.17C779.41 150.61 780.51 151.43 782.15 151.43C783.75 151.43 784.59 150.71 784.59 149.71C784.59 146.81 777.77 149.21 777.77 144.81C777.77 143.19 779.03 141.71 781.63 141.71C783.93 141.71 785.63 142.79 785.97 145.43H784.21C783.95 143.77 783.03 143.15 781.53 143.15C780.21 143.15 779.45 143.81 779.45 144.69ZM794.067 145.43H792.307C792.647 143.09 794.187 141.71 796.787 141.71C799.627 141.71 801.007 143.37 801.007 145.85V150.03C801.007 151.25 801.107 152.01 801.387 152.59H799.527C799.327 152.17 799.267 151.55 799.247 150.91C798.347 152.25 796.907 152.83 795.627 152.83C793.427 152.83 791.947 151.81 791.947 149.79C791.947 148.33 792.747 147.27 794.307 146.75C795.747 146.27 797.207 146.15 799.247 146.13V145.89C799.247 144.17 798.447 143.23 796.627 143.23C795.107 143.23 794.287 144.07 794.067 145.43ZM793.747 149.75C793.747 150.73 794.567 151.31 795.807 151.31C797.767 151.31 799.247 149.77 799.247 147.95V147.45C794.727 147.49 793.747 148.45 793.747 149.75ZM803.892 152.59V141.97H805.652V143.41C806.372 142.29 807.532 141.71 808.932 141.71C811.192 141.71 812.532 143.03 812.532 145.49V152.59H810.772V145.85C810.772 144.25 810.052 143.21 808.452 143.21C806.692 143.21 805.652 144.79 805.652 146.31V152.59H803.892ZM819.318 152.83C816.498 152.83 814.798 150.75 814.798 147.29C814.798 143.69 816.538 141.71 819.318 141.71C820.578 141.71 821.598 142.23 822.298 143.21V138.19H824.058V152.59H822.298V151.25C821.598 152.25 820.578 152.83 819.318 152.83ZM819.438 151.31C821.298 151.31 822.298 149.89 822.298 147.29C822.298 144.71 821.258 143.23 819.438 143.23C817.598 143.23 816.598 144.67 816.598 147.29C816.598 149.85 817.638 151.31 819.438 151.31ZM839.645 145.63H837.885C837.605 144.01 836.525 143.23 835.125 143.23C833.165 143.23 832.125 144.67 832.125 147.29C832.125 149.87 833.225 151.33 835.185 151.33C836.605 151.33 837.625 150.57 837.965 149.05H839.725C839.245 151.69 837.465 152.83 835.145 152.83C832.125 152.83 830.325 150.73 830.325 147.29C830.325 143.69 832.165 141.71 835.125 141.71C837.465 141.71 839.305 143.03 839.645 145.63ZM841.9 152.59V138.19H843.66V152.59H841.9ZM855.631 149.13C855.051 151.61 853.271 152.83 850.851 152.83C847.771 152.83 845.911 150.75 845.911 147.29C845.911 143.69 847.771 141.71 850.751 141.71C853.751 141.71 855.551 143.77 855.551 147.15V147.59H847.711C847.811 149.97 848.931 151.31 850.851 151.31C852.351 151.31 853.411 150.59 853.791 149.13H855.631ZM850.751 143.23C849.051 143.23 848.031 144.29 847.771 146.27H853.711C853.471 144.31 852.411 143.23 850.751 143.23ZM859.516 145.43H857.756C858.096 143.09 859.636 141.71 862.236 141.71C865.076 141.71 866.456 143.37 866.456 145.85V150.03C866.456 151.25 866.556 152.01 866.836 152.59H864.976C864.776 152.17 864.716 151.55 864.696 150.91C863.796 152.25 862.356 152.83 861.076 152.83C858.876 152.83 857.396 151.81 857.396 149.79C857.396 148.33 858.196 147.27 859.756 146.75C861.196 146.27 862.656 146.15 864.696 146.13V145.89C864.696 144.17 863.896 143.23 862.076 143.23C860.556 143.23 859.736 144.07 859.516 145.43ZM859.196 149.75C859.196 150.73 860.016 151.31 861.256 151.31C863.216 151.31 864.696 149.77 864.696 147.95V147.45C860.176 147.49 859.196 148.45 859.196 149.75ZM869.341 152.59V141.97H871.101V143.61C871.821 142.31 872.961 141.71 874.241 141.71C874.661 141.71 875.041 141.81 875.241 141.97V143.55C874.941 143.45 874.561 143.41 874.141 143.41C872.021 143.41 871.101 144.73 871.101 146.65V152.59H869.341ZM885.126 152.83C882.086 152.83 880.266 150.75 880.266 147.29C880.266 143.69 882.146 141.71 885.126 141.71C888.166 141.71 889.986 143.83 889.986 147.29C889.986 150.87 888.106 152.83 885.126 152.83ZM885.126 151.31C887.106 151.31 888.186 149.89 888.186 147.29C888.186 144.71 887.086 143.23 885.126 143.23C883.146 143.23 882.066 144.67 882.066 147.29C882.066 149.85 883.166 151.31 885.126 151.31ZM894.032 156.99H892.272V141.97H894.032V143.29C894.732 142.29 895.752 141.71 897.012 141.71C899.832 141.71 901.532 143.79 901.532 147.25C901.532 150.85 899.792 152.83 897.012 152.83C895.752 152.83 894.732 152.31 894.032 151.33V156.99ZM896.892 143.23C895.032 143.23 894.032 144.65 894.032 147.25C894.032 149.83 895.072 151.31 896.892 151.31C898.732 151.31 899.732 149.87 899.732 147.25C899.732 144.69 898.692 143.23 896.892 143.23ZM904.035 149.53V143.37H902.555V141.97H904.035V139.53H905.795V141.97H908.135V143.37H905.795V149.53C905.795 150.81 906.175 151.41 907.735 151.41H908.095V152.67C907.895 152.77 907.455 152.83 906.955 152.83C904.975 152.83 904.035 151.77 904.035 149.53ZM909.38 147.89V146.39H914.7V147.89H909.38ZM725.504 166.55V164.19H727.264V166.55H725.504ZM725.504 178.59V167.97H727.264V178.59H725.504ZM730.054 178.59V167.97H731.814V169.41C732.534 168.29 733.694 167.71 735.094 167.71C737.354 167.71 738.694 169.03 738.694 171.49V178.59H736.934V171.85C736.934 170.25 736.214 169.21 734.614 169.21C732.854 169.21 731.814 170.79 731.814 172.31V178.59H730.054ZM742.8 170.69C742.8 173.65 749.7 171.21 749.7 175.59C749.7 177.57 747.94 178.83 745.44 178.83C742.92 178.83 741.16 177.63 740.76 175.13H742.52C742.76 176.61 743.86 177.43 745.5 177.43C747.1 177.43 747.94 176.71 747.94 175.71C747.94 172.81 741.12 175.21 741.12 170.81C741.12 169.19 742.38 167.71 744.98 167.71C747.28 167.71 748.98 168.79 749.32 171.43H747.56C747.3 169.77 746.38 169.15 744.88 169.15C743.56 169.15 742.8 169.81 742.8 170.69ZM764.996 178.59L762.696 170.65L762.456 169.45L762.216 170.65L759.936 178.59H757.756L754.596 167.97H756.496L758.676 176.21L758.936 177.29L759.196 176.21L761.616 167.97H763.516L765.936 176.21L766.176 177.25L766.396 176.21L768.576 167.97H770.396L767.216 178.59H764.996ZM771.988 166.55V164.19H773.748V166.55H771.988ZM771.988 178.59V167.97H773.748V178.59H771.988ZM776.779 175.53V169.37H775.299V167.97H776.779V165.53H778.539V167.97H780.879V169.37H778.539V175.53C778.539 176.81 778.919 177.41 780.479 177.41H780.839V178.67C780.639 178.77 780.199 178.83 779.699 178.83C777.719 178.83 776.779 177.77 776.779 175.53ZM782.554 178.59V164.19H784.314V169.41C785.034 168.29 786.194 167.71 787.594 167.71C789.854 167.71 791.194 169.03 791.194 171.49V178.59H789.434V171.85C789.434 170.25 788.714 169.21 787.114 169.21C785.354 169.21 784.314 170.79 784.314 172.31V178.59H782.554ZM798.32 178.83C795.28 178.83 793.46 176.75 793.46 173.29C793.46 169.69 795.34 167.71 798.32 167.71C801.36 167.71 803.18 169.83 803.18 173.29C803.18 176.87 801.3 178.83 798.32 178.83ZM798.32 177.31C800.3 177.31 801.38 175.89 801.38 173.29C801.38 170.71 800.28 169.23 798.32 169.23C796.34 169.23 795.26 170.67 795.26 173.29C795.26 175.85 796.36 177.31 798.32 177.31ZM812.205 174.25V167.97H813.965V178.59H812.205V177.15C811.485 178.27 810.365 178.83 808.985 178.83C806.765 178.83 805.445 177.53 805.445 175.07V167.97H807.205V174.71C807.205 176.31 807.905 177.33 809.465 177.33C811.185 177.33 812.205 175.77 812.205 174.25ZM817.013 175.53V169.37H815.533V167.97H817.013V165.53H818.773V167.97H821.113V169.37H818.773V175.53C818.773 176.81 819.153 177.41 820.713 177.41H821.073V178.67C820.873 178.77 820.433 178.83 819.933 178.83C817.953 178.83 817.013 177.77 817.013 175.53ZM825.493 169.37V167.97H826.973V167.25C826.973 165.01 827.893 163.95 829.853 163.95C830.293 163.95 830.653 164.03 830.833 164.11V165.37H830.653C829.113 165.37 828.733 165.97 828.733 167.25V167.97H830.833V169.37H828.733V178.59H826.973V169.37H825.493ZM832.242 178.59V167.97H834.002V169.61C834.722 168.31 835.862 167.71 837.142 167.71C837.562 167.71 837.942 167.81 838.142 167.97V169.55C837.842 169.45 837.462 169.41 837.042 169.41C834.922 169.41 834.002 170.73 834.002 172.65V178.59H832.242ZM839.703 166.55V164.19H841.463V166.55H839.703ZM839.703 178.59V167.97H841.463V178.59H839.703ZM853.034 171.63H851.274C850.994 170.01 849.914 169.23 848.514 169.23C846.554 169.23 845.514 170.67 845.514 173.29C845.514 175.87 846.614 177.33 848.574 177.33C849.994 177.33 851.014 176.57 851.354 175.05H853.114C852.634 177.69 850.854 178.83 848.534 178.83C845.514 178.83 843.714 176.73 843.714 173.29C843.714 169.69 845.554 167.71 848.514 167.71C850.854 167.71 852.694 169.03 853.034 171.63ZM855.529 175.53V169.37H854.049V167.97H855.529V165.53H857.289V167.97H859.629V169.37H857.289V175.53C857.289 176.81 857.669 177.41 859.229 177.41H859.589V178.67C859.389 178.77 858.949 178.83 858.449 178.83C856.469 178.83 855.529 177.77 855.529 175.53ZM861.304 166.55V164.19H863.064V166.55H861.304ZM861.304 178.59V167.97H863.064V178.59H861.304ZM870.175 178.83C867.135 178.83 865.315 176.75 865.315 173.29C865.315 169.69 867.195 167.71 870.175 167.71C873.215 167.71 875.035 169.83 875.035 173.29C875.035 176.87 873.155 178.83 870.175 178.83ZM870.175 177.31C872.155 177.31 873.235 175.89 873.235 173.29C873.235 170.71 872.135 169.23 870.175 169.23C868.195 169.23 867.115 170.67 867.115 173.29C867.115 175.85 868.215 177.31 870.175 177.31ZM877.3 178.59V167.97H879.06V169.41C879.78 168.29 880.94 167.71 882.34 167.71C884.6 167.71 885.94 169.03 885.94 171.49V178.59H884.18V171.85C884.18 170.25 883.46 169.21 881.86 169.21C880.1 169.21 879.06 170.79 879.06 172.31V178.59H877.3ZM888.546 178.59V176.43H890.706V178.59H888.546Z" fill="#E6FFFB"/>
</svg>
